%TF.GenerationSoftware,KiCad,Pcbnew,8.0.8*%
%TF.CreationDate,2025-01-18T23:44:27+01:00*%
%TF.ProjectId,myAntWeightBot,6d79416e-7457-4656-9967-6874426f742e,rev?*%
%TF.SameCoordinates,Original*%
%TF.FileFunction,Legend,Top*%
%TF.FilePolarity,Positive*%
%FSLAX46Y46*%
G04 Gerber Fmt 4.6, Leading zero omitted, Abs format (unit mm)*
G04 Created by KiCad (PCBNEW 8.0.8) date 2025-01-18 23:44:27*
%MOMM*%
%LPD*%
G01*
G04 APERTURE LIST*
%ADD10C,0.300000*%
%ADD11C,0.375000*%
%ADD12C,0.150000*%
%ADD13C,0.250000*%
%ADD14C,0.120000*%
%ADD15C,0.200000*%
%ADD16C,0.100000*%
G04 APERTURE END LIST*
D10*
X129439542Y-66342855D02*
X130239542Y-66342855D01*
X129553828Y-66342855D02*
X129496685Y-66285712D01*
X129496685Y-66285712D02*
X129439542Y-66171427D01*
X129439542Y-66171427D02*
X129439542Y-65999998D01*
X129439542Y-65999998D02*
X129496685Y-65885712D01*
X129496685Y-65885712D02*
X129610971Y-65828570D01*
X129610971Y-65828570D02*
X130239542Y-65828570D01*
X130239542Y-64742856D02*
X129610971Y-64742856D01*
X129610971Y-64742856D02*
X129496685Y-64799998D01*
X129496685Y-64799998D02*
X129439542Y-64914284D01*
X129439542Y-64914284D02*
X129439542Y-65142856D01*
X129439542Y-65142856D02*
X129496685Y-65257141D01*
X130182400Y-64742856D02*
X130239542Y-64857141D01*
X130239542Y-64857141D02*
X130239542Y-65142856D01*
X130239542Y-65142856D02*
X130182400Y-65257141D01*
X130182400Y-65257141D02*
X130068114Y-65314284D01*
X130068114Y-65314284D02*
X129953828Y-65314284D01*
X129953828Y-65314284D02*
X129839542Y-65257141D01*
X129839542Y-65257141D02*
X129782400Y-65142856D01*
X129782400Y-65142856D02*
X129782400Y-64857141D01*
X129782400Y-64857141D02*
X129725257Y-64742856D01*
X130239542Y-64171427D02*
X129039542Y-64171427D01*
X130239542Y-63485713D02*
X129553828Y-63999999D01*
X129039542Y-63485713D02*
X129725257Y-64171427D01*
X130239542Y-62799999D02*
X130182400Y-62914284D01*
X130182400Y-62914284D02*
X130125257Y-62971427D01*
X130125257Y-62971427D02*
X130010971Y-63028570D01*
X130010971Y-63028570D02*
X129668114Y-63028570D01*
X129668114Y-63028570D02*
X129553828Y-62971427D01*
X129553828Y-62971427D02*
X129496685Y-62914284D01*
X129496685Y-62914284D02*
X129439542Y-62799999D01*
X129439542Y-62799999D02*
X129439542Y-62628570D01*
X129439542Y-62628570D02*
X129496685Y-62514284D01*
X129496685Y-62514284D02*
X129553828Y-62457142D01*
X129553828Y-62457142D02*
X129668114Y-62399999D01*
X129668114Y-62399999D02*
X130010971Y-62399999D01*
X130010971Y-62399999D02*
X130125257Y-62457142D01*
X130125257Y-62457142D02*
X130182400Y-62514284D01*
X130182400Y-62514284D02*
X130239542Y-62628570D01*
X130239542Y-62628570D02*
X130239542Y-62799999D01*
X130239542Y-61714285D02*
X130182400Y-61828570D01*
X130182400Y-61828570D02*
X130068114Y-61885713D01*
X130068114Y-61885713D02*
X129039542Y-61885713D01*
X130182400Y-60799999D02*
X130239542Y-60914285D01*
X130239542Y-60914285D02*
X130239542Y-61142857D01*
X130239542Y-61142857D02*
X130182400Y-61257142D01*
X130182400Y-61257142D02*
X130068114Y-61314285D01*
X130068114Y-61314285D02*
X129610971Y-61314285D01*
X129610971Y-61314285D02*
X129496685Y-61257142D01*
X129496685Y-61257142D02*
X129439542Y-61142857D01*
X129439542Y-61142857D02*
X129439542Y-60914285D01*
X129439542Y-60914285D02*
X129496685Y-60799999D01*
X129496685Y-60799999D02*
X129610971Y-60742857D01*
X129610971Y-60742857D02*
X129725257Y-60742857D01*
X129725257Y-60742857D02*
X129839542Y-61314285D01*
X129439542Y-60228571D02*
X130239542Y-60228571D01*
X129553828Y-60228571D02*
X129496685Y-60171428D01*
X129496685Y-60171428D02*
X129439542Y-60057143D01*
X129439542Y-60057143D02*
X129439542Y-59885714D01*
X129439542Y-59885714D02*
X129496685Y-59771428D01*
X129496685Y-59771428D02*
X129610971Y-59714286D01*
X129610971Y-59714286D02*
X130239542Y-59714286D01*
X130239542Y-59142857D02*
X129439542Y-59142857D01*
X129039542Y-59142857D02*
X129096685Y-59200000D01*
X129096685Y-59200000D02*
X129153828Y-59142857D01*
X129153828Y-59142857D02*
X129096685Y-59085714D01*
X129096685Y-59085714D02*
X129039542Y-59142857D01*
X129039542Y-59142857D02*
X129153828Y-59142857D01*
X129153828Y-57714285D02*
X129096685Y-57657142D01*
X129096685Y-57657142D02*
X129039542Y-57542857D01*
X129039542Y-57542857D02*
X129039542Y-57257142D01*
X129039542Y-57257142D02*
X129096685Y-57142857D01*
X129096685Y-57142857D02*
X129153828Y-57085714D01*
X129153828Y-57085714D02*
X129268114Y-57028571D01*
X129268114Y-57028571D02*
X129382400Y-57028571D01*
X129382400Y-57028571D02*
X129553828Y-57085714D01*
X129553828Y-57085714D02*
X130239542Y-57771428D01*
X130239542Y-57771428D02*
X130239542Y-57028571D01*
X129039542Y-56285714D02*
X129039542Y-56171428D01*
X129039542Y-56171428D02*
X129096685Y-56057142D01*
X129096685Y-56057142D02*
X129153828Y-56000000D01*
X129153828Y-56000000D02*
X129268114Y-55942857D01*
X129268114Y-55942857D02*
X129496685Y-55885714D01*
X129496685Y-55885714D02*
X129782400Y-55885714D01*
X129782400Y-55885714D02*
X130010971Y-55942857D01*
X130010971Y-55942857D02*
X130125257Y-56000000D01*
X130125257Y-56000000D02*
X130182400Y-56057142D01*
X130182400Y-56057142D02*
X130239542Y-56171428D01*
X130239542Y-56171428D02*
X130239542Y-56285714D01*
X130239542Y-56285714D02*
X130182400Y-56400000D01*
X130182400Y-56400000D02*
X130125257Y-56457142D01*
X130125257Y-56457142D02*
X130010971Y-56514285D01*
X130010971Y-56514285D02*
X129782400Y-56571428D01*
X129782400Y-56571428D02*
X129496685Y-56571428D01*
X129496685Y-56571428D02*
X129268114Y-56514285D01*
X129268114Y-56514285D02*
X129153828Y-56457142D01*
X129153828Y-56457142D02*
X129096685Y-56400000D01*
X129096685Y-56400000D02*
X129039542Y-56285714D01*
X129153828Y-55428571D02*
X129096685Y-55371428D01*
X129096685Y-55371428D02*
X129039542Y-55257143D01*
X129039542Y-55257143D02*
X129039542Y-54971428D01*
X129039542Y-54971428D02*
X129096685Y-54857143D01*
X129096685Y-54857143D02*
X129153828Y-54800000D01*
X129153828Y-54800000D02*
X129268114Y-54742857D01*
X129268114Y-54742857D02*
X129382400Y-54742857D01*
X129382400Y-54742857D02*
X129553828Y-54800000D01*
X129553828Y-54800000D02*
X130239542Y-55485714D01*
X130239542Y-55485714D02*
X130239542Y-54742857D01*
X129039542Y-53657143D02*
X129039542Y-54228571D01*
X129039542Y-54228571D02*
X129610971Y-54285714D01*
X129610971Y-54285714D02*
X129553828Y-54228571D01*
X129553828Y-54228571D02*
X129496685Y-54114286D01*
X129496685Y-54114286D02*
X129496685Y-53828571D01*
X129496685Y-53828571D02*
X129553828Y-53714286D01*
X129553828Y-53714286D02*
X129610971Y-53657143D01*
X129610971Y-53657143D02*
X129725257Y-53600000D01*
X129725257Y-53600000D02*
X130010971Y-53600000D01*
X130010971Y-53600000D02*
X130125257Y-53657143D01*
X130125257Y-53657143D02*
X130182400Y-53714286D01*
X130182400Y-53714286D02*
X130239542Y-53828571D01*
X130239542Y-53828571D02*
X130239542Y-54114286D01*
X130239542Y-54114286D02*
X130182400Y-54228571D01*
X130182400Y-54228571D02*
X130125257Y-54285714D01*
X128439542Y-66328570D02*
X127239542Y-66328570D01*
X127239542Y-66328570D02*
X128096685Y-65928570D01*
X128096685Y-65928570D02*
X127239542Y-65528570D01*
X127239542Y-65528570D02*
X128439542Y-65528570D01*
X128439542Y-64442856D02*
X127810971Y-64442856D01*
X127810971Y-64442856D02*
X127696685Y-64499998D01*
X127696685Y-64499998D02*
X127639542Y-64614284D01*
X127639542Y-64614284D02*
X127639542Y-64842856D01*
X127639542Y-64842856D02*
X127696685Y-64957141D01*
X128382400Y-64442856D02*
X128439542Y-64557141D01*
X128439542Y-64557141D02*
X128439542Y-64842856D01*
X128439542Y-64842856D02*
X128382400Y-64957141D01*
X128382400Y-64957141D02*
X128268114Y-65014284D01*
X128268114Y-65014284D02*
X128153828Y-65014284D01*
X128153828Y-65014284D02*
X128039542Y-64957141D01*
X128039542Y-64957141D02*
X127982400Y-64842856D01*
X127982400Y-64842856D02*
X127982400Y-64557141D01*
X127982400Y-64557141D02*
X127925257Y-64442856D01*
X128439542Y-63871427D02*
X127639542Y-63871427D01*
X127239542Y-63871427D02*
X127296685Y-63928570D01*
X127296685Y-63928570D02*
X127353828Y-63871427D01*
X127353828Y-63871427D02*
X127296685Y-63814284D01*
X127296685Y-63814284D02*
X127239542Y-63871427D01*
X127239542Y-63871427D02*
X127353828Y-63871427D01*
X127639542Y-63299998D02*
X128439542Y-63299998D01*
X127753828Y-63299998D02*
X127696685Y-63242855D01*
X127696685Y-63242855D02*
X127639542Y-63128570D01*
X127639542Y-63128570D02*
X127639542Y-62957141D01*
X127639542Y-62957141D02*
X127696685Y-62842855D01*
X127696685Y-62842855D02*
X127810971Y-62785713D01*
X127810971Y-62785713D02*
X128439542Y-62785713D01*
X128325257Y-60614284D02*
X128382400Y-60671427D01*
X128382400Y-60671427D02*
X128439542Y-60842855D01*
X128439542Y-60842855D02*
X128439542Y-60957141D01*
X128439542Y-60957141D02*
X128382400Y-61128570D01*
X128382400Y-61128570D02*
X128268114Y-61242855D01*
X128268114Y-61242855D02*
X128153828Y-61299998D01*
X128153828Y-61299998D02*
X127925257Y-61357141D01*
X127925257Y-61357141D02*
X127753828Y-61357141D01*
X127753828Y-61357141D02*
X127525257Y-61299998D01*
X127525257Y-61299998D02*
X127410971Y-61242855D01*
X127410971Y-61242855D02*
X127296685Y-61128570D01*
X127296685Y-61128570D02*
X127239542Y-60957141D01*
X127239542Y-60957141D02*
X127239542Y-60842855D01*
X127239542Y-60842855D02*
X127296685Y-60671427D01*
X127296685Y-60671427D02*
X127353828Y-60614284D01*
X128439542Y-59928570D02*
X128382400Y-60042855D01*
X128382400Y-60042855D02*
X128325257Y-60099998D01*
X128325257Y-60099998D02*
X128210971Y-60157141D01*
X128210971Y-60157141D02*
X127868114Y-60157141D01*
X127868114Y-60157141D02*
X127753828Y-60099998D01*
X127753828Y-60099998D02*
X127696685Y-60042855D01*
X127696685Y-60042855D02*
X127639542Y-59928570D01*
X127639542Y-59928570D02*
X127639542Y-59757141D01*
X127639542Y-59757141D02*
X127696685Y-59642855D01*
X127696685Y-59642855D02*
X127753828Y-59585713D01*
X127753828Y-59585713D02*
X127868114Y-59528570D01*
X127868114Y-59528570D02*
X128210971Y-59528570D01*
X128210971Y-59528570D02*
X128325257Y-59585713D01*
X128325257Y-59585713D02*
X128382400Y-59642855D01*
X128382400Y-59642855D02*
X128439542Y-59757141D01*
X128439542Y-59757141D02*
X128439542Y-59928570D01*
X127639542Y-59014284D02*
X128439542Y-59014284D01*
X127753828Y-59014284D02*
X127696685Y-58957141D01*
X127696685Y-58957141D02*
X127639542Y-58842856D01*
X127639542Y-58842856D02*
X127639542Y-58671427D01*
X127639542Y-58671427D02*
X127696685Y-58557141D01*
X127696685Y-58557141D02*
X127810971Y-58499999D01*
X127810971Y-58499999D02*
X128439542Y-58499999D01*
X127639542Y-58099999D02*
X127639542Y-57642856D01*
X127239542Y-57928570D02*
X128268114Y-57928570D01*
X128268114Y-57928570D02*
X128382400Y-57871427D01*
X128382400Y-57871427D02*
X128439542Y-57757142D01*
X128439542Y-57757142D02*
X128439542Y-57642856D01*
X128439542Y-57242856D02*
X127639542Y-57242856D01*
X127868114Y-57242856D02*
X127753828Y-57185713D01*
X127753828Y-57185713D02*
X127696685Y-57128571D01*
X127696685Y-57128571D02*
X127639542Y-57014285D01*
X127639542Y-57014285D02*
X127639542Y-56899999D01*
X128439542Y-56328571D02*
X128382400Y-56442856D01*
X128382400Y-56442856D02*
X128325257Y-56499999D01*
X128325257Y-56499999D02*
X128210971Y-56557142D01*
X128210971Y-56557142D02*
X127868114Y-56557142D01*
X127868114Y-56557142D02*
X127753828Y-56499999D01*
X127753828Y-56499999D02*
X127696685Y-56442856D01*
X127696685Y-56442856D02*
X127639542Y-56328571D01*
X127639542Y-56328571D02*
X127639542Y-56157142D01*
X127639542Y-56157142D02*
X127696685Y-56042856D01*
X127696685Y-56042856D02*
X127753828Y-55985714D01*
X127753828Y-55985714D02*
X127868114Y-55928571D01*
X127868114Y-55928571D02*
X128210971Y-55928571D01*
X128210971Y-55928571D02*
X128325257Y-55985714D01*
X128325257Y-55985714D02*
X128382400Y-56042856D01*
X128382400Y-56042856D02*
X128439542Y-56157142D01*
X128439542Y-56157142D02*
X128439542Y-56328571D01*
X128439542Y-55242857D02*
X128382400Y-55357142D01*
X128382400Y-55357142D02*
X128268114Y-55414285D01*
X128268114Y-55414285D02*
X127239542Y-55414285D01*
X127810971Y-53471428D02*
X127868114Y-53300000D01*
X127868114Y-53300000D02*
X127925257Y-53242857D01*
X127925257Y-53242857D02*
X128039542Y-53185714D01*
X128039542Y-53185714D02*
X128210971Y-53185714D01*
X128210971Y-53185714D02*
X128325257Y-53242857D01*
X128325257Y-53242857D02*
X128382400Y-53300000D01*
X128382400Y-53300000D02*
X128439542Y-53414285D01*
X128439542Y-53414285D02*
X128439542Y-53871428D01*
X128439542Y-53871428D02*
X127239542Y-53871428D01*
X127239542Y-53871428D02*
X127239542Y-53471428D01*
X127239542Y-53471428D02*
X127296685Y-53357143D01*
X127296685Y-53357143D02*
X127353828Y-53300000D01*
X127353828Y-53300000D02*
X127468114Y-53242857D01*
X127468114Y-53242857D02*
X127582400Y-53242857D01*
X127582400Y-53242857D02*
X127696685Y-53300000D01*
X127696685Y-53300000D02*
X127753828Y-53357143D01*
X127753828Y-53357143D02*
X127810971Y-53471428D01*
X127810971Y-53471428D02*
X127810971Y-53871428D01*
X128439542Y-52500000D02*
X128382400Y-52614285D01*
X128382400Y-52614285D02*
X128325257Y-52671428D01*
X128325257Y-52671428D02*
X128210971Y-52728571D01*
X128210971Y-52728571D02*
X127868114Y-52728571D01*
X127868114Y-52728571D02*
X127753828Y-52671428D01*
X127753828Y-52671428D02*
X127696685Y-52614285D01*
X127696685Y-52614285D02*
X127639542Y-52500000D01*
X127639542Y-52500000D02*
X127639542Y-52328571D01*
X127639542Y-52328571D02*
X127696685Y-52214285D01*
X127696685Y-52214285D02*
X127753828Y-52157143D01*
X127753828Y-52157143D02*
X127868114Y-52100000D01*
X127868114Y-52100000D02*
X128210971Y-52100000D01*
X128210971Y-52100000D02*
X128325257Y-52157143D01*
X128325257Y-52157143D02*
X128382400Y-52214285D01*
X128382400Y-52214285D02*
X128439542Y-52328571D01*
X128439542Y-52328571D02*
X128439542Y-52500000D01*
X128439542Y-51071429D02*
X127810971Y-51071429D01*
X127810971Y-51071429D02*
X127696685Y-51128571D01*
X127696685Y-51128571D02*
X127639542Y-51242857D01*
X127639542Y-51242857D02*
X127639542Y-51471429D01*
X127639542Y-51471429D02*
X127696685Y-51585714D01*
X128382400Y-51071429D02*
X128439542Y-51185714D01*
X128439542Y-51185714D02*
X128439542Y-51471429D01*
X128439542Y-51471429D02*
X128382400Y-51585714D01*
X128382400Y-51585714D02*
X128268114Y-51642857D01*
X128268114Y-51642857D02*
X128153828Y-51642857D01*
X128153828Y-51642857D02*
X128039542Y-51585714D01*
X128039542Y-51585714D02*
X127982400Y-51471429D01*
X127982400Y-51471429D02*
X127982400Y-51185714D01*
X127982400Y-51185714D02*
X127925257Y-51071429D01*
X128439542Y-50500000D02*
X127639542Y-50500000D01*
X127868114Y-50500000D02*
X127753828Y-50442857D01*
X127753828Y-50442857D02*
X127696685Y-50385715D01*
X127696685Y-50385715D02*
X127639542Y-50271429D01*
X127639542Y-50271429D02*
X127639542Y-50157143D01*
X128439542Y-49242858D02*
X127239542Y-49242858D01*
X128382400Y-49242858D02*
X128439542Y-49357143D01*
X128439542Y-49357143D02*
X128439542Y-49585715D01*
X128439542Y-49585715D02*
X128382400Y-49700000D01*
X128382400Y-49700000D02*
X128325257Y-49757143D01*
X128325257Y-49757143D02*
X128210971Y-49814286D01*
X128210971Y-49814286D02*
X127868114Y-49814286D01*
X127868114Y-49814286D02*
X127753828Y-49757143D01*
X127753828Y-49757143D02*
X127696685Y-49700000D01*
X127696685Y-49700000D02*
X127639542Y-49585715D01*
X127639542Y-49585715D02*
X127639542Y-49357143D01*
X127639542Y-49357143D02*
X127696685Y-49242858D01*
X127639542Y-47871429D02*
X128439542Y-47585715D01*
X128439542Y-47585715D02*
X127639542Y-47300000D01*
X128439542Y-46214286D02*
X128439542Y-46900000D01*
X128439542Y-46557143D02*
X127239542Y-46557143D01*
X127239542Y-46557143D02*
X127410971Y-46671429D01*
X127410971Y-46671429D02*
X127525257Y-46785714D01*
X127525257Y-46785714D02*
X127582400Y-46900000D01*
D11*
X126374428Y-66271428D02*
X125374428Y-66271428D01*
X125517285Y-66271428D02*
X125445857Y-66199999D01*
X125445857Y-66199999D02*
X125374428Y-66057142D01*
X125374428Y-66057142D02*
X125374428Y-65842856D01*
X125374428Y-65842856D02*
X125445857Y-65699999D01*
X125445857Y-65699999D02*
X125588714Y-65628571D01*
X125588714Y-65628571D02*
X126374428Y-65628571D01*
X125588714Y-65628571D02*
X125445857Y-65557142D01*
X125445857Y-65557142D02*
X125374428Y-65414285D01*
X125374428Y-65414285D02*
X125374428Y-65199999D01*
X125374428Y-65199999D02*
X125445857Y-65057142D01*
X125445857Y-65057142D02*
X125588714Y-64985713D01*
X125588714Y-64985713D02*
X126374428Y-64985713D01*
X125374428Y-64414285D02*
X126374428Y-64057142D01*
X125374428Y-63699999D02*
X126374428Y-64057142D01*
X126374428Y-64057142D02*
X126731571Y-64199999D01*
X126731571Y-64199999D02*
X126803000Y-64271428D01*
X126803000Y-64271428D02*
X126874428Y-64414285D01*
X125588714Y-62628571D02*
X125660142Y-62414285D01*
X125660142Y-62414285D02*
X125731571Y-62342856D01*
X125731571Y-62342856D02*
X125874428Y-62271428D01*
X125874428Y-62271428D02*
X126088714Y-62271428D01*
X126088714Y-62271428D02*
X126231571Y-62342856D01*
X126231571Y-62342856D02*
X126303000Y-62414285D01*
X126303000Y-62414285D02*
X126374428Y-62557142D01*
X126374428Y-62557142D02*
X126374428Y-63128571D01*
X126374428Y-63128571D02*
X124874428Y-63128571D01*
X124874428Y-63128571D02*
X124874428Y-62628571D01*
X124874428Y-62628571D02*
X124945857Y-62485714D01*
X124945857Y-62485714D02*
X125017285Y-62414285D01*
X125017285Y-62414285D02*
X125160142Y-62342856D01*
X125160142Y-62342856D02*
X125303000Y-62342856D01*
X125303000Y-62342856D02*
X125445857Y-62414285D01*
X125445857Y-62414285D02*
X125517285Y-62485714D01*
X125517285Y-62485714D02*
X125588714Y-62628571D01*
X125588714Y-62628571D02*
X125588714Y-63128571D01*
X126374428Y-61414285D02*
X126303000Y-61557142D01*
X126303000Y-61557142D02*
X126231571Y-61628571D01*
X126231571Y-61628571D02*
X126088714Y-61699999D01*
X126088714Y-61699999D02*
X125660142Y-61699999D01*
X125660142Y-61699999D02*
X125517285Y-61628571D01*
X125517285Y-61628571D02*
X125445857Y-61557142D01*
X125445857Y-61557142D02*
X125374428Y-61414285D01*
X125374428Y-61414285D02*
X125374428Y-61199999D01*
X125374428Y-61199999D02*
X125445857Y-61057142D01*
X125445857Y-61057142D02*
X125517285Y-60985714D01*
X125517285Y-60985714D02*
X125660142Y-60914285D01*
X125660142Y-60914285D02*
X126088714Y-60914285D01*
X126088714Y-60914285D02*
X126231571Y-60985714D01*
X126231571Y-60985714D02*
X126303000Y-61057142D01*
X126303000Y-61057142D02*
X126374428Y-61199999D01*
X126374428Y-61199999D02*
X126374428Y-61414285D01*
X125374428Y-60485713D02*
X125374428Y-59914285D01*
X124874428Y-60271428D02*
X126160142Y-60271428D01*
X126160142Y-60271428D02*
X126303000Y-60199999D01*
X126303000Y-60199999D02*
X126374428Y-60057142D01*
X126374428Y-60057142D02*
X126374428Y-59914285D01*
D12*
X141254819Y-67399999D02*
X140254819Y-67399999D01*
X140254819Y-66733333D02*
X140254819Y-66542857D01*
X140254819Y-66542857D02*
X140302438Y-66447619D01*
X140302438Y-66447619D02*
X140397676Y-66352381D01*
X140397676Y-66352381D02*
X140588152Y-66304762D01*
X140588152Y-66304762D02*
X140921485Y-66304762D01*
X140921485Y-66304762D02*
X141111961Y-66352381D01*
X141111961Y-66352381D02*
X141207200Y-66447619D01*
X141207200Y-66447619D02*
X141254819Y-66542857D01*
X141254819Y-66542857D02*
X141254819Y-66733333D01*
X141254819Y-66733333D02*
X141207200Y-66828571D01*
X141207200Y-66828571D02*
X141111961Y-66923809D01*
X141111961Y-66923809D02*
X140921485Y-66971428D01*
X140921485Y-66971428D02*
X140588152Y-66971428D01*
X140588152Y-66971428D02*
X140397676Y-66923809D01*
X140397676Y-66923809D02*
X140302438Y-66828571D01*
X140302438Y-66828571D02*
X140254819Y-66733333D01*
X141254819Y-65352381D02*
X141254819Y-65923809D01*
X141254819Y-65638095D02*
X140254819Y-65638095D01*
X140254819Y-65638095D02*
X140397676Y-65733333D01*
X140397676Y-65733333D02*
X140492914Y-65828571D01*
X140492914Y-65828571D02*
X140540533Y-65923809D01*
X144154819Y-67599999D02*
X143154819Y-67599999D01*
X143154819Y-66933333D02*
X143154819Y-66742857D01*
X143154819Y-66742857D02*
X143202438Y-66647619D01*
X143202438Y-66647619D02*
X143297676Y-66552381D01*
X143297676Y-66552381D02*
X143488152Y-66504762D01*
X143488152Y-66504762D02*
X143821485Y-66504762D01*
X143821485Y-66504762D02*
X144011961Y-66552381D01*
X144011961Y-66552381D02*
X144107200Y-66647619D01*
X144107200Y-66647619D02*
X144154819Y-66742857D01*
X144154819Y-66742857D02*
X144154819Y-66933333D01*
X144154819Y-66933333D02*
X144107200Y-67028571D01*
X144107200Y-67028571D02*
X144011961Y-67123809D01*
X144011961Y-67123809D02*
X143821485Y-67171428D01*
X143821485Y-67171428D02*
X143488152Y-67171428D01*
X143488152Y-67171428D02*
X143297676Y-67123809D01*
X143297676Y-67123809D02*
X143202438Y-67028571D01*
X143202438Y-67028571D02*
X143154819Y-66933333D01*
X143154819Y-65600000D02*
X143154819Y-66076190D01*
X143154819Y-66076190D02*
X143631009Y-66123809D01*
X143631009Y-66123809D02*
X143583390Y-66076190D01*
X143583390Y-66076190D02*
X143535771Y-65980952D01*
X143535771Y-65980952D02*
X143535771Y-65742857D01*
X143535771Y-65742857D02*
X143583390Y-65647619D01*
X143583390Y-65647619D02*
X143631009Y-65600000D01*
X143631009Y-65600000D02*
X143726247Y-65552381D01*
X143726247Y-65552381D02*
X143964342Y-65552381D01*
X143964342Y-65552381D02*
X144059580Y-65600000D01*
X144059580Y-65600000D02*
X144107200Y-65647619D01*
X144107200Y-65647619D02*
X144154819Y-65742857D01*
X144154819Y-65742857D02*
X144154819Y-65980952D01*
X144154819Y-65980952D02*
X144107200Y-66076190D01*
X144107200Y-66076190D02*
X144059580Y-66123809D01*
X144154819Y-70599999D02*
X143154819Y-70599999D01*
X143154819Y-69933333D02*
X143154819Y-69742857D01*
X143154819Y-69742857D02*
X143202438Y-69647619D01*
X143202438Y-69647619D02*
X143297676Y-69552381D01*
X143297676Y-69552381D02*
X143488152Y-69504762D01*
X143488152Y-69504762D02*
X143821485Y-69504762D01*
X143821485Y-69504762D02*
X144011961Y-69552381D01*
X144011961Y-69552381D02*
X144107200Y-69647619D01*
X144107200Y-69647619D02*
X144154819Y-69742857D01*
X144154819Y-69742857D02*
X144154819Y-69933333D01*
X144154819Y-69933333D02*
X144107200Y-70028571D01*
X144107200Y-70028571D02*
X144011961Y-70123809D01*
X144011961Y-70123809D02*
X143821485Y-70171428D01*
X143821485Y-70171428D02*
X143488152Y-70171428D01*
X143488152Y-70171428D02*
X143297676Y-70123809D01*
X143297676Y-70123809D02*
X143202438Y-70028571D01*
X143202438Y-70028571D02*
X143154819Y-69933333D01*
X143488152Y-68647619D02*
X144154819Y-68647619D01*
X143107200Y-68885714D02*
X143821485Y-69123809D01*
X143821485Y-69123809D02*
X143821485Y-68504762D01*
X144154819Y-73499999D02*
X143154819Y-73499999D01*
X143154819Y-72833333D02*
X143154819Y-72642857D01*
X143154819Y-72642857D02*
X143202438Y-72547619D01*
X143202438Y-72547619D02*
X143297676Y-72452381D01*
X143297676Y-72452381D02*
X143488152Y-72404762D01*
X143488152Y-72404762D02*
X143821485Y-72404762D01*
X143821485Y-72404762D02*
X144011961Y-72452381D01*
X144011961Y-72452381D02*
X144107200Y-72547619D01*
X144107200Y-72547619D02*
X144154819Y-72642857D01*
X144154819Y-72642857D02*
X144154819Y-72833333D01*
X144154819Y-72833333D02*
X144107200Y-72928571D01*
X144107200Y-72928571D02*
X144011961Y-73023809D01*
X144011961Y-73023809D02*
X143821485Y-73071428D01*
X143821485Y-73071428D02*
X143488152Y-73071428D01*
X143488152Y-73071428D02*
X143297676Y-73023809D01*
X143297676Y-73023809D02*
X143202438Y-72928571D01*
X143202438Y-72928571D02*
X143154819Y-72833333D01*
X143154819Y-72071428D02*
X143154819Y-71452381D01*
X143154819Y-71452381D02*
X143535771Y-71785714D01*
X143535771Y-71785714D02*
X143535771Y-71642857D01*
X143535771Y-71642857D02*
X143583390Y-71547619D01*
X143583390Y-71547619D02*
X143631009Y-71500000D01*
X143631009Y-71500000D02*
X143726247Y-71452381D01*
X143726247Y-71452381D02*
X143964342Y-71452381D01*
X143964342Y-71452381D02*
X144059580Y-71500000D01*
X144059580Y-71500000D02*
X144107200Y-71547619D01*
X144107200Y-71547619D02*
X144154819Y-71642857D01*
X144154819Y-71642857D02*
X144154819Y-71928571D01*
X144154819Y-71928571D02*
X144107200Y-72023809D01*
X144107200Y-72023809D02*
X144059580Y-72071428D01*
X144154819Y-76499999D02*
X143154819Y-76499999D01*
X143154819Y-75833333D02*
X143154819Y-75642857D01*
X143154819Y-75642857D02*
X143202438Y-75547619D01*
X143202438Y-75547619D02*
X143297676Y-75452381D01*
X143297676Y-75452381D02*
X143488152Y-75404762D01*
X143488152Y-75404762D02*
X143821485Y-75404762D01*
X143821485Y-75404762D02*
X144011961Y-75452381D01*
X144011961Y-75452381D02*
X144107200Y-75547619D01*
X144107200Y-75547619D02*
X144154819Y-75642857D01*
X144154819Y-75642857D02*
X144154819Y-75833333D01*
X144154819Y-75833333D02*
X144107200Y-75928571D01*
X144107200Y-75928571D02*
X144011961Y-76023809D01*
X144011961Y-76023809D02*
X143821485Y-76071428D01*
X143821485Y-76071428D02*
X143488152Y-76071428D01*
X143488152Y-76071428D02*
X143297676Y-76023809D01*
X143297676Y-76023809D02*
X143202438Y-75928571D01*
X143202438Y-75928571D02*
X143154819Y-75833333D01*
X143250057Y-75023809D02*
X143202438Y-74976190D01*
X143202438Y-74976190D02*
X143154819Y-74880952D01*
X143154819Y-74880952D02*
X143154819Y-74642857D01*
X143154819Y-74642857D02*
X143202438Y-74547619D01*
X143202438Y-74547619D02*
X143250057Y-74500000D01*
X143250057Y-74500000D02*
X143345295Y-74452381D01*
X143345295Y-74452381D02*
X143440533Y-74452381D01*
X143440533Y-74452381D02*
X143583390Y-74500000D01*
X143583390Y-74500000D02*
X144154819Y-75071428D01*
X144154819Y-75071428D02*
X144154819Y-74452381D01*
D10*
X87400000Y-52000000D02*
G75*
G02*
X86600000Y-52000000I-400000J0D01*
G01*
X86600000Y-52000000D02*
G75*
G02*
X87400000Y-52000000I400000J0D01*
G01*
X86700000Y-53700000D02*
X85500000Y-51900000D01*
X87000000Y-54400000D02*
X87000000Y-56000000D01*
X87000000Y-51600000D02*
X87000000Y-50000000D01*
X87400000Y-54000000D02*
G75*
G02*
X86600000Y-54000000I-400000J0D01*
G01*
X86600000Y-54000000D02*
G75*
G02*
X87400000Y-54000000I400000J0D01*
G01*
D12*
X126893922Y-75269819D02*
X127465350Y-75269819D01*
X127179636Y-76269819D02*
X127179636Y-75269819D01*
X127798684Y-76269819D02*
X127798684Y-75269819D01*
X127798684Y-75269819D02*
X128179636Y-75269819D01*
X128179636Y-75269819D02*
X128274874Y-75317438D01*
X128274874Y-75317438D02*
X128322493Y-75365057D01*
X128322493Y-75365057D02*
X128370112Y-75460295D01*
X128370112Y-75460295D02*
X128370112Y-75603152D01*
X128370112Y-75603152D02*
X128322493Y-75698390D01*
X128322493Y-75698390D02*
X128274874Y-75746009D01*
X128274874Y-75746009D02*
X128179636Y-75793628D01*
X128179636Y-75793628D02*
X127798684Y-75793628D01*
X104354819Y-75871428D02*
X103354819Y-75871428D01*
X103354819Y-75871428D02*
X104069104Y-75538095D01*
X104069104Y-75538095D02*
X103354819Y-75204762D01*
X103354819Y-75204762D02*
X104354819Y-75204762D01*
X103354819Y-74538095D02*
X103354819Y-74347619D01*
X103354819Y-74347619D02*
X103402438Y-74252381D01*
X103402438Y-74252381D02*
X103497676Y-74157143D01*
X103497676Y-74157143D02*
X103688152Y-74109524D01*
X103688152Y-74109524D02*
X104021485Y-74109524D01*
X104021485Y-74109524D02*
X104211961Y-74157143D01*
X104211961Y-74157143D02*
X104307200Y-74252381D01*
X104307200Y-74252381D02*
X104354819Y-74347619D01*
X104354819Y-74347619D02*
X104354819Y-74538095D01*
X104354819Y-74538095D02*
X104307200Y-74633333D01*
X104307200Y-74633333D02*
X104211961Y-74728571D01*
X104211961Y-74728571D02*
X104021485Y-74776190D01*
X104021485Y-74776190D02*
X103688152Y-74776190D01*
X103688152Y-74776190D02*
X103497676Y-74728571D01*
X103497676Y-74728571D02*
X103402438Y-74633333D01*
X103402438Y-74633333D02*
X103354819Y-74538095D01*
X103354819Y-73823809D02*
X103354819Y-73252381D01*
X104354819Y-73538095D02*
X103354819Y-73538095D01*
X103354819Y-72728571D02*
X103354819Y-72538095D01*
X103354819Y-72538095D02*
X103402438Y-72442857D01*
X103402438Y-72442857D02*
X103497676Y-72347619D01*
X103497676Y-72347619D02*
X103688152Y-72300000D01*
X103688152Y-72300000D02*
X104021485Y-72300000D01*
X104021485Y-72300000D02*
X104211961Y-72347619D01*
X104211961Y-72347619D02*
X104307200Y-72442857D01*
X104307200Y-72442857D02*
X104354819Y-72538095D01*
X104354819Y-72538095D02*
X104354819Y-72728571D01*
X104354819Y-72728571D02*
X104307200Y-72823809D01*
X104307200Y-72823809D02*
X104211961Y-72919047D01*
X104211961Y-72919047D02*
X104021485Y-72966666D01*
X104021485Y-72966666D02*
X103688152Y-72966666D01*
X103688152Y-72966666D02*
X103497676Y-72919047D01*
X103497676Y-72919047D02*
X103402438Y-72823809D01*
X103402438Y-72823809D02*
X103354819Y-72728571D01*
X104354819Y-71300000D02*
X103878628Y-71633333D01*
X104354819Y-71871428D02*
X103354819Y-71871428D01*
X103354819Y-71871428D02*
X103354819Y-71490476D01*
X103354819Y-71490476D02*
X103402438Y-71395238D01*
X103402438Y-71395238D02*
X103450057Y-71347619D01*
X103450057Y-71347619D02*
X103545295Y-71300000D01*
X103545295Y-71300000D02*
X103688152Y-71300000D01*
X103688152Y-71300000D02*
X103783390Y-71347619D01*
X103783390Y-71347619D02*
X103831009Y-71395238D01*
X103831009Y-71395238D02*
X103878628Y-71490476D01*
X103878628Y-71490476D02*
X103878628Y-71871428D01*
X104069104Y-70157142D02*
X104069104Y-69680952D01*
X104354819Y-70252380D02*
X103354819Y-69919047D01*
X103354819Y-69919047D02*
X104354819Y-69585714D01*
D13*
X147502568Y-44883666D02*
X148264473Y-44883666D01*
X147883520Y-45264619D02*
X147883520Y-44502714D01*
X149502568Y-44740809D02*
X149835901Y-44740809D01*
X149978758Y-45264619D02*
X149502568Y-45264619D01*
X149502568Y-45264619D02*
X149502568Y-44264619D01*
X149502568Y-44264619D02*
X149978758Y-44264619D01*
X150359711Y-45217000D02*
X150502568Y-45264619D01*
X150502568Y-45264619D02*
X150740663Y-45264619D01*
X150740663Y-45264619D02*
X150835901Y-45217000D01*
X150835901Y-45217000D02*
X150883520Y-45169380D01*
X150883520Y-45169380D02*
X150931139Y-45074142D01*
X150931139Y-45074142D02*
X150931139Y-44978904D01*
X150931139Y-44978904D02*
X150883520Y-44883666D01*
X150883520Y-44883666D02*
X150835901Y-44836047D01*
X150835901Y-44836047D02*
X150740663Y-44788428D01*
X150740663Y-44788428D02*
X150550187Y-44740809D01*
X150550187Y-44740809D02*
X150454949Y-44693190D01*
X150454949Y-44693190D02*
X150407330Y-44645571D01*
X150407330Y-44645571D02*
X150359711Y-44550333D01*
X150359711Y-44550333D02*
X150359711Y-44455095D01*
X150359711Y-44455095D02*
X150407330Y-44359857D01*
X150407330Y-44359857D02*
X150454949Y-44312238D01*
X150454949Y-44312238D02*
X150550187Y-44264619D01*
X150550187Y-44264619D02*
X150788282Y-44264619D01*
X150788282Y-44264619D02*
X150931139Y-44312238D01*
X151931139Y-45169380D02*
X151883520Y-45217000D01*
X151883520Y-45217000D02*
X151740663Y-45264619D01*
X151740663Y-45264619D02*
X151645425Y-45264619D01*
X151645425Y-45264619D02*
X151502568Y-45217000D01*
X151502568Y-45217000D02*
X151407330Y-45121761D01*
X151407330Y-45121761D02*
X151359711Y-45026523D01*
X151359711Y-45026523D02*
X151312092Y-44836047D01*
X151312092Y-44836047D02*
X151312092Y-44693190D01*
X151312092Y-44693190D02*
X151359711Y-44502714D01*
X151359711Y-44502714D02*
X151407330Y-44407476D01*
X151407330Y-44407476D02*
X151502568Y-44312238D01*
X151502568Y-44312238D02*
X151645425Y-44264619D01*
X151645425Y-44264619D02*
X151740663Y-44264619D01*
X151740663Y-44264619D02*
X151883520Y-44312238D01*
X151883520Y-44312238D02*
X151931139Y-44359857D01*
D12*
X108154819Y-75942856D02*
X107154819Y-75942856D01*
X107154819Y-75942856D02*
X107869104Y-75609523D01*
X107869104Y-75609523D02*
X107154819Y-75276190D01*
X107154819Y-75276190D02*
X108154819Y-75276190D01*
X107154819Y-74609523D02*
X107154819Y-74419047D01*
X107154819Y-74419047D02*
X107202438Y-74323809D01*
X107202438Y-74323809D02*
X107297676Y-74228571D01*
X107297676Y-74228571D02*
X107488152Y-74180952D01*
X107488152Y-74180952D02*
X107821485Y-74180952D01*
X107821485Y-74180952D02*
X108011961Y-74228571D01*
X108011961Y-74228571D02*
X108107200Y-74323809D01*
X108107200Y-74323809D02*
X108154819Y-74419047D01*
X108154819Y-74419047D02*
X108154819Y-74609523D01*
X108154819Y-74609523D02*
X108107200Y-74704761D01*
X108107200Y-74704761D02*
X108011961Y-74799999D01*
X108011961Y-74799999D02*
X107821485Y-74847618D01*
X107821485Y-74847618D02*
X107488152Y-74847618D01*
X107488152Y-74847618D02*
X107297676Y-74799999D01*
X107297676Y-74799999D02*
X107202438Y-74704761D01*
X107202438Y-74704761D02*
X107154819Y-74609523D01*
X107154819Y-73895237D02*
X107154819Y-73323809D01*
X108154819Y-73609523D02*
X107154819Y-73609523D01*
X107154819Y-72799999D02*
X107154819Y-72609523D01*
X107154819Y-72609523D02*
X107202438Y-72514285D01*
X107202438Y-72514285D02*
X107297676Y-72419047D01*
X107297676Y-72419047D02*
X107488152Y-72371428D01*
X107488152Y-72371428D02*
X107821485Y-72371428D01*
X107821485Y-72371428D02*
X108011961Y-72419047D01*
X108011961Y-72419047D02*
X108107200Y-72514285D01*
X108107200Y-72514285D02*
X108154819Y-72609523D01*
X108154819Y-72609523D02*
X108154819Y-72799999D01*
X108154819Y-72799999D02*
X108107200Y-72895237D01*
X108107200Y-72895237D02*
X108011961Y-72990475D01*
X108011961Y-72990475D02*
X107821485Y-73038094D01*
X107821485Y-73038094D02*
X107488152Y-73038094D01*
X107488152Y-73038094D02*
X107297676Y-72990475D01*
X107297676Y-72990475D02*
X107202438Y-72895237D01*
X107202438Y-72895237D02*
X107154819Y-72799999D01*
X108154819Y-71371428D02*
X107678628Y-71704761D01*
X108154819Y-71942856D02*
X107154819Y-71942856D01*
X107154819Y-71942856D02*
X107154819Y-71561904D01*
X107154819Y-71561904D02*
X107202438Y-71466666D01*
X107202438Y-71466666D02*
X107250057Y-71419047D01*
X107250057Y-71419047D02*
X107345295Y-71371428D01*
X107345295Y-71371428D02*
X107488152Y-71371428D01*
X107488152Y-71371428D02*
X107583390Y-71419047D01*
X107583390Y-71419047D02*
X107631009Y-71466666D01*
X107631009Y-71466666D02*
X107678628Y-71561904D01*
X107678628Y-71561904D02*
X107678628Y-71942856D01*
X107631009Y-69847618D02*
X107678628Y-69704761D01*
X107678628Y-69704761D02*
X107726247Y-69657142D01*
X107726247Y-69657142D02*
X107821485Y-69609523D01*
X107821485Y-69609523D02*
X107964342Y-69609523D01*
X107964342Y-69609523D02*
X108059580Y-69657142D01*
X108059580Y-69657142D02*
X108107200Y-69704761D01*
X108107200Y-69704761D02*
X108154819Y-69799999D01*
X108154819Y-69799999D02*
X108154819Y-70180951D01*
X108154819Y-70180951D02*
X107154819Y-70180951D01*
X107154819Y-70180951D02*
X107154819Y-69847618D01*
X107154819Y-69847618D02*
X107202438Y-69752380D01*
X107202438Y-69752380D02*
X107250057Y-69704761D01*
X107250057Y-69704761D02*
X107345295Y-69657142D01*
X107345295Y-69657142D02*
X107440533Y-69657142D01*
X107440533Y-69657142D02*
X107535771Y-69704761D01*
X107535771Y-69704761D02*
X107583390Y-69752380D01*
X107583390Y-69752380D02*
X107631009Y-69847618D01*
X107631009Y-69847618D02*
X107631009Y-70180951D01*
X130012969Y-76269819D02*
X129536779Y-76269819D01*
X129536779Y-76269819D02*
X129536779Y-75269819D01*
X130203446Y-75269819D02*
X130536779Y-76269819D01*
X130536779Y-76269819D02*
X130870112Y-75269819D01*
X131679636Y-76269819D02*
X131203446Y-76269819D01*
X131203446Y-76269819D02*
X131203446Y-75269819D01*
D13*
X97502568Y-61483666D02*
X98264473Y-61483666D01*
X97883520Y-61864619D02*
X97883520Y-61102714D01*
X99835901Y-61340809D02*
X99978758Y-61388428D01*
X99978758Y-61388428D02*
X100026377Y-61436047D01*
X100026377Y-61436047D02*
X100073996Y-61531285D01*
X100073996Y-61531285D02*
X100073996Y-61674142D01*
X100073996Y-61674142D02*
X100026377Y-61769380D01*
X100026377Y-61769380D02*
X99978758Y-61817000D01*
X99978758Y-61817000D02*
X99883520Y-61864619D01*
X99883520Y-61864619D02*
X99502568Y-61864619D01*
X99502568Y-61864619D02*
X99502568Y-60864619D01*
X99502568Y-60864619D02*
X99835901Y-60864619D01*
X99835901Y-60864619D02*
X99931139Y-60912238D01*
X99931139Y-60912238D02*
X99978758Y-60959857D01*
X99978758Y-60959857D02*
X100026377Y-61055095D01*
X100026377Y-61055095D02*
X100026377Y-61150333D01*
X100026377Y-61150333D02*
X99978758Y-61245571D01*
X99978758Y-61245571D02*
X99931139Y-61293190D01*
X99931139Y-61293190D02*
X99835901Y-61340809D01*
X99835901Y-61340809D02*
X99502568Y-61340809D01*
X100454949Y-61578904D02*
X100931139Y-61578904D01*
X100359711Y-61864619D02*
X100693044Y-60864619D01*
X100693044Y-60864619D02*
X101026377Y-61864619D01*
X101216854Y-60864619D02*
X101788282Y-60864619D01*
X101502568Y-61864619D02*
X101502568Y-60864619D01*
X101978759Y-60864619D02*
X102550187Y-60864619D01*
X102264473Y-61864619D02*
X102264473Y-60864619D01*
D12*
X102154819Y-55909523D02*
X102869104Y-55909523D01*
X102869104Y-55909523D02*
X103011961Y-55957142D01*
X103011961Y-55957142D02*
X103107200Y-56052380D01*
X103107200Y-56052380D02*
X103154819Y-56195237D01*
X103154819Y-56195237D02*
X103154819Y-56290475D01*
X103154819Y-55433332D02*
X102154819Y-55433332D01*
X102154819Y-55433332D02*
X102154819Y-55052380D01*
X102154819Y-55052380D02*
X102202438Y-54957142D01*
X102202438Y-54957142D02*
X102250057Y-54909523D01*
X102250057Y-54909523D02*
X102345295Y-54861904D01*
X102345295Y-54861904D02*
X102488152Y-54861904D01*
X102488152Y-54861904D02*
X102583390Y-54909523D01*
X102583390Y-54909523D02*
X102631009Y-54957142D01*
X102631009Y-54957142D02*
X102678628Y-55052380D01*
X102678628Y-55052380D02*
X102678628Y-55433332D01*
X103154819Y-53909523D02*
X103154819Y-54480951D01*
X103154819Y-54195237D02*
X102154819Y-54195237D01*
X102154819Y-54195237D02*
X102297676Y-54290475D01*
X102297676Y-54290475D02*
X102392914Y-54385713D01*
X102392914Y-54385713D02*
X102440533Y-54480951D01*
X102154819Y-53576189D02*
X102154819Y-52957142D01*
X102154819Y-52957142D02*
X102535771Y-53290475D01*
X102535771Y-53290475D02*
X102535771Y-53147618D01*
X102535771Y-53147618D02*
X102583390Y-53052380D01*
X102583390Y-53052380D02*
X102631009Y-53004761D01*
X102631009Y-53004761D02*
X102726247Y-52957142D01*
X102726247Y-52957142D02*
X102964342Y-52957142D01*
X102964342Y-52957142D02*
X103059580Y-53004761D01*
X103059580Y-53004761D02*
X103107200Y-53052380D01*
X103107200Y-53052380D02*
X103154819Y-53147618D01*
X103154819Y-53147618D02*
X103154819Y-53433332D01*
X103154819Y-53433332D02*
X103107200Y-53528570D01*
X103107200Y-53528570D02*
X103059580Y-53576189D01*
X125054819Y-73861904D02*
X125054819Y-73290476D01*
X126054819Y-73576190D02*
X125054819Y-73576190D01*
X126054819Y-72957142D02*
X125054819Y-72957142D01*
X125054819Y-72957142D02*
X125054819Y-72576190D01*
X125054819Y-72576190D02*
X125102438Y-72480952D01*
X125102438Y-72480952D02*
X125150057Y-72433333D01*
X125150057Y-72433333D02*
X125245295Y-72385714D01*
X125245295Y-72385714D02*
X125388152Y-72385714D01*
X125388152Y-72385714D02*
X125483390Y-72433333D01*
X125483390Y-72433333D02*
X125531009Y-72480952D01*
X125531009Y-72480952D02*
X125578628Y-72576190D01*
X125578628Y-72576190D02*
X125578628Y-72957142D01*
X125054819Y-71480952D02*
X125054819Y-71957142D01*
X125054819Y-71957142D02*
X125531009Y-72004761D01*
X125531009Y-72004761D02*
X125483390Y-71957142D01*
X125483390Y-71957142D02*
X125435771Y-71861904D01*
X125435771Y-71861904D02*
X125435771Y-71623809D01*
X125435771Y-71623809D02*
X125483390Y-71528571D01*
X125483390Y-71528571D02*
X125531009Y-71480952D01*
X125531009Y-71480952D02*
X125626247Y-71433333D01*
X125626247Y-71433333D02*
X125864342Y-71433333D01*
X125864342Y-71433333D02*
X125959580Y-71480952D01*
X125959580Y-71480952D02*
X126007200Y-71528571D01*
X126007200Y-71528571D02*
X126054819Y-71623809D01*
X126054819Y-71623809D02*
X126054819Y-71861904D01*
X126054819Y-71861904D02*
X126007200Y-71957142D01*
X126007200Y-71957142D02*
X125959580Y-72004761D01*
X119054819Y-73861904D02*
X119054819Y-73290476D01*
X120054819Y-73576190D02*
X119054819Y-73576190D01*
X120054819Y-72957142D02*
X119054819Y-72957142D01*
X119054819Y-72957142D02*
X119054819Y-72576190D01*
X119054819Y-72576190D02*
X119102438Y-72480952D01*
X119102438Y-72480952D02*
X119150057Y-72433333D01*
X119150057Y-72433333D02*
X119245295Y-72385714D01*
X119245295Y-72385714D02*
X119388152Y-72385714D01*
X119388152Y-72385714D02*
X119483390Y-72433333D01*
X119483390Y-72433333D02*
X119531009Y-72480952D01*
X119531009Y-72480952D02*
X119578628Y-72576190D01*
X119578628Y-72576190D02*
X119578628Y-72957142D01*
X119150057Y-72004761D02*
X119102438Y-71957142D01*
X119102438Y-71957142D02*
X119054819Y-71861904D01*
X119054819Y-71861904D02*
X119054819Y-71623809D01*
X119054819Y-71623809D02*
X119102438Y-71528571D01*
X119102438Y-71528571D02*
X119150057Y-71480952D01*
X119150057Y-71480952D02*
X119245295Y-71433333D01*
X119245295Y-71433333D02*
X119340533Y-71433333D01*
X119340533Y-71433333D02*
X119483390Y-71480952D01*
X119483390Y-71480952D02*
X120054819Y-72052380D01*
X120054819Y-72052380D02*
X120054819Y-71433333D01*
X112454819Y-75466666D02*
X111978628Y-75799999D01*
X112454819Y-76038094D02*
X111454819Y-76038094D01*
X111454819Y-76038094D02*
X111454819Y-75657142D01*
X111454819Y-75657142D02*
X111502438Y-75561904D01*
X111502438Y-75561904D02*
X111550057Y-75514285D01*
X111550057Y-75514285D02*
X111645295Y-75466666D01*
X111645295Y-75466666D02*
X111788152Y-75466666D01*
X111788152Y-75466666D02*
X111883390Y-75514285D01*
X111883390Y-75514285D02*
X111931009Y-75561904D01*
X111931009Y-75561904D02*
X111978628Y-75657142D01*
X111978628Y-75657142D02*
X111978628Y-76038094D01*
X111454819Y-74561904D02*
X111454819Y-75038094D01*
X111454819Y-75038094D02*
X111931009Y-75085713D01*
X111931009Y-75085713D02*
X111883390Y-75038094D01*
X111883390Y-75038094D02*
X111835771Y-74942856D01*
X111835771Y-74942856D02*
X111835771Y-74704761D01*
X111835771Y-74704761D02*
X111883390Y-74609523D01*
X111883390Y-74609523D02*
X111931009Y-74561904D01*
X111931009Y-74561904D02*
X112026247Y-74514285D01*
X112026247Y-74514285D02*
X112264342Y-74514285D01*
X112264342Y-74514285D02*
X112359580Y-74561904D01*
X112359580Y-74561904D02*
X112407200Y-74609523D01*
X112407200Y-74609523D02*
X112454819Y-74704761D01*
X112454819Y-74704761D02*
X112454819Y-74942856D01*
X112454819Y-74942856D02*
X112407200Y-75038094D01*
X112407200Y-75038094D02*
X112359580Y-75085713D01*
X140254819Y-73209523D02*
X140969104Y-73209523D01*
X140969104Y-73209523D02*
X141111961Y-73257142D01*
X141111961Y-73257142D02*
X141207200Y-73352380D01*
X141207200Y-73352380D02*
X141254819Y-73495237D01*
X141254819Y-73495237D02*
X141254819Y-73590475D01*
X141254819Y-72209523D02*
X141254819Y-72780951D01*
X141254819Y-72495237D02*
X140254819Y-72495237D01*
X140254819Y-72495237D02*
X140397676Y-72590475D01*
X140397676Y-72590475D02*
X140492914Y-72685713D01*
X140492914Y-72685713D02*
X140540533Y-72780951D01*
X140350057Y-71828570D02*
X140302438Y-71780951D01*
X140302438Y-71780951D02*
X140254819Y-71685713D01*
X140254819Y-71685713D02*
X140254819Y-71447618D01*
X140254819Y-71447618D02*
X140302438Y-71352380D01*
X140302438Y-71352380D02*
X140350057Y-71304761D01*
X140350057Y-71304761D02*
X140445295Y-71257142D01*
X140445295Y-71257142D02*
X140540533Y-71257142D01*
X140540533Y-71257142D02*
X140683390Y-71304761D01*
X140683390Y-71304761D02*
X141254819Y-71876189D01*
X141254819Y-71876189D02*
X141254819Y-71257142D01*
X115061905Y-71454819D02*
X115061905Y-70454819D01*
X115061905Y-70454819D02*
X115300000Y-70454819D01*
X115300000Y-70454819D02*
X115442857Y-70502438D01*
X115442857Y-70502438D02*
X115538095Y-70597676D01*
X115538095Y-70597676D02*
X115585714Y-70692914D01*
X115585714Y-70692914D02*
X115633333Y-70883390D01*
X115633333Y-70883390D02*
X115633333Y-71026247D01*
X115633333Y-71026247D02*
X115585714Y-71216723D01*
X115585714Y-71216723D02*
X115538095Y-71311961D01*
X115538095Y-71311961D02*
X115442857Y-71407200D01*
X115442857Y-71407200D02*
X115300000Y-71454819D01*
X115300000Y-71454819D02*
X115061905Y-71454819D01*
X116585714Y-71454819D02*
X116014286Y-71454819D01*
X116300000Y-71454819D02*
X116300000Y-70454819D01*
X116300000Y-70454819D02*
X116204762Y-70597676D01*
X116204762Y-70597676D02*
X116109524Y-70692914D01*
X116109524Y-70692914D02*
X116014286Y-70740533D01*
X94933333Y-46254819D02*
X94600000Y-45778628D01*
X94361905Y-46254819D02*
X94361905Y-45254819D01*
X94361905Y-45254819D02*
X94742857Y-45254819D01*
X94742857Y-45254819D02*
X94838095Y-45302438D01*
X94838095Y-45302438D02*
X94885714Y-45350057D01*
X94885714Y-45350057D02*
X94933333Y-45445295D01*
X94933333Y-45445295D02*
X94933333Y-45588152D01*
X94933333Y-45588152D02*
X94885714Y-45683390D01*
X94885714Y-45683390D02*
X94838095Y-45731009D01*
X94838095Y-45731009D02*
X94742857Y-45778628D01*
X94742857Y-45778628D02*
X94361905Y-45778628D01*
X95314286Y-45350057D02*
X95361905Y-45302438D01*
X95361905Y-45302438D02*
X95457143Y-45254819D01*
X95457143Y-45254819D02*
X95695238Y-45254819D01*
X95695238Y-45254819D02*
X95790476Y-45302438D01*
X95790476Y-45302438D02*
X95838095Y-45350057D01*
X95838095Y-45350057D02*
X95885714Y-45445295D01*
X95885714Y-45445295D02*
X95885714Y-45540533D01*
X95885714Y-45540533D02*
X95838095Y-45683390D01*
X95838095Y-45683390D02*
X95266667Y-46254819D01*
X95266667Y-46254819D02*
X95885714Y-46254819D01*
X143733333Y-53859580D02*
X143685714Y-53907200D01*
X143685714Y-53907200D02*
X143542857Y-53954819D01*
X143542857Y-53954819D02*
X143447619Y-53954819D01*
X143447619Y-53954819D02*
X143304762Y-53907200D01*
X143304762Y-53907200D02*
X143209524Y-53811961D01*
X143209524Y-53811961D02*
X143161905Y-53716723D01*
X143161905Y-53716723D02*
X143114286Y-53526247D01*
X143114286Y-53526247D02*
X143114286Y-53383390D01*
X143114286Y-53383390D02*
X143161905Y-53192914D01*
X143161905Y-53192914D02*
X143209524Y-53097676D01*
X143209524Y-53097676D02*
X143304762Y-53002438D01*
X143304762Y-53002438D02*
X143447619Y-52954819D01*
X143447619Y-52954819D02*
X143542857Y-52954819D01*
X143542857Y-52954819D02*
X143685714Y-53002438D01*
X143685714Y-53002438D02*
X143733333Y-53050057D01*
X144066667Y-52954819D02*
X144685714Y-52954819D01*
X144685714Y-52954819D02*
X144352381Y-53335771D01*
X144352381Y-53335771D02*
X144495238Y-53335771D01*
X144495238Y-53335771D02*
X144590476Y-53383390D01*
X144590476Y-53383390D02*
X144638095Y-53431009D01*
X144638095Y-53431009D02*
X144685714Y-53526247D01*
X144685714Y-53526247D02*
X144685714Y-53764342D01*
X144685714Y-53764342D02*
X144638095Y-53859580D01*
X144638095Y-53859580D02*
X144590476Y-53907200D01*
X144590476Y-53907200D02*
X144495238Y-53954819D01*
X144495238Y-53954819D02*
X144209524Y-53954819D01*
X144209524Y-53954819D02*
X144114286Y-53907200D01*
X144114286Y-53907200D02*
X144066667Y-53859580D01*
X119154819Y-70961904D02*
X119154819Y-70390476D01*
X120154819Y-70676190D02*
X119154819Y-70676190D01*
X120154819Y-70057142D02*
X119154819Y-70057142D01*
X119154819Y-70057142D02*
X119154819Y-69676190D01*
X119154819Y-69676190D02*
X119202438Y-69580952D01*
X119202438Y-69580952D02*
X119250057Y-69533333D01*
X119250057Y-69533333D02*
X119345295Y-69485714D01*
X119345295Y-69485714D02*
X119488152Y-69485714D01*
X119488152Y-69485714D02*
X119583390Y-69533333D01*
X119583390Y-69533333D02*
X119631009Y-69580952D01*
X119631009Y-69580952D02*
X119678628Y-69676190D01*
X119678628Y-69676190D02*
X119678628Y-70057142D01*
X119154819Y-69152380D02*
X119154819Y-68533333D01*
X119154819Y-68533333D02*
X119535771Y-68866666D01*
X119535771Y-68866666D02*
X119535771Y-68723809D01*
X119535771Y-68723809D02*
X119583390Y-68628571D01*
X119583390Y-68628571D02*
X119631009Y-68580952D01*
X119631009Y-68580952D02*
X119726247Y-68533333D01*
X119726247Y-68533333D02*
X119964342Y-68533333D01*
X119964342Y-68533333D02*
X120059580Y-68580952D01*
X120059580Y-68580952D02*
X120107200Y-68628571D01*
X120107200Y-68628571D02*
X120154819Y-68723809D01*
X120154819Y-68723809D02*
X120154819Y-69009523D01*
X120154819Y-69009523D02*
X120107200Y-69104761D01*
X120107200Y-69104761D02*
X120059580Y-69152380D01*
X130559580Y-51166666D02*
X130607200Y-51214285D01*
X130607200Y-51214285D02*
X130654819Y-51357142D01*
X130654819Y-51357142D02*
X130654819Y-51452380D01*
X130654819Y-51452380D02*
X130607200Y-51595237D01*
X130607200Y-51595237D02*
X130511961Y-51690475D01*
X130511961Y-51690475D02*
X130416723Y-51738094D01*
X130416723Y-51738094D02*
X130226247Y-51785713D01*
X130226247Y-51785713D02*
X130083390Y-51785713D01*
X130083390Y-51785713D02*
X129892914Y-51738094D01*
X129892914Y-51738094D02*
X129797676Y-51690475D01*
X129797676Y-51690475D02*
X129702438Y-51595237D01*
X129702438Y-51595237D02*
X129654819Y-51452380D01*
X129654819Y-51452380D02*
X129654819Y-51357142D01*
X129654819Y-51357142D02*
X129702438Y-51214285D01*
X129702438Y-51214285D02*
X129750057Y-51166666D01*
X130654819Y-50214285D02*
X130654819Y-50785713D01*
X130654819Y-50499999D02*
X129654819Y-50499999D01*
X129654819Y-50499999D02*
X129797676Y-50595237D01*
X129797676Y-50595237D02*
X129892914Y-50690475D01*
X129892914Y-50690475D02*
X129940533Y-50785713D01*
X98604761Y-59994057D02*
X98509523Y-59946438D01*
X98509523Y-59946438D02*
X98414285Y-59851200D01*
X98414285Y-59851200D02*
X98271428Y-59708342D01*
X98271428Y-59708342D02*
X98176190Y-59660723D01*
X98176190Y-59660723D02*
X98080952Y-59660723D01*
X98128571Y-59898819D02*
X98033333Y-59851200D01*
X98033333Y-59851200D02*
X97938095Y-59755961D01*
X97938095Y-59755961D02*
X97890476Y-59565485D01*
X97890476Y-59565485D02*
X97890476Y-59232152D01*
X97890476Y-59232152D02*
X97938095Y-59041676D01*
X97938095Y-59041676D02*
X98033333Y-58946438D01*
X98033333Y-58946438D02*
X98128571Y-58898819D01*
X98128571Y-58898819D02*
X98319047Y-58898819D01*
X98319047Y-58898819D02*
X98414285Y-58946438D01*
X98414285Y-58946438D02*
X98509523Y-59041676D01*
X98509523Y-59041676D02*
X98557142Y-59232152D01*
X98557142Y-59232152D02*
X98557142Y-59565485D01*
X98557142Y-59565485D02*
X98509523Y-59755961D01*
X98509523Y-59755961D02*
X98414285Y-59851200D01*
X98414285Y-59851200D02*
X98319047Y-59898819D01*
X98319047Y-59898819D02*
X98128571Y-59898819D01*
X98938095Y-58994057D02*
X98985714Y-58946438D01*
X98985714Y-58946438D02*
X99080952Y-58898819D01*
X99080952Y-58898819D02*
X99319047Y-58898819D01*
X99319047Y-58898819D02*
X99414285Y-58946438D01*
X99414285Y-58946438D02*
X99461904Y-58994057D01*
X99461904Y-58994057D02*
X99509523Y-59089295D01*
X99509523Y-59089295D02*
X99509523Y-59184533D01*
X99509523Y-59184533D02*
X99461904Y-59327390D01*
X99461904Y-59327390D02*
X98890476Y-59898819D01*
X98890476Y-59898819D02*
X99509523Y-59898819D01*
X91344761Y-59994057D02*
X91249523Y-59946438D01*
X91249523Y-59946438D02*
X91154285Y-59851200D01*
X91154285Y-59851200D02*
X91011428Y-59708342D01*
X91011428Y-59708342D02*
X90916190Y-59660723D01*
X90916190Y-59660723D02*
X90820952Y-59660723D01*
X90868571Y-59898819D02*
X90773333Y-59851200D01*
X90773333Y-59851200D02*
X90678095Y-59755961D01*
X90678095Y-59755961D02*
X90630476Y-59565485D01*
X90630476Y-59565485D02*
X90630476Y-59232152D01*
X90630476Y-59232152D02*
X90678095Y-59041676D01*
X90678095Y-59041676D02*
X90773333Y-58946438D01*
X90773333Y-58946438D02*
X90868571Y-58898819D01*
X90868571Y-58898819D02*
X91059047Y-58898819D01*
X91059047Y-58898819D02*
X91154285Y-58946438D01*
X91154285Y-58946438D02*
X91249523Y-59041676D01*
X91249523Y-59041676D02*
X91297142Y-59232152D01*
X91297142Y-59232152D02*
X91297142Y-59565485D01*
X91297142Y-59565485D02*
X91249523Y-59755961D01*
X91249523Y-59755961D02*
X91154285Y-59851200D01*
X91154285Y-59851200D02*
X91059047Y-59898819D01*
X91059047Y-59898819D02*
X90868571Y-59898819D01*
X92249523Y-59898819D02*
X91678095Y-59898819D01*
X91963809Y-59898819D02*
X91963809Y-58898819D01*
X91963809Y-58898819D02*
X91868571Y-59041676D01*
X91868571Y-59041676D02*
X91773333Y-59136914D01*
X91773333Y-59136914D02*
X91678095Y-59184533D01*
X140254819Y-76409523D02*
X140969104Y-76409523D01*
X140969104Y-76409523D02*
X141111961Y-76457142D01*
X141111961Y-76457142D02*
X141207200Y-76552380D01*
X141207200Y-76552380D02*
X141254819Y-76695237D01*
X141254819Y-76695237D02*
X141254819Y-76790475D01*
X141254819Y-75409523D02*
X141254819Y-75980951D01*
X141254819Y-75695237D02*
X140254819Y-75695237D01*
X140254819Y-75695237D02*
X140397676Y-75790475D01*
X140397676Y-75790475D02*
X140492914Y-75885713D01*
X140492914Y-75885713D02*
X140540533Y-75980951D01*
X141254819Y-74457142D02*
X141254819Y-75028570D01*
X141254819Y-74742856D02*
X140254819Y-74742856D01*
X140254819Y-74742856D02*
X140397676Y-74838094D01*
X140397676Y-74838094D02*
X140492914Y-74933332D01*
X140492914Y-74933332D02*
X140540533Y-75028570D01*
X141138095Y-54954819D02*
X141138095Y-55764342D01*
X141138095Y-55764342D02*
X141185714Y-55859580D01*
X141185714Y-55859580D02*
X141233333Y-55907200D01*
X141233333Y-55907200D02*
X141328571Y-55954819D01*
X141328571Y-55954819D02*
X141519047Y-55954819D01*
X141519047Y-55954819D02*
X141614285Y-55907200D01*
X141614285Y-55907200D02*
X141661904Y-55859580D01*
X141661904Y-55859580D02*
X141709523Y-55764342D01*
X141709523Y-55764342D02*
X141709523Y-54954819D01*
X142090476Y-54954819D02*
X142709523Y-54954819D01*
X142709523Y-54954819D02*
X142376190Y-55335771D01*
X142376190Y-55335771D02*
X142519047Y-55335771D01*
X142519047Y-55335771D02*
X142614285Y-55383390D01*
X142614285Y-55383390D02*
X142661904Y-55431009D01*
X142661904Y-55431009D02*
X142709523Y-55526247D01*
X142709523Y-55526247D02*
X142709523Y-55764342D01*
X142709523Y-55764342D02*
X142661904Y-55859580D01*
X142661904Y-55859580D02*
X142614285Y-55907200D01*
X142614285Y-55907200D02*
X142519047Y-55954819D01*
X142519047Y-55954819D02*
X142233333Y-55954819D01*
X142233333Y-55954819D02*
X142138095Y-55907200D01*
X142138095Y-55907200D02*
X142090476Y-55859580D01*
X130505580Y-47852666D02*
X130553200Y-47900285D01*
X130553200Y-47900285D02*
X130600819Y-48043142D01*
X130600819Y-48043142D02*
X130600819Y-48138380D01*
X130600819Y-48138380D02*
X130553200Y-48281237D01*
X130553200Y-48281237D02*
X130457961Y-48376475D01*
X130457961Y-48376475D02*
X130362723Y-48424094D01*
X130362723Y-48424094D02*
X130172247Y-48471713D01*
X130172247Y-48471713D02*
X130029390Y-48471713D01*
X130029390Y-48471713D02*
X129838914Y-48424094D01*
X129838914Y-48424094D02*
X129743676Y-48376475D01*
X129743676Y-48376475D02*
X129648438Y-48281237D01*
X129648438Y-48281237D02*
X129600819Y-48138380D01*
X129600819Y-48138380D02*
X129600819Y-48043142D01*
X129600819Y-48043142D02*
X129648438Y-47900285D01*
X129648438Y-47900285D02*
X129696057Y-47852666D01*
X129696057Y-47471713D02*
X129648438Y-47424094D01*
X129648438Y-47424094D02*
X129600819Y-47328856D01*
X129600819Y-47328856D02*
X129600819Y-47090761D01*
X129600819Y-47090761D02*
X129648438Y-46995523D01*
X129648438Y-46995523D02*
X129696057Y-46947904D01*
X129696057Y-46947904D02*
X129791295Y-46900285D01*
X129791295Y-46900285D02*
X129886533Y-46900285D01*
X129886533Y-46900285D02*
X130029390Y-46947904D01*
X130029390Y-46947904D02*
X130600819Y-47519332D01*
X130600819Y-47519332D02*
X130600819Y-46900285D01*
X98933333Y-46154819D02*
X98600000Y-45678628D01*
X98361905Y-46154819D02*
X98361905Y-45154819D01*
X98361905Y-45154819D02*
X98742857Y-45154819D01*
X98742857Y-45154819D02*
X98838095Y-45202438D01*
X98838095Y-45202438D02*
X98885714Y-45250057D01*
X98885714Y-45250057D02*
X98933333Y-45345295D01*
X98933333Y-45345295D02*
X98933333Y-45488152D01*
X98933333Y-45488152D02*
X98885714Y-45583390D01*
X98885714Y-45583390D02*
X98838095Y-45631009D01*
X98838095Y-45631009D02*
X98742857Y-45678628D01*
X98742857Y-45678628D02*
X98361905Y-45678628D01*
X99790476Y-45488152D02*
X99790476Y-46154819D01*
X99552381Y-45107200D02*
X99314286Y-45821485D01*
X99314286Y-45821485D02*
X99933333Y-45821485D01*
X91033333Y-46254819D02*
X90700000Y-45778628D01*
X90461905Y-46254819D02*
X90461905Y-45254819D01*
X90461905Y-45254819D02*
X90842857Y-45254819D01*
X90842857Y-45254819D02*
X90938095Y-45302438D01*
X90938095Y-45302438D02*
X90985714Y-45350057D01*
X90985714Y-45350057D02*
X91033333Y-45445295D01*
X91033333Y-45445295D02*
X91033333Y-45588152D01*
X91033333Y-45588152D02*
X90985714Y-45683390D01*
X90985714Y-45683390D02*
X90938095Y-45731009D01*
X90938095Y-45731009D02*
X90842857Y-45778628D01*
X90842857Y-45778628D02*
X90461905Y-45778628D01*
X91366667Y-45254819D02*
X91985714Y-45254819D01*
X91985714Y-45254819D02*
X91652381Y-45635771D01*
X91652381Y-45635771D02*
X91795238Y-45635771D01*
X91795238Y-45635771D02*
X91890476Y-45683390D01*
X91890476Y-45683390D02*
X91938095Y-45731009D01*
X91938095Y-45731009D02*
X91985714Y-45826247D01*
X91985714Y-45826247D02*
X91985714Y-46064342D01*
X91985714Y-46064342D02*
X91938095Y-46159580D01*
X91938095Y-46159580D02*
X91890476Y-46207200D01*
X91890476Y-46207200D02*
X91795238Y-46254819D01*
X91795238Y-46254819D02*
X91509524Y-46254819D01*
X91509524Y-46254819D02*
X91414286Y-46207200D01*
X91414286Y-46207200D02*
X91366667Y-46159580D01*
X102554819Y-46263220D02*
X103364342Y-46263220D01*
X103364342Y-46263220D02*
X103459580Y-46215601D01*
X103459580Y-46215601D02*
X103507200Y-46167982D01*
X103507200Y-46167982D02*
X103554819Y-46072744D01*
X103554819Y-46072744D02*
X103554819Y-45882268D01*
X103554819Y-45882268D02*
X103507200Y-45787030D01*
X103507200Y-45787030D02*
X103459580Y-45739411D01*
X103459580Y-45739411D02*
X103364342Y-45691792D01*
X103364342Y-45691792D02*
X102554819Y-45691792D01*
X103554819Y-44691792D02*
X103554819Y-45263220D01*
X103554819Y-44977506D02*
X102554819Y-44977506D01*
X102554819Y-44977506D02*
X102697676Y-45072744D01*
X102697676Y-45072744D02*
X102792914Y-45167982D01*
X102792914Y-45167982D02*
X102840533Y-45263220D01*
X125054819Y-76761904D02*
X125054819Y-76190476D01*
X126054819Y-76476190D02*
X125054819Y-76476190D01*
X126054819Y-75857142D02*
X125054819Y-75857142D01*
X125054819Y-75857142D02*
X125054819Y-75476190D01*
X125054819Y-75476190D02*
X125102438Y-75380952D01*
X125102438Y-75380952D02*
X125150057Y-75333333D01*
X125150057Y-75333333D02*
X125245295Y-75285714D01*
X125245295Y-75285714D02*
X125388152Y-75285714D01*
X125388152Y-75285714D02*
X125483390Y-75333333D01*
X125483390Y-75333333D02*
X125531009Y-75380952D01*
X125531009Y-75380952D02*
X125578628Y-75476190D01*
X125578628Y-75476190D02*
X125578628Y-75857142D01*
X125388152Y-74428571D02*
X126054819Y-74428571D01*
X125007200Y-74666666D02*
X125721485Y-74904761D01*
X125721485Y-74904761D02*
X125721485Y-74285714D01*
X132154819Y-54661904D02*
X132964342Y-54661904D01*
X132964342Y-54661904D02*
X133059580Y-54614285D01*
X133059580Y-54614285D02*
X133107200Y-54566666D01*
X133107200Y-54566666D02*
X133154819Y-54471428D01*
X133154819Y-54471428D02*
X133154819Y-54280952D01*
X133154819Y-54280952D02*
X133107200Y-54185714D01*
X133107200Y-54185714D02*
X133059580Y-54138095D01*
X133059580Y-54138095D02*
X132964342Y-54090476D01*
X132964342Y-54090476D02*
X132154819Y-54090476D01*
X132250057Y-53661904D02*
X132202438Y-53614285D01*
X132202438Y-53614285D02*
X132154819Y-53519047D01*
X132154819Y-53519047D02*
X132154819Y-53280952D01*
X132154819Y-53280952D02*
X132202438Y-53185714D01*
X132202438Y-53185714D02*
X132250057Y-53138095D01*
X132250057Y-53138095D02*
X132345295Y-53090476D01*
X132345295Y-53090476D02*
X132440533Y-53090476D01*
X132440533Y-53090476D02*
X132583390Y-53138095D01*
X132583390Y-53138095D02*
X133154819Y-53709523D01*
X133154819Y-53709523D02*
X133154819Y-53090476D01*
X145259580Y-59066666D02*
X145307200Y-59114285D01*
X145307200Y-59114285D02*
X145354819Y-59257142D01*
X145354819Y-59257142D02*
X145354819Y-59352380D01*
X145354819Y-59352380D02*
X145307200Y-59495237D01*
X145307200Y-59495237D02*
X145211961Y-59590475D01*
X145211961Y-59590475D02*
X145116723Y-59638094D01*
X145116723Y-59638094D02*
X144926247Y-59685713D01*
X144926247Y-59685713D02*
X144783390Y-59685713D01*
X144783390Y-59685713D02*
X144592914Y-59638094D01*
X144592914Y-59638094D02*
X144497676Y-59590475D01*
X144497676Y-59590475D02*
X144402438Y-59495237D01*
X144402438Y-59495237D02*
X144354819Y-59352380D01*
X144354819Y-59352380D02*
X144354819Y-59257142D01*
X144354819Y-59257142D02*
X144402438Y-59114285D01*
X144402438Y-59114285D02*
X144450057Y-59066666D01*
X144354819Y-58161904D02*
X144354819Y-58638094D01*
X144354819Y-58638094D02*
X144831009Y-58685713D01*
X144831009Y-58685713D02*
X144783390Y-58638094D01*
X144783390Y-58638094D02*
X144735771Y-58542856D01*
X144735771Y-58542856D02*
X144735771Y-58304761D01*
X144735771Y-58304761D02*
X144783390Y-58209523D01*
X144783390Y-58209523D02*
X144831009Y-58161904D01*
X144831009Y-58161904D02*
X144926247Y-58114285D01*
X144926247Y-58114285D02*
X145164342Y-58114285D01*
X145164342Y-58114285D02*
X145259580Y-58161904D01*
X145259580Y-58161904D02*
X145307200Y-58209523D01*
X145307200Y-58209523D02*
X145354819Y-58304761D01*
X145354819Y-58304761D02*
X145354819Y-58542856D01*
X145354819Y-58542856D02*
X145307200Y-58638094D01*
X145307200Y-58638094D02*
X145259580Y-58685713D01*
X125054819Y-70961904D02*
X125054819Y-70390476D01*
X126054819Y-70676190D02*
X125054819Y-70676190D01*
X126054819Y-70057142D02*
X125054819Y-70057142D01*
X125054819Y-70057142D02*
X125054819Y-69676190D01*
X125054819Y-69676190D02*
X125102438Y-69580952D01*
X125102438Y-69580952D02*
X125150057Y-69533333D01*
X125150057Y-69533333D02*
X125245295Y-69485714D01*
X125245295Y-69485714D02*
X125388152Y-69485714D01*
X125388152Y-69485714D02*
X125483390Y-69533333D01*
X125483390Y-69533333D02*
X125531009Y-69580952D01*
X125531009Y-69580952D02*
X125578628Y-69676190D01*
X125578628Y-69676190D02*
X125578628Y-70057142D01*
X125054819Y-68628571D02*
X125054819Y-68819047D01*
X125054819Y-68819047D02*
X125102438Y-68914285D01*
X125102438Y-68914285D02*
X125150057Y-68961904D01*
X125150057Y-68961904D02*
X125292914Y-69057142D01*
X125292914Y-69057142D02*
X125483390Y-69104761D01*
X125483390Y-69104761D02*
X125864342Y-69104761D01*
X125864342Y-69104761D02*
X125959580Y-69057142D01*
X125959580Y-69057142D02*
X126007200Y-69009523D01*
X126007200Y-69009523D02*
X126054819Y-68914285D01*
X126054819Y-68914285D02*
X126054819Y-68723809D01*
X126054819Y-68723809D02*
X126007200Y-68628571D01*
X126007200Y-68628571D02*
X125959580Y-68580952D01*
X125959580Y-68580952D02*
X125864342Y-68533333D01*
X125864342Y-68533333D02*
X125626247Y-68533333D01*
X125626247Y-68533333D02*
X125531009Y-68580952D01*
X125531009Y-68580952D02*
X125483390Y-68628571D01*
X125483390Y-68628571D02*
X125435771Y-68723809D01*
X125435771Y-68723809D02*
X125435771Y-68914285D01*
X125435771Y-68914285D02*
X125483390Y-69009523D01*
X125483390Y-69009523D02*
X125531009Y-69057142D01*
X125531009Y-69057142D02*
X125626247Y-69104761D01*
X145259580Y-62366666D02*
X145307200Y-62414285D01*
X145307200Y-62414285D02*
X145354819Y-62557142D01*
X145354819Y-62557142D02*
X145354819Y-62652380D01*
X145354819Y-62652380D02*
X145307200Y-62795237D01*
X145307200Y-62795237D02*
X145211961Y-62890475D01*
X145211961Y-62890475D02*
X145116723Y-62938094D01*
X145116723Y-62938094D02*
X144926247Y-62985713D01*
X144926247Y-62985713D02*
X144783390Y-62985713D01*
X144783390Y-62985713D02*
X144592914Y-62938094D01*
X144592914Y-62938094D02*
X144497676Y-62890475D01*
X144497676Y-62890475D02*
X144402438Y-62795237D01*
X144402438Y-62795237D02*
X144354819Y-62652380D01*
X144354819Y-62652380D02*
X144354819Y-62557142D01*
X144354819Y-62557142D02*
X144402438Y-62414285D01*
X144402438Y-62414285D02*
X144450057Y-62366666D01*
X144688152Y-61509523D02*
X145354819Y-61509523D01*
X144307200Y-61747618D02*
X145021485Y-61985713D01*
X145021485Y-61985713D02*
X145021485Y-61366666D01*
X119154819Y-76761904D02*
X119154819Y-76190476D01*
X120154819Y-76476190D02*
X119154819Y-76476190D01*
X120154819Y-75857142D02*
X119154819Y-75857142D01*
X119154819Y-75857142D02*
X119154819Y-75476190D01*
X119154819Y-75476190D02*
X119202438Y-75380952D01*
X119202438Y-75380952D02*
X119250057Y-75333333D01*
X119250057Y-75333333D02*
X119345295Y-75285714D01*
X119345295Y-75285714D02*
X119488152Y-75285714D01*
X119488152Y-75285714D02*
X119583390Y-75333333D01*
X119583390Y-75333333D02*
X119631009Y-75380952D01*
X119631009Y-75380952D02*
X119678628Y-75476190D01*
X119678628Y-75476190D02*
X119678628Y-75857142D01*
X120154819Y-74333333D02*
X120154819Y-74904761D01*
X120154819Y-74619047D02*
X119154819Y-74619047D01*
X119154819Y-74619047D02*
X119297676Y-74714285D01*
X119297676Y-74714285D02*
X119392914Y-74809523D01*
X119392914Y-74809523D02*
X119440533Y-74904761D01*
X133097819Y-57666666D02*
X132621628Y-57999999D01*
X133097819Y-58238094D02*
X132097819Y-58238094D01*
X132097819Y-58238094D02*
X132097819Y-57857142D01*
X132097819Y-57857142D02*
X132145438Y-57761904D01*
X132145438Y-57761904D02*
X132193057Y-57714285D01*
X132193057Y-57714285D02*
X132288295Y-57666666D01*
X132288295Y-57666666D02*
X132431152Y-57666666D01*
X132431152Y-57666666D02*
X132526390Y-57714285D01*
X132526390Y-57714285D02*
X132574009Y-57761904D01*
X132574009Y-57761904D02*
X132621628Y-57857142D01*
X132621628Y-57857142D02*
X132621628Y-58238094D01*
X133097819Y-56714285D02*
X133097819Y-57285713D01*
X133097819Y-56999999D02*
X132097819Y-56999999D01*
X132097819Y-56999999D02*
X132240676Y-57095237D01*
X132240676Y-57095237D02*
X132335914Y-57190475D01*
X132335914Y-57190475D02*
X132383533Y-57285713D01*
D14*
%TO.C,JP13*%
X103500000Y-56750000D02*
X103500000Y-59550000D01*
X101500000Y-56750000D02*
X103500000Y-56750000D01*
X103500000Y-59550000D02*
X101500000Y-59550000D01*
X101500000Y-59550000D02*
X101500000Y-56750000D01*
%TO.C,TP5*%
X124775000Y-72644000D02*
G75*
G02*
X122875000Y-72644000I-950000J0D01*
G01*
X122875000Y-72644000D02*
G75*
G02*
X124775000Y-72644000I950000J0D01*
G01*
%TO.C,TP2*%
X122235000Y-72644000D02*
G75*
G02*
X120335000Y-72644000I-950000J0D01*
G01*
X120335000Y-72644000D02*
G75*
G02*
X122235000Y-72644000I950000J0D01*
G01*
%TO.C,R5*%
X111265000Y-72889564D02*
X111265000Y-72435436D01*
X112735000Y-72889564D02*
X112735000Y-72435436D01*
%TO.C,J12*%
X132020000Y-73720000D02*
X132020000Y-72390000D01*
X133350000Y-73720000D02*
X132020000Y-73720000D01*
X134620000Y-71060000D02*
X139760000Y-71060000D01*
X134620000Y-73720000D02*
X134620000Y-71060000D01*
X134620000Y-73720000D02*
X139760000Y-73720000D01*
X139760000Y-73720000D02*
X139760000Y-71060000D01*
%TO.C,D1*%
X113185000Y-71115000D02*
X113185000Y-74205000D01*
X113185000Y-71115170D02*
G75*
G02*
X118735000Y-72660462I2560000J-1544830D01*
G01*
X118735000Y-72659538D02*
G75*
G02*
X113185000Y-74204830I-2990000J-462D01*
G01*
X118245000Y-72660000D02*
G75*
G02*
X113245000Y-72660000I-2500000J0D01*
G01*
X113245000Y-72660000D02*
G75*
G02*
X118245000Y-72660000I2500000J0D01*
G01*
%TO.C,J3*%
X106830000Y-74000000D02*
X106830000Y-75330000D01*
X106830000Y-75330000D02*
X105500000Y-75330000D01*
%TO.C,R2*%
X95326564Y-46636000D02*
X94872436Y-46636000D01*
X95326564Y-48106000D02*
X94872436Y-48106000D01*
D15*
%TO.C,J1*%
X81500000Y-45500000D02*
X85000000Y-45500000D01*
X85000000Y-45500000D02*
X85000000Y-48500000D01*
D14*
%TO.C,C3*%
X142210000Y-45452500D02*
X142210000Y-52212500D01*
X145630000Y-45452500D02*
X142210000Y-45452500D01*
X145630000Y-52212500D02*
X145630000Y-45452500D01*
%TO.C,TP3*%
X122235000Y-70104000D02*
G75*
G02*
X120335000Y-70104000I-950000J0D01*
G01*
X120335000Y-70104000D02*
G75*
G02*
X122235000Y-70104000I950000J0D01*
G01*
%TO.C,JP11*%
X127139000Y-67580000D02*
X131239000Y-67580000D01*
X127139000Y-69580000D02*
X127139000Y-67580000D01*
X130489000Y-67380000D02*
X130189000Y-67080000D01*
X130489000Y-67380000D02*
X130789000Y-67080000D01*
X130789000Y-67080000D02*
X130189000Y-67080000D01*
X131239000Y-67580000D02*
X131239000Y-69580000D01*
X131239000Y-69580000D02*
X127139000Y-69580000D01*
%TO.C,C1*%
X131091000Y-50858748D02*
X131091000Y-51381252D01*
X132561000Y-50858748D02*
X132561000Y-51381252D01*
%TO.C,Q2*%
X96160000Y-49030000D02*
X96160000Y-49792000D01*
X96160000Y-49792000D02*
X96541000Y-49411000D01*
X96300000Y-53221000D02*
X101100000Y-53221000D01*
X96300000Y-58411000D02*
X96300000Y-53221000D01*
X96541000Y-49411000D02*
X96160000Y-49030000D01*
X96795000Y-53221000D02*
X96795000Y-58428000D01*
X97430000Y-50431000D02*
X97430000Y-53221000D01*
X98700000Y-50431000D02*
X98700000Y-53221000D01*
X99970000Y-50431000D02*
X99970000Y-53221000D01*
X100605000Y-53221000D02*
X100605000Y-58428000D01*
X101100000Y-53221000D02*
X101100000Y-58411000D01*
X101100000Y-58411000D02*
X96300000Y-58411000D01*
%TO.C,Q1*%
X88900000Y-49030000D02*
X88900000Y-49792000D01*
X88900000Y-49792000D02*
X89281000Y-49411000D01*
X89040000Y-53221000D02*
X93840000Y-53221000D01*
X89040000Y-58411000D02*
X89040000Y-53221000D01*
X89281000Y-49411000D02*
X88900000Y-49030000D01*
X89535000Y-53221000D02*
X89535000Y-58428000D01*
X90170000Y-50431000D02*
X90170000Y-53221000D01*
X91440000Y-50431000D02*
X91440000Y-53221000D01*
X92710000Y-50431000D02*
X92710000Y-53221000D01*
X93345000Y-53221000D02*
X93345000Y-58428000D01*
X93840000Y-53221000D02*
X93840000Y-58411000D01*
X93840000Y-58411000D02*
X89040000Y-58411000D01*
%TO.C,J11*%
X132005000Y-76260000D02*
X132005000Y-74930000D01*
X133335000Y-76260000D02*
X132005000Y-76260000D01*
X134605000Y-73600000D02*
X139745000Y-73600000D01*
X134605000Y-76260000D02*
X134605000Y-73600000D01*
X134605000Y-76260000D02*
X139745000Y-76260000D01*
X139745000Y-76260000D02*
X139745000Y-73600000D01*
%TO.C,U3*%
X135390000Y-60452000D02*
X135390000Y-58252000D01*
X135390000Y-60452000D02*
X135390000Y-62652000D01*
X142160000Y-60452000D02*
X142160000Y-58252000D01*
X142160000Y-60452000D02*
X142160000Y-62652000D01*
X141700000Y-56592000D02*
X141460000Y-56262000D01*
X141940000Y-56262000D01*
X141700000Y-56592000D01*
G36*
X141700000Y-56592000D02*
G01*
X141460000Y-56262000D01*
X141940000Y-56262000D01*
X141700000Y-56592000D01*
G37*
%TO.C,J6*%
X144720000Y-71180000D02*
X144720000Y-69850000D01*
X146050000Y-71180000D02*
X144720000Y-71180000D01*
X147320000Y-68520000D02*
X152460000Y-68520000D01*
X147320000Y-71180000D02*
X147320000Y-68520000D01*
X147320000Y-71180000D02*
X152460000Y-71180000D01*
X152460000Y-71180000D02*
X152460000Y-68520000D01*
%TO.C,J9*%
X132005000Y-68640000D02*
X132005000Y-67310000D01*
X133335000Y-68640000D02*
X132005000Y-68640000D01*
X134605000Y-65980000D02*
X139745000Y-65980000D01*
X134605000Y-68640000D02*
X134605000Y-65980000D01*
X134605000Y-68640000D02*
X139745000Y-68640000D01*
X139745000Y-68640000D02*
X139745000Y-65980000D01*
%TO.C,C2*%
X131091000Y-47947252D02*
X131091000Y-47424748D01*
X132561000Y-47947252D02*
X132561000Y-47424748D01*
%TO.C,R4*%
X99263564Y-46636000D02*
X98809436Y-46636000D01*
X99263564Y-48106000D02*
X98809436Y-48106000D01*
%TO.C,R3*%
X91389564Y-46636000D02*
X90935436Y-46636000D01*
X91389564Y-48106000D02*
X90935436Y-48106000D01*
%TO.C,U1*%
X104300000Y-68614000D02*
X104300000Y-67664000D01*
X105700000Y-68614000D02*
X104300000Y-68614000D01*
D16*
X109800000Y-44704000D02*
X109800000Y-50704000D01*
X109800000Y-50704000D02*
X118800000Y-50704000D01*
X118800000Y-44704000D02*
X109800000Y-44704000D01*
X118800000Y-50704000D02*
X118800000Y-44704000D01*
D14*
X122900000Y-68614000D02*
X124300000Y-68614000D01*
X124300000Y-68614000D02*
X124300000Y-67664000D01*
X104600000Y-45114000D02*
X104100000Y-45114000D01*
X104600000Y-44614000D01*
X104600000Y-45114000D01*
G36*
X104600000Y-45114000D02*
G01*
X104100000Y-45114000D01*
X104600000Y-44614000D01*
X104600000Y-45114000D01*
G37*
%TO.C,TP4*%
X124775000Y-75184000D02*
G75*
G02*
X122875000Y-75184000I-950000J0D01*
G01*
X122875000Y-75184000D02*
G75*
G02*
X124775000Y-75184000I950000J0D01*
G01*
%TO.C,JP9*%
X127109000Y-72660000D02*
X131209000Y-72660000D01*
X127109000Y-74660000D02*
X127109000Y-72660000D01*
X130459000Y-72460000D02*
X130159000Y-72160000D01*
X130459000Y-72460000D02*
X130759000Y-72160000D01*
X130759000Y-72160000D02*
X130159000Y-72160000D01*
X131209000Y-72660000D02*
X131209000Y-74660000D01*
X131209000Y-74660000D02*
X127109000Y-74660000D01*
%TO.C,J7*%
X144720000Y-73720000D02*
X144720000Y-72390000D01*
X146050000Y-73720000D02*
X144720000Y-73720000D01*
X147320000Y-71060000D02*
X152460000Y-71060000D01*
X147320000Y-73720000D02*
X147320000Y-71060000D01*
X147320000Y-73720000D02*
X152460000Y-73720000D01*
X152460000Y-73720000D02*
X152460000Y-71060000D01*
D12*
%TO.C,U2*%
X133175000Y-46387500D02*
X133400000Y-46387500D01*
X133175000Y-52137500D02*
X133175000Y-46387500D01*
X133175000Y-52137500D02*
X133400000Y-52137500D01*
X141825000Y-46387500D02*
X141600000Y-46387500D01*
X141825000Y-52137500D02*
X141600000Y-52137500D01*
X141825000Y-52137500D02*
X141825000Y-46387500D01*
D14*
X133425000Y-52637500D02*
X133095000Y-52877500D01*
X133095000Y-52397500D01*
X133425000Y-52637500D01*
G36*
X133425000Y-52637500D02*
G01*
X133095000Y-52877500D01*
X133095000Y-52397500D01*
X133425000Y-52637500D01*
G37*
%TO.C,J5*%
X144720000Y-68640000D02*
X144720000Y-67310000D01*
X146050000Y-68640000D02*
X144720000Y-68640000D01*
X147320000Y-65980000D02*
X152460000Y-65980000D01*
X147320000Y-68640000D02*
X147320000Y-65980000D01*
X147320000Y-68640000D02*
X152460000Y-68640000D01*
X152460000Y-68640000D02*
X152460000Y-65980000D01*
%TO.C,C5*%
X142558000Y-58538748D02*
X142558000Y-59061252D01*
X144028000Y-58538748D02*
X144028000Y-59061252D01*
%TO.C,TP6*%
X124775000Y-70104000D02*
G75*
G02*
X122875000Y-70104000I-950000J0D01*
G01*
X122875000Y-70104000D02*
G75*
G02*
X124775000Y-70104000I950000J0D01*
G01*
%TO.C,C4*%
X142558000Y-62311252D02*
X142558000Y-61788748D01*
X144028000Y-62311252D02*
X144028000Y-61788748D01*
D15*
%TO.C,J2*%
X99500000Y-62500000D02*
X103000000Y-62500000D01*
X103000000Y-62500000D02*
X103000000Y-65500000D01*
D14*
%TO.C,TP1*%
X122235000Y-75184000D02*
G75*
G02*
X120335000Y-75184000I-950000J0D01*
G01*
X120335000Y-75184000D02*
G75*
G02*
X122235000Y-75184000I950000J0D01*
G01*
%TO.C,R1*%
X133558000Y-57727064D02*
X133558000Y-57272936D01*
X135028000Y-57727064D02*
X135028000Y-57272936D01*
%TO.C,J13*%
X132020000Y-71180000D02*
X132020000Y-69850000D01*
X133350000Y-71180000D02*
X132020000Y-71180000D01*
X134620000Y-68520000D02*
X139760000Y-68520000D01*
X134620000Y-71180000D02*
X134620000Y-68520000D01*
X134620000Y-71180000D02*
X139760000Y-71180000D01*
X139760000Y-71180000D02*
X139760000Y-68520000D01*
%TO.C,JP10*%
X127109000Y-70120000D02*
X131209000Y-70120000D01*
X127109000Y-72120000D02*
X127109000Y-70120000D01*
X130459000Y-69920000D02*
X130159000Y-69620000D01*
X130459000Y-69920000D02*
X130759000Y-69620000D01*
X130759000Y-69620000D02*
X130159000Y-69620000D01*
X131209000Y-70120000D02*
X131209000Y-72120000D01*
X131209000Y-72120000D02*
X127109000Y-72120000D01*
%TO.C,J8*%
X144720000Y-76260000D02*
X144720000Y-74930000D01*
X146050000Y-76260000D02*
X144720000Y-76260000D01*
X147320000Y-73600000D02*
X152460000Y-73600000D01*
X147320000Y-76260000D02*
X147320000Y-73600000D01*
X147320000Y-76260000D02*
X152460000Y-76260000D01*
X152460000Y-76260000D02*
X152460000Y-73600000D01*
%TO.C,J4*%
X110580000Y-74000000D02*
X110580000Y-75330000D01*
X110580000Y-75330000D02*
X109250000Y-75330000D01*
D15*
%TO.C,J10*%
X147000000Y-45500000D02*
X150500000Y-45500000D01*
X147000000Y-48500000D02*
X147000000Y-45500000D01*
%TD*%
M02*
