%TF.GenerationSoftware,KiCad,Pcbnew,8.0.8*%
%TF.CreationDate,2025-01-18T23:44:27+01:00*%
%TF.ProjectId,myAntWeightBot,6d79416e-7457-4656-9967-6874426f742e,rev?*%
%TF.SameCoordinates,Original*%
%TF.FileFunction,Soldermask,Top*%
%TF.FilePolarity,Negative*%
%FSLAX46Y46*%
G04 Gerber Fmt 4.6, Leading zero omitted, Abs format (unit mm)*
G04 Created by KiCad (PCBNEW 8.0.8) date 2025-01-18 23:44:27*
%MOMM*%
%LPD*%
G01*
G04 APERTURE LIST*
G04 Aperture macros list*
%AMRoundRect*
0 Rectangle with rounded corners*
0 $1 Rounding radius*
0 $2 $3 $4 $5 $6 $7 $8 $9 X,Y pos of 4 corners*
0 Add a 4 corners polygon primitive as box body*
4,1,4,$2,$3,$4,$5,$6,$7,$8,$9,$2,$3,0*
0 Add four circle primitives for the rounded corners*
1,1,$1+$1,$2,$3*
1,1,$1+$1,$4,$5*
1,1,$1+$1,$6,$7*
1,1,$1+$1,$8,$9*
0 Add four rect primitives between the rounded corners*
20,1,$1+$1,$2,$3,$4,$5,0*
20,1,$1+$1,$4,$5,$6,$7,0*
20,1,$1+$1,$6,$7,$8,$9,0*
20,1,$1+$1,$8,$9,$2,$3,0*%
G04 Aperture macros list end*
%ADD10R,1.500000X1.000000*%
%ADD11C,1.500000*%
%ADD12RoundRect,0.250000X0.450000X-0.262500X0.450000X0.262500X-0.450000X0.262500X-0.450000X-0.262500X0*%
%ADD13R,1.700000X1.700000*%
%ADD14O,1.700000X1.700000*%
%ADD15R,1.800000X1.800000*%
%ADD16C,1.800000*%
%ADD17RoundRect,0.250000X0.262500X0.450000X-0.262500X0.450000X-0.262500X-0.450000X0.262500X-0.450000X0*%
%ADD18R,6.000000X5.000000*%
%ADD19RoundRect,0.250000X-0.925000X0.787500X-0.925000X-0.787500X0.925000X-0.787500X0.925000X0.787500X0*%
%ADD20R,1.000000X1.500000*%
%ADD21RoundRect,0.250000X-0.475000X0.250000X-0.475000X-0.250000X0.475000X-0.250000X0.475000X0.250000X0*%
%ADD22R,1.050000X1.500000*%
%ADD23O,1.050000X1.500000*%
%ADD24RoundRect,0.100000X-0.100000X0.637500X-0.100000X-0.637500X0.100000X-0.637500X0.100000X0.637500X0*%
%ADD25RoundRect,0.250000X0.475000X-0.250000X0.475000X0.250000X-0.475000X0.250000X-0.475000X-0.250000X0*%
%ADD26R,3.000000X1.700000*%
%ADD27R,0.450000X1.750000*%
G04 APERTURE END LIST*
D10*
%TO.C,JP13*%
X102500000Y-57500000D03*
X102500000Y-58800000D03*
%TD*%
D11*
%TO.C,TP5*%
X123825000Y-72644000D03*
%TD*%
%TO.C,TP2*%
X121285000Y-72644000D03*
%TD*%
D12*
%TO.C,R5*%
X112000000Y-73575000D03*
X112000000Y-71750000D03*
%TD*%
D13*
%TO.C,J12*%
X133350000Y-72390000D03*
D14*
X135890000Y-72390000D03*
X138430000Y-72390000D03*
%TD*%
D15*
%TO.C,D1*%
X114475000Y-72660000D03*
D16*
X117015000Y-72660000D03*
%TD*%
D13*
%TO.C,J3*%
X105500000Y-74000000D03*
D14*
X105500000Y-71460000D03*
%TD*%
D17*
%TO.C,R2*%
X96012000Y-47371000D03*
X94187000Y-47371000D03*
%TD*%
D18*
%TO.C,J1*%
X81500000Y-48400000D03*
X81500000Y-55600000D03*
%TD*%
D19*
%TO.C,C3*%
X143920000Y-46750000D03*
X143920000Y-51675000D03*
%TD*%
D11*
%TO.C,TP3*%
X121285000Y-70104000D03*
%TD*%
D20*
%TO.C,JP11*%
X130489000Y-68580000D03*
X129189000Y-68580000D03*
X127889000Y-68580000D03*
%TD*%
D21*
%TO.C,C1*%
X131826000Y-50170000D03*
X131826000Y-52070000D03*
%TD*%
D22*
%TO.C,Q2*%
X97430000Y-49411000D03*
D23*
X98700000Y-49411000D03*
X99970000Y-49411000D03*
%TD*%
D22*
%TO.C,Q1*%
X90170000Y-49411000D03*
D23*
X91440000Y-49411000D03*
X92710000Y-49411000D03*
%TD*%
D13*
%TO.C,J11*%
X133335000Y-74930000D03*
D14*
X135875000Y-74930000D03*
X138415000Y-74930000D03*
%TD*%
D24*
%TO.C,U3*%
X141700000Y-57589500D03*
X141050000Y-57589500D03*
X140400000Y-57589500D03*
X139750000Y-57589500D03*
X139100000Y-57589500D03*
X138450000Y-57589500D03*
X137800000Y-57589500D03*
X137150000Y-57589500D03*
X136500000Y-57589500D03*
X135850000Y-57589500D03*
X135850000Y-63314500D03*
X136500000Y-63314500D03*
X137150000Y-63314500D03*
X137800000Y-63314500D03*
X138450000Y-63314500D03*
X139100000Y-63314500D03*
X139750000Y-63314500D03*
X140400000Y-63314500D03*
X141050000Y-63314500D03*
X141700000Y-63314500D03*
%TD*%
D13*
%TO.C,J6*%
X146050000Y-69850000D03*
D14*
X148590000Y-69850000D03*
X151130000Y-69850000D03*
%TD*%
D13*
%TO.C,J9*%
X133335000Y-67310000D03*
D14*
X135875000Y-67310000D03*
X138415000Y-67310000D03*
%TD*%
D25*
%TO.C,C2*%
X131826000Y-48636000D03*
X131826000Y-46736000D03*
%TD*%
D17*
%TO.C,R4*%
X99949000Y-47371000D03*
X98124000Y-47371000D03*
%TD*%
%TO.C,R3*%
X92075000Y-47371000D03*
X90250000Y-47371000D03*
%TD*%
D26*
%TO.C,U1*%
X105800000Y-46294000D03*
X105800000Y-48834000D03*
X105800000Y-51374000D03*
X105800000Y-53914000D03*
X105800000Y-56454000D03*
X105800000Y-58994000D03*
X105800000Y-61534000D03*
X105800000Y-64074000D03*
X105800000Y-66614000D03*
X122800000Y-66614000D03*
X122800000Y-64074000D03*
X122800000Y-61534000D03*
X122800000Y-58994000D03*
X122800000Y-56454000D03*
X122800000Y-53914000D03*
X122800000Y-51374000D03*
X122800000Y-48834000D03*
X122800000Y-46294000D03*
%TD*%
D11*
%TO.C,TP4*%
X123825000Y-75184000D03*
%TD*%
D20*
%TO.C,JP9*%
X130459000Y-73660000D03*
X129159000Y-73660000D03*
X127859000Y-73660000D03*
%TD*%
D13*
%TO.C,J7*%
X146050000Y-72390000D03*
D14*
X148590000Y-72390000D03*
X151130000Y-72390000D03*
%TD*%
D27*
%TO.C,U2*%
X133925000Y-52862500D03*
X134575000Y-52862500D03*
X135225000Y-52862500D03*
X135875000Y-52862500D03*
X136525000Y-52862500D03*
X137175000Y-52862500D03*
X137825000Y-52862500D03*
X138475000Y-52862500D03*
X139125000Y-52862500D03*
X139775000Y-52862500D03*
X140425000Y-52862500D03*
X141075000Y-52862500D03*
X141075000Y-45662500D03*
X140425000Y-45662500D03*
X139775000Y-45662500D03*
X139125000Y-45662500D03*
X138475000Y-45662500D03*
X137825000Y-45662500D03*
X137175000Y-45662500D03*
X136525000Y-45662500D03*
X135875000Y-45662500D03*
X135225000Y-45662500D03*
X134575000Y-45662500D03*
X133925000Y-45662500D03*
%TD*%
D13*
%TO.C,J5*%
X146050000Y-67310000D03*
D14*
X148590000Y-67310000D03*
X151130000Y-67310000D03*
%TD*%
D21*
%TO.C,C5*%
X143293000Y-57850000D03*
X143293000Y-59750000D03*
%TD*%
D11*
%TO.C,TP6*%
X123825000Y-70104000D03*
%TD*%
D25*
%TO.C,C4*%
X143293000Y-63000000D03*
X143293000Y-61100000D03*
%TD*%
D18*
%TO.C,J2*%
X99500000Y-65400000D03*
X99500000Y-72600000D03*
%TD*%
D11*
%TO.C,TP1*%
X121285000Y-75184000D03*
%TD*%
D12*
%TO.C,R1*%
X134293000Y-58412500D03*
X134293000Y-56587500D03*
%TD*%
D13*
%TO.C,J13*%
X133350000Y-69850000D03*
D14*
X135890000Y-69850000D03*
X138430000Y-69850000D03*
%TD*%
D20*
%TO.C,JP10*%
X130459000Y-71120000D03*
X129159000Y-71120000D03*
X127859000Y-71120000D03*
%TD*%
D13*
%TO.C,J8*%
X146050000Y-74930000D03*
D14*
X148590000Y-74930000D03*
X151130000Y-74930000D03*
%TD*%
D13*
%TO.C,J4*%
X109250000Y-74000000D03*
D14*
X109250000Y-71460000D03*
%TD*%
D18*
%TO.C,J10*%
X150500000Y-48400000D03*
X150500000Y-55600000D03*
%TD*%
M02*
