%TF.GenerationSoftware,KiCad,Pcbnew,8.0.8*%
%TF.CreationDate,2025-01-18T23:44:27+01:00*%
%TF.ProjectId,myAntWeightBot,6d79416e-7457-4656-9967-6874426f742e,rev?*%
%TF.SameCoordinates,Original*%
%TF.FileFunction,Copper,L4,Bot*%
%TF.FilePolarity,Positive*%
%FSLAX46Y46*%
G04 Gerber Fmt 4.6, Leading zero omitted, Abs format (unit mm)*
G04 Created by KiCad (PCBNEW 8.0.8) date 2025-01-18 23:44:27*
%MOMM*%
%LPD*%
G01*
G04 APERTURE LIST*
%TA.AperFunction,EtchedComponent*%
%ADD10C,0.000000*%
%TD*%
%TA.AperFunction,SMDPad,CuDef*%
%ADD11R,1.000000X1.500000*%
%TD*%
%TA.AperFunction,ComponentPad*%
%ADD12C,1.500000*%
%TD*%
%TA.AperFunction,ComponentPad*%
%ADD13R,1.700000X1.700000*%
%TD*%
%TA.AperFunction,ComponentPad*%
%ADD14O,1.700000X1.700000*%
%TD*%
%TA.AperFunction,ComponentPad*%
%ADD15R,1.800000X1.800000*%
%TD*%
%TA.AperFunction,ComponentPad*%
%ADD16C,1.800000*%
%TD*%
%TA.AperFunction,ComponentPad*%
%ADD17R,6.000000X5.000000*%
%TD*%
%TA.AperFunction,ComponentPad*%
%ADD18R,1.050000X1.500000*%
%TD*%
%TA.AperFunction,ComponentPad*%
%ADD19O,1.050000X1.500000*%
%TD*%
%TA.AperFunction,SMDPad,CuDef*%
%ADD20R,1.500000X1.000000*%
%TD*%
%TA.AperFunction,ViaPad*%
%ADD21C,0.600000*%
%TD*%
%TA.AperFunction,Conductor*%
%ADD22C,0.300000*%
%TD*%
%TA.AperFunction,Conductor*%
%ADD23C,0.400000*%
%TD*%
%TA.AperFunction,Conductor*%
%ADD24C,0.350000*%
%TD*%
%TA.AperFunction,Conductor*%
%ADD25C,0.500000*%
%TD*%
%TA.AperFunction,Conductor*%
%ADD26C,0.800000*%
%TD*%
%TA.AperFunction,Conductor*%
%ADD27C,0.450000*%
%TD*%
G04 APERTURE END LIST*
D10*
%TA.AperFunction,EtchedComponent*%
%TO.C,JP14*%
G36*
X92350000Y-47800000D02*
G01*
X91850000Y-47800000D01*
X91850000Y-47200000D01*
X92350000Y-47200000D01*
X92350000Y-47800000D01*
G37*
%TD.AperFunction*%
%TA.AperFunction,EtchedComponent*%
%TO.C,JP6*%
G36*
X130119000Y-75230000D02*
G01*
X129619000Y-75230000D01*
X129619000Y-74630000D01*
X130119000Y-74630000D01*
X130119000Y-75230000D01*
G37*
%TD.AperFunction*%
%TA.AperFunction,EtchedComponent*%
%TO.C,JP1*%
G36*
X143140000Y-67610000D02*
G01*
X142640000Y-67610000D01*
X142640000Y-67010000D01*
X143140000Y-67010000D01*
X143140000Y-67610000D01*
G37*
%TD.AperFunction*%
%TA.AperFunction,EtchedComponent*%
%TO.C,JP3*%
G36*
X143140000Y-72690000D02*
G01*
X142640000Y-72690000D01*
X142640000Y-72090000D01*
X143140000Y-72090000D01*
X143140000Y-72690000D01*
G37*
%TD.AperFunction*%
%TA.AperFunction,EtchedComponent*%
%TO.C,JP12*%
G36*
X144220000Y-48812500D02*
G01*
X143620000Y-48812500D01*
X143620000Y-48312500D01*
X144220000Y-48312500D01*
X144220000Y-48812500D01*
G37*
%TD.AperFunction*%
%TA.AperFunction,EtchedComponent*%
%TO.C,JP2*%
G36*
X143110000Y-70150000D02*
G01*
X142610000Y-70150000D01*
X142610000Y-69550000D01*
X143110000Y-69550000D01*
X143110000Y-70150000D01*
G37*
%TD.AperFunction*%
%TA.AperFunction,EtchedComponent*%
%TO.C,JP8*%
G36*
X130089000Y-70150000D02*
G01*
X129589000Y-70150000D01*
X129589000Y-69550000D01*
X130089000Y-69550000D01*
X130089000Y-70150000D01*
G37*
%TD.AperFunction*%
%TA.AperFunction,EtchedComponent*%
%TO.C,JP4*%
G36*
X143140000Y-75230000D02*
G01*
X142640000Y-75230000D01*
X142640000Y-74630000D01*
X143140000Y-74630000D01*
X143140000Y-75230000D01*
G37*
%TD.AperFunction*%
%TA.AperFunction,EtchedComponent*%
%TO.C,JP7*%
G36*
X130089000Y-72690000D02*
G01*
X129589000Y-72690000D01*
X129589000Y-72090000D01*
X130089000Y-72090000D01*
X130089000Y-72690000D01*
G37*
%TD.AperFunction*%
%TA.AperFunction,EtchedComponent*%
%TO.C,JP5*%
G36*
X130089000Y-67610000D02*
G01*
X129589000Y-67610000D01*
X129589000Y-67010000D01*
X130089000Y-67010000D01*
X130089000Y-67610000D01*
G37*
%TD.AperFunction*%
%TD*%
D11*
%TO.P,JP14,1,A*%
%TO.N,Net-(JP14-A)*%
X91450000Y-47500000D03*
%TO.P,JP14,2,B*%
%TO.N,Net-(JP14-B)*%
X92750000Y-47500000D03*
%TD*%
D12*
%TO.P,TP5,1,1*%
%TO.N,Net-(JP10-B)*%
X123825000Y-72644000D03*
%TD*%
%TO.P,TP2,1,1*%
%TO.N,Net-(U3-A7)*%
X121285000Y-72644000D03*
%TD*%
D13*
%TO.P,J12,1,Pin_1*%
%TO.N,Net-(J12-Pin_1)*%
X133350000Y-72390000D03*
D14*
%TO.P,J12,2,Pin_2*%
%TO.N,Net-(J12-Pin_2)*%
X135890000Y-72390000D03*
%TO.P,J12,3,Pin_3*%
%TO.N,GND*%
X138430000Y-72390000D03*
%TD*%
D15*
%TO.P,D1,1,K*%
%TO.N,Net-(D1-K)*%
X114475000Y-72660000D03*
D16*
%TO.P,D1,2,A*%
%TO.N,+5V*%
X117015000Y-72660000D03*
%TD*%
D13*
%TO.P,J3,1,Pin_1*%
%TO.N,Net-(J3-Pin_1)*%
X105500000Y-74000000D03*
D14*
%TO.P,J3,2,Pin_2*%
%TO.N,Net-(J3-Pin_2)*%
X105500000Y-71460000D03*
%TD*%
D17*
%TO.P,J1,1,Pin_1*%
%TO.N,+BATT*%
X81500000Y-48400000D03*
%TO.P,J1,2,Pin_2*%
%TO.N,Net-(J1-Pin_2)*%
X81500000Y-55600000D03*
%TD*%
D12*
%TO.P,TP3,1,1*%
%TO.N,Net-(U3-A8)*%
X121285000Y-70104000D03*
%TD*%
D18*
%TO.P,Q2,1,D*%
%TO.N,Net-(Q2-D)*%
X97430000Y-49411000D03*
D19*
%TO.P,Q2,2,G*%
%TO.N,Net-(Q1-D)*%
X98700000Y-49411000D03*
%TO.P,Q2,3,S*%
%TO.N,+BATT*%
X99970000Y-49411000D03*
%TD*%
D18*
%TO.P,Q1,1,S*%
%TO.N,GND*%
X90170000Y-49411000D03*
D19*
%TO.P,Q1,2,G*%
%TO.N,Net-(JP14-A)*%
X91440000Y-49411000D03*
%TO.P,Q1,3,D*%
%TO.N,Net-(Q1-D)*%
X92710000Y-49411000D03*
%TD*%
D13*
%TO.P,J11,1,Pin_1*%
%TO.N,Net-(J11-Pin_1)*%
X133335000Y-74930000D03*
D14*
%TO.P,J11,2,Pin_2*%
%TO.N,Net-(J11-Pin_2)*%
X135875000Y-74930000D03*
%TO.P,J11,3,Pin_3*%
%TO.N,GND*%
X138415000Y-74930000D03*
%TD*%
D13*
%TO.P,J6,1,Pin_1*%
%TO.N,Net-(J6-Pin_1)*%
X146050000Y-69850000D03*
D14*
%TO.P,J6,2,Pin_2*%
%TO.N,Net-(J6-Pin_2)*%
X148590000Y-69850000D03*
%TO.P,J6,3,Pin_3*%
%TO.N,GND*%
X151130000Y-69850000D03*
%TD*%
D13*
%TO.P,J9,1,Pin_1*%
%TO.N,Net-(J9-Pin_1)*%
X133335000Y-67310000D03*
D14*
%TO.P,J9,2,Pin_2*%
%TO.N,Net-(J9-Pin_2)*%
X135875000Y-67310000D03*
%TO.P,J9,3,Pin_3*%
%TO.N,GND*%
X138415000Y-67310000D03*
%TD*%
D12*
%TO.P,TP4,1,1*%
%TO.N,Net-(JP9-B)*%
X123825000Y-75184000D03*
%TD*%
D13*
%TO.P,J7,1,Pin_1*%
%TO.N,Net-(J7-Pin_1)*%
X146050000Y-72390000D03*
D14*
%TO.P,J7,2,Pin_2*%
%TO.N,Net-(J7-Pin_2)*%
X148590000Y-72390000D03*
%TO.P,J7,3,Pin_3*%
%TO.N,GND*%
X151130000Y-72390000D03*
%TD*%
D13*
%TO.P,J5,1,Pin_1*%
%TO.N,Net-(J5-Pin_1)*%
X146050000Y-67310000D03*
D14*
%TO.P,J5,2,Pin_2*%
%TO.N,Net-(J5-Pin_2)*%
X148590000Y-67310000D03*
%TO.P,J5,3,Pin_3*%
%TO.N,GND*%
X151130000Y-67310000D03*
%TD*%
D12*
%TO.P,TP6,1,1*%
%TO.N,Net-(JP11-B)*%
X123825000Y-70104000D03*
%TD*%
D17*
%TO.P,J2,1,Pin_1*%
%TO.N,Net-(J1-Pin_2)*%
X99500000Y-65400000D03*
%TO.P,J2,2,Pin_2*%
%TO.N,GND*%
X99500000Y-72600000D03*
%TD*%
D12*
%TO.P,TP1,1,1*%
%TO.N,Net-(U3-A6)*%
X121285000Y-75184000D03*
%TD*%
D13*
%TO.P,J13,1,Pin_1*%
%TO.N,Net-(J13-Pin_1)*%
X133350000Y-69850000D03*
D14*
%TO.P,J13,2,Pin_2*%
%TO.N,Net-(J13-Pin_2)*%
X135890000Y-69850000D03*
%TO.P,J13,3,Pin_3*%
%TO.N,GND*%
X138430000Y-69850000D03*
%TD*%
D13*
%TO.P,J8,1,Pin_1*%
%TO.N,Net-(J8-Pin_1)*%
X146050000Y-74930000D03*
D14*
%TO.P,J8,2,Pin_2*%
%TO.N,Net-(J8-Pin_2)*%
X148590000Y-74930000D03*
%TO.P,J8,3,Pin_3*%
%TO.N,GND*%
X151130000Y-74930000D03*
%TD*%
D13*
%TO.P,J4,1,Pin_1*%
%TO.N,Net-(J4-Pin_1)*%
X109250000Y-74000000D03*
D14*
%TO.P,J4,2,Pin_2*%
%TO.N,Net-(J4-Pin_2)*%
X109250000Y-71460000D03*
%TD*%
D11*
%TO.P,JP6,1,A*%
%TO.N,+5V*%
X130519000Y-74930000D03*
%TO.P,JP6,2,C*%
%TO.N,Net-(J11-Pin_2)*%
X129219000Y-74930000D03*
%TO.P,JP6,3,B*%
%TO.N,+3.3V*%
X127919000Y-74930000D03*
%TD*%
%TO.P,JP1,1,A*%
%TO.N,+5V*%
X143540000Y-67310000D03*
%TO.P,JP1,2,C*%
%TO.N,Net-(J5-Pin_2)*%
X142240000Y-67310000D03*
%TO.P,JP1,3,B*%
%TO.N,+BATT*%
X140940000Y-67310000D03*
%TD*%
D17*
%TO.P,J10,1,Pin_1*%
%TO.N,+BATT*%
X150500000Y-48400000D03*
%TO.P,J10,2,Pin_2*%
%TO.N,GND*%
X150500000Y-55600000D03*
%TD*%
D11*
%TO.P,JP3,1,A*%
%TO.N,+5V*%
X143540000Y-72390000D03*
%TO.P,JP3,2,C*%
%TO.N,Net-(J7-Pin_2)*%
X142240000Y-72390000D03*
%TO.P,JP3,3,B*%
%TO.N,+BATT*%
X140940000Y-72390000D03*
%TD*%
D20*
%TO.P,JP12,1,A*%
%TO.N,+BATT*%
X143920000Y-47912500D03*
%TO.P,JP12,2,C*%
%TO.N,Net-(JP12-C)*%
X143920000Y-49212500D03*
%TO.P,JP12,3,B*%
%TO.N,+5V*%
X143920000Y-50512500D03*
%TD*%
D11*
%TO.P,JP2,1,A*%
%TO.N,+5V*%
X143510000Y-69850000D03*
%TO.P,JP2,2,C*%
%TO.N,Net-(J6-Pin_2)*%
X142210000Y-69850000D03*
%TO.P,JP2,3,B*%
%TO.N,+BATT*%
X140910000Y-69850000D03*
%TD*%
%TO.P,JP8,1,A*%
%TO.N,+5V*%
X130489000Y-69850000D03*
%TO.P,JP8,2,C*%
%TO.N,Net-(J13-Pin_2)*%
X129189000Y-69850000D03*
%TO.P,JP8,3,B*%
%TO.N,+3.3V*%
X127889000Y-69850000D03*
%TD*%
%TO.P,JP4,1,A*%
%TO.N,+5V*%
X143540000Y-74930000D03*
%TO.P,JP4,2,C*%
%TO.N,Net-(J8-Pin_2)*%
X142240000Y-74930000D03*
%TO.P,JP4,3,B*%
%TO.N,+BATT*%
X140940000Y-74930000D03*
%TD*%
%TO.P,JP7,1,A*%
%TO.N,+5V*%
X130489000Y-72390000D03*
%TO.P,JP7,2,C*%
%TO.N,Net-(J12-Pin_2)*%
X129189000Y-72390000D03*
%TO.P,JP7,3,B*%
%TO.N,+3.3V*%
X127889000Y-72390000D03*
%TD*%
%TO.P,JP5,1,A*%
%TO.N,+5V*%
X130489000Y-67310000D03*
%TO.P,JP5,2,C*%
%TO.N,Net-(J9-Pin_2)*%
X129189000Y-67310000D03*
%TO.P,JP5,3,B*%
%TO.N,+BATT*%
X127889000Y-67310000D03*
%TD*%
D21*
%TO.N,GND*%
X138400000Y-66000000D03*
%TO.N,Net-(JP14-B)*%
X118200000Y-46300000D03*
%TO.N,+3.3V*%
X126873000Y-72390000D03*
X133205500Y-58412500D03*
X108100000Y-52700000D03*
X126873000Y-69850000D03*
X126873000Y-74930000D03*
X108100000Y-52100000D03*
X129900000Y-53400000D03*
X143313000Y-56500000D03*
%TO.N,GND*%
X118110000Y-76200000D03*
X113030000Y-52070000D03*
X96520000Y-55880000D03*
X119239025Y-69128163D03*
X118401818Y-59169906D03*
X125730000Y-50165000D03*
X144780000Y-76200000D03*
X97790000Y-76200000D03*
X125730000Y-47625000D03*
X131900000Y-53500000D03*
X130810000Y-76200000D03*
X107950000Y-76200000D03*
X119294181Y-71404723D03*
X118110000Y-54610000D03*
X149085413Y-62239254D03*
X146050000Y-62230000D03*
X93980000Y-58420000D03*
X97790000Y-69088000D03*
X110490000Y-76200000D03*
X102870000Y-54610000D03*
X139700000Y-76200000D03*
X152400000Y-62230000D03*
X142240000Y-76200000D03*
X99060000Y-53340000D03*
X79502000Y-45085000D03*
X97282000Y-62103000D03*
X137800000Y-48209200D03*
X152400000Y-76200000D03*
X111905293Y-67019874D03*
X88900000Y-53340000D03*
X129540000Y-47625000D03*
X102870000Y-49530000D03*
X108157298Y-60315127D03*
X108331000Y-48895000D03*
X113030000Y-76200000D03*
X125095000Y-76200000D03*
X128400000Y-54900000D03*
X120910491Y-44773558D03*
X120098854Y-47269685D03*
X132907621Y-45085000D03*
X79502000Y-59309000D03*
X93980000Y-53340000D03*
X105410000Y-76200000D03*
X91440000Y-55880000D03*
X88900000Y-48260000D03*
X118110000Y-52070000D03*
X90297000Y-45720000D03*
X99060000Y-58420000D03*
X131300000Y-53500000D03*
X116486176Y-62189125D03*
X120015000Y-76200000D03*
X132500000Y-53500000D03*
X135219000Y-63373000D03*
X139446000Y-54610000D03*
X125730000Y-45085000D03*
X102870000Y-52070000D03*
X86360000Y-45720000D03*
X102870000Y-69088000D03*
X86360000Y-50800000D03*
X127635000Y-46355000D03*
X101473000Y-62103000D03*
X79502000Y-52070000D03*
X113030000Y-54610000D03*
X88900000Y-58420000D03*
X109948007Y-68956338D03*
X127635000Y-48260000D03*
X102870000Y-76200000D03*
X128270000Y-76200000D03*
X102870000Y-46990000D03*
X113716824Y-62209947D03*
X110243218Y-46323689D03*
X86360000Y-55880000D03*
X129540000Y-45085000D03*
X100330000Y-76200000D03*
X115570000Y-76200000D03*
X128800000Y-54500000D03*
X115570000Y-46990000D03*
X135534400Y-54559200D03*
%TO.N,+BATT*%
X126873000Y-67310000D03*
X139954000Y-67310000D03*
X141875259Y-61064981D03*
X139954000Y-72390000D03*
X139924000Y-69850000D03*
X139954000Y-74930000D03*
%TO.N,+5V*%
X144414620Y-69835380D03*
X144400000Y-67310000D03*
X131699000Y-66929000D03*
X143920000Y-54980000D03*
X143920000Y-54400000D03*
X109728000Y-51000000D03*
X144414620Y-72375380D03*
X109728000Y-50400000D03*
X131691500Y-74414500D03*
X143313000Y-62100000D03*
X131699000Y-69342000D03*
X131699000Y-71882000D03*
X144400000Y-74930000D03*
%TO.N,Net-(J3-Pin_2)*%
X134239000Y-54505600D03*
%TO.N,Net-(J3-Pin_1)*%
X136804400Y-55016400D03*
%TO.N,Net-(J4-Pin_1)*%
X140750000Y-55000000D03*
%TO.N,Net-(J4-Pin_2)*%
X138176000Y-54991000D03*
%TO.N,Net-(U3-A6)*%
X137800000Y-58674000D03*
%TO.N,Net-(U3-A7)*%
X137149999Y-59140371D03*
%TO.N,Net-(U3-A8)*%
X136500000Y-58674000D03*
%TO.N,Net-(U1-IO13)*%
X125924357Y-51400757D03*
X134550000Y-48209200D03*
%TO.N,Net-(U1-IO10)*%
X120000000Y-58994000D03*
X137239291Y-49484942D03*
%TO.N,Net-(U1-IO8)*%
X139100000Y-49793353D03*
X117924961Y-61297439D03*
%TO.N,Net-(U1-IO11)*%
X120000000Y-56454000D03*
X135890000Y-49174400D03*
%TO.N,Net-(U1-IO7)*%
X139750800Y-50393600D03*
X118004951Y-62484000D03*
%TO.N,Net-(U1-IO12)*%
X135200000Y-48697102D03*
X120000000Y-53914000D03*
%TO.N,Net-(U1-IO9)*%
X138450000Y-49228826D03*
X119009199Y-60543199D03*
%TO.N,Net-(JP12-C)*%
X140716000Y-46990000D03*
X133900000Y-46990000D03*
%TD*%
D22*
%TO.N,Net-(U3-A6)*%
X135114609Y-62095000D02*
X134800000Y-62095000D01*
X137800000Y-59409609D02*
X135114609Y-62095000D01*
X137800000Y-58674000D02*
X137800000Y-59409609D01*
X130890106Y-62095000D02*
X134800000Y-62095000D01*
D23*
%TO.N,Net-(J11-Pin_2)*%
X129540000Y-73660000D02*
X134605000Y-73660000D01*
X134605000Y-73660000D02*
X135875000Y-74930000D01*
X129219000Y-73981000D02*
X129540000Y-73660000D01*
X129219000Y-74930000D02*
X129219000Y-73981000D01*
D24*
%TO.N,Net-(JP14-B)*%
X93400000Y-47500000D02*
X92750000Y-47500000D01*
X94120000Y-48220000D02*
X93400000Y-47500000D01*
X118200000Y-46300000D02*
X116280000Y-48220000D01*
X116280000Y-48220000D02*
X94120000Y-48220000D01*
%TO.N,Net-(JP14-A)*%
X91440000Y-47510000D02*
X91450000Y-47500000D01*
X91440000Y-49411000D02*
X91440000Y-47510000D01*
D23*
%TO.N,+3.3V*%
X127889000Y-69850000D02*
X126873000Y-69850000D01*
X127889000Y-72390000D02*
X126873000Y-72390000D01*
X127919000Y-74930000D02*
X126873000Y-74930000D01*
D25*
%TO.N,+BATT*%
X140940000Y-74930000D02*
X139954000Y-74930000D01*
X140940000Y-67310000D02*
X139954000Y-67310000D01*
D26*
X145512500Y-47912500D02*
X146000000Y-48400000D01*
D25*
X140940000Y-72390000D02*
X139954000Y-72390000D01*
D23*
X127889000Y-67310000D02*
X126873000Y-67310000D01*
D26*
X143920000Y-47912500D02*
X145512500Y-47912500D01*
X146000000Y-48400000D02*
X150500000Y-48400000D01*
D25*
X140910000Y-69850000D02*
X139924000Y-69850000D01*
D26*
%TO.N,+5V*%
X143920000Y-54400000D02*
X143920000Y-54980000D01*
D23*
X130459000Y-67310000D02*
X130459000Y-67280000D01*
X131699000Y-71882000D02*
X131826000Y-71882000D01*
X131176000Y-74930000D02*
X131691500Y-74414500D01*
X130489000Y-69850000D02*
X131191000Y-69850000D01*
X131191000Y-69850000D02*
X131699000Y-69342000D01*
X131191000Y-72390000D02*
X131699000Y-71882000D01*
D25*
X143540000Y-72390000D02*
X144400000Y-72390000D01*
X143510000Y-69850000D02*
X144400000Y-69850000D01*
D23*
X130459000Y-67310000D02*
X131318000Y-67310000D01*
D25*
X144400000Y-74930000D02*
X143540000Y-74930000D01*
D23*
X131318000Y-67310000D02*
X131699000Y-66929000D01*
D26*
X143920000Y-50512500D02*
X143920000Y-54400000D01*
D23*
X130519000Y-74930000D02*
X131176000Y-74930000D01*
X130519000Y-74840000D02*
X130519000Y-74930000D01*
D25*
X144400000Y-72390000D02*
X144414620Y-72375380D01*
D23*
X130489000Y-72390000D02*
X131191000Y-72390000D01*
D25*
X143540000Y-67310000D02*
X144400000Y-67310000D01*
X144400000Y-69850000D02*
X144414620Y-69835380D01*
D27*
%TO.N,Net-(J3-Pin_2)*%
X105500000Y-71460000D02*
X105500000Y-71000000D01*
D26*
X111123786Y-64500000D02*
X111116393Y-64507393D01*
X111116393Y-64507393D02*
X105500000Y-70123786D01*
X120257358Y-64500000D02*
X111123786Y-64500000D01*
X105500000Y-70123786D02*
X105500000Y-71460000D01*
X130251758Y-54505600D02*
X120257358Y-64500000D01*
X134239000Y-54505600D02*
X130251758Y-54505600D01*
D27*
%TO.N,Net-(J3-Pin_1)*%
X105500000Y-74000000D02*
X106000000Y-74000000D01*
D26*
X111538000Y-65500000D02*
X107442000Y-69596000D01*
X107150000Y-74000000D02*
X105500000Y-74000000D01*
X107442000Y-73708000D02*
X107150000Y-74000000D01*
X136804400Y-55016400D02*
X136315200Y-55505600D01*
X136315200Y-55505600D02*
X130665972Y-55505600D01*
X107442000Y-69596000D02*
X107442000Y-73708000D01*
X130665972Y-55505600D02*
X120671572Y-65500000D01*
X120671572Y-65500000D02*
X111538000Y-65500000D01*
%TO.N,Net-(J4-Pin_1)*%
X115750000Y-67500000D02*
X121500000Y-67500000D01*
X140750000Y-56912800D02*
X140750000Y-55000000D01*
X121500000Y-67500000D02*
X131494400Y-57505600D01*
X131494400Y-57505600D02*
X140157200Y-57505600D01*
X140157200Y-57505600D02*
X140750000Y-56912800D01*
X109250000Y-74000000D02*
X115750000Y-67500000D01*
%TO.N,Net-(J4-Pin_2)*%
X138176000Y-55930800D02*
X137601200Y-56505600D01*
X137601200Y-56505600D02*
X131080186Y-56505600D01*
X131080186Y-56505600D02*
X121085786Y-66500000D01*
X138176000Y-54991000D02*
X138176000Y-55930800D01*
X114210000Y-66500000D02*
X109250000Y-71460000D01*
X121085786Y-66500000D02*
X114210000Y-66500000D01*
D23*
%TO.N,Net-(J5-Pin_2)*%
X142240000Y-67310000D02*
X142240000Y-66560000D01*
X142240000Y-66560000D02*
X142760000Y-66040000D01*
X142760000Y-66040000D02*
X147320000Y-66040000D01*
X147320000Y-66040000D02*
X148590000Y-67310000D01*
%TO.N,Net-(J6-Pin_2)*%
X142210000Y-69850000D02*
X142210000Y-69118000D01*
X142748000Y-68580000D02*
X147320000Y-68580000D01*
X142210000Y-69118000D02*
X142748000Y-68580000D01*
X147320000Y-68580000D02*
X148590000Y-69850000D01*
%TO.N,Net-(J7-Pin_2)*%
X142240000Y-71640000D02*
X142740000Y-71140000D01*
X142740000Y-71140000D02*
X147340000Y-71140000D01*
X142240000Y-72390000D02*
X142240000Y-71640000D01*
X147340000Y-71140000D02*
X148590000Y-72390000D01*
%TO.N,Net-(J8-Pin_2)*%
X142748000Y-73660000D02*
X147320000Y-73660000D01*
X147320000Y-73660000D02*
X148590000Y-74930000D01*
X142240000Y-74168000D02*
X142748000Y-73660000D01*
X142240000Y-74930000D02*
X142240000Y-74168000D01*
%TO.N,Net-(J9-Pin_2)*%
X129159000Y-67310000D02*
X129159000Y-66294000D01*
X129159000Y-66294000D02*
X129413000Y-66040000D01*
X134605000Y-66040000D02*
X135875000Y-67310000D01*
X129413000Y-66040000D02*
X134605000Y-66040000D01*
%TO.N,Net-(J12-Pin_2)*%
X129189000Y-71471000D02*
X129540000Y-71120000D01*
X129189000Y-72390000D02*
X129189000Y-71471000D01*
X129540000Y-71120000D02*
X134620000Y-71120000D01*
X134620000Y-71120000D02*
X135890000Y-72390000D01*
%TO.N,Net-(J13-Pin_2)*%
X134620000Y-68580000D02*
X135890000Y-69850000D01*
X129189000Y-68931000D02*
X129540000Y-68580000D01*
X129540000Y-68580000D02*
X134620000Y-68580000D01*
X129189000Y-69850000D02*
X129189000Y-68931000D01*
D22*
%TO.N,Net-(U3-A6)*%
X121285000Y-75184000D02*
X122555000Y-73914000D01*
X124841000Y-73914000D02*
X125857000Y-72898000D01*
X125857000Y-72898000D02*
X125857000Y-67128106D01*
X122555000Y-73914000D02*
X124841000Y-73914000D01*
X125857000Y-67128106D02*
X130890106Y-62095000D01*
%TO.N,Net-(U3-A7)*%
X130683000Y-61595000D02*
X134695370Y-61595000D01*
X122725000Y-69553000D02*
X130683000Y-61595000D01*
X134695370Y-61595000D02*
X137149999Y-59140371D01*
X122725000Y-71204000D02*
X122725000Y-69553000D01*
X121285000Y-72644000D02*
X122725000Y-71204000D01*
%TO.N,Net-(U3-A8)*%
X121666000Y-70104000D02*
X121285000Y-70104000D01*
X122225000Y-69345894D02*
X122225000Y-69545000D01*
X136500000Y-58674000D02*
X134079000Y-61095000D01*
X134079000Y-61095000D02*
X130475894Y-61095000D01*
X122225000Y-69545000D02*
X121666000Y-70104000D01*
X130475894Y-61095000D02*
X122225000Y-69345894D01*
D24*
%TO.N,Net-(U1-IO13)*%
X133299200Y-49379600D02*
X133379600Y-49379600D01*
X128122292Y-49379600D02*
X133299200Y-49379600D01*
X126723946Y-50777946D02*
X128122292Y-49379600D01*
X125924357Y-51400757D02*
X126101135Y-51400757D01*
X126101135Y-51400757D02*
X126723946Y-50777946D01*
X133379600Y-49379600D02*
X134550000Y-48209200D01*
%TO.N,Net-(U1-IO10)*%
X137239291Y-49484942D02*
X135694633Y-51029600D01*
X120841346Y-58994000D02*
X120000000Y-58994000D01*
X128805746Y-51029600D02*
X120841346Y-58994000D01*
X135694633Y-51029600D02*
X128805746Y-51029600D01*
%TO.N,Net-(U1-IO8)*%
X122445491Y-58945491D02*
X129261382Y-52129600D01*
X136763753Y-52129600D02*
X139100000Y-49793353D01*
X132842000Y-52129600D02*
X136763753Y-52129600D01*
X117924961Y-61297439D02*
X120093543Y-61297439D01*
X120093543Y-61297439D02*
X122445491Y-58945491D01*
X129261382Y-52129600D02*
X132842000Y-52129600D01*
%TO.N,Net-(U1-IO11)*%
X120000000Y-56454000D02*
X122603528Y-56454000D01*
X125952364Y-53105164D02*
X128577928Y-50479600D01*
X134584800Y-50479600D02*
X135890000Y-49174400D01*
X128577928Y-50479600D02*
X130606800Y-50479600D01*
X130606800Y-50479600D02*
X134584800Y-50479600D01*
X122603528Y-56454000D02*
X125952364Y-53105164D01*
%TO.N,Net-(U1-IO7)*%
X122072400Y-60096400D02*
X129489200Y-52679600D01*
X119684800Y-62484000D02*
X122072400Y-60096400D01*
X129489200Y-52679600D02*
X137464800Y-52679600D01*
X118004951Y-62484000D02*
X119684800Y-62484000D01*
X137464800Y-52679600D02*
X139750800Y-50393600D01*
%TO.N,Net-(U1-IO12)*%
X124365710Y-53914000D02*
X127671655Y-50608055D01*
X133967502Y-49929600D02*
X135200000Y-48697102D01*
X127671655Y-50608055D02*
X128350110Y-49929600D01*
X120000000Y-53914000D02*
X124365710Y-53914000D01*
X128350110Y-49929600D02*
X131470400Y-49929600D01*
X131470400Y-49929600D02*
X133967502Y-49929600D01*
%TO.N,Net-(U1-IO9)*%
X129033564Y-51579600D02*
X132080000Y-51579600D01*
X122539182Y-58073982D02*
X129033564Y-51579600D01*
X120069965Y-60543199D02*
X122539182Y-58073982D01*
X119009199Y-60543199D02*
X120069965Y-60543199D01*
X136099226Y-51579600D02*
X138450000Y-49228826D01*
X132080000Y-51579600D02*
X136099226Y-51579600D01*
D26*
%TO.N,Net-(JP12-C)*%
X143920000Y-49212500D02*
X142938500Y-49212500D01*
X140716000Y-46990000D02*
X133900000Y-46990000D01*
X142938500Y-49212500D02*
X140716000Y-46990000D01*
%TD*%
%TA.AperFunction,Conductor*%
%TO.N,GND*%
G36*
X152942539Y-44520185D02*
G01*
X152988294Y-44572989D01*
X152999500Y-44624500D01*
X152999500Y-45275500D01*
X152979815Y-45342539D01*
X152927011Y-45388294D01*
X152875500Y-45399500D01*
X147452129Y-45399500D01*
X147452123Y-45399501D01*
X147392516Y-45405908D01*
X147257671Y-45456202D01*
X147257664Y-45456206D01*
X147142455Y-45542452D01*
X147142452Y-45542455D01*
X147056206Y-45657664D01*
X147056202Y-45657671D01*
X147005908Y-45792517D01*
X146999501Y-45852116D01*
X146999501Y-45852123D01*
X146999500Y-45852135D01*
X146999500Y-47375500D01*
X146979815Y-47442539D01*
X146927011Y-47488294D01*
X146875500Y-47499500D01*
X146424362Y-47499500D01*
X146357323Y-47479815D01*
X146336681Y-47463181D01*
X146086541Y-47213040D01*
X146086538Y-47213037D01*
X146022379Y-47170168D01*
X145939044Y-47114485D01*
X145939042Y-47114484D01*
X145830183Y-47069394D01*
X145775166Y-47046605D01*
X145775158Y-47046603D01*
X145601196Y-47012000D01*
X145601192Y-47012000D01*
X145601191Y-47012000D01*
X145011439Y-47012000D01*
X144944400Y-46992315D01*
X144937128Y-46987267D01*
X144912331Y-46968704D01*
X144912328Y-46968702D01*
X144777482Y-46918408D01*
X144777483Y-46918408D01*
X144717883Y-46912001D01*
X144717881Y-46912000D01*
X144717873Y-46912000D01*
X144717864Y-46912000D01*
X143122129Y-46912000D01*
X143122123Y-46912001D01*
X143062516Y-46918408D01*
X142927671Y-46968702D01*
X142927664Y-46968706D01*
X142812455Y-47054952D01*
X142812452Y-47054955D01*
X142726206Y-47170164D01*
X142726202Y-47170171D01*
X142675908Y-47305017D01*
X142669501Y-47364616D01*
X142669500Y-47364635D01*
X142669500Y-47370637D01*
X142649815Y-47437676D01*
X142597011Y-47483431D01*
X142527853Y-47493375D01*
X142464297Y-47464350D01*
X142457819Y-47458318D01*
X141290039Y-46290538D01*
X141290034Y-46290534D01*
X141228622Y-46249501D01*
X141228621Y-46249500D01*
X141142552Y-46191990D01*
X141142540Y-46191983D01*
X141060607Y-46158046D01*
X141060606Y-46158046D01*
X140978666Y-46124105D01*
X140978658Y-46124103D01*
X140804696Y-46089500D01*
X140804692Y-46089500D01*
X140804691Y-46089500D01*
X133811309Y-46089500D01*
X133811306Y-46089500D01*
X133637341Y-46124103D01*
X133637332Y-46124106D01*
X133473459Y-46191983D01*
X133473446Y-46191990D01*
X133325965Y-46290535D01*
X133325961Y-46290538D01*
X133200538Y-46415961D01*
X133200535Y-46415965D01*
X133101990Y-46563446D01*
X133101983Y-46563459D01*
X133034106Y-46727332D01*
X133034103Y-46727341D01*
X132999500Y-46901304D01*
X132999500Y-47078695D01*
X133034103Y-47252658D01*
X133034106Y-47252667D01*
X133101983Y-47416540D01*
X133101990Y-47416553D01*
X133200535Y-47564034D01*
X133200538Y-47564038D01*
X133325961Y-47689461D01*
X133325965Y-47689464D01*
X133473446Y-47788009D01*
X133473459Y-47788016D01*
X133550106Y-47819763D01*
X133637334Y-47855894D01*
X133668931Y-47862179D01*
X133730840Y-47894563D01*
X133765415Y-47955278D01*
X133761676Y-48025048D01*
X133732420Y-48071477D01*
X133136118Y-48667781D01*
X133074795Y-48701266D01*
X133048437Y-48704100D01*
X128055756Y-48704100D01*
X127925263Y-48730057D01*
X127925255Y-48730059D01*
X127802326Y-48780978D01*
X127802316Y-48780983D01*
X127691686Y-48854904D01*
X127691682Y-48854907D01*
X126641579Y-49905012D01*
X126293340Y-50253251D01*
X126057889Y-50488701D01*
X125985513Y-50561077D01*
X125924190Y-50594561D01*
X125911716Y-50596615D01*
X125745106Y-50615387D01*
X125745102Y-50615388D01*
X125574833Y-50674968D01*
X125422094Y-50770941D01*
X125294541Y-50898494D01*
X125198568Y-51051233D01*
X125138988Y-51221502D01*
X125138987Y-51221507D01*
X125118792Y-51400753D01*
X125118792Y-51400760D01*
X125138987Y-51580006D01*
X125138988Y-51580011D01*
X125198568Y-51750280D01*
X125290878Y-51897189D01*
X125309878Y-51964425D01*
X125289510Y-52031261D01*
X125273565Y-52050842D01*
X124122228Y-53202181D01*
X124060905Y-53235666D01*
X124034547Y-53238500D01*
X120465280Y-53238500D01*
X120399307Y-53219493D01*
X120349524Y-53188211D01*
X120179254Y-53128631D01*
X120179249Y-53128630D01*
X120000004Y-53108435D01*
X119999996Y-53108435D01*
X119820750Y-53128630D01*
X119820745Y-53128631D01*
X119650476Y-53188211D01*
X119497737Y-53284184D01*
X119370184Y-53411737D01*
X119274211Y-53564476D01*
X119214631Y-53734745D01*
X119214630Y-53734750D01*
X119194435Y-53913996D01*
X119194435Y-53914003D01*
X119214630Y-54093249D01*
X119214631Y-54093254D01*
X119274211Y-54263523D01*
X119314926Y-54328320D01*
X119370184Y-54416262D01*
X119497738Y-54543816D01*
X119570444Y-54589500D01*
X119648313Y-54638429D01*
X119650478Y-54639789D01*
X119713922Y-54661989D01*
X119820745Y-54699368D01*
X119820750Y-54699369D01*
X119999996Y-54719565D01*
X120000000Y-54719565D01*
X120000004Y-54719565D01*
X120179249Y-54699369D01*
X120179252Y-54699368D01*
X120179255Y-54699368D01*
X120349522Y-54639789D01*
X120351687Y-54638429D01*
X120399307Y-54608507D01*
X120465280Y-54589500D01*
X123213365Y-54589500D01*
X123280404Y-54609185D01*
X123326159Y-54661989D01*
X123336103Y-54731147D01*
X123307078Y-54794703D01*
X123301046Y-54801181D01*
X122360046Y-55742181D01*
X122298723Y-55775666D01*
X122272365Y-55778500D01*
X120465280Y-55778500D01*
X120399307Y-55759493D01*
X120349524Y-55728211D01*
X120179254Y-55668631D01*
X120179249Y-55668630D01*
X120000004Y-55648435D01*
X119999996Y-55648435D01*
X119820750Y-55668630D01*
X119820745Y-55668631D01*
X119650476Y-55728211D01*
X119497737Y-55824184D01*
X119370184Y-55951737D01*
X119274211Y-56104476D01*
X119214631Y-56274745D01*
X119214630Y-56274750D01*
X119194435Y-56453996D01*
X119194435Y-56454003D01*
X119214630Y-56633249D01*
X119214631Y-56633254D01*
X119274211Y-56803523D01*
X119303115Y-56849523D01*
X119370184Y-56956262D01*
X119497738Y-57083816D01*
X119650478Y-57179789D01*
X119820745Y-57239368D01*
X119820750Y-57239369D01*
X119999996Y-57259565D01*
X120000000Y-57259565D01*
X120000004Y-57259565D01*
X120179249Y-57239369D01*
X120179252Y-57239368D01*
X120179255Y-57239368D01*
X120349522Y-57179789D01*
X120399307Y-57148507D01*
X120465280Y-57129500D01*
X121451183Y-57129500D01*
X121518222Y-57149185D01*
X121563977Y-57201989D01*
X121573921Y-57271147D01*
X121544896Y-57334703D01*
X121538864Y-57341181D01*
X120597864Y-58282181D01*
X120536541Y-58315666D01*
X120510183Y-58318500D01*
X120465280Y-58318500D01*
X120399307Y-58299493D01*
X120349524Y-58268211D01*
X120179254Y-58208631D01*
X120179249Y-58208630D01*
X120000004Y-58188435D01*
X119999996Y-58188435D01*
X119820750Y-58208630D01*
X119820745Y-58208631D01*
X119650476Y-58268211D01*
X119497737Y-58364184D01*
X119370184Y-58491737D01*
X119274211Y-58644476D01*
X119214631Y-58814745D01*
X119214630Y-58814750D01*
X119194435Y-58993996D01*
X119194435Y-58994003D01*
X119214630Y-59173249D01*
X119214631Y-59173254D01*
X119274211Y-59343523D01*
X119370184Y-59496262D01*
X119486206Y-59612284D01*
X119519691Y-59673607D01*
X119514707Y-59743299D01*
X119472835Y-59799232D01*
X119407371Y-59823649D01*
X119357571Y-59817007D01*
X119188456Y-59757831D01*
X119188448Y-59757829D01*
X119009203Y-59737634D01*
X119009195Y-59737634D01*
X118829949Y-59757829D01*
X118829944Y-59757830D01*
X118659675Y-59817410D01*
X118506936Y-59913383D01*
X118379383Y-60040936D01*
X118283410Y-60193675D01*
X118223830Y-60363944D01*
X118223830Y-60363947D01*
X118219733Y-60400304D01*
X118192665Y-60464717D01*
X118135069Y-60504271D01*
X118082630Y-60509638D01*
X117924965Y-60491874D01*
X117924957Y-60491874D01*
X117745711Y-60512069D01*
X117745706Y-60512070D01*
X117575437Y-60571650D01*
X117422698Y-60667623D01*
X117295145Y-60795176D01*
X117199172Y-60947915D01*
X117139592Y-61118184D01*
X117139591Y-61118189D01*
X117119396Y-61297435D01*
X117119396Y-61297442D01*
X117139591Y-61476688D01*
X117139592Y-61476693D01*
X117199172Y-61646962D01*
X117295145Y-61799701D01*
X117344589Y-61849145D01*
X117378074Y-61910468D01*
X117373090Y-61980160D01*
X117361902Y-62002798D01*
X117279162Y-62134476D01*
X117219582Y-62304745D01*
X117219581Y-62304750D01*
X117199386Y-62483996D01*
X117199386Y-62484003D01*
X117219581Y-62663249D01*
X117219582Y-62663254D01*
X117279162Y-62833523D01*
X117375135Y-62986262D01*
X117502689Y-63113816D01*
X117655429Y-63209789D01*
X117825696Y-63269368D01*
X117825701Y-63269369D01*
X118004947Y-63289565D01*
X118004951Y-63289565D01*
X118004955Y-63289565D01*
X118184200Y-63269369D01*
X118184203Y-63269368D01*
X118184206Y-63269368D01*
X118354473Y-63209789D01*
X118404258Y-63178507D01*
X118470231Y-63159500D01*
X119751332Y-63159500D01*
X119751333Y-63159499D01*
X119881836Y-63133541D01*
X120004769Y-63082620D01*
X120115406Y-63008695D01*
X122597095Y-60527006D01*
X129158330Y-53965769D01*
X129219653Y-53932285D01*
X129289345Y-53937269D01*
X129333692Y-53965770D01*
X129338208Y-53970286D01*
X129371693Y-54031609D01*
X129366709Y-54101301D01*
X129338208Y-54145648D01*
X119920677Y-63563181D01*
X119859354Y-63596666D01*
X119832996Y-63599500D01*
X111035092Y-63599500D01*
X110861126Y-63634104D01*
X110861118Y-63634106D01*
X110697245Y-63701983D01*
X110697232Y-63701990D01*
X110549752Y-63800534D01*
X110549750Y-63800537D01*
X110542356Y-63807930D01*
X104800535Y-69549750D01*
X104790655Y-69564539D01*
X104790652Y-69564543D01*
X104701988Y-69697235D01*
X104679529Y-69751458D01*
X104634105Y-69861119D01*
X104634103Y-69861127D01*
X104599500Y-70035089D01*
X104599500Y-70399241D01*
X104579815Y-70466280D01*
X104563181Y-70486922D01*
X104461505Y-70588597D01*
X104325965Y-70782169D01*
X104325964Y-70782171D01*
X104226098Y-70996335D01*
X104226094Y-70996344D01*
X104164938Y-71224586D01*
X104164936Y-71224596D01*
X104144341Y-71459999D01*
X104144341Y-71460000D01*
X104164936Y-71695403D01*
X104164938Y-71695413D01*
X104226094Y-71923655D01*
X104226096Y-71923659D01*
X104226097Y-71923663D01*
X104280569Y-72040478D01*
X104325965Y-72137830D01*
X104325967Y-72137834D01*
X104461501Y-72331395D01*
X104461506Y-72331402D01*
X104583430Y-72453326D01*
X104616915Y-72514649D01*
X104611931Y-72584341D01*
X104570059Y-72640274D01*
X104539083Y-72657189D01*
X104407669Y-72706203D01*
X104407664Y-72706206D01*
X104292455Y-72792452D01*
X104292452Y-72792455D01*
X104206206Y-72907664D01*
X104206202Y-72907671D01*
X104155908Y-73042517D01*
X104149501Y-73102116D01*
X104149500Y-73102135D01*
X104149500Y-74897870D01*
X104149501Y-74897876D01*
X104155908Y-74957483D01*
X104206202Y-75092328D01*
X104206206Y-75092335D01*
X104292452Y-75207544D01*
X104292455Y-75207547D01*
X104407664Y-75293793D01*
X104407671Y-75293797D01*
X104542517Y-75344091D01*
X104542516Y-75344091D01*
X104549444Y-75344835D01*
X104602127Y-75350500D01*
X106397872Y-75350499D01*
X106457483Y-75344091D01*
X106592331Y-75293796D01*
X106707546Y-75207546D01*
X106793796Y-75092331D01*
X106829790Y-74995826D01*
X106835258Y-74981167D01*
X106877129Y-74925233D01*
X106942593Y-74900816D01*
X106951440Y-74900500D01*
X107238693Y-74900500D01*
X107238694Y-74900499D01*
X107412666Y-74865895D01*
X107495800Y-74831459D01*
X107576547Y-74798013D01*
X107664959Y-74738936D01*
X107706613Y-74711105D01*
X107773288Y-74690229D01*
X107840668Y-74708714D01*
X107887358Y-74760694D01*
X107899500Y-74814208D01*
X107899500Y-74897869D01*
X107899501Y-74897876D01*
X107905908Y-74957483D01*
X107956202Y-75092328D01*
X107956206Y-75092335D01*
X108042452Y-75207544D01*
X108042455Y-75207547D01*
X108157664Y-75293793D01*
X108157671Y-75293797D01*
X108292517Y-75344091D01*
X108292516Y-75344091D01*
X108299444Y-75344835D01*
X108352127Y-75350500D01*
X110147872Y-75350499D01*
X110207483Y-75344091D01*
X110342331Y-75293796D01*
X110457546Y-75207546D01*
X110543796Y-75092331D01*
X110594091Y-74957483D01*
X110600500Y-74897873D01*
X110600499Y-73974360D01*
X110620183Y-73907322D01*
X110636813Y-73886685D01*
X112862819Y-71660679D01*
X112924142Y-71627195D01*
X112993834Y-71632179D01*
X113049767Y-71674051D01*
X113074184Y-71739515D01*
X113074500Y-71748361D01*
X113074500Y-73607870D01*
X113074501Y-73607876D01*
X113080908Y-73667483D01*
X113131202Y-73802328D01*
X113131206Y-73802335D01*
X113217452Y-73917544D01*
X113217455Y-73917547D01*
X113332664Y-74003793D01*
X113332671Y-74003797D01*
X113467517Y-74054091D01*
X113467516Y-74054091D01*
X113474444Y-74054835D01*
X113527127Y-74060500D01*
X115422872Y-74060499D01*
X115482483Y-74054091D01*
X115617331Y-74003796D01*
X115732546Y-73917546D01*
X115818796Y-73802331D01*
X115830670Y-73770495D01*
X115847455Y-73725493D01*
X115889326Y-73669559D01*
X115954790Y-73645141D01*
X116023063Y-73659992D01*
X116054866Y-73684843D01*
X116062302Y-73692920D01*
X116063215Y-73693912D01*
X116063222Y-73693918D01*
X116246365Y-73836464D01*
X116246371Y-73836468D01*
X116246374Y-73836470D01*
X116450497Y-73946936D01*
X116552242Y-73981865D01*
X116670015Y-74022297D01*
X116670017Y-74022297D01*
X116670019Y-74022298D01*
X116898951Y-74060500D01*
X116898952Y-74060500D01*
X117131048Y-74060500D01*
X117131049Y-74060500D01*
X117359981Y-74022298D01*
X117579503Y-73946936D01*
X117783626Y-73836470D01*
X117801637Y-73822452D01*
X117919003Y-73731102D01*
X117966784Y-73693913D01*
X118123979Y-73523153D01*
X118250924Y-73328849D01*
X118344157Y-73116300D01*
X118401134Y-72891305D01*
X118403564Y-72861977D01*
X118420300Y-72660006D01*
X118420300Y-72659993D01*
X118401135Y-72428702D01*
X118401133Y-72428691D01*
X118344157Y-72203699D01*
X118250924Y-71991151D01*
X118123983Y-71796852D01*
X118123980Y-71796849D01*
X118123979Y-71796847D01*
X117966784Y-71626087D01*
X117966779Y-71626083D01*
X117966777Y-71626081D01*
X117783634Y-71483535D01*
X117783628Y-71483531D01*
X117579504Y-71373064D01*
X117579495Y-71373061D01*
X117359984Y-71297702D01*
X117143741Y-71261618D01*
X117131049Y-71259500D01*
X116898951Y-71259500D01*
X116886259Y-71261618D01*
X116670015Y-71297702D01*
X116450504Y-71373061D01*
X116450495Y-71373064D01*
X116246371Y-71483531D01*
X116246365Y-71483535D01*
X116063222Y-71626081D01*
X116063218Y-71626085D01*
X116054866Y-71635158D01*
X115994979Y-71671148D01*
X115925141Y-71669047D01*
X115867525Y-71629522D01*
X115847455Y-71594507D01*
X115818797Y-71517671D01*
X115818793Y-71517664D01*
X115732547Y-71402455D01*
X115732544Y-71402452D01*
X115617335Y-71316206D01*
X115617328Y-71316202D01*
X115482482Y-71265908D01*
X115482483Y-71265908D01*
X115422883Y-71259501D01*
X115422881Y-71259500D01*
X115422873Y-71259500D01*
X115422865Y-71259500D01*
X113563360Y-71259500D01*
X113496321Y-71239815D01*
X113450566Y-71187011D01*
X113440622Y-71117853D01*
X113469647Y-71054297D01*
X113475658Y-71047841D01*
X116086681Y-68436819D01*
X116148004Y-68403334D01*
X116174362Y-68400500D01*
X121588693Y-68400500D01*
X121588694Y-68400499D01*
X121762666Y-68365895D01*
X121844606Y-68331953D01*
X121926547Y-68298013D01*
X122027587Y-68230500D01*
X122074036Y-68199464D01*
X131831081Y-58442419D01*
X131892404Y-58408934D01*
X131918762Y-58406100D01*
X132288400Y-58406100D01*
X132355439Y-58425785D01*
X132401194Y-58478589D01*
X132411620Y-58516216D01*
X132420130Y-58591750D01*
X132420131Y-58591754D01*
X132479711Y-58762023D01*
X132575684Y-58914762D01*
X132703238Y-59042316D01*
X132855978Y-59138289D01*
X132955905Y-59173255D01*
X133026245Y-59197868D01*
X133026250Y-59197869D01*
X133205496Y-59218065D01*
X133205500Y-59218065D01*
X133205504Y-59218065D01*
X133384749Y-59197869D01*
X133384752Y-59197868D01*
X133384755Y-59197868D01*
X133555022Y-59138289D01*
X133707762Y-59042316D01*
X133835316Y-58914762D01*
X133931289Y-58762022D01*
X133990868Y-58591755D01*
X133990869Y-58591750D01*
X133999380Y-58516216D01*
X134026447Y-58451802D01*
X134084042Y-58412247D01*
X134122600Y-58406100D01*
X135548591Y-58406100D01*
X135615630Y-58425785D01*
X135661385Y-58478589D01*
X135671329Y-58547747D01*
X135642304Y-58611303D01*
X135636272Y-58617781D01*
X133845873Y-60408181D01*
X133784550Y-60441666D01*
X133758192Y-60444500D01*
X130411823Y-60444500D01*
X130286155Y-60469497D01*
X130286149Y-60469499D01*
X130167769Y-60518533D01*
X130167760Y-60518538D01*
X130061225Y-60589723D01*
X130061221Y-60589726D01*
X121774568Y-68876378D01*
X121713245Y-68909863D01*
X121654794Y-68908472D01*
X121502977Y-68867793D01*
X121285002Y-68848723D01*
X121284998Y-68848723D01*
X121182721Y-68857671D01*
X121067023Y-68867793D01*
X121067020Y-68867793D01*
X120855677Y-68924422D01*
X120855668Y-68924426D01*
X120657361Y-69016898D01*
X120657357Y-69016900D01*
X120478121Y-69142402D01*
X120323402Y-69297121D01*
X120197899Y-69476359D01*
X120105426Y-69674668D01*
X120105422Y-69674677D01*
X120048793Y-69886020D01*
X120048793Y-69886024D01*
X120029723Y-70103997D01*
X120029723Y-70104002D01*
X120031555Y-70124937D01*
X120045642Y-70285965D01*
X120048793Y-70321975D01*
X120048793Y-70321979D01*
X120105422Y-70533322D01*
X120105424Y-70533326D01*
X120105425Y-70533330D01*
X120140716Y-70609012D01*
X120197897Y-70731638D01*
X120197898Y-70731639D01*
X120323402Y-70910877D01*
X120478123Y-71065598D01*
X120657360Y-71191101D01*
X120657361Y-71191102D01*
X120808583Y-71261618D01*
X120861022Y-71307790D01*
X120880174Y-71374984D01*
X120859958Y-71441865D01*
X120808583Y-71486382D01*
X120657361Y-71556898D01*
X120657357Y-71556900D01*
X120478121Y-71682402D01*
X120323402Y-71837121D01*
X120197900Y-72016357D01*
X120197898Y-72016361D01*
X120105426Y-72214668D01*
X120105422Y-72214677D01*
X120048793Y-72426020D01*
X120048793Y-72426024D01*
X120029723Y-72643997D01*
X120029723Y-72644002D01*
X120048793Y-72861975D01*
X120048793Y-72861979D01*
X120105422Y-73073322D01*
X120105424Y-73073326D01*
X120105425Y-73073330D01*
X120151661Y-73172484D01*
X120197897Y-73271638D01*
X120211729Y-73291392D01*
X120323402Y-73450877D01*
X120478123Y-73605598D01*
X120615465Y-73701766D01*
X120657361Y-73731102D01*
X120808583Y-73801618D01*
X120861022Y-73847790D01*
X120880174Y-73914984D01*
X120859958Y-73981865D01*
X120808583Y-74026382D01*
X120657361Y-74096898D01*
X120657357Y-74096900D01*
X120478121Y-74222402D01*
X120323402Y-74377121D01*
X120197900Y-74556357D01*
X120197898Y-74556361D01*
X120105426Y-74754668D01*
X120105422Y-74754677D01*
X120048793Y-74966020D01*
X120048793Y-74966024D01*
X120031350Y-75165408D01*
X120029723Y-75184000D01*
X120044289Y-75350500D01*
X120048793Y-75401975D01*
X120048793Y-75401979D01*
X120105422Y-75613322D01*
X120105424Y-75613326D01*
X120105425Y-75613330D01*
X120133185Y-75672861D01*
X120197897Y-75811638D01*
X120222356Y-75846569D01*
X120323402Y-75990877D01*
X120478123Y-76145598D01*
X120657361Y-76271102D01*
X120661393Y-76273925D01*
X120705018Y-76328503D01*
X120712210Y-76398001D01*
X120680688Y-76460356D01*
X120620458Y-76495769D01*
X120590269Y-76499500D01*
X97124500Y-76499500D01*
X97057461Y-76479815D01*
X97011706Y-76427011D01*
X97000500Y-76375500D01*
X97000500Y-75724000D01*
X97020185Y-75656961D01*
X97072989Y-75611206D01*
X97124500Y-75600000D01*
X99250000Y-75600000D01*
X99250000Y-73569863D01*
X99401509Y-73600000D01*
X99598491Y-73600000D01*
X99750000Y-73569863D01*
X99750000Y-75600000D01*
X102547828Y-75600000D01*
X102547844Y-75599999D01*
X102607372Y-75593598D01*
X102607379Y-75593596D01*
X102742086Y-75543354D01*
X102742093Y-75543350D01*
X102857187Y-75457190D01*
X102857190Y-75457187D01*
X102943350Y-75342093D01*
X102943354Y-75342086D01*
X102993596Y-75207379D01*
X102993598Y-75207372D01*
X102999999Y-75147844D01*
X103000000Y-75147827D01*
X103000000Y-72850000D01*
X100469863Y-72850000D01*
X100500000Y-72698491D01*
X100500000Y-72501509D01*
X100469863Y-72350000D01*
X103000000Y-72350000D01*
X103000000Y-70052172D01*
X102999999Y-70052155D01*
X102993598Y-69992627D01*
X102993596Y-69992620D01*
X102943354Y-69857913D01*
X102943350Y-69857906D01*
X102857190Y-69742812D01*
X102857187Y-69742809D01*
X102742093Y-69656649D01*
X102742086Y-69656645D01*
X102607379Y-69606403D01*
X102607372Y-69606401D01*
X102547844Y-69600000D01*
X99750000Y-69600000D01*
X99750000Y-71630136D01*
X99598491Y-71600000D01*
X99401509Y-71600000D01*
X99250000Y-71630136D01*
X99250000Y-69600000D01*
X97124500Y-69600000D01*
X97057461Y-69580315D01*
X97011706Y-69527511D01*
X97000500Y-69476000D01*
X97000500Y-68524499D01*
X97020185Y-68457460D01*
X97072989Y-68411705D01*
X97124500Y-68400499D01*
X102547871Y-68400499D01*
X102547872Y-68400499D01*
X102607483Y-68394091D01*
X102742331Y-68343796D01*
X102857546Y-68257546D01*
X102943796Y-68142331D01*
X102994091Y-68007483D01*
X103000500Y-67947873D01*
X103000499Y-62852128D01*
X102994091Y-62792517D01*
X102967230Y-62720500D01*
X102943797Y-62657671D01*
X102943793Y-62657664D01*
X102857547Y-62542455D01*
X102857544Y-62542452D01*
X102742335Y-62456206D01*
X102742328Y-62456202D01*
X102607482Y-62405908D01*
X102607483Y-62405908D01*
X102547883Y-62399501D01*
X102547881Y-62399500D01*
X102547873Y-62399500D01*
X102547865Y-62399500D01*
X97124500Y-62399500D01*
X97057461Y-62379815D01*
X97011706Y-62327011D01*
X97000500Y-62275500D01*
X97000500Y-60434110D01*
X97000500Y-60434108D01*
X96966392Y-60306814D01*
X96900500Y-60192686D01*
X96807314Y-60099500D01*
X96750250Y-60066554D01*
X96693187Y-60033608D01*
X96629539Y-60016554D01*
X96565892Y-59999500D01*
X96565891Y-59999500D01*
X79124500Y-59999500D01*
X79057461Y-59979815D01*
X79011706Y-59927011D01*
X79000500Y-59875500D01*
X79000500Y-58724499D01*
X79020185Y-58657460D01*
X79072989Y-58611705D01*
X79124500Y-58600499D01*
X84547871Y-58600499D01*
X84547872Y-58600499D01*
X84607483Y-58594091D01*
X84742331Y-58543796D01*
X84857546Y-58457546D01*
X84943796Y-58342331D01*
X84994091Y-58207483D01*
X85000500Y-58147873D01*
X85000499Y-53052128D01*
X84994091Y-52992517D01*
X84943884Y-52857906D01*
X84943797Y-52857671D01*
X84943793Y-52857664D01*
X84857547Y-52742455D01*
X84857544Y-52742452D01*
X84742335Y-52656206D01*
X84742328Y-52656202D01*
X84607482Y-52605908D01*
X84607483Y-52605908D01*
X84547883Y-52599501D01*
X84547881Y-52599500D01*
X84547873Y-52599500D01*
X84547865Y-52599500D01*
X79124500Y-52599500D01*
X79057461Y-52579815D01*
X79011706Y-52527011D01*
X79000500Y-52475500D01*
X79000500Y-52099996D01*
X107294435Y-52099996D01*
X107294435Y-52100003D01*
X107314631Y-52279253D01*
X107314631Y-52279254D01*
X107342551Y-52359047D01*
X107346112Y-52428826D01*
X107342551Y-52440953D01*
X107314631Y-52520745D01*
X107314631Y-52520746D01*
X107294435Y-52699996D01*
X107294435Y-52700003D01*
X107314630Y-52879249D01*
X107314631Y-52879254D01*
X107374211Y-53049523D01*
X107423919Y-53128632D01*
X107470184Y-53202262D01*
X107597738Y-53329816D01*
X107688080Y-53386582D01*
X107710738Y-53400819D01*
X107750478Y-53425789D01*
X107863214Y-53465237D01*
X107920745Y-53485368D01*
X107920750Y-53485369D01*
X108099996Y-53505565D01*
X108100000Y-53505565D01*
X108100004Y-53505565D01*
X108279249Y-53485369D01*
X108279252Y-53485368D01*
X108279255Y-53485368D01*
X108449522Y-53425789D01*
X108602262Y-53329816D01*
X108729816Y-53202262D01*
X108825789Y-53049522D01*
X108885368Y-52879255D01*
X108887773Y-52857913D01*
X108905565Y-52700003D01*
X108905565Y-52699996D01*
X108885369Y-52520750D01*
X108885368Y-52520746D01*
X108885368Y-52520745D01*
X108857446Y-52440951D01*
X108853884Y-52371177D01*
X108857440Y-52359066D01*
X108885368Y-52279255D01*
X108905565Y-52100000D01*
X108900026Y-52050842D01*
X108885369Y-51920750D01*
X108885368Y-51920745D01*
X108837998Y-51785369D01*
X108825789Y-51750478D01*
X108729816Y-51597738D01*
X108602262Y-51470184D01*
X108582012Y-51457460D01*
X108449523Y-51374211D01*
X108279254Y-51314631D01*
X108279249Y-51314630D01*
X108100004Y-51294435D01*
X108099996Y-51294435D01*
X107920750Y-51314630D01*
X107920745Y-51314631D01*
X107750476Y-51374211D01*
X107597737Y-51470184D01*
X107470184Y-51597737D01*
X107374211Y-51750476D01*
X107314631Y-51920745D01*
X107314630Y-51920750D01*
X107294435Y-52099996D01*
X79000500Y-52099996D01*
X79000500Y-51524499D01*
X79020185Y-51457460D01*
X79072989Y-51411705D01*
X79124500Y-51400499D01*
X84547871Y-51400499D01*
X84547872Y-51400499D01*
X84607483Y-51394091D01*
X84742331Y-51343796D01*
X84857546Y-51257546D01*
X84943796Y-51142331D01*
X84994091Y-51007483D01*
X85000500Y-50947873D01*
X85000500Y-48613155D01*
X89145000Y-48613155D01*
X89145000Y-49161000D01*
X89889670Y-49161000D01*
X89869925Y-49180745D01*
X89820556Y-49266255D01*
X89795000Y-49361630D01*
X89795000Y-49460370D01*
X89820556Y-49555745D01*
X89869925Y-49641255D01*
X89889670Y-49661000D01*
X89145000Y-49661000D01*
X89145000Y-50208844D01*
X89151401Y-50268372D01*
X89151403Y-50268379D01*
X89201645Y-50403086D01*
X89201649Y-50403093D01*
X89287809Y-50518187D01*
X89287812Y-50518190D01*
X89402906Y-50604350D01*
X89402913Y-50604354D01*
X89537620Y-50654596D01*
X89537627Y-50654598D01*
X89597155Y-50660999D01*
X89597172Y-50661000D01*
X89920000Y-50661000D01*
X89920000Y-49691330D01*
X89939745Y-49711075D01*
X90025255Y-49760444D01*
X90120630Y-49786000D01*
X90219370Y-49786000D01*
X90314745Y-49760444D01*
X90400255Y-49711075D01*
X90414500Y-49696830D01*
X90414500Y-49737002D01*
X90417617Y-49752671D01*
X90420000Y-49776865D01*
X90420000Y-50661000D01*
X90742828Y-50661000D01*
X90742844Y-50660999D01*
X90802372Y-50654598D01*
X90802376Y-50654597D01*
X90937089Y-50604352D01*
X90937896Y-50603748D01*
X90938845Y-50603393D01*
X90944876Y-50600101D01*
X90945349Y-50600967D01*
X91003360Y-50579329D01*
X91059661Y-50588451D01*
X91140873Y-50622091D01*
X91304288Y-50654596D01*
X91338992Y-50661499D01*
X91338996Y-50661500D01*
X91338997Y-50661500D01*
X91541004Y-50661500D01*
X91541005Y-50661499D01*
X91739127Y-50622091D01*
X91925756Y-50544786D01*
X92006110Y-50491094D01*
X92072786Y-50470217D01*
X92140166Y-50488701D01*
X92143865Y-50491078D01*
X92224244Y-50544786D01*
X92410873Y-50622091D01*
X92574288Y-50654596D01*
X92608992Y-50661499D01*
X92608996Y-50661500D01*
X92608997Y-50661500D01*
X92811004Y-50661500D01*
X92811005Y-50661499D01*
X93009127Y-50622091D01*
X93195756Y-50544786D01*
X93363718Y-50432558D01*
X93506558Y-50289718D01*
X93618786Y-50121756D01*
X93696091Y-49935127D01*
X93735500Y-49737003D01*
X93735500Y-49084997D01*
X93717221Y-48993101D01*
X93723448Y-48923511D01*
X93766311Y-48868334D01*
X93832200Y-48845089D01*
X93886289Y-48854349D01*
X93922964Y-48869541D01*
X94053464Y-48895499D01*
X94053468Y-48895500D01*
X94053469Y-48895500D01*
X96280500Y-48895500D01*
X96347539Y-48915185D01*
X96393294Y-48967989D01*
X96404500Y-49019500D01*
X96404500Y-50208870D01*
X96404501Y-50208876D01*
X96410908Y-50268483D01*
X96461202Y-50403328D01*
X96461206Y-50403335D01*
X96547452Y-50518544D01*
X96547455Y-50518547D01*
X96662664Y-50604793D01*
X96662671Y-50604797D01*
X96797517Y-50655091D01*
X96797516Y-50655091D01*
X96804444Y-50655835D01*
X96857127Y-50661500D01*
X98002872Y-50661499D01*
X98062483Y-50655091D01*
X98197331Y-50604796D01*
X98198430Y-50603972D01*
X98199717Y-50603492D01*
X98205112Y-50600547D01*
X98205535Y-50601322D01*
X98263887Y-50579552D01*
X98320198Y-50588673D01*
X98400873Y-50622091D01*
X98564288Y-50654596D01*
X98598992Y-50661499D01*
X98598996Y-50661500D01*
X98598997Y-50661500D01*
X98801004Y-50661500D01*
X98801005Y-50661499D01*
X98999127Y-50622091D01*
X99185756Y-50544786D01*
X99266110Y-50491094D01*
X99332786Y-50470217D01*
X99400166Y-50488701D01*
X99403865Y-50491078D01*
X99484244Y-50544786D01*
X99670873Y-50622091D01*
X99834288Y-50654596D01*
X99868992Y-50661499D01*
X99868996Y-50661500D01*
X99868997Y-50661500D01*
X100071004Y-50661500D01*
X100071005Y-50661499D01*
X100269127Y-50622091D01*
X100455756Y-50544786D01*
X100623718Y-50432558D01*
X100656280Y-50399996D01*
X108922435Y-50399996D01*
X108922435Y-50400003D01*
X108942631Y-50579253D01*
X108942631Y-50579254D01*
X108970551Y-50659047D01*
X108974112Y-50728826D01*
X108970551Y-50740953D01*
X108942631Y-50820745D01*
X108942631Y-50820746D01*
X108922435Y-50999996D01*
X108922435Y-51000003D01*
X108942630Y-51179249D01*
X108942631Y-51179254D01*
X109002211Y-51349523D01*
X109070033Y-51457460D01*
X109098184Y-51502262D01*
X109225738Y-51629816D01*
X109378478Y-51725789D01*
X109548745Y-51785368D01*
X109548750Y-51785369D01*
X109727996Y-51805565D01*
X109728000Y-51805565D01*
X109728004Y-51805565D01*
X109907249Y-51785369D01*
X109907252Y-51785368D01*
X109907255Y-51785368D01*
X110077522Y-51725789D01*
X110230262Y-51629816D01*
X110357816Y-51502262D01*
X110453789Y-51349522D01*
X110513368Y-51179255D01*
X110513369Y-51179249D01*
X110533565Y-51000003D01*
X110533565Y-50999996D01*
X110513369Y-50820750D01*
X110513368Y-50820746D01*
X110513368Y-50820745D01*
X110485446Y-50740951D01*
X110481884Y-50671177D01*
X110485440Y-50659066D01*
X110513368Y-50579255D01*
X110514089Y-50572855D01*
X110533565Y-50400003D01*
X110533565Y-50399996D01*
X110513369Y-50220750D01*
X110513368Y-50220745D01*
X110453788Y-50050476D01*
X110366755Y-49911965D01*
X110357816Y-49897738D01*
X110230262Y-49770184D01*
X110077523Y-49674211D01*
X109907254Y-49614631D01*
X109907249Y-49614630D01*
X109728004Y-49594435D01*
X109727996Y-49594435D01*
X109548750Y-49614630D01*
X109548745Y-49614631D01*
X109378476Y-49674211D01*
X109225737Y-49770184D01*
X109098184Y-49897737D01*
X109002211Y-50050476D01*
X108942631Y-50220745D01*
X108942630Y-50220750D01*
X108922435Y-50399996D01*
X100656280Y-50399996D01*
X100766558Y-50289718D01*
X100878786Y-50121756D01*
X100956091Y-49935127D01*
X100995500Y-49737003D01*
X100995500Y-49084997D01*
X100987284Y-49043692D01*
X100993511Y-48974100D01*
X101036374Y-48918923D01*
X101102263Y-48895678D01*
X101108901Y-48895500D01*
X116346532Y-48895500D01*
X116346533Y-48895499D01*
X116477036Y-48869541D01*
X116599969Y-48818620D01*
X116710606Y-48744695D01*
X118344902Y-47110397D01*
X118391623Y-47081039D01*
X118549522Y-47025789D01*
X118702262Y-46929816D01*
X118829816Y-46802262D01*
X118925789Y-46649522D01*
X118985368Y-46479255D01*
X118992499Y-46415965D01*
X119005565Y-46300003D01*
X119005565Y-46299996D01*
X118985369Y-46120750D01*
X118985368Y-46120745D01*
X118974435Y-46089500D01*
X118925789Y-45950478D01*
X118829816Y-45797738D01*
X118702262Y-45670184D01*
X118682337Y-45657664D01*
X118549523Y-45574211D01*
X118379254Y-45514631D01*
X118379249Y-45514630D01*
X118200004Y-45494435D01*
X118199996Y-45494435D01*
X118020750Y-45514630D01*
X118020745Y-45514631D01*
X117850476Y-45574211D01*
X117697737Y-45670184D01*
X117570184Y-45797737D01*
X117474209Y-45950480D01*
X117418961Y-46108370D01*
X117389601Y-46155096D01*
X116036518Y-47508181D01*
X115975195Y-47541666D01*
X115948837Y-47544500D01*
X94451163Y-47544500D01*
X94384124Y-47524815D01*
X94363482Y-47508181D01*
X93830609Y-46975307D01*
X93830603Y-46975302D01*
X93805607Y-46958600D01*
X93760803Y-46904988D01*
X93750499Y-46855499D01*
X93750499Y-46702129D01*
X93750498Y-46702123D01*
X93750497Y-46702116D01*
X93744091Y-46642517D01*
X93714604Y-46563459D01*
X93693797Y-46507671D01*
X93693793Y-46507664D01*
X93607547Y-46392455D01*
X93607544Y-46392452D01*
X93492335Y-46306206D01*
X93492328Y-46306202D01*
X93357482Y-46255908D01*
X93357483Y-46255908D01*
X93297883Y-46249501D01*
X93297881Y-46249500D01*
X93297873Y-46249500D01*
X93297864Y-46249500D01*
X92202129Y-46249500D01*
X92202123Y-46249501D01*
X92142520Y-46255908D01*
X92134974Y-46257692D01*
X92134628Y-46256230D01*
X92073622Y-46260584D01*
X92058600Y-46256172D01*
X92057482Y-46255908D01*
X91997883Y-46249501D01*
X91997881Y-46249500D01*
X91997873Y-46249500D01*
X91997864Y-46249500D01*
X90902129Y-46249500D01*
X90902123Y-46249501D01*
X90842516Y-46255908D01*
X90707671Y-46306202D01*
X90707664Y-46306206D01*
X90592455Y-46392452D01*
X90592452Y-46392455D01*
X90506206Y-46507664D01*
X90506202Y-46507671D01*
X90455908Y-46642517D01*
X90449501Y-46702116D01*
X90449501Y-46702123D01*
X90449500Y-46702135D01*
X90449500Y-48080137D01*
X90429815Y-48147176D01*
X90420000Y-48159356D01*
X90420000Y-49045134D01*
X90417617Y-49069326D01*
X90414500Y-49084995D01*
X90414500Y-49125170D01*
X90400255Y-49110925D01*
X90314745Y-49061556D01*
X90219370Y-49036000D01*
X90120630Y-49036000D01*
X90025255Y-49061556D01*
X89939745Y-49110925D01*
X89920000Y-49130670D01*
X89920000Y-48161000D01*
X89597155Y-48161000D01*
X89537627Y-48167401D01*
X89537620Y-48167403D01*
X89402913Y-48217645D01*
X89402906Y-48217649D01*
X89287812Y-48303809D01*
X89287809Y-48303812D01*
X89201649Y-48418906D01*
X89201645Y-48418913D01*
X89151403Y-48553620D01*
X89151401Y-48553627D01*
X89145000Y-48613155D01*
X85000500Y-48613155D01*
X85000499Y-45852128D01*
X84994091Y-45792517D01*
X84943796Y-45657669D01*
X84943795Y-45657668D01*
X84943793Y-45657664D01*
X84857547Y-45542455D01*
X84857544Y-45542452D01*
X84742335Y-45456206D01*
X84742328Y-45456202D01*
X84607482Y-45405908D01*
X84607483Y-45405908D01*
X84547883Y-45399501D01*
X84547881Y-45399500D01*
X84547873Y-45399500D01*
X84547865Y-45399500D01*
X79124500Y-45399500D01*
X79057461Y-45379815D01*
X79011706Y-45327011D01*
X79000500Y-45275500D01*
X79000500Y-44624500D01*
X79020185Y-44557461D01*
X79072989Y-44511706D01*
X79124500Y-44500500D01*
X152875500Y-44500500D01*
X152942539Y-44520185D01*
G37*
%TD.AperFunction*%
%TA.AperFunction,Conductor*%
G36*
X126588191Y-73138433D02*
G01*
X126642934Y-73157588D01*
X126693740Y-73175367D01*
X126693750Y-73175369D01*
X126799972Y-73187337D01*
X126864386Y-73214403D01*
X126902271Y-73267224D01*
X126945202Y-73382328D01*
X126945206Y-73382335D01*
X127031452Y-73497544D01*
X127031455Y-73497547D01*
X127130861Y-73571963D01*
X127172732Y-73627897D01*
X127177716Y-73697588D01*
X127144230Y-73758911D01*
X127130862Y-73770495D01*
X127061452Y-73822455D01*
X126975206Y-73937664D01*
X126975203Y-73937669D01*
X126933587Y-74049248D01*
X126891715Y-74105181D01*
X126831289Y-74129134D01*
X126693749Y-74144630D01*
X126693745Y-74144631D01*
X126523476Y-74204211D01*
X126370737Y-74300184D01*
X126243184Y-74427737D01*
X126147211Y-74580476D01*
X126087631Y-74750745D01*
X126087630Y-74750750D01*
X126067435Y-74929996D01*
X126067435Y-74930000D01*
X126087630Y-75109249D01*
X126087631Y-75109254D01*
X126147211Y-75279523D01*
X126220352Y-75395925D01*
X126243184Y-75432262D01*
X126370738Y-75559816D01*
X126523478Y-75655789D01*
X126693739Y-75715366D01*
X126693745Y-75715368D01*
X126693749Y-75715369D01*
X126790690Y-75726291D01*
X126831288Y-75730865D01*
X126895702Y-75757931D01*
X126933587Y-75810752D01*
X126975202Y-75922328D01*
X126975206Y-75922335D01*
X127061452Y-76037544D01*
X127061455Y-76037547D01*
X127176664Y-76123793D01*
X127176671Y-76123797D01*
X127311517Y-76174091D01*
X127311516Y-76174091D01*
X127318444Y-76174835D01*
X127371127Y-76180500D01*
X128466872Y-76180499D01*
X128526483Y-76174091D01*
X128526485Y-76174090D01*
X128526487Y-76174090D01*
X128534031Y-76172308D01*
X128534377Y-76173775D01*
X128595342Y-76169408D01*
X128610378Y-76173822D01*
X128611513Y-76174089D01*
X128611517Y-76174091D01*
X128671127Y-76180500D01*
X129766872Y-76180499D01*
X129826483Y-76174091D01*
X129826485Y-76174090D01*
X129826487Y-76174090D01*
X129834031Y-76172308D01*
X129834377Y-76173775D01*
X129895342Y-76169408D01*
X129910378Y-76173822D01*
X129911513Y-76174089D01*
X129911517Y-76174091D01*
X129971127Y-76180500D01*
X131066872Y-76180499D01*
X131126483Y-76174091D01*
X131261331Y-76123796D01*
X131376546Y-76037546D01*
X131462796Y-75922331D01*
X131513091Y-75787483D01*
X131519500Y-75727873D01*
X131519499Y-75609243D01*
X131539183Y-75542205D01*
X131574611Y-75506140D01*
X131622543Y-75474114D01*
X131772821Y-75323835D01*
X131834141Y-75290352D01*
X131903833Y-75295336D01*
X131959767Y-75337207D01*
X131984184Y-75402671D01*
X131984500Y-75411518D01*
X131984500Y-75827870D01*
X131984501Y-75827876D01*
X131990908Y-75887483D01*
X132041202Y-76022328D01*
X132041206Y-76022335D01*
X132127452Y-76137544D01*
X132127455Y-76137547D01*
X132242664Y-76223793D01*
X132242671Y-76223797D01*
X132337908Y-76259318D01*
X132393842Y-76301189D01*
X132418259Y-76366653D01*
X132403408Y-76434926D01*
X132354003Y-76484332D01*
X132294575Y-76499500D01*
X124519731Y-76499500D01*
X124452692Y-76479815D01*
X124406937Y-76427011D01*
X124396993Y-76357853D01*
X124426018Y-76294297D01*
X124448607Y-76273925D01*
X124452639Y-76271102D01*
X124631877Y-76145598D01*
X124786598Y-75990877D01*
X124912102Y-75811639D01*
X125004575Y-75613330D01*
X125061207Y-75401977D01*
X125080277Y-75184000D01*
X125078650Y-75165408D01*
X125073585Y-75107511D01*
X125061207Y-74966023D01*
X125016189Y-74798013D01*
X125004577Y-74754677D01*
X125004574Y-74754668D01*
X124997239Y-74738939D01*
X124979460Y-74700812D01*
X124968969Y-74631737D01*
X124997488Y-74567953D01*
X125044390Y-74533848D01*
X125149127Y-74490465D01*
X125159615Y-74483457D01*
X125255669Y-74419277D01*
X126362277Y-73312669D01*
X126433465Y-73206127D01*
X126433469Y-73206115D01*
X126436335Y-73200756D01*
X126437876Y-73201580D01*
X126476500Y-73153632D01*
X126542790Y-73131555D01*
X126588191Y-73138433D01*
G37*
%TD.AperFunction*%
%TA.AperFunction,Conductor*%
G36*
X139653266Y-75672861D02*
G01*
X139774737Y-75715366D01*
X139774741Y-75715367D01*
X139774742Y-75715367D01*
X139774745Y-75715368D01*
X139849658Y-75723808D01*
X139914069Y-75750873D01*
X139951955Y-75803695D01*
X139996202Y-75922328D01*
X139996206Y-75922335D01*
X140082452Y-76037544D01*
X140082455Y-76037547D01*
X140197664Y-76123793D01*
X140197671Y-76123797D01*
X140332517Y-76174091D01*
X140332516Y-76174091D01*
X140339444Y-76174835D01*
X140392127Y-76180500D01*
X141487872Y-76180499D01*
X141547483Y-76174091D01*
X141547485Y-76174090D01*
X141547487Y-76174090D01*
X141555031Y-76172308D01*
X141555377Y-76173775D01*
X141616342Y-76169408D01*
X141631378Y-76173822D01*
X141632513Y-76174089D01*
X141632517Y-76174091D01*
X141692127Y-76180500D01*
X142787872Y-76180499D01*
X142847483Y-76174091D01*
X142847485Y-76174090D01*
X142847487Y-76174090D01*
X142855031Y-76172308D01*
X142855377Y-76173775D01*
X142916342Y-76169408D01*
X142931378Y-76173822D01*
X142932513Y-76174089D01*
X142932517Y-76174091D01*
X142992127Y-76180500D01*
X144087872Y-76180499D01*
X144147483Y-76174091D01*
X144282331Y-76123796D01*
X144397546Y-76037546D01*
X144483796Y-75922331D01*
X144485168Y-75918653D01*
X144487520Y-75915510D01*
X144488047Y-75914546D01*
X144488185Y-75914621D01*
X144527038Y-75862718D01*
X144592501Y-75838299D01*
X144660775Y-75853149D01*
X144710181Y-75902553D01*
X144717533Y-75918650D01*
X144756202Y-76022328D01*
X144756206Y-76022335D01*
X144842452Y-76137544D01*
X144842455Y-76137547D01*
X144957664Y-76223793D01*
X144957671Y-76223797D01*
X145052908Y-76259318D01*
X145108842Y-76301189D01*
X145133259Y-76366653D01*
X145118408Y-76434926D01*
X145069003Y-76484332D01*
X145009575Y-76499500D01*
X138715420Y-76499500D01*
X138648381Y-76479815D01*
X138602626Y-76427011D01*
X138592682Y-76357853D01*
X138621707Y-76294297D01*
X138680485Y-76256523D01*
X138683327Y-76255725D01*
X138878483Y-76203433D01*
X138878492Y-76203429D01*
X139092578Y-76103600D01*
X139286082Y-75968105D01*
X139453108Y-75801079D01*
X139510736Y-75718779D01*
X139565312Y-75675154D01*
X139634811Y-75667960D01*
X139653266Y-75672861D01*
G37*
%TD.AperFunction*%
%TA.AperFunction,Conductor*%
G36*
X140358677Y-47910185D02*
G01*
X140379319Y-47926819D01*
X141320835Y-48868334D01*
X142239036Y-49786535D01*
X142315001Y-49862500D01*
X142364466Y-49911965D01*
X142437708Y-49960904D01*
X142511953Y-50010513D01*
X142559952Y-50030395D01*
X142592952Y-50044064D01*
X142647355Y-50087904D01*
X142669421Y-50154198D01*
X142669500Y-50158625D01*
X142669500Y-51060370D01*
X142669501Y-51060376D01*
X142675908Y-51119983D01*
X142726202Y-51254828D01*
X142726206Y-51254835D01*
X142812452Y-51370044D01*
X142812455Y-51370047D01*
X142927665Y-51456294D01*
X142927667Y-51456294D01*
X142927669Y-51456296D01*
X142938830Y-51460458D01*
X142994764Y-51502326D01*
X143019184Y-51567789D01*
X143019500Y-51576641D01*
X143019500Y-55068695D01*
X143054103Y-55242658D01*
X143054106Y-55242667D01*
X143121983Y-55406540D01*
X143121990Y-55406553D01*
X143202144Y-55526511D01*
X143223022Y-55593189D01*
X143204538Y-55660569D01*
X143152559Y-55707259D01*
X143139997Y-55712443D01*
X142963480Y-55774209D01*
X142810737Y-55870184D01*
X142683184Y-55997737D01*
X142587211Y-56150476D01*
X142527631Y-56320745D01*
X142527630Y-56320750D01*
X142507435Y-56499996D01*
X142507435Y-56500003D01*
X142527630Y-56679249D01*
X142527631Y-56679254D01*
X142587211Y-56849523D01*
X142654280Y-56956262D01*
X142683184Y-57002262D01*
X142810738Y-57129816D01*
X142901080Y-57186582D01*
X142925600Y-57201989D01*
X142963478Y-57225789D01*
X143093104Y-57271147D01*
X143133745Y-57285368D01*
X143133750Y-57285369D01*
X143312996Y-57305565D01*
X143313000Y-57305565D01*
X143313004Y-57305565D01*
X143492249Y-57285369D01*
X143492252Y-57285368D01*
X143492255Y-57285368D01*
X143662522Y-57225789D01*
X143815262Y-57129816D01*
X143942816Y-57002262D01*
X144038789Y-56849522D01*
X144098368Y-56679255D01*
X144103552Y-56633249D01*
X144118565Y-56500003D01*
X144118565Y-56499996D01*
X144098369Y-56320750D01*
X144098368Y-56320745D01*
X144082501Y-56275400D01*
X144038789Y-56150478D01*
X143980450Y-56057633D01*
X143961451Y-55990398D01*
X143981819Y-55923562D01*
X144035086Y-55878348D01*
X144061254Y-55870045D01*
X144182658Y-55845896D01*
X144182661Y-55845894D01*
X144182666Y-55845894D01*
X144346547Y-55778013D01*
X144494035Y-55679464D01*
X144619464Y-55554035D01*
X144718013Y-55406547D01*
X144785894Y-55242666D01*
X144820500Y-55068691D01*
X144820500Y-54311309D01*
X144820500Y-51576641D01*
X144840185Y-51509602D01*
X144892989Y-51463847D01*
X144901149Y-51460466D01*
X144912331Y-51456296D01*
X145027546Y-51370046D01*
X145113796Y-51254831D01*
X145164091Y-51119983D01*
X145170500Y-51060373D01*
X145170499Y-49964628D01*
X145164091Y-49905017D01*
X145164090Y-49905015D01*
X145164090Y-49905012D01*
X145162308Y-49897469D01*
X145163773Y-49897122D01*
X145159409Y-49836151D01*
X145163819Y-49821133D01*
X145164089Y-49819988D01*
X145164091Y-49819983D01*
X145170500Y-49760373D01*
X145170499Y-49143360D01*
X145190183Y-49076323D01*
X145242987Y-49030568D01*
X145312146Y-49020624D01*
X145375702Y-49049649D01*
X145382180Y-49055681D01*
X145425961Y-49099462D01*
X145468236Y-49127709D01*
X145521856Y-49163537D01*
X145573453Y-49198013D01*
X145647843Y-49228826D01*
X145737334Y-49265895D01*
X145911303Y-49300499D01*
X145911307Y-49300500D01*
X145911308Y-49300500D01*
X145911309Y-49300500D01*
X146875501Y-49300500D01*
X146942540Y-49320185D01*
X146988295Y-49372989D01*
X146999501Y-49424500D01*
X146999501Y-50947876D01*
X147005908Y-51007483D01*
X147056202Y-51142328D01*
X147056206Y-51142335D01*
X147142452Y-51257544D01*
X147142455Y-51257547D01*
X147257664Y-51343793D01*
X147257671Y-51343797D01*
X147392517Y-51394091D01*
X147392516Y-51394091D01*
X147399444Y-51394835D01*
X147452127Y-51400500D01*
X152875500Y-51400499D01*
X152942539Y-51420184D01*
X152988294Y-51472988D01*
X152999500Y-51524499D01*
X152999500Y-52476000D01*
X152979815Y-52543039D01*
X152927011Y-52588794D01*
X152875500Y-52600000D01*
X150750000Y-52600000D01*
X150750000Y-54630136D01*
X150598491Y-54600000D01*
X150401509Y-54600000D01*
X150250000Y-54630136D01*
X150250000Y-52600000D01*
X147452155Y-52600000D01*
X147392627Y-52606401D01*
X147392620Y-52606403D01*
X147257913Y-52656645D01*
X147257906Y-52656649D01*
X147142812Y-52742809D01*
X147142809Y-52742812D01*
X147056649Y-52857906D01*
X147056645Y-52857913D01*
X147006403Y-52992620D01*
X147006401Y-52992627D01*
X147000000Y-53052155D01*
X147000000Y-55350000D01*
X149530137Y-55350000D01*
X149500000Y-55501509D01*
X149500000Y-55698491D01*
X149530137Y-55850000D01*
X147000000Y-55850000D01*
X147000000Y-58147844D01*
X147006401Y-58207372D01*
X147006403Y-58207379D01*
X147056645Y-58342086D01*
X147056649Y-58342093D01*
X147142809Y-58457187D01*
X147142812Y-58457190D01*
X147257906Y-58543350D01*
X147257913Y-58543354D01*
X147392620Y-58593596D01*
X147392627Y-58593598D01*
X147452155Y-58599999D01*
X147452172Y-58600000D01*
X150250000Y-58600000D01*
X150250000Y-56569863D01*
X150401509Y-56600000D01*
X150598491Y-56600000D01*
X150750000Y-56569863D01*
X150750000Y-58600000D01*
X152875500Y-58600000D01*
X152942539Y-58619685D01*
X152988294Y-58672489D01*
X152999500Y-58724000D01*
X152999500Y-76375500D01*
X152979815Y-76442539D01*
X152927011Y-76488294D01*
X152875500Y-76499500D01*
X151430420Y-76499500D01*
X151363381Y-76479815D01*
X151317626Y-76427011D01*
X151307682Y-76357853D01*
X151336707Y-76294297D01*
X151395485Y-76256523D01*
X151398327Y-76255725D01*
X151593483Y-76203433D01*
X151593492Y-76203429D01*
X151807578Y-76103600D01*
X152001082Y-75968105D01*
X152168105Y-75801082D01*
X152303600Y-75607578D01*
X152403429Y-75393492D01*
X152403432Y-75393486D01*
X152460636Y-75180000D01*
X151563012Y-75180000D01*
X151595925Y-75122993D01*
X151630000Y-74995826D01*
X151630000Y-74864174D01*
X151595925Y-74737007D01*
X151563012Y-74680000D01*
X152460636Y-74680000D01*
X152460635Y-74679999D01*
X152403432Y-74466513D01*
X152403429Y-74466507D01*
X152303600Y-74252422D01*
X152303599Y-74252420D01*
X152168113Y-74058926D01*
X152168108Y-74058920D01*
X152001082Y-73891894D01*
X151814968Y-73761575D01*
X151771344Y-73706998D01*
X151764151Y-73637499D01*
X151795673Y-73575145D01*
X151814968Y-73558425D01*
X152001082Y-73428105D01*
X152168105Y-73261082D01*
X152303600Y-73067578D01*
X152403429Y-72853492D01*
X152403432Y-72853486D01*
X152460636Y-72640000D01*
X151563012Y-72640000D01*
X151595925Y-72582993D01*
X151630000Y-72455826D01*
X151630000Y-72324174D01*
X151595925Y-72197007D01*
X151563012Y-72140000D01*
X152460636Y-72140000D01*
X152460635Y-72139999D01*
X152403432Y-71926513D01*
X152403429Y-71926507D01*
X152303600Y-71712422D01*
X152303599Y-71712420D01*
X152168113Y-71518926D01*
X152168108Y-71518920D01*
X152001082Y-71351894D01*
X151814968Y-71221575D01*
X151771344Y-71166998D01*
X151764151Y-71097499D01*
X151795673Y-71035145D01*
X151814968Y-71018425D01*
X152001082Y-70888105D01*
X152168105Y-70721082D01*
X152303600Y-70527578D01*
X152403429Y-70313492D01*
X152403432Y-70313486D01*
X152460636Y-70100000D01*
X151563012Y-70100000D01*
X151595925Y-70042993D01*
X151630000Y-69915826D01*
X151630000Y-69784174D01*
X151595925Y-69657007D01*
X151563012Y-69600000D01*
X152460636Y-69600000D01*
X152460635Y-69599999D01*
X152403432Y-69386513D01*
X152403429Y-69386507D01*
X152303600Y-69172422D01*
X152303599Y-69172420D01*
X152168113Y-68978926D01*
X152168108Y-68978920D01*
X152001082Y-68811894D01*
X151814968Y-68681575D01*
X151771344Y-68626998D01*
X151764151Y-68557499D01*
X151795673Y-68495145D01*
X151814968Y-68478425D01*
X152001082Y-68348105D01*
X152168105Y-68181082D01*
X152303600Y-67987578D01*
X152403429Y-67773492D01*
X152403432Y-67773486D01*
X152460636Y-67560000D01*
X151563012Y-67560000D01*
X151595925Y-67502993D01*
X151630000Y-67375826D01*
X151630000Y-67244174D01*
X151595925Y-67117007D01*
X151563012Y-67060000D01*
X152460636Y-67060000D01*
X152460635Y-67059999D01*
X152403432Y-66846513D01*
X152403429Y-66846507D01*
X152303600Y-66632422D01*
X152303599Y-66632420D01*
X152168113Y-66438926D01*
X152168108Y-66438920D01*
X152001082Y-66271894D01*
X151807578Y-66136399D01*
X151593492Y-66036570D01*
X151593486Y-66036567D01*
X151380000Y-65979364D01*
X151380000Y-66876988D01*
X151322993Y-66844075D01*
X151195826Y-66810000D01*
X151064174Y-66810000D01*
X150937007Y-66844075D01*
X150880000Y-66876988D01*
X150880000Y-65979364D01*
X150879999Y-65979364D01*
X150666513Y-66036567D01*
X150666507Y-66036570D01*
X150452422Y-66136399D01*
X150452420Y-66136400D01*
X150258926Y-66271886D01*
X150258920Y-66271891D01*
X150091891Y-66438920D01*
X150091890Y-66438922D01*
X149961880Y-66624595D01*
X149907303Y-66668219D01*
X149837804Y-66675412D01*
X149775450Y-66643890D01*
X149758730Y-66624594D01*
X149628494Y-66438597D01*
X149461402Y-66271506D01*
X149461395Y-66271501D01*
X149267834Y-66135967D01*
X149267830Y-66135965D01*
X149225457Y-66116206D01*
X149053663Y-66036097D01*
X149053659Y-66036096D01*
X149053655Y-66036094D01*
X148825413Y-65974938D01*
X148825403Y-65974936D01*
X148590001Y-65954341D01*
X148589999Y-65954341D01*
X148354597Y-65974936D01*
X148354593Y-65974936D01*
X148354592Y-65974937D01*
X148354587Y-65974938D01*
X148354584Y-65974939D01*
X148337778Y-65979442D01*
X148267928Y-65977778D01*
X148218005Y-65947348D01*
X147766546Y-65495888D01*
X147766545Y-65495887D01*
X147651807Y-65419222D01*
X147524332Y-65366421D01*
X147524322Y-65366418D01*
X147388996Y-65339500D01*
X147388994Y-65339500D01*
X147388993Y-65339500D01*
X142828994Y-65339500D01*
X142691006Y-65339500D01*
X142691004Y-65339500D01*
X142555677Y-65366418D01*
X142555667Y-65366421D01*
X142428192Y-65419222D01*
X142313454Y-65495887D01*
X141786160Y-66023181D01*
X141724837Y-66056666D01*
X141698492Y-66059500D01*
X141692136Y-66059500D01*
X141692122Y-66059501D01*
X141632520Y-66065908D01*
X141624974Y-66067692D01*
X141624628Y-66066230D01*
X141563622Y-66070584D01*
X141548600Y-66066172D01*
X141547482Y-66065908D01*
X141487883Y-66059501D01*
X141487881Y-66059500D01*
X141487873Y-66059500D01*
X141487864Y-66059500D01*
X140392129Y-66059500D01*
X140392123Y-66059501D01*
X140332516Y-66065908D01*
X140197671Y-66116202D01*
X140197664Y-66116206D01*
X140082455Y-66202452D01*
X140082452Y-66202455D01*
X139996206Y-66317664D01*
X139996203Y-66317669D01*
X139951955Y-66436304D01*
X139910083Y-66492237D01*
X139849658Y-66516190D01*
X139774750Y-66524630D01*
X139653265Y-66567139D01*
X139583486Y-66570700D01*
X139522859Y-66535971D01*
X139510737Y-66521221D01*
X139453109Y-66438921D01*
X139286082Y-66271894D01*
X139092578Y-66136399D01*
X138878492Y-66036570D01*
X138878486Y-66036567D01*
X138665000Y-65979364D01*
X138665000Y-66876988D01*
X138607993Y-66844075D01*
X138480826Y-66810000D01*
X138349174Y-66810000D01*
X138222007Y-66844075D01*
X138165000Y-66876988D01*
X138165000Y-65979364D01*
X138164999Y-65979364D01*
X137951513Y-66036567D01*
X137951507Y-66036570D01*
X137737422Y-66136399D01*
X137737420Y-66136400D01*
X137543926Y-66271886D01*
X137543920Y-66271891D01*
X137376891Y-66438920D01*
X137376890Y-66438922D01*
X137246880Y-66624595D01*
X137192303Y-66668219D01*
X137122804Y-66675412D01*
X137060450Y-66643890D01*
X137043730Y-66624594D01*
X136913494Y-66438597D01*
X136746402Y-66271506D01*
X136746395Y-66271501D01*
X136552834Y-66135967D01*
X136552830Y-66135965D01*
X136510457Y-66116206D01*
X136338663Y-66036097D01*
X136338659Y-66036096D01*
X136338655Y-66036094D01*
X136110413Y-65974938D01*
X136110403Y-65974936D01*
X135875001Y-65954341D01*
X135874999Y-65954341D01*
X135639597Y-65974936D01*
X135639593Y-65974936D01*
X135639592Y-65974937D01*
X135639587Y-65974938D01*
X135639584Y-65974939D01*
X135622778Y-65979442D01*
X135552928Y-65977778D01*
X135503005Y-65947348D01*
X135051546Y-65495888D01*
X135051545Y-65495887D01*
X134936807Y-65419222D01*
X134809332Y-65366421D01*
X134809322Y-65366418D01*
X134673996Y-65339500D01*
X134673994Y-65339500D01*
X134673993Y-65339500D01*
X129344007Y-65339500D01*
X129344003Y-65339500D01*
X129235590Y-65361065D01*
X129235589Y-65361065D01*
X129208681Y-65366418D01*
X129208671Y-65366420D01*
X129081190Y-65419224D01*
X128966454Y-65495887D01*
X128614885Y-65847456D01*
X128538228Y-65962182D01*
X128538223Y-65962192D01*
X128529624Y-65982953D01*
X128485783Y-66037356D01*
X128419489Y-66059421D01*
X128415063Y-66059500D01*
X128144913Y-66059500D01*
X128077874Y-66039815D01*
X128032119Y-65987011D01*
X128022175Y-65917853D01*
X128051200Y-65854297D01*
X128057232Y-65847819D01*
X131123233Y-62781819D01*
X131184556Y-62748334D01*
X131210914Y-62745500D01*
X135178680Y-62745500D01*
X135263224Y-62728682D01*
X135304353Y-62720501D01*
X135422736Y-62671465D01*
X135468603Y-62640818D01*
X135529278Y-62600277D01*
X137064578Y-61064977D01*
X141069694Y-61064977D01*
X141069694Y-61064984D01*
X141089889Y-61244230D01*
X141089890Y-61244235D01*
X141149470Y-61414504D01*
X141188547Y-61476694D01*
X141245443Y-61567243D01*
X141372997Y-61694797D01*
X141525737Y-61790770D01*
X141616822Y-61822642D01*
X141696004Y-61850349D01*
X141696009Y-61850350D01*
X141875255Y-61870546D01*
X141875259Y-61870546D01*
X141875263Y-61870546D01*
X142054508Y-61850350D01*
X142054511Y-61850349D01*
X142054514Y-61850349D01*
X142224781Y-61790770D01*
X142371227Y-61698751D01*
X142438463Y-61679751D01*
X142505298Y-61700118D01*
X142550513Y-61753386D01*
X142559751Y-61822642D01*
X142554241Y-61844699D01*
X142527632Y-61920742D01*
X142527630Y-61920750D01*
X142507435Y-62099996D01*
X142507435Y-62100003D01*
X142527630Y-62279249D01*
X142527631Y-62279254D01*
X142587211Y-62449523D01*
X142681935Y-62600275D01*
X142683184Y-62602262D01*
X142810738Y-62729816D01*
X142963478Y-62825789D01*
X143133745Y-62885368D01*
X143133750Y-62885369D01*
X143312996Y-62905565D01*
X143313000Y-62905565D01*
X143313004Y-62905565D01*
X143492249Y-62885369D01*
X143492252Y-62885368D01*
X143492255Y-62885368D01*
X143662522Y-62825789D01*
X143815262Y-62729816D01*
X143942816Y-62602262D01*
X144038789Y-62449522D01*
X144098368Y-62279255D01*
X144098791Y-62275500D01*
X144118565Y-62100003D01*
X144118565Y-62099996D01*
X144098369Y-61920750D01*
X144098368Y-61920745D01*
X144052887Y-61790769D01*
X144038789Y-61750478D01*
X143942816Y-61597738D01*
X143815262Y-61470184D01*
X143726648Y-61414504D01*
X143662523Y-61374211D01*
X143492254Y-61314631D01*
X143492249Y-61314630D01*
X143313004Y-61294435D01*
X143312996Y-61294435D01*
X143133750Y-61314630D01*
X143133745Y-61314631D01*
X142963476Y-61374211D01*
X142817031Y-61466229D01*
X142749794Y-61485229D01*
X142682959Y-61464861D01*
X142637745Y-61411593D01*
X142628508Y-61342337D01*
X142634018Y-61320279D01*
X142635995Y-61314631D01*
X142660627Y-61244236D01*
X142680824Y-61064981D01*
X142667634Y-60947917D01*
X142660628Y-60885731D01*
X142660627Y-60885726D01*
X142633189Y-60807314D01*
X142601048Y-60715459D01*
X142505075Y-60562719D01*
X142377521Y-60435165D01*
X142375839Y-60434108D01*
X142224782Y-60339192D01*
X142054513Y-60279612D01*
X142054508Y-60279611D01*
X141875263Y-60259416D01*
X141875255Y-60259416D01*
X141696009Y-60279611D01*
X141696004Y-60279612D01*
X141525735Y-60339192D01*
X141372996Y-60435165D01*
X141245443Y-60562718D01*
X141149470Y-60715457D01*
X141089890Y-60885726D01*
X141089889Y-60885731D01*
X141069694Y-61064977D01*
X137064578Y-61064977D01*
X138305276Y-59824279D01*
X138363170Y-59737634D01*
X138376464Y-59717738D01*
X138376465Y-59717736D01*
X138425501Y-59599353D01*
X138450500Y-59473678D01*
X138450500Y-59179067D01*
X138469507Y-59113094D01*
X138525788Y-59023524D01*
X138536119Y-58994000D01*
X138585368Y-58853255D01*
X138585369Y-58853249D01*
X138605565Y-58674003D01*
X138605565Y-58673997D01*
X138590916Y-58543984D01*
X138602970Y-58475162D01*
X138650319Y-58423782D01*
X138714136Y-58406100D01*
X140245893Y-58406100D01*
X140245894Y-58406099D01*
X140419866Y-58371495D01*
X140501806Y-58337553D01*
X140583747Y-58303613D01*
X140679743Y-58239470D01*
X140731236Y-58205064D01*
X141449464Y-57486836D01*
X141475501Y-57447867D01*
X141526533Y-57371495D01*
X141526534Y-57371493D01*
X141548008Y-57339355D01*
X141548009Y-57339352D01*
X141548013Y-57339347D01*
X141570372Y-57285368D01*
X141615895Y-57175466D01*
X141650500Y-57001492D01*
X141650500Y-56824108D01*
X141650500Y-54911309D01*
X141650500Y-54911306D01*
X141650499Y-54911304D01*
X141615896Y-54737341D01*
X141615893Y-54737332D01*
X141606150Y-54713811D01*
X141598923Y-54696363D01*
X141548016Y-54573459D01*
X141548009Y-54573446D01*
X141449464Y-54425965D01*
X141449461Y-54425961D01*
X141324038Y-54300538D01*
X141324034Y-54300535D01*
X141176553Y-54201990D01*
X141176540Y-54201983D01*
X141012667Y-54134106D01*
X141012658Y-54134103D01*
X140838694Y-54099500D01*
X140838691Y-54099500D01*
X140661309Y-54099500D01*
X140661306Y-54099500D01*
X140487341Y-54134103D01*
X140487332Y-54134106D01*
X140323459Y-54201983D01*
X140323446Y-54201990D01*
X140175965Y-54300535D01*
X140175961Y-54300538D01*
X140050538Y-54425961D01*
X140050535Y-54425965D01*
X139951990Y-54573446D01*
X139951983Y-54573459D01*
X139884106Y-54737332D01*
X139884103Y-54737341D01*
X139849500Y-54911304D01*
X139849500Y-56481100D01*
X139829815Y-56548139D01*
X139777011Y-56593894D01*
X139725500Y-56605100D01*
X139040456Y-56605100D01*
X138973417Y-56585415D01*
X138927662Y-56532611D01*
X138917718Y-56463453D01*
X138937355Y-56412207D01*
X138974013Y-56357347D01*
X139007953Y-56275406D01*
X139041895Y-56193466D01*
X139076500Y-56019492D01*
X139076500Y-55842108D01*
X139076500Y-54902309D01*
X139076500Y-54902306D01*
X139076499Y-54902304D01*
X139041896Y-54728341D01*
X139041893Y-54728332D01*
X138974016Y-54564459D01*
X138974009Y-54564446D01*
X138875464Y-54416965D01*
X138875461Y-54416961D01*
X138750038Y-54291538D01*
X138750034Y-54291535D01*
X138602553Y-54192990D01*
X138602540Y-54192983D01*
X138438667Y-54125106D01*
X138438658Y-54125103D01*
X138264694Y-54090500D01*
X138264691Y-54090500D01*
X138087309Y-54090500D01*
X138087306Y-54090500D01*
X137913341Y-54125103D01*
X137913332Y-54125106D01*
X137749459Y-54192983D01*
X137749446Y-54192990D01*
X137601965Y-54291535D01*
X137601960Y-54291539D01*
X137565179Y-54328320D01*
X137503856Y-54361805D01*
X137434164Y-54356819D01*
X137389818Y-54328319D01*
X137378438Y-54316939D01*
X137378434Y-54316936D01*
X137230952Y-54218391D01*
X137230942Y-54218386D01*
X137067066Y-54150506D01*
X137067060Y-54150504D01*
X136893094Y-54115900D01*
X136893092Y-54115900D01*
X136715708Y-54115900D01*
X136715706Y-54115900D01*
X136541739Y-54150504D01*
X136541733Y-54150506D01*
X136377855Y-54218386D01*
X136377846Y-54218391D01*
X136230364Y-54316936D01*
X136230360Y-54316939D01*
X135978520Y-54568781D01*
X135917197Y-54602266D01*
X135890839Y-54605100D01*
X135263500Y-54605100D01*
X135196461Y-54585415D01*
X135150706Y-54532611D01*
X135139500Y-54481100D01*
X135139500Y-54416906D01*
X135139499Y-54416904D01*
X135104896Y-54242941D01*
X135104893Y-54242932D01*
X135037016Y-54079059D01*
X135037009Y-54079046D01*
X134938464Y-53931565D01*
X134938461Y-53931561D01*
X134813038Y-53806138D01*
X134813034Y-53806135D01*
X134665553Y-53707590D01*
X134665540Y-53707583D01*
X134501667Y-53639706D01*
X134501658Y-53639703D01*
X134327694Y-53605100D01*
X134327691Y-53605100D01*
X130821212Y-53605100D01*
X130754173Y-53585415D01*
X130708418Y-53532611D01*
X130697989Y-53467237D01*
X130698214Y-53465234D01*
X130725270Y-53400819D01*
X130782858Y-53361254D01*
X130821437Y-53355100D01*
X137531332Y-53355100D01*
X137531333Y-53355099D01*
X137661836Y-53329141D01*
X137784769Y-53278220D01*
X137895406Y-53204295D01*
X139895702Y-51203997D01*
X139942423Y-51174639D01*
X140100322Y-51119389D01*
X140253062Y-51023416D01*
X140380616Y-50895862D01*
X140476589Y-50743122D01*
X140536168Y-50572855D01*
X140536169Y-50572849D01*
X140556365Y-50393603D01*
X140556365Y-50393596D01*
X140536169Y-50214350D01*
X140536168Y-50214345D01*
X140478828Y-50050478D01*
X140476589Y-50044078D01*
X140467991Y-50030395D01*
X140384637Y-49897738D01*
X140380616Y-49891338D01*
X140253062Y-49763784D01*
X140210439Y-49737002D01*
X140100321Y-49667810D01*
X139933159Y-49609318D01*
X139876382Y-49568596D01*
X139857071Y-49533230D01*
X139825789Y-49443831D01*
X139729816Y-49291091D01*
X139602262Y-49163537D01*
X139500291Y-49099464D01*
X139449521Y-49067563D01*
X139359317Y-49036000D01*
X139279255Y-49007985D01*
X139279252Y-49007984D01*
X139272683Y-49005686D01*
X139273405Y-49003620D01*
X139221576Y-48974628D01*
X139193108Y-48928801D01*
X139175789Y-48879303D01*
X139091208Y-48744695D01*
X139079816Y-48726564D01*
X138952262Y-48599010D01*
X138799523Y-48503037D01*
X138629254Y-48443457D01*
X138629249Y-48443456D01*
X138450004Y-48423261D01*
X138449996Y-48423261D01*
X138270750Y-48443456D01*
X138270745Y-48443457D01*
X138100476Y-48503037D01*
X137947737Y-48599010D01*
X137820183Y-48726564D01*
X137805982Y-48749165D01*
X137753646Y-48795455D01*
X137684592Y-48806102D01*
X137635016Y-48788184D01*
X137588815Y-48759153D01*
X137418545Y-48699573D01*
X137418540Y-48699572D01*
X137239295Y-48679377D01*
X137239287Y-48679377D01*
X137060041Y-48699572D01*
X137060036Y-48699573D01*
X136889767Y-48759153D01*
X136768727Y-48835208D01*
X136701490Y-48854208D01*
X136634655Y-48833840D01*
X136597761Y-48796186D01*
X136554014Y-48726564D01*
X136519816Y-48672138D01*
X136392262Y-48544584D01*
X136239521Y-48448610D01*
X136069249Y-48389030D01*
X136002227Y-48381479D01*
X135937813Y-48354412D01*
X135911119Y-48324234D01*
X135829816Y-48194840D01*
X135737157Y-48102181D01*
X135703672Y-48040858D01*
X135708656Y-47971166D01*
X135750528Y-47915233D01*
X135815992Y-47890816D01*
X135824838Y-47890500D01*
X140291638Y-47890500D01*
X140358677Y-47910185D01*
G37*
%TD.AperFunction*%
%TA.AperFunction,Conductor*%
G36*
X138680000Y-73803638D02*
G01*
X138665000Y-73854721D01*
X138665000Y-74496988D01*
X138607993Y-74464075D01*
X138480826Y-74430000D01*
X138349174Y-74430000D01*
X138222007Y-74464075D01*
X138165000Y-74496988D01*
X138165000Y-73516362D01*
X138180000Y-73465278D01*
X138180000Y-72823012D01*
X138237007Y-72855925D01*
X138364174Y-72890000D01*
X138495826Y-72890000D01*
X138622993Y-72855925D01*
X138680000Y-72823012D01*
X138680000Y-73803638D01*
G37*
%TD.AperFunction*%
%TA.AperFunction,Conductor*%
G36*
X151380000Y-74496988D02*
G01*
X151322993Y-74464075D01*
X151195826Y-74430000D01*
X151064174Y-74430000D01*
X150937007Y-74464075D01*
X150880000Y-74496988D01*
X150880000Y-72823012D01*
X150937007Y-72855925D01*
X151064174Y-72890000D01*
X151195826Y-72890000D01*
X151322993Y-72855925D01*
X151380000Y-72823012D01*
X151380000Y-74496988D01*
G37*
%TD.AperFunction*%
%TA.AperFunction,Conductor*%
G36*
X138680000Y-71956988D02*
G01*
X138622993Y-71924075D01*
X138495826Y-71890000D01*
X138364174Y-71890000D01*
X138237007Y-71924075D01*
X138180000Y-71956988D01*
X138180000Y-70283012D01*
X138237007Y-70315925D01*
X138364174Y-70350000D01*
X138495826Y-70350000D01*
X138622993Y-70315925D01*
X138680000Y-70283012D01*
X138680000Y-71956988D01*
G37*
%TD.AperFunction*%
%TA.AperFunction,Conductor*%
G36*
X151380000Y-71956988D02*
G01*
X151322993Y-71924075D01*
X151195826Y-71890000D01*
X151064174Y-71890000D01*
X150937007Y-71924075D01*
X150880000Y-71956988D01*
X150880000Y-70283012D01*
X150937007Y-70315925D01*
X151064174Y-70350000D01*
X151195826Y-70350000D01*
X151322993Y-70315925D01*
X151380000Y-70283012D01*
X151380000Y-71956988D01*
G37*
%TD.AperFunction*%
%TA.AperFunction,Conductor*%
G36*
X112803678Y-66420185D02*
G01*
X112849433Y-66472989D01*
X112859377Y-66542147D01*
X112830352Y-66605703D01*
X112824320Y-66612181D01*
X109366435Y-70070063D01*
X109305112Y-70103548D01*
X109267952Y-70105911D01*
X109255150Y-70104791D01*
X109250000Y-70104341D01*
X109249999Y-70104341D01*
X109249998Y-70104341D01*
X109014596Y-70124936D01*
X109014586Y-70124938D01*
X108786344Y-70186094D01*
X108786335Y-70186098D01*
X108572171Y-70285964D01*
X108572169Y-70285965D01*
X108537623Y-70310155D01*
X108471416Y-70332483D01*
X108403649Y-70315471D01*
X108355837Y-70264523D01*
X108342500Y-70208580D01*
X108342500Y-70020361D01*
X108362185Y-69953322D01*
X108378819Y-69932680D01*
X111874680Y-66436819D01*
X111936003Y-66403334D01*
X111962361Y-66400500D01*
X112736639Y-66400500D01*
X112803678Y-66420185D01*
G37*
%TD.AperFunction*%
%TA.AperFunction,Conductor*%
G36*
X138665000Y-68387723D02*
G01*
X138677166Y-68410004D01*
X138680000Y-68436362D01*
X138680000Y-69416988D01*
X138622993Y-69384075D01*
X138495826Y-69350000D01*
X138364174Y-69350000D01*
X138237007Y-69384075D01*
X138180000Y-69416988D01*
X138180000Y-68772276D01*
X138167834Y-68749996D01*
X138165000Y-68723638D01*
X138165000Y-67743012D01*
X138222007Y-67775925D01*
X138349174Y-67810000D01*
X138480826Y-67810000D01*
X138607993Y-67775925D01*
X138665000Y-67743012D01*
X138665000Y-68387723D01*
G37*
%TD.AperFunction*%
%TA.AperFunction,Conductor*%
G36*
X151380000Y-69416988D02*
G01*
X151322993Y-69384075D01*
X151195826Y-69350000D01*
X151064174Y-69350000D01*
X150937007Y-69384075D01*
X150880000Y-69416988D01*
X150880000Y-67743012D01*
X150937007Y-67775925D01*
X151064174Y-67810000D01*
X151195826Y-67810000D01*
X151322993Y-67775925D01*
X151380000Y-67743012D01*
X151380000Y-69416988D01*
G37*
%TD.AperFunction*%
%TD*%
M02*
