%TF.GenerationSoftware,KiCad,Pcbnew,8.0.8*%
%TF.CreationDate,2025-01-18T23:44:27+01:00*%
%TF.ProjectId,myAntWeightBot,6d79416e-7457-4656-9967-6874426f742e,rev?*%
%TF.SameCoordinates,Original*%
%TF.FileFunction,Copper,L2,Inr*%
%TF.FilePolarity,Positive*%
%FSLAX46Y46*%
G04 Gerber Fmt 4.6, Leading zero omitted, Abs format (unit mm)*
G04 Created by KiCad (PCBNEW 8.0.8) date 2025-01-18 23:44:27*
%MOMM*%
%LPD*%
G01*
G04 APERTURE LIST*
%TA.AperFunction,ComponentPad*%
%ADD10C,1.500000*%
%TD*%
%TA.AperFunction,ComponentPad*%
%ADD11R,1.700000X1.700000*%
%TD*%
%TA.AperFunction,ComponentPad*%
%ADD12O,1.700000X1.700000*%
%TD*%
%TA.AperFunction,ComponentPad*%
%ADD13R,1.800000X1.800000*%
%TD*%
%TA.AperFunction,ComponentPad*%
%ADD14C,1.800000*%
%TD*%
%TA.AperFunction,ComponentPad*%
%ADD15R,6.000000X5.000000*%
%TD*%
%TA.AperFunction,ComponentPad*%
%ADD16R,1.050000X1.500000*%
%TD*%
%TA.AperFunction,ComponentPad*%
%ADD17O,1.050000X1.500000*%
%TD*%
%TA.AperFunction,ViaPad*%
%ADD18C,0.600000*%
%TD*%
%TA.AperFunction,Conductor*%
%ADD19C,0.800000*%
%TD*%
G04 APERTURE END LIST*
D10*
%TO.N,Net-(JP10-B)*%
%TO.C,TP5*%
X123825000Y-72644000D03*
%TD*%
%TO.N,Net-(U3-A7)*%
%TO.C,TP2*%
X121285000Y-72644000D03*
%TD*%
D11*
%TO.N,Net-(J12-Pin_1)*%
%TO.C,J12*%
X133350000Y-72390000D03*
D12*
%TO.N,Net-(J12-Pin_2)*%
X135890000Y-72390000D03*
%TO.N,GND*%
X138430000Y-72390000D03*
%TD*%
D13*
%TO.N,Net-(D1-K)*%
%TO.C,D1*%
X114475000Y-72660000D03*
D14*
%TO.N,+5V*%
X117015000Y-72660000D03*
%TD*%
D11*
%TO.N,Net-(J3-Pin_1)*%
%TO.C,J3*%
X105500000Y-74000000D03*
D12*
%TO.N,Net-(J3-Pin_2)*%
X105500000Y-71460000D03*
%TD*%
D15*
%TO.N,+BATT*%
%TO.C,J1*%
X81500000Y-48400000D03*
%TO.N,Net-(J1-Pin_2)*%
X81500000Y-55600000D03*
%TD*%
D10*
%TO.N,Net-(U3-A8)*%
%TO.C,TP3*%
X121285000Y-70104000D03*
%TD*%
D16*
%TO.N,Net-(Q2-D)*%
%TO.C,Q2*%
X97430000Y-49411000D03*
D17*
%TO.N,Net-(Q1-D)*%
X98700000Y-49411000D03*
%TO.N,+BATT*%
X99970000Y-49411000D03*
%TD*%
D16*
%TO.N,GND*%
%TO.C,Q1*%
X90170000Y-49411000D03*
D17*
%TO.N,Net-(JP14-A)*%
X91440000Y-49411000D03*
%TO.N,Net-(Q1-D)*%
X92710000Y-49411000D03*
%TD*%
D11*
%TO.N,Net-(J11-Pin_1)*%
%TO.C,J11*%
X133335000Y-74930000D03*
D12*
%TO.N,Net-(J11-Pin_2)*%
X135875000Y-74930000D03*
%TO.N,GND*%
X138415000Y-74930000D03*
%TD*%
D11*
%TO.N,Net-(J6-Pin_1)*%
%TO.C,J6*%
X146050000Y-69850000D03*
D12*
%TO.N,Net-(J6-Pin_2)*%
X148590000Y-69850000D03*
%TO.N,GND*%
X151130000Y-69850000D03*
%TD*%
D11*
%TO.N,Net-(J9-Pin_1)*%
%TO.C,J9*%
X133335000Y-67310000D03*
D12*
%TO.N,Net-(J9-Pin_2)*%
X135875000Y-67310000D03*
%TO.N,GND*%
X138415000Y-67310000D03*
%TD*%
D10*
%TO.N,Net-(JP9-B)*%
%TO.C,TP4*%
X123825000Y-75184000D03*
%TD*%
D11*
%TO.N,Net-(J7-Pin_1)*%
%TO.C,J7*%
X146050000Y-72390000D03*
D12*
%TO.N,Net-(J7-Pin_2)*%
X148590000Y-72390000D03*
%TO.N,GND*%
X151130000Y-72390000D03*
%TD*%
D11*
%TO.N,Net-(J5-Pin_1)*%
%TO.C,J5*%
X146050000Y-67310000D03*
D12*
%TO.N,Net-(J5-Pin_2)*%
X148590000Y-67310000D03*
%TO.N,GND*%
X151130000Y-67310000D03*
%TD*%
D10*
%TO.N,Net-(JP11-B)*%
%TO.C,TP6*%
X123825000Y-70104000D03*
%TD*%
D15*
%TO.N,Net-(J1-Pin_2)*%
%TO.C,J2*%
X99500000Y-65400000D03*
%TO.N,GND*%
X99500000Y-72600000D03*
%TD*%
D10*
%TO.N,Net-(U3-A6)*%
%TO.C,TP1*%
X121285000Y-75184000D03*
%TD*%
D11*
%TO.N,Net-(J13-Pin_1)*%
%TO.C,J13*%
X133350000Y-69850000D03*
D12*
%TO.N,Net-(J13-Pin_2)*%
X135890000Y-69850000D03*
%TO.N,GND*%
X138430000Y-69850000D03*
%TD*%
D11*
%TO.N,Net-(J8-Pin_1)*%
%TO.C,J8*%
X146050000Y-74930000D03*
D12*
%TO.N,Net-(J8-Pin_2)*%
X148590000Y-74930000D03*
%TO.N,GND*%
X151130000Y-74930000D03*
%TD*%
D11*
%TO.N,Net-(J4-Pin_1)*%
%TO.C,J4*%
X109250000Y-74000000D03*
D12*
%TO.N,Net-(J4-Pin_2)*%
X109250000Y-71460000D03*
%TD*%
D15*
%TO.N,+BATT*%
%TO.C,J10*%
X150500000Y-48400000D03*
%TO.N,GND*%
X150500000Y-55600000D03*
%TD*%
D18*
%TO.N,GND*%
X138400000Y-66000000D03*
%TO.N,Net-(JP14-B)*%
X118200000Y-46300000D03*
%TO.N,+3.3V*%
X126873000Y-72390000D03*
X133205500Y-58412500D03*
X108100000Y-52700000D03*
X126873000Y-69850000D03*
X126873000Y-74930000D03*
X108100000Y-52100000D03*
X129900000Y-53400000D03*
X143313000Y-56500000D03*
%TO.N,GND*%
X118110000Y-76200000D03*
X113030000Y-52070000D03*
X96520000Y-55880000D03*
X119239025Y-69128163D03*
X118401818Y-59169906D03*
X125730000Y-50165000D03*
X144780000Y-76200000D03*
X97790000Y-76200000D03*
X125730000Y-47625000D03*
X131900000Y-53500000D03*
X130810000Y-76200000D03*
X107950000Y-76200000D03*
X119294181Y-71404723D03*
X118110000Y-54610000D03*
X149085413Y-62239254D03*
X146050000Y-62230000D03*
X93980000Y-58420000D03*
X97790000Y-69088000D03*
X110490000Y-76200000D03*
X102870000Y-54610000D03*
X139700000Y-76200000D03*
X152400000Y-62230000D03*
X142240000Y-76200000D03*
X99060000Y-53340000D03*
X79502000Y-45085000D03*
X97282000Y-62103000D03*
X137800000Y-48209200D03*
X152400000Y-76200000D03*
X111905293Y-67019874D03*
X88900000Y-53340000D03*
X129540000Y-47625000D03*
X102870000Y-49530000D03*
X108157298Y-60315127D03*
X108331000Y-48895000D03*
X113030000Y-76200000D03*
X125095000Y-76200000D03*
X128400000Y-54900000D03*
X120910491Y-44773558D03*
X120098854Y-47269685D03*
X132907621Y-45085000D03*
X79502000Y-59309000D03*
X93980000Y-53340000D03*
X105410000Y-76200000D03*
X91440000Y-55880000D03*
X88900000Y-48260000D03*
X118110000Y-52070000D03*
X90297000Y-45720000D03*
X99060000Y-58420000D03*
X131300000Y-53500000D03*
X116486176Y-62189125D03*
X120015000Y-76200000D03*
X132500000Y-53500000D03*
X135219000Y-63373000D03*
X139446000Y-54610000D03*
X125730000Y-45085000D03*
X102870000Y-52070000D03*
X86360000Y-45720000D03*
X102870000Y-69088000D03*
X86360000Y-50800000D03*
X127635000Y-46355000D03*
X101473000Y-62103000D03*
X79502000Y-52070000D03*
X113030000Y-54610000D03*
X88900000Y-58420000D03*
X109948007Y-68956338D03*
X127635000Y-48260000D03*
X102870000Y-76200000D03*
X128270000Y-76200000D03*
X102870000Y-46990000D03*
X113716824Y-62209947D03*
X110243218Y-46323689D03*
X86360000Y-55880000D03*
X129540000Y-45085000D03*
X100330000Y-76200000D03*
X115570000Y-76200000D03*
X128800000Y-54500000D03*
X115570000Y-46990000D03*
X135534400Y-54559200D03*
%TO.N,+BATT*%
X126873000Y-67310000D03*
X139954000Y-67310000D03*
X141875259Y-61064981D03*
X139954000Y-72390000D03*
X139924000Y-69850000D03*
X139954000Y-74930000D03*
%TO.N,+5V*%
X144414620Y-69835380D03*
X144400000Y-67310000D03*
X131699000Y-66929000D03*
X143920000Y-54980000D03*
X143920000Y-54400000D03*
X109728000Y-51000000D03*
X144414620Y-72375380D03*
X109728000Y-50400000D03*
X131691500Y-74414500D03*
X143313000Y-62100000D03*
X131699000Y-69342000D03*
X131699000Y-71882000D03*
X144400000Y-74930000D03*
%TO.N,Net-(J3-Pin_2)*%
X134239000Y-54505600D03*
%TO.N,Net-(J3-Pin_1)*%
X136804400Y-55016400D03*
%TO.N,Net-(J4-Pin_1)*%
X140750000Y-55000000D03*
%TO.N,Net-(J4-Pin_2)*%
X138176000Y-54991000D03*
%TO.N,Net-(U3-A6)*%
X137800000Y-58674000D03*
%TO.N,Net-(U3-A7)*%
X137149999Y-59140371D03*
%TO.N,Net-(U3-A8)*%
X136500000Y-58674000D03*
%TO.N,Net-(U1-IO13)*%
X125924357Y-51400757D03*
X134550000Y-48209200D03*
%TO.N,Net-(U1-IO10)*%
X120000000Y-58994000D03*
X137239291Y-49484942D03*
%TO.N,Net-(U1-IO8)*%
X139100000Y-49793353D03*
X117924961Y-61297439D03*
%TO.N,Net-(U1-IO11)*%
X120000000Y-56454000D03*
X135890000Y-49174400D03*
%TO.N,Net-(U1-IO7)*%
X139750800Y-50393600D03*
X118004951Y-62484000D03*
%TO.N,Net-(U1-IO12)*%
X135200000Y-48697102D03*
X120000000Y-53914000D03*
%TO.N,Net-(U1-IO9)*%
X138450000Y-49228826D03*
X119009199Y-60543199D03*
%TO.N,Net-(JP12-C)*%
X140716000Y-46990000D03*
X133900000Y-46990000D03*
%TD*%
D19*
%TO.N,+3.3V*%
X125872999Y-66727001D02*
X133205500Y-59394500D01*
X132493000Y-57700000D02*
X133205500Y-58412500D01*
X126873000Y-69850000D02*
X125872999Y-68849999D01*
X129900000Y-55107000D02*
X132493000Y-57700000D01*
X129900000Y-53400000D02*
X129900000Y-55107000D01*
X113100000Y-57700000D02*
X132493000Y-57700000D01*
X143313000Y-56500000D02*
X133693000Y-56500000D01*
X133205500Y-59394500D02*
X133205500Y-58412500D01*
X108100000Y-52700000D02*
X113100000Y-57700000D01*
X125872999Y-68849999D02*
X125872999Y-66727001D01*
X133693000Y-56500000D02*
X132493000Y-57700000D01*
%TO.N,+BATT*%
X133118019Y-61064981D02*
X141875259Y-61064981D01*
X126873000Y-67310000D02*
X133118019Y-61064981D01*
%TO.N,+5V*%
X133800000Y-62100000D02*
X143313000Y-62100000D01*
X144400000Y-74930000D02*
X144400000Y-63187000D01*
X131691500Y-74414500D02*
X131691500Y-64208500D01*
X144400000Y-63187000D02*
X143313000Y-62100000D01*
X131691500Y-64208500D02*
X133800000Y-62100000D01*
%TD*%
%TA.AperFunction,Conductor*%
%TO.N,GND*%
G36*
X152942539Y-44520185D02*
G01*
X152988294Y-44572989D01*
X152999500Y-44624500D01*
X152999500Y-45275500D01*
X152979815Y-45342539D01*
X152927011Y-45388294D01*
X152875500Y-45399500D01*
X147452129Y-45399500D01*
X147452123Y-45399501D01*
X147392516Y-45405908D01*
X147257671Y-45456202D01*
X147257664Y-45456206D01*
X147142455Y-45542452D01*
X147142452Y-45542455D01*
X147056206Y-45657664D01*
X147056202Y-45657671D01*
X147005908Y-45792517D01*
X146999501Y-45852116D01*
X146999501Y-45852123D01*
X146999500Y-45852135D01*
X146999500Y-50947870D01*
X146999501Y-50947876D01*
X147005908Y-51007483D01*
X147056202Y-51142328D01*
X147056206Y-51142335D01*
X147142452Y-51257544D01*
X147142455Y-51257547D01*
X147257664Y-51343793D01*
X147257671Y-51343797D01*
X147392517Y-51394091D01*
X147392516Y-51394091D01*
X147399444Y-51394835D01*
X147452127Y-51400500D01*
X152875500Y-51400499D01*
X152942539Y-51420184D01*
X152988294Y-51472988D01*
X152999500Y-51524499D01*
X152999500Y-52000000D01*
X146500000Y-52000000D01*
X146500000Y-59000000D01*
X152999500Y-59000000D01*
X152999500Y-76375500D01*
X152979815Y-76442539D01*
X152927011Y-76488294D01*
X152875500Y-76499500D01*
X151430420Y-76499500D01*
X151363381Y-76479815D01*
X151317626Y-76427011D01*
X151307682Y-76357853D01*
X151336707Y-76294297D01*
X151395485Y-76256523D01*
X151398327Y-76255725D01*
X151593483Y-76203433D01*
X151593492Y-76203429D01*
X151807578Y-76103600D01*
X152001082Y-75968105D01*
X152168105Y-75801082D01*
X152303600Y-75607578D01*
X152403429Y-75393492D01*
X152403432Y-75393486D01*
X152460636Y-75180000D01*
X151563012Y-75180000D01*
X151595925Y-75122993D01*
X151630000Y-74995826D01*
X151630000Y-74864174D01*
X151595925Y-74737007D01*
X151563012Y-74680000D01*
X152460636Y-74680000D01*
X152460635Y-74679999D01*
X152403432Y-74466513D01*
X152403429Y-74466507D01*
X152303600Y-74252422D01*
X152303599Y-74252420D01*
X152168113Y-74058926D01*
X152168108Y-74058920D01*
X152001082Y-73891894D01*
X151814968Y-73761575D01*
X151771344Y-73706998D01*
X151764151Y-73637499D01*
X151795673Y-73575145D01*
X151814968Y-73558425D01*
X152001082Y-73428105D01*
X152168105Y-73261082D01*
X152303600Y-73067578D01*
X152403429Y-72853492D01*
X152403432Y-72853486D01*
X152460636Y-72640000D01*
X151563012Y-72640000D01*
X151595925Y-72582993D01*
X151630000Y-72455826D01*
X151630000Y-72324174D01*
X151595925Y-72197007D01*
X151563012Y-72140000D01*
X152460636Y-72140000D01*
X152460635Y-72139999D01*
X152403432Y-71926513D01*
X152403429Y-71926507D01*
X152303600Y-71712422D01*
X152303599Y-71712420D01*
X152168113Y-71518926D01*
X152168108Y-71518920D01*
X152001082Y-71351894D01*
X151814968Y-71221575D01*
X151771344Y-71166998D01*
X151764151Y-71097499D01*
X151795673Y-71035145D01*
X151814968Y-71018425D01*
X152001082Y-70888105D01*
X152168105Y-70721082D01*
X152303600Y-70527578D01*
X152403429Y-70313492D01*
X152403432Y-70313486D01*
X152460636Y-70100000D01*
X151563012Y-70100000D01*
X151595925Y-70042993D01*
X151630000Y-69915826D01*
X151630000Y-69784174D01*
X151595925Y-69657007D01*
X151563012Y-69600000D01*
X152460636Y-69600000D01*
X152460635Y-69599999D01*
X152403432Y-69386513D01*
X152403429Y-69386507D01*
X152303600Y-69172422D01*
X152303599Y-69172420D01*
X152168113Y-68978926D01*
X152168108Y-68978920D01*
X152001082Y-68811894D01*
X151814968Y-68681575D01*
X151771344Y-68626998D01*
X151764151Y-68557499D01*
X151795673Y-68495145D01*
X151814968Y-68478425D01*
X152001082Y-68348105D01*
X152168105Y-68181082D01*
X152303600Y-67987578D01*
X152403429Y-67773492D01*
X152403432Y-67773486D01*
X152460636Y-67560000D01*
X151563012Y-67560000D01*
X151595925Y-67502993D01*
X151630000Y-67375826D01*
X151630000Y-67244174D01*
X151595925Y-67117007D01*
X151563012Y-67060000D01*
X152460636Y-67060000D01*
X152460635Y-67059999D01*
X152403432Y-66846513D01*
X152403429Y-66846507D01*
X152303600Y-66632422D01*
X152303599Y-66632420D01*
X152168113Y-66438926D01*
X152168108Y-66438920D01*
X152001082Y-66271894D01*
X151807578Y-66136399D01*
X151593492Y-66036570D01*
X151593486Y-66036567D01*
X151380000Y-65979364D01*
X151380000Y-66876988D01*
X151322993Y-66844075D01*
X151195826Y-66810000D01*
X151064174Y-66810000D01*
X150937007Y-66844075D01*
X150880000Y-66876988D01*
X150880000Y-65979364D01*
X150879999Y-65979364D01*
X150666513Y-66036567D01*
X150666507Y-66036570D01*
X150452422Y-66136399D01*
X150452420Y-66136400D01*
X150258926Y-66271886D01*
X150258920Y-66271891D01*
X150091891Y-66438920D01*
X150091890Y-66438922D01*
X149961880Y-66624595D01*
X149907303Y-66668219D01*
X149837804Y-66675412D01*
X149775450Y-66643890D01*
X149758730Y-66624594D01*
X149628494Y-66438597D01*
X149461402Y-66271506D01*
X149461395Y-66271501D01*
X149267834Y-66135967D01*
X149267830Y-66135965D01*
X149267828Y-66135964D01*
X149053663Y-66036097D01*
X149053659Y-66036096D01*
X149053655Y-66036094D01*
X148825413Y-65974938D01*
X148825403Y-65974936D01*
X148590001Y-65954341D01*
X148589999Y-65954341D01*
X148354596Y-65974936D01*
X148354586Y-65974938D01*
X148126344Y-66036094D01*
X148126335Y-66036098D01*
X147912171Y-66135964D01*
X147912169Y-66135965D01*
X147718600Y-66271503D01*
X147596673Y-66393430D01*
X147535350Y-66426914D01*
X147465658Y-66421930D01*
X147409725Y-66380058D01*
X147392810Y-66349081D01*
X147343797Y-66217671D01*
X147343793Y-66217664D01*
X147257547Y-66102455D01*
X147257544Y-66102452D01*
X147142335Y-66016206D01*
X147142328Y-66016202D01*
X147007482Y-65965908D01*
X147007483Y-65965908D01*
X146947883Y-65959501D01*
X146947881Y-65959500D01*
X146947873Y-65959500D01*
X146947865Y-65959500D01*
X145424500Y-65959500D01*
X145357461Y-65939815D01*
X145311706Y-65887011D01*
X145300500Y-65835500D01*
X145300500Y-63098311D01*
X145300500Y-63098309D01*
X145300183Y-63096716D01*
X145300185Y-63096694D01*
X145300180Y-63096696D01*
X145265896Y-62924341D01*
X145265895Y-62924334D01*
X145225076Y-62825789D01*
X145225076Y-62825788D01*
X145198016Y-62760459D01*
X145198014Y-62760455D01*
X145198013Y-62760453D01*
X145133067Y-62663255D01*
X145099464Y-62612964D01*
X145099462Y-62612961D01*
X143887038Y-61400537D01*
X143809552Y-61348763D01*
X143739544Y-61301985D01*
X143739542Y-61301984D01*
X143657607Y-61268046D01*
X143657606Y-61268046D01*
X143575666Y-61234105D01*
X143575658Y-61234103D01*
X143401696Y-61199500D01*
X143401692Y-61199500D01*
X143401691Y-61199500D01*
X142899759Y-61199500D01*
X142832720Y-61179815D01*
X142786965Y-61127011D01*
X142775759Y-61075500D01*
X142775759Y-60976287D01*
X142775758Y-60976285D01*
X142741155Y-60802322D01*
X142741152Y-60802313D01*
X142673275Y-60638440D01*
X142673268Y-60638427D01*
X142574723Y-60490946D01*
X142574720Y-60490942D01*
X142449297Y-60365519D01*
X142449293Y-60365516D01*
X142301812Y-60266971D01*
X142301799Y-60266964D01*
X142137926Y-60199087D01*
X142137917Y-60199084D01*
X141963953Y-60164481D01*
X141963950Y-60164481D01*
X137376782Y-60164481D01*
X137309743Y-60144796D01*
X137263988Y-60091992D01*
X137254044Y-60022834D01*
X137283069Y-59959278D01*
X137335827Y-59923439D01*
X137364565Y-59913383D01*
X137499521Y-59866160D01*
X137652261Y-59770187D01*
X137779815Y-59642633D01*
X137856776Y-59520149D01*
X137909109Y-59473859D01*
X137947883Y-59462902D01*
X137979255Y-59459368D01*
X138149522Y-59399789D01*
X138302262Y-59303816D01*
X138429816Y-59176262D01*
X138525789Y-59023522D01*
X138585368Y-58853255D01*
X138587215Y-58836862D01*
X138605565Y-58674003D01*
X138605565Y-58673996D01*
X138585369Y-58494750D01*
X138585368Y-58494745D01*
X138572352Y-58457547D01*
X138525789Y-58324478D01*
X138525367Y-58323807D01*
X138452206Y-58207372D01*
X138429816Y-58171738D01*
X138302262Y-58044184D01*
X138269339Y-58023497D01*
X138149523Y-57948211D01*
X137979254Y-57888631D01*
X137979249Y-57888630D01*
X137800004Y-57868435D01*
X137799996Y-57868435D01*
X137620750Y-57888630D01*
X137620745Y-57888631D01*
X137450476Y-57948211D01*
X137297737Y-58044184D01*
X137237681Y-58104241D01*
X137176358Y-58137726D01*
X137106666Y-58132742D01*
X137062319Y-58104241D01*
X137002262Y-58044184D01*
X136849523Y-57948211D01*
X136679254Y-57888631D01*
X136679249Y-57888630D01*
X136500004Y-57868435D01*
X136499996Y-57868435D01*
X136320750Y-57888630D01*
X136320745Y-57888631D01*
X136150476Y-57948211D01*
X135997737Y-58044184D01*
X135870184Y-58171737D01*
X135774211Y-58324476D01*
X135714631Y-58494745D01*
X135714630Y-58494750D01*
X135694435Y-58673996D01*
X135694435Y-58674003D01*
X135714630Y-58853249D01*
X135714631Y-58853254D01*
X135774211Y-59023523D01*
X135795761Y-59057819D01*
X135870184Y-59176262D01*
X135997738Y-59303816D01*
X136150478Y-59399789D01*
X136320745Y-59459368D01*
X136352110Y-59462901D01*
X136416523Y-59489967D01*
X136443220Y-59520149D01*
X136520181Y-59642631D01*
X136520183Y-59642633D01*
X136647737Y-59770187D01*
X136800477Y-59866160D01*
X136935433Y-59913383D01*
X136964171Y-59923439D01*
X137020947Y-59964161D01*
X137046694Y-60029114D01*
X137033238Y-60097675D01*
X136984851Y-60148078D01*
X136923216Y-60164481D01*
X134006025Y-60164481D01*
X133938986Y-60144796D01*
X133893231Y-60091992D01*
X133883287Y-60022834D01*
X133902922Y-59971591D01*
X133930375Y-59930504D01*
X133930376Y-59930503D01*
X133941815Y-59913383D01*
X134003513Y-59821047D01*
X134071394Y-59657166D01*
X134074286Y-59642631D01*
X134098648Y-59520151D01*
X134106000Y-59483191D01*
X134106000Y-58323809D01*
X134106000Y-58323808D01*
X134071395Y-58149834D01*
X134019065Y-58023500D01*
X134003513Y-57985953D01*
X133928185Y-57873217D01*
X133904964Y-57838464D01*
X133904962Y-57838461D01*
X133854180Y-57787679D01*
X133820695Y-57726356D01*
X133825679Y-57656664D01*
X133854175Y-57612322D01*
X134029681Y-57436816D01*
X134091004Y-57403334D01*
X134117361Y-57400500D01*
X143401693Y-57400500D01*
X143401694Y-57400499D01*
X143459682Y-57388964D01*
X143575658Y-57365896D01*
X143575661Y-57365894D01*
X143575666Y-57365894D01*
X143739547Y-57298013D01*
X143887035Y-57199464D01*
X144012464Y-57074035D01*
X144111013Y-56926547D01*
X144178894Y-56762666D01*
X144185987Y-56727011D01*
X144213499Y-56588695D01*
X144213500Y-56588693D01*
X144213500Y-56411306D01*
X144213499Y-56411304D01*
X144178896Y-56237341D01*
X144178893Y-56237332D01*
X144111016Y-56073459D01*
X144111009Y-56073446D01*
X144030855Y-55953488D01*
X144009977Y-55886811D01*
X144028461Y-55819431D01*
X144080440Y-55772740D01*
X144093003Y-55767555D01*
X144099252Y-55765368D01*
X144099255Y-55765368D01*
X144269522Y-55705789D01*
X144422262Y-55609816D01*
X144549816Y-55482262D01*
X144645789Y-55329522D01*
X144705368Y-55159255D01*
X144721249Y-55018308D01*
X144725565Y-54980003D01*
X144725565Y-54979996D01*
X144705369Y-54800748D01*
X144680947Y-54730955D01*
X144677385Y-54661176D01*
X144680947Y-54649045D01*
X144705369Y-54579251D01*
X144725565Y-54400003D01*
X144725565Y-54399996D01*
X144705369Y-54220750D01*
X144705368Y-54220745D01*
X144645788Y-54050476D01*
X144560034Y-53914000D01*
X144549816Y-53897738D01*
X144422262Y-53770184D01*
X144269523Y-53674211D01*
X144099254Y-53614631D01*
X144099249Y-53614630D01*
X143920004Y-53594435D01*
X143919996Y-53594435D01*
X143740750Y-53614630D01*
X143740745Y-53614631D01*
X143570476Y-53674211D01*
X143417737Y-53770184D01*
X143290184Y-53897737D01*
X143194211Y-54050476D01*
X143134631Y-54220745D01*
X143134630Y-54220750D01*
X143114435Y-54399996D01*
X143114435Y-54400003D01*
X143134631Y-54579253D01*
X143134631Y-54579254D01*
X143159052Y-54649047D01*
X143162613Y-54718826D01*
X143159052Y-54730953D01*
X143134631Y-54800745D01*
X143134631Y-54800746D01*
X143114435Y-54979996D01*
X143114435Y-54980003D01*
X143134630Y-55159249D01*
X143134631Y-55159254D01*
X143194211Y-55329523D01*
X143244482Y-55409528D01*
X143263482Y-55476765D01*
X143243114Y-55543600D01*
X143189846Y-55588814D01*
X143139488Y-55599500D01*
X141543079Y-55599500D01*
X141476040Y-55579815D01*
X141430285Y-55527011D01*
X141420341Y-55457853D01*
X141438085Y-55409528D01*
X141463136Y-55369659D01*
X141475789Y-55349522D01*
X141535368Y-55179255D01*
X141536383Y-55170249D01*
X141555565Y-55000003D01*
X141555565Y-54999996D01*
X141535369Y-54820750D01*
X141535368Y-54820745D01*
X141475789Y-54650478D01*
X141379816Y-54497738D01*
X141252262Y-54370184D01*
X141182493Y-54326345D01*
X141099523Y-54274211D01*
X140929254Y-54214631D01*
X140929249Y-54214630D01*
X140750004Y-54194435D01*
X140749996Y-54194435D01*
X140570750Y-54214630D01*
X140570745Y-54214631D01*
X140400476Y-54274211D01*
X140247737Y-54370184D01*
X140120184Y-54497737D01*
X140024211Y-54650476D01*
X139964631Y-54820745D01*
X139964630Y-54820750D01*
X139944435Y-54999996D01*
X139944435Y-55000003D01*
X139964630Y-55179249D01*
X139964631Y-55179254D01*
X140024211Y-55349523D01*
X140061915Y-55409528D01*
X140080915Y-55476765D01*
X140060547Y-55543600D01*
X140007279Y-55588814D01*
X139956921Y-55599500D01*
X138963424Y-55599500D01*
X138896385Y-55579815D01*
X138850630Y-55527011D01*
X138840686Y-55457853D01*
X138858430Y-55409528D01*
X138885829Y-55365922D01*
X138901789Y-55340522D01*
X138961368Y-55170255D01*
X138961369Y-55170249D01*
X138981565Y-54991003D01*
X138981565Y-54990996D01*
X138961369Y-54811750D01*
X138961368Y-54811745D01*
X138927099Y-54713811D01*
X138901789Y-54641478D01*
X138805816Y-54488738D01*
X138678262Y-54361184D01*
X138622816Y-54326345D01*
X138525523Y-54265211D01*
X138355254Y-54205631D01*
X138355249Y-54205630D01*
X138176004Y-54185435D01*
X138175996Y-54185435D01*
X137996750Y-54205630D01*
X137996745Y-54205631D01*
X137826476Y-54265211D01*
X137673737Y-54361184D01*
X137565181Y-54469741D01*
X137503858Y-54503226D01*
X137434166Y-54498242D01*
X137389819Y-54469741D01*
X137306662Y-54386584D01*
X137153923Y-54290611D01*
X136983654Y-54231031D01*
X136983649Y-54231030D01*
X136804404Y-54210835D01*
X136804396Y-54210835D01*
X136625150Y-54231030D01*
X136625145Y-54231031D01*
X136454876Y-54290611D01*
X136302137Y-54386584D01*
X136174584Y-54514137D01*
X136078611Y-54666876D01*
X136019031Y-54837145D01*
X136019030Y-54837150D01*
X135998835Y-55016396D01*
X135998835Y-55016403D01*
X136019030Y-55195649D01*
X136019031Y-55195654D01*
X136078611Y-55365923D01*
X136106010Y-55409528D01*
X136125010Y-55476765D01*
X136104642Y-55543600D01*
X136051374Y-55588814D01*
X136001016Y-55599500D01*
X133604306Y-55599500D01*
X133497147Y-55620816D01*
X133497146Y-55620816D01*
X133430341Y-55634103D01*
X133430332Y-55634106D01*
X133266459Y-55701983D01*
X133266446Y-55701990D01*
X133118966Y-55800534D01*
X133118964Y-55800537D01*
X132580680Y-56338819D01*
X132519357Y-56372304D01*
X132449665Y-56367320D01*
X132405318Y-56338819D01*
X131646314Y-55579815D01*
X130836819Y-54770319D01*
X130803334Y-54708996D01*
X130800500Y-54682638D01*
X130800500Y-54505596D01*
X133433435Y-54505596D01*
X133433435Y-54505603D01*
X133453630Y-54684849D01*
X133453631Y-54684854D01*
X133513211Y-54855123D01*
X133591677Y-54980000D01*
X133609184Y-55007862D01*
X133736738Y-55135416D01*
X133889478Y-55231389D01*
X134059745Y-55290968D01*
X134059750Y-55290969D01*
X134238996Y-55311165D01*
X134239000Y-55311165D01*
X134239004Y-55311165D01*
X134418249Y-55290969D01*
X134418252Y-55290968D01*
X134418255Y-55290968D01*
X134588522Y-55231389D01*
X134741262Y-55135416D01*
X134868816Y-55007862D01*
X134964789Y-54855122D01*
X135024368Y-54684855D01*
X135027036Y-54661176D01*
X135044565Y-54505603D01*
X135044565Y-54505596D01*
X135024369Y-54326350D01*
X135024368Y-54326345D01*
X135011864Y-54290611D01*
X134964789Y-54156078D01*
X134868816Y-54003338D01*
X134741262Y-53875784D01*
X134588523Y-53779811D01*
X134418254Y-53720231D01*
X134418249Y-53720230D01*
X134239004Y-53700035D01*
X134238996Y-53700035D01*
X134059750Y-53720230D01*
X134059745Y-53720231D01*
X133889476Y-53779811D01*
X133736737Y-53875784D01*
X133609184Y-54003337D01*
X133513211Y-54156076D01*
X133453631Y-54326345D01*
X133453630Y-54326350D01*
X133433435Y-54505596D01*
X130800500Y-54505596D01*
X130800500Y-53311306D01*
X130800499Y-53311304D01*
X130765896Y-53137341D01*
X130765893Y-53137332D01*
X130762289Y-53128632D01*
X130705955Y-52992627D01*
X130698016Y-52973459D01*
X130698009Y-52973446D01*
X130599464Y-52825965D01*
X130599461Y-52825961D01*
X130474038Y-52700538D01*
X130474034Y-52700535D01*
X130326553Y-52601990D01*
X130326540Y-52601983D01*
X130162667Y-52534106D01*
X130162658Y-52534103D01*
X129988694Y-52499500D01*
X129988691Y-52499500D01*
X129811309Y-52499500D01*
X129811306Y-52499500D01*
X129637341Y-52534103D01*
X129637332Y-52534106D01*
X129473459Y-52601983D01*
X129473446Y-52601990D01*
X129325965Y-52700535D01*
X129325961Y-52700538D01*
X129200538Y-52825961D01*
X129200535Y-52825965D01*
X129101990Y-52973446D01*
X129101983Y-52973459D01*
X129034106Y-53137332D01*
X129034103Y-53137341D01*
X128999500Y-53311304D01*
X128999500Y-55195696D01*
X129034103Y-55369659D01*
X129034104Y-55369663D01*
X129034105Y-55369666D01*
X129052689Y-55414530D01*
X129101984Y-55533542D01*
X129101985Y-55533543D01*
X129101987Y-55533547D01*
X129132903Y-55579815D01*
X129152948Y-55609814D01*
X129152948Y-55609815D01*
X129200537Y-55681038D01*
X129200540Y-55681041D01*
X130107319Y-56587819D01*
X130140804Y-56649142D01*
X130135820Y-56718833D01*
X130093948Y-56774767D01*
X130028484Y-56799184D01*
X130019638Y-56799500D01*
X120901958Y-56799500D01*
X120834919Y-56779815D01*
X120789164Y-56727011D01*
X120779220Y-56657853D01*
X120784915Y-56634550D01*
X120785367Y-56633257D01*
X120785368Y-56633255D01*
X120805565Y-56454000D01*
X120800754Y-56411304D01*
X120785369Y-56274750D01*
X120785368Y-56274745D01*
X120725788Y-56104476D01*
X120686582Y-56042080D01*
X120629816Y-55951738D01*
X120502262Y-55824184D01*
X120464628Y-55800537D01*
X120349523Y-55728211D01*
X120179254Y-55668631D01*
X120179249Y-55668630D01*
X120000004Y-55648435D01*
X119999996Y-55648435D01*
X119820750Y-55668630D01*
X119820745Y-55668631D01*
X119650476Y-55728211D01*
X119497737Y-55824184D01*
X119370184Y-55951737D01*
X119274211Y-56104476D01*
X119214631Y-56274745D01*
X119214630Y-56274750D01*
X119194435Y-56453996D01*
X119194435Y-56454003D01*
X119214630Y-56633246D01*
X119214632Y-56633257D01*
X119215085Y-56634550D01*
X119215130Y-56635436D01*
X119216181Y-56640039D01*
X119215374Y-56640223D01*
X119218644Y-56704329D01*
X119183913Y-56764955D01*
X119121918Y-56797180D01*
X119098042Y-56799500D01*
X113524362Y-56799500D01*
X113457323Y-56779815D01*
X113436681Y-56763181D01*
X110587496Y-53913996D01*
X119194435Y-53913996D01*
X119194435Y-53914003D01*
X119214630Y-54093249D01*
X119214631Y-54093254D01*
X119274211Y-54263523D01*
X119275272Y-54265211D01*
X119370184Y-54416262D01*
X119497738Y-54543816D01*
X119554136Y-54579253D01*
X119648313Y-54638429D01*
X119650478Y-54639789D01*
X119779269Y-54684855D01*
X119820745Y-54699368D01*
X119820750Y-54699369D01*
X119999996Y-54719565D01*
X120000000Y-54719565D01*
X120000004Y-54719565D01*
X120179249Y-54699369D01*
X120179252Y-54699368D01*
X120179255Y-54699368D01*
X120349522Y-54639789D01*
X120502262Y-54543816D01*
X120629816Y-54416262D01*
X120725789Y-54263522D01*
X120785368Y-54093255D01*
X120795499Y-54003338D01*
X120805565Y-53914003D01*
X120805565Y-53913996D01*
X120785369Y-53734750D01*
X120785368Y-53734745D01*
X120764186Y-53674211D01*
X120725789Y-53564478D01*
X120629816Y-53411738D01*
X120502262Y-53284184D01*
X120486108Y-53274034D01*
X120349523Y-53188211D01*
X120179254Y-53128631D01*
X120179249Y-53128630D01*
X120000004Y-53108435D01*
X119999996Y-53108435D01*
X119820750Y-53128630D01*
X119820745Y-53128631D01*
X119650476Y-53188211D01*
X119497737Y-53284184D01*
X119370184Y-53411737D01*
X119274211Y-53564476D01*
X119214631Y-53734745D01*
X119214630Y-53734750D01*
X119194435Y-53913996D01*
X110587496Y-53913996D01*
X108934416Y-52260916D01*
X108900931Y-52199593D01*
X108898877Y-52159352D01*
X108905565Y-52100000D01*
X108897743Y-52030573D01*
X108885369Y-51920750D01*
X108885368Y-51920745D01*
X108837998Y-51785369D01*
X108825789Y-51750478D01*
X108729816Y-51597738D01*
X108602262Y-51470184D01*
X108522688Y-51420184D01*
X108449523Y-51374211D01*
X108279254Y-51314631D01*
X108279249Y-51314630D01*
X108100004Y-51294435D01*
X108099996Y-51294435D01*
X107920750Y-51314630D01*
X107920745Y-51314631D01*
X107750476Y-51374211D01*
X107597737Y-51470184D01*
X107470184Y-51597737D01*
X107374211Y-51750476D01*
X107314631Y-51920745D01*
X107314630Y-51920750D01*
X107294435Y-52099996D01*
X107294435Y-52100003D01*
X107307832Y-52218910D01*
X107299173Y-52280246D01*
X107234105Y-52437333D01*
X107234103Y-52437341D01*
X107199500Y-52611303D01*
X107199500Y-52788696D01*
X107234103Y-52962658D01*
X107234105Y-52962666D01*
X107301988Y-53126548D01*
X107400534Y-53274034D01*
X107400540Y-53274041D01*
X112525959Y-58399460D01*
X112525962Y-58399462D01*
X112525964Y-58399464D01*
X112599707Y-58448737D01*
X112599709Y-58448739D01*
X112644035Y-58478356D01*
X112673453Y-58498013D01*
X112719732Y-58517182D01*
X112837334Y-58565895D01*
X113008789Y-58599999D01*
X113011303Y-58600499D01*
X113011307Y-58600500D01*
X113011308Y-58600500D01*
X113011309Y-58600500D01*
X119114837Y-58600500D01*
X119181876Y-58620185D01*
X119227631Y-58672989D01*
X119237575Y-58742147D01*
X119231879Y-58765454D01*
X119214632Y-58814742D01*
X119214630Y-58814750D01*
X119194435Y-58993996D01*
X119194435Y-58994003D01*
X119214630Y-59173249D01*
X119214631Y-59173254D01*
X119274211Y-59343523D01*
X119370184Y-59496262D01*
X119486206Y-59612284D01*
X119519691Y-59673607D01*
X119514707Y-59743299D01*
X119472835Y-59799232D01*
X119407371Y-59823649D01*
X119357571Y-59817007D01*
X119188456Y-59757831D01*
X119188448Y-59757829D01*
X119009203Y-59737634D01*
X119009195Y-59737634D01*
X118829949Y-59757829D01*
X118829944Y-59757830D01*
X118659675Y-59817410D01*
X118506936Y-59913383D01*
X118379383Y-60040936D01*
X118283410Y-60193675D01*
X118223830Y-60363944D01*
X118223830Y-60363947D01*
X118219733Y-60400304D01*
X118192665Y-60464717D01*
X118135069Y-60504271D01*
X118082630Y-60509638D01*
X117924965Y-60491874D01*
X117924957Y-60491874D01*
X117745711Y-60512069D01*
X117745706Y-60512070D01*
X117575437Y-60571650D01*
X117422698Y-60667623D01*
X117295145Y-60795176D01*
X117199172Y-60947915D01*
X117139592Y-61118184D01*
X117139591Y-61118189D01*
X117119396Y-61297435D01*
X117119396Y-61297442D01*
X117139591Y-61476688D01*
X117139592Y-61476693D01*
X117199172Y-61646962D01*
X117295145Y-61799701D01*
X117344589Y-61849145D01*
X117378074Y-61910468D01*
X117373090Y-61980160D01*
X117361902Y-62002798D01*
X117279162Y-62134476D01*
X117219582Y-62304745D01*
X117219581Y-62304750D01*
X117199386Y-62483996D01*
X117199386Y-62484003D01*
X117219581Y-62663249D01*
X117219582Y-62663254D01*
X117279162Y-62833523D01*
X117336221Y-62924331D01*
X117375135Y-62986262D01*
X117502689Y-63113816D01*
X117655429Y-63209789D01*
X117825696Y-63269368D01*
X117825701Y-63269369D01*
X118004947Y-63289565D01*
X118004951Y-63289565D01*
X118004955Y-63289565D01*
X118184200Y-63269369D01*
X118184203Y-63269368D01*
X118184206Y-63269368D01*
X118354473Y-63209789D01*
X118507213Y-63113816D01*
X118634767Y-62986262D01*
X118730740Y-62833522D01*
X118790319Y-62663255D01*
X118790948Y-62657671D01*
X118810516Y-62484003D01*
X118810516Y-62483996D01*
X118790320Y-62304750D01*
X118790319Y-62304745D01*
X118730739Y-62134476D01*
X118634766Y-61981737D01*
X118585323Y-61932294D01*
X118551838Y-61870971D01*
X118556822Y-61801279D01*
X118568010Y-61778641D01*
X118650749Y-61646962D01*
X118650750Y-61646961D01*
X118710329Y-61476694D01*
X118714426Y-61440336D01*
X118741492Y-61375922D01*
X118799087Y-61336367D01*
X118851529Y-61330999D01*
X118896637Y-61336081D01*
X119009196Y-61348764D01*
X119009199Y-61348764D01*
X119009203Y-61348764D01*
X119188448Y-61328568D01*
X119188451Y-61328567D01*
X119188454Y-61328567D01*
X119358721Y-61268988D01*
X119511461Y-61173015D01*
X119639015Y-61045461D01*
X119734988Y-60892721D01*
X119794567Y-60722454D01*
X119804034Y-60638434D01*
X119814764Y-60543202D01*
X119814764Y-60543195D01*
X119794568Y-60363949D01*
X119794567Y-60363944D01*
X119760635Y-60266971D01*
X119734988Y-60193677D01*
X119734365Y-60192686D01*
X119675814Y-60099502D01*
X119639015Y-60040937D01*
X119522992Y-59924914D01*
X119489507Y-59863591D01*
X119494491Y-59793899D01*
X119536363Y-59737966D01*
X119601827Y-59713549D01*
X119651628Y-59720192D01*
X119820737Y-59779366D01*
X119820743Y-59779367D01*
X119820745Y-59779368D01*
X119820746Y-59779368D01*
X119820750Y-59779369D01*
X119999996Y-59799565D01*
X120000000Y-59799565D01*
X120000004Y-59799565D01*
X120179249Y-59779369D01*
X120179252Y-59779368D01*
X120179255Y-59779368D01*
X120349522Y-59719789D01*
X120502262Y-59623816D01*
X120629816Y-59496262D01*
X120725789Y-59343522D01*
X120785368Y-59173255D01*
X120785369Y-59173249D01*
X120805565Y-58994003D01*
X120805565Y-58993996D01*
X120785369Y-58814750D01*
X120785367Y-58814742D01*
X120768121Y-58765454D01*
X120764560Y-58695675D01*
X120799289Y-58635048D01*
X120861283Y-58602821D01*
X120885163Y-58600500D01*
X132068638Y-58600500D01*
X132135677Y-58620185D01*
X132156319Y-58636819D01*
X132268681Y-58749181D01*
X132302166Y-58810504D01*
X132305000Y-58836862D01*
X132305000Y-58970138D01*
X132285315Y-59037177D01*
X132268681Y-59057819D01*
X125173534Y-66152965D01*
X125173532Y-66152967D01*
X125151175Y-66186430D01*
X125151173Y-66186433D01*
X125074989Y-66300448D01*
X125074982Y-66300460D01*
X125053421Y-66352516D01*
X125053421Y-66352517D01*
X125007104Y-66464334D01*
X125007102Y-66464342D01*
X124973720Y-66632165D01*
X124973721Y-66632166D01*
X124972499Y-66638311D01*
X124972499Y-68938695D01*
X125007102Y-69112658D01*
X125007104Y-69112664D01*
X125031753Y-69172171D01*
X125031752Y-69172171D01*
X125031753Y-69172172D01*
X125074985Y-69276545D01*
X125076647Y-69279032D01*
X125077117Y-69280535D01*
X125077861Y-69281926D01*
X125077597Y-69282066D01*
X125091330Y-69325924D01*
X125117860Y-69342678D01*
X125127892Y-69355726D01*
X125146835Y-69384075D01*
X125173536Y-69424037D01*
X126298958Y-70549459D01*
X126298965Y-70549465D01*
X126446451Y-70648011D01*
X126446452Y-70648011D01*
X126446453Y-70648012D01*
X126610334Y-70715895D01*
X126758754Y-70745417D01*
X126784303Y-70750499D01*
X126784307Y-70750500D01*
X126784308Y-70750500D01*
X126961693Y-70750500D01*
X126961694Y-70750499D01*
X127135666Y-70715895D01*
X127299547Y-70648012D01*
X127447036Y-70549464D01*
X127572464Y-70424036D01*
X127671012Y-70276547D01*
X127738895Y-70112666D01*
X127773500Y-69938692D01*
X127773500Y-69761308D01*
X127738895Y-69587334D01*
X127671012Y-69423453D01*
X127620421Y-69347738D01*
X127572465Y-69275965D01*
X127572459Y-69275958D01*
X126809818Y-68513317D01*
X126776333Y-68451994D01*
X126773499Y-68425636D01*
X126773499Y-68334500D01*
X126793184Y-68267461D01*
X126845988Y-68221706D01*
X126897499Y-68210500D01*
X126961693Y-68210500D01*
X126961694Y-68210499D01*
X127135666Y-68175895D01*
X127299547Y-68108012D01*
X127447036Y-68009464D01*
X130579319Y-64877179D01*
X130640642Y-64843695D01*
X130710334Y-64848679D01*
X130766267Y-64890551D01*
X130790684Y-64956015D01*
X130791000Y-64964861D01*
X130791000Y-74503195D01*
X130825603Y-74677158D01*
X130825606Y-74677167D01*
X130893483Y-74841040D01*
X130893490Y-74841053D01*
X130992035Y-74988534D01*
X130992038Y-74988538D01*
X131117461Y-75113961D01*
X131117465Y-75113964D01*
X131264946Y-75212509D01*
X131264959Y-75212516D01*
X131324087Y-75237007D01*
X131428834Y-75280394D01*
X131428836Y-75280394D01*
X131428841Y-75280396D01*
X131602804Y-75314999D01*
X131602807Y-75315000D01*
X131602809Y-75315000D01*
X131780192Y-75315000D01*
X131791803Y-75312690D01*
X131836309Y-75303837D01*
X131905898Y-75310063D01*
X131961076Y-75352925D01*
X131984322Y-75418815D01*
X131984500Y-75425454D01*
X131984500Y-75827870D01*
X131984501Y-75827876D01*
X131990908Y-75887483D01*
X132041202Y-76022328D01*
X132041206Y-76022335D01*
X132127452Y-76137544D01*
X132127455Y-76137547D01*
X132242664Y-76223793D01*
X132242671Y-76223797D01*
X132337908Y-76259318D01*
X132393842Y-76301189D01*
X132418259Y-76366653D01*
X132403408Y-76434926D01*
X132354003Y-76484332D01*
X132294575Y-76499500D01*
X124519731Y-76499500D01*
X124452692Y-76479815D01*
X124406937Y-76427011D01*
X124396993Y-76357853D01*
X124426018Y-76294297D01*
X124448607Y-76273925D01*
X124452639Y-76271102D01*
X124631877Y-76145598D01*
X124786598Y-75990877D01*
X124912102Y-75811639D01*
X125004575Y-75613330D01*
X125061207Y-75401977D01*
X125080277Y-75184000D01*
X125078650Y-75165408D01*
X125074150Y-75113964D01*
X125061207Y-74966023D01*
X125051554Y-74929996D01*
X126067435Y-74929996D01*
X126067435Y-74930000D01*
X126087630Y-75109249D01*
X126087631Y-75109254D01*
X126147211Y-75279523D01*
X126220352Y-75395925D01*
X126243184Y-75432262D01*
X126370738Y-75559816D01*
X126523478Y-75655789D01*
X126693739Y-75715366D01*
X126693745Y-75715368D01*
X126693750Y-75715369D01*
X126872996Y-75735565D01*
X126873000Y-75735565D01*
X126873004Y-75735565D01*
X127052249Y-75715369D01*
X127052252Y-75715368D01*
X127052255Y-75715368D01*
X127222522Y-75655789D01*
X127375262Y-75559816D01*
X127502816Y-75432262D01*
X127598789Y-75279522D01*
X127658368Y-75109255D01*
X127658565Y-75107511D01*
X127678565Y-74930000D01*
X127678565Y-74929996D01*
X127658369Y-74750750D01*
X127658368Y-74750745D01*
X127632622Y-74677167D01*
X127598789Y-74580478D01*
X127502816Y-74427738D01*
X127375262Y-74300184D01*
X127351633Y-74285337D01*
X127222523Y-74204211D01*
X127052254Y-74144631D01*
X127052249Y-74144630D01*
X126873004Y-74124435D01*
X126872996Y-74124435D01*
X126693750Y-74144630D01*
X126693745Y-74144631D01*
X126523476Y-74204211D01*
X126370737Y-74300184D01*
X126243184Y-74427737D01*
X126147211Y-74580476D01*
X126087631Y-74750745D01*
X126087630Y-74750750D01*
X126067435Y-74929996D01*
X125051554Y-74929996D01*
X125004575Y-74754670D01*
X124912102Y-74556362D01*
X124912100Y-74556359D01*
X124912099Y-74556357D01*
X124786599Y-74377124D01*
X124709659Y-74300184D01*
X124631877Y-74222402D01*
X124452639Y-74096898D01*
X124301414Y-74026381D01*
X124248977Y-73980210D01*
X124229825Y-73913016D01*
X124250041Y-73846135D01*
X124301414Y-73801618D01*
X124452639Y-73731102D01*
X124631877Y-73605598D01*
X124786598Y-73450877D01*
X124912102Y-73271639D01*
X125004575Y-73073330D01*
X125061207Y-72861977D01*
X125080277Y-72644000D01*
X125078650Y-72625408D01*
X125072040Y-72549853D01*
X125061207Y-72426023D01*
X125051554Y-72389996D01*
X126067435Y-72389996D01*
X126067435Y-72390003D01*
X126087630Y-72569249D01*
X126087631Y-72569254D01*
X126147211Y-72739523D01*
X126220352Y-72855925D01*
X126243184Y-72892262D01*
X126370738Y-73019816D01*
X126416906Y-73048825D01*
X126501736Y-73102128D01*
X126523478Y-73115789D01*
X126584313Y-73137076D01*
X126693745Y-73175368D01*
X126693750Y-73175369D01*
X126872996Y-73195565D01*
X126873000Y-73195565D01*
X126873004Y-73195565D01*
X127052249Y-73175369D01*
X127052252Y-73175368D01*
X127052255Y-73175368D01*
X127222522Y-73115789D01*
X127375262Y-73019816D01*
X127502816Y-72892262D01*
X127598789Y-72739522D01*
X127658368Y-72569255D01*
X127668247Y-72481580D01*
X127678565Y-72390003D01*
X127678565Y-72389996D01*
X127658369Y-72210750D01*
X127658368Y-72210745D01*
X127628827Y-72126322D01*
X127598789Y-72040478D01*
X127502816Y-71887738D01*
X127375262Y-71760184D01*
X127351633Y-71745337D01*
X127222523Y-71664211D01*
X127052254Y-71604631D01*
X127052249Y-71604630D01*
X126873004Y-71584435D01*
X126872996Y-71584435D01*
X126693750Y-71604630D01*
X126693745Y-71604631D01*
X126523476Y-71664211D01*
X126370737Y-71760184D01*
X126243184Y-71887737D01*
X126147211Y-72040476D01*
X126087631Y-72210745D01*
X126087630Y-72210750D01*
X126067435Y-72389996D01*
X125051554Y-72389996D01*
X125004575Y-72214670D01*
X124912102Y-72016362D01*
X124912100Y-72016359D01*
X124912099Y-72016357D01*
X124786599Y-71837124D01*
X124709659Y-71760184D01*
X124631877Y-71682402D01*
X124452639Y-71556898D01*
X124301414Y-71486381D01*
X124248977Y-71440210D01*
X124229825Y-71373016D01*
X124250041Y-71306135D01*
X124301414Y-71261618D01*
X124452639Y-71191102D01*
X124631877Y-71065598D01*
X124786598Y-70910877D01*
X124912102Y-70731639D01*
X125004575Y-70533330D01*
X125061207Y-70321977D01*
X125080277Y-70104000D01*
X125078650Y-70085408D01*
X125070533Y-69992627D01*
X125061207Y-69886023D01*
X125004575Y-69674670D01*
X124912411Y-69477026D01*
X124908191Y-69449237D01*
X124894031Y-69443074D01*
X124871971Y-69419048D01*
X124786599Y-69297124D01*
X124709659Y-69220184D01*
X124631877Y-69142402D01*
X124452639Y-69016898D01*
X124452640Y-69016898D01*
X124452638Y-69016897D01*
X124313739Y-68952128D01*
X124254330Y-68924425D01*
X124254326Y-68924424D01*
X124254322Y-68924422D01*
X124042977Y-68867793D01*
X123825002Y-68848723D01*
X123824998Y-68848723D01*
X123679682Y-68861436D01*
X123607023Y-68867793D01*
X123607020Y-68867793D01*
X123395677Y-68924422D01*
X123395668Y-68924426D01*
X123197361Y-69016898D01*
X123197357Y-69016900D01*
X123018121Y-69142402D01*
X122863402Y-69297121D01*
X122737899Y-69476359D01*
X122667382Y-69627583D01*
X122621209Y-69680022D01*
X122554016Y-69699174D01*
X122487135Y-69678958D01*
X122442618Y-69627583D01*
X122420576Y-69580315D01*
X122372102Y-69476362D01*
X122335464Y-69424037D01*
X122246599Y-69297124D01*
X122169659Y-69220184D01*
X122091877Y-69142402D01*
X121912639Y-69016898D01*
X121912640Y-69016898D01*
X121912638Y-69016897D01*
X121773739Y-68952128D01*
X121714330Y-68924425D01*
X121714326Y-68924424D01*
X121714322Y-68924422D01*
X121502977Y-68867793D01*
X121285002Y-68848723D01*
X121284998Y-68848723D01*
X121139682Y-68861436D01*
X121067023Y-68867793D01*
X121067020Y-68867793D01*
X120855677Y-68924422D01*
X120855668Y-68924426D01*
X120657361Y-69016898D01*
X120657357Y-69016900D01*
X120478121Y-69142402D01*
X120323402Y-69297121D01*
X120197899Y-69476359D01*
X120105426Y-69674668D01*
X120105422Y-69674677D01*
X120048793Y-69886020D01*
X120048793Y-69886024D01*
X120029723Y-70103997D01*
X120029723Y-70104002D01*
X120031555Y-70124937D01*
X120045642Y-70285965D01*
X120048793Y-70321975D01*
X120048793Y-70321979D01*
X120105422Y-70533322D01*
X120105424Y-70533326D01*
X120105425Y-70533330D01*
X120151661Y-70632484D01*
X120197897Y-70731638D01*
X120214244Y-70754984D01*
X120323402Y-70910877D01*
X120478123Y-71065598D01*
X120657360Y-71191101D01*
X120657361Y-71191102D01*
X120808583Y-71261618D01*
X120861022Y-71307790D01*
X120880174Y-71374984D01*
X120859958Y-71441865D01*
X120808583Y-71486382D01*
X120657361Y-71556898D01*
X120657357Y-71556900D01*
X120478121Y-71682402D01*
X120323402Y-71837121D01*
X120197900Y-72016357D01*
X120197898Y-72016361D01*
X120105426Y-72214668D01*
X120105422Y-72214677D01*
X120048793Y-72426020D01*
X120048793Y-72426024D01*
X120029723Y-72643997D01*
X120029723Y-72644002D01*
X120048793Y-72861975D01*
X120048793Y-72861979D01*
X120105422Y-73073322D01*
X120105424Y-73073326D01*
X120105425Y-73073330D01*
X120151661Y-73172484D01*
X120197897Y-73271638D01*
X120197898Y-73271639D01*
X120323402Y-73450877D01*
X120478123Y-73605598D01*
X120649351Y-73725493D01*
X120657361Y-73731102D01*
X120808583Y-73801618D01*
X120861022Y-73847790D01*
X120880174Y-73914984D01*
X120859958Y-73981865D01*
X120808583Y-74026382D01*
X120657361Y-74096898D01*
X120657357Y-74096900D01*
X120478121Y-74222402D01*
X120323402Y-74377121D01*
X120197900Y-74556357D01*
X120197898Y-74556361D01*
X120105426Y-74754668D01*
X120105422Y-74754677D01*
X120048793Y-74966020D01*
X120048793Y-74966024D01*
X120031350Y-75165408D01*
X120029723Y-75184000D01*
X120044818Y-75356547D01*
X120048793Y-75401975D01*
X120048793Y-75401979D01*
X120105422Y-75613322D01*
X120105424Y-75613326D01*
X120105425Y-75613330D01*
X120133185Y-75672861D01*
X120197897Y-75811638D01*
X120214244Y-75834984D01*
X120323402Y-75990877D01*
X120478123Y-76145598D01*
X120657361Y-76271102D01*
X120661393Y-76273925D01*
X120705018Y-76328503D01*
X120712210Y-76398001D01*
X120680688Y-76460356D01*
X120620458Y-76495769D01*
X120590269Y-76499500D01*
X103500000Y-76499500D01*
X103500000Y-71459999D01*
X104144341Y-71459999D01*
X104144341Y-71460000D01*
X104164936Y-71695403D01*
X104164938Y-71695413D01*
X104226094Y-71923655D01*
X104226096Y-71923659D01*
X104226097Y-71923663D01*
X104280568Y-72040476D01*
X104325965Y-72137830D01*
X104325967Y-72137834D01*
X104396927Y-72239174D01*
X104461501Y-72331396D01*
X104461506Y-72331402D01*
X104583430Y-72453326D01*
X104616915Y-72514649D01*
X104611931Y-72584341D01*
X104570059Y-72640274D01*
X104539083Y-72657189D01*
X104407669Y-72706203D01*
X104407664Y-72706206D01*
X104292455Y-72792452D01*
X104292452Y-72792455D01*
X104206206Y-72907664D01*
X104206202Y-72907671D01*
X104155908Y-73042517D01*
X104149501Y-73102116D01*
X104149501Y-73102123D01*
X104149500Y-73102135D01*
X104149500Y-74897870D01*
X104149501Y-74897876D01*
X104155908Y-74957483D01*
X104206202Y-75092328D01*
X104206206Y-75092335D01*
X104292452Y-75207544D01*
X104292455Y-75207547D01*
X104407664Y-75293793D01*
X104407671Y-75293797D01*
X104542517Y-75344091D01*
X104542516Y-75344091D01*
X104549444Y-75344835D01*
X104602127Y-75350500D01*
X106397872Y-75350499D01*
X106457483Y-75344091D01*
X106592331Y-75293796D01*
X106707546Y-75207546D01*
X106793796Y-75092331D01*
X106844091Y-74957483D01*
X106850500Y-74897873D01*
X106850499Y-73102128D01*
X106844091Y-73042517D01*
X106793796Y-72907669D01*
X106793795Y-72907668D01*
X106793793Y-72907664D01*
X106707547Y-72792455D01*
X106707544Y-72792452D01*
X106592335Y-72706206D01*
X106592328Y-72706202D01*
X106460917Y-72657189D01*
X106404983Y-72615318D01*
X106380566Y-72549853D01*
X106395418Y-72481580D01*
X106416563Y-72453332D01*
X106538495Y-72331401D01*
X106674035Y-72137830D01*
X106773903Y-71923663D01*
X106835063Y-71695408D01*
X106855659Y-71460000D01*
X106855659Y-71459999D01*
X107894341Y-71459999D01*
X107894341Y-71460000D01*
X107914936Y-71695403D01*
X107914938Y-71695413D01*
X107976094Y-71923655D01*
X107976096Y-71923659D01*
X107976097Y-71923663D01*
X108030568Y-72040476D01*
X108075965Y-72137830D01*
X108075967Y-72137834D01*
X108146927Y-72239174D01*
X108211501Y-72331396D01*
X108211506Y-72331402D01*
X108333430Y-72453326D01*
X108366915Y-72514649D01*
X108361931Y-72584341D01*
X108320059Y-72640274D01*
X108289083Y-72657189D01*
X108157669Y-72706203D01*
X108157664Y-72706206D01*
X108042455Y-72792452D01*
X108042452Y-72792455D01*
X107956206Y-72907664D01*
X107956202Y-72907671D01*
X107905908Y-73042517D01*
X107899501Y-73102116D01*
X107899501Y-73102123D01*
X107899500Y-73102135D01*
X107899500Y-74897870D01*
X107899501Y-74897876D01*
X107905908Y-74957483D01*
X107956202Y-75092328D01*
X107956206Y-75092335D01*
X108042452Y-75207544D01*
X108042455Y-75207547D01*
X108157664Y-75293793D01*
X108157671Y-75293797D01*
X108292517Y-75344091D01*
X108292516Y-75344091D01*
X108299444Y-75344835D01*
X108352127Y-75350500D01*
X110147872Y-75350499D01*
X110207483Y-75344091D01*
X110342331Y-75293796D01*
X110457546Y-75207546D01*
X110543796Y-75092331D01*
X110594091Y-74957483D01*
X110600500Y-74897873D01*
X110600499Y-73102128D01*
X110594091Y-73042517D01*
X110543796Y-72907669D01*
X110543795Y-72907668D01*
X110543793Y-72907664D01*
X110457547Y-72792455D01*
X110457544Y-72792452D01*
X110342335Y-72706206D01*
X110342328Y-72706202D01*
X110210917Y-72657189D01*
X110154983Y-72615318D01*
X110130566Y-72549853D01*
X110145418Y-72481580D01*
X110166563Y-72453332D01*
X110288495Y-72331401D01*
X110424035Y-72137830D01*
X110523903Y-71923663D01*
X110580581Y-71712135D01*
X113074500Y-71712135D01*
X113074500Y-73607870D01*
X113074501Y-73607876D01*
X113080908Y-73667483D01*
X113131202Y-73802328D01*
X113131206Y-73802335D01*
X113217452Y-73917544D01*
X113217455Y-73917547D01*
X113332664Y-74003793D01*
X113332671Y-74003797D01*
X113467517Y-74054091D01*
X113467516Y-74054091D01*
X113474444Y-74054835D01*
X113527127Y-74060500D01*
X115422872Y-74060499D01*
X115482483Y-74054091D01*
X115617331Y-74003796D01*
X115732546Y-73917546D01*
X115818796Y-73802331D01*
X115819062Y-73801618D01*
X115847455Y-73725493D01*
X115889326Y-73669559D01*
X115954790Y-73645141D01*
X116023063Y-73659992D01*
X116054866Y-73684843D01*
X116062302Y-73692920D01*
X116063215Y-73693912D01*
X116063222Y-73693918D01*
X116246365Y-73836464D01*
X116246371Y-73836468D01*
X116246374Y-73836470D01*
X116450497Y-73946936D01*
X116525012Y-73972517D01*
X116670015Y-74022297D01*
X116670017Y-74022297D01*
X116670019Y-74022298D01*
X116898951Y-74060500D01*
X116898952Y-74060500D01*
X117131048Y-74060500D01*
X117131049Y-74060500D01*
X117359981Y-74022298D01*
X117579503Y-73946936D01*
X117783626Y-73836470D01*
X117966784Y-73693913D01*
X118123979Y-73523153D01*
X118250924Y-73328849D01*
X118344157Y-73116300D01*
X118401134Y-72891305D01*
X118403564Y-72861977D01*
X118420300Y-72660006D01*
X118420300Y-72659993D01*
X118401135Y-72428702D01*
X118401133Y-72428691D01*
X118344157Y-72203699D01*
X118250924Y-71991151D01*
X118123983Y-71796852D01*
X118123980Y-71796849D01*
X118123979Y-71796847D01*
X117966784Y-71626087D01*
X117966779Y-71626083D01*
X117966777Y-71626081D01*
X117783634Y-71483535D01*
X117783628Y-71483531D01*
X117579504Y-71373064D01*
X117579495Y-71373061D01*
X117359984Y-71297702D01*
X117143741Y-71261618D01*
X117131049Y-71259500D01*
X116898951Y-71259500D01*
X116886259Y-71261618D01*
X116670015Y-71297702D01*
X116450504Y-71373061D01*
X116450495Y-71373064D01*
X116246371Y-71483531D01*
X116246365Y-71483535D01*
X116063222Y-71626081D01*
X116063218Y-71626085D01*
X116054866Y-71635158D01*
X115994979Y-71671148D01*
X115925141Y-71669047D01*
X115867525Y-71629522D01*
X115847455Y-71594507D01*
X115818797Y-71517671D01*
X115818793Y-71517664D01*
X115732547Y-71402455D01*
X115732544Y-71402452D01*
X115617335Y-71316206D01*
X115617328Y-71316202D01*
X115482482Y-71265908D01*
X115482483Y-71265908D01*
X115422883Y-71259501D01*
X115422881Y-71259500D01*
X115422873Y-71259500D01*
X115422864Y-71259500D01*
X113527129Y-71259500D01*
X113527123Y-71259501D01*
X113467516Y-71265908D01*
X113332671Y-71316202D01*
X113332664Y-71316206D01*
X113217455Y-71402452D01*
X113217452Y-71402455D01*
X113131206Y-71517664D01*
X113131202Y-71517671D01*
X113080908Y-71652517D01*
X113074501Y-71712116D01*
X113074500Y-71712135D01*
X110580581Y-71712135D01*
X110585063Y-71695408D01*
X110605659Y-71460000D01*
X110603254Y-71432517D01*
X110596167Y-71351505D01*
X110585063Y-71224592D01*
X110523903Y-70996337D01*
X110424035Y-70782171D01*
X110413111Y-70766569D01*
X110288494Y-70588597D01*
X110121402Y-70421506D01*
X110121395Y-70421501D01*
X109927834Y-70285967D01*
X109927830Y-70285965D01*
X109850915Y-70250099D01*
X109713663Y-70186097D01*
X109713659Y-70186096D01*
X109713655Y-70186094D01*
X109485413Y-70124938D01*
X109485403Y-70124936D01*
X109250001Y-70104341D01*
X109249999Y-70104341D01*
X109014596Y-70124936D01*
X109014586Y-70124938D01*
X108786344Y-70186094D01*
X108786335Y-70186098D01*
X108572171Y-70285964D01*
X108572169Y-70285965D01*
X108378597Y-70421505D01*
X108211505Y-70588597D01*
X108075965Y-70782169D01*
X108075964Y-70782171D01*
X107976098Y-70996335D01*
X107976094Y-70996344D01*
X107914938Y-71224586D01*
X107914936Y-71224596D01*
X107894341Y-71459999D01*
X106855659Y-71459999D01*
X106853254Y-71432517D01*
X106846167Y-71351505D01*
X106835063Y-71224592D01*
X106773903Y-70996337D01*
X106674035Y-70782171D01*
X106663111Y-70766569D01*
X106538494Y-70588597D01*
X106371402Y-70421506D01*
X106371395Y-70421501D01*
X106177834Y-70285967D01*
X106177830Y-70285965D01*
X106100915Y-70250099D01*
X105963663Y-70186097D01*
X105963659Y-70186096D01*
X105963655Y-70186094D01*
X105735413Y-70124938D01*
X105735403Y-70124936D01*
X105500001Y-70104341D01*
X105499999Y-70104341D01*
X105264596Y-70124936D01*
X105264586Y-70124938D01*
X105036344Y-70186094D01*
X105036335Y-70186098D01*
X104822171Y-70285964D01*
X104822169Y-70285965D01*
X104628597Y-70421505D01*
X104461505Y-70588597D01*
X104325965Y-70782169D01*
X104325964Y-70782171D01*
X104226098Y-70996335D01*
X104226094Y-70996344D01*
X104164938Y-71224586D01*
X104164936Y-71224596D01*
X104144341Y-71459999D01*
X103500000Y-71459999D01*
X103500000Y-69000000D01*
X97000500Y-69000000D01*
X97000500Y-68524499D01*
X97020185Y-68457460D01*
X97072989Y-68411705D01*
X97124500Y-68400499D01*
X102547871Y-68400499D01*
X102547872Y-68400499D01*
X102607483Y-68394091D01*
X102742331Y-68343796D01*
X102857546Y-68257546D01*
X102943796Y-68142331D01*
X102994091Y-68007483D01*
X103000500Y-67947873D01*
X103000499Y-62852128D01*
X102994091Y-62792517D01*
X102945879Y-62663255D01*
X102943797Y-62657671D01*
X102943793Y-62657664D01*
X102857547Y-62542455D01*
X102857544Y-62542452D01*
X102742335Y-62456206D01*
X102742328Y-62456202D01*
X102607482Y-62405908D01*
X102607483Y-62405908D01*
X102547883Y-62399501D01*
X102547881Y-62399500D01*
X102547873Y-62399500D01*
X102547865Y-62399500D01*
X97124500Y-62399500D01*
X97057461Y-62379815D01*
X97011706Y-62327011D01*
X97000500Y-62275500D01*
X97000500Y-60434110D01*
X97000500Y-60434108D01*
X96966392Y-60306814D01*
X96900500Y-60192686D01*
X96807314Y-60099500D01*
X96750250Y-60066554D01*
X96693187Y-60033608D01*
X96629539Y-60016554D01*
X96565892Y-59999500D01*
X96565891Y-59999500D01*
X79124500Y-59999500D01*
X79057461Y-59979815D01*
X79011706Y-59927011D01*
X79000500Y-59875500D01*
X79000500Y-58724499D01*
X79020185Y-58657460D01*
X79072989Y-58611705D01*
X79124500Y-58600499D01*
X84547871Y-58600499D01*
X84547872Y-58600499D01*
X84607483Y-58594091D01*
X84742331Y-58543796D01*
X84857546Y-58457546D01*
X84943796Y-58342331D01*
X84994091Y-58207483D01*
X85000500Y-58147873D01*
X85000499Y-53052128D01*
X84994091Y-52992517D01*
X84982957Y-52962666D01*
X84943797Y-52857671D01*
X84943793Y-52857664D01*
X84857547Y-52742455D01*
X84857544Y-52742452D01*
X84742335Y-52656206D01*
X84742328Y-52656202D01*
X84607482Y-52605908D01*
X84607483Y-52605908D01*
X84547883Y-52599501D01*
X84547881Y-52599500D01*
X84547873Y-52599500D01*
X84547865Y-52599500D01*
X79124500Y-52599500D01*
X79057461Y-52579815D01*
X79011706Y-52527011D01*
X79000500Y-52475500D01*
X79000500Y-51524499D01*
X79020185Y-51457460D01*
X79072989Y-51411705D01*
X79124500Y-51400499D01*
X84547871Y-51400499D01*
X84547872Y-51400499D01*
X84607483Y-51394091D01*
X84742331Y-51343796D01*
X84857546Y-51257546D01*
X84943796Y-51142331D01*
X84994091Y-51007483D01*
X85000500Y-50947873D01*
X85000500Y-48613155D01*
X89145000Y-48613155D01*
X89145000Y-49161000D01*
X89889670Y-49161000D01*
X89869925Y-49180745D01*
X89820556Y-49266255D01*
X89795000Y-49361630D01*
X89795000Y-49460370D01*
X89820556Y-49555745D01*
X89869925Y-49641255D01*
X89889670Y-49661000D01*
X89145000Y-49661000D01*
X89145000Y-50208844D01*
X89151401Y-50268372D01*
X89151403Y-50268379D01*
X89201645Y-50403086D01*
X89201649Y-50403093D01*
X89287809Y-50518187D01*
X89287812Y-50518190D01*
X89402906Y-50604350D01*
X89402913Y-50604354D01*
X89537620Y-50654596D01*
X89537627Y-50654598D01*
X89597155Y-50660999D01*
X89597172Y-50661000D01*
X89920000Y-50661000D01*
X89920000Y-49691330D01*
X89939745Y-49711075D01*
X90025255Y-49760444D01*
X90120630Y-49786000D01*
X90219370Y-49786000D01*
X90314745Y-49760444D01*
X90400255Y-49711075D01*
X90414500Y-49696830D01*
X90414500Y-49737002D01*
X90417617Y-49752671D01*
X90420000Y-49776865D01*
X90420000Y-50661000D01*
X90742828Y-50661000D01*
X90742844Y-50660999D01*
X90802372Y-50654598D01*
X90802376Y-50654597D01*
X90937089Y-50604352D01*
X90937896Y-50603748D01*
X90938845Y-50603393D01*
X90944876Y-50600101D01*
X90945349Y-50600967D01*
X91003360Y-50579329D01*
X91059661Y-50588451D01*
X91140873Y-50622091D01*
X91299889Y-50653721D01*
X91338992Y-50661499D01*
X91338996Y-50661500D01*
X91338997Y-50661500D01*
X91541004Y-50661500D01*
X91541005Y-50661499D01*
X91739127Y-50622091D01*
X91925756Y-50544786D01*
X92006110Y-50491094D01*
X92072786Y-50470217D01*
X92140166Y-50488701D01*
X92143865Y-50491078D01*
X92224244Y-50544786D01*
X92410873Y-50622091D01*
X92569889Y-50653721D01*
X92608992Y-50661499D01*
X92608996Y-50661500D01*
X92608997Y-50661500D01*
X92811004Y-50661500D01*
X92811005Y-50661499D01*
X93009127Y-50622091D01*
X93195756Y-50544786D01*
X93363718Y-50432558D01*
X93506558Y-50289718D01*
X93618786Y-50121756D01*
X93696091Y-49935127D01*
X93735500Y-49737003D01*
X93735500Y-49084997D01*
X93696091Y-48886873D01*
X93618786Y-48700244D01*
X93618784Y-48700241D01*
X93618782Y-48700237D01*
X93560583Y-48613135D01*
X96404500Y-48613135D01*
X96404500Y-50208870D01*
X96404501Y-50208876D01*
X96410908Y-50268483D01*
X96461202Y-50403328D01*
X96461206Y-50403335D01*
X96547452Y-50518544D01*
X96547455Y-50518547D01*
X96662664Y-50604793D01*
X96662671Y-50604797D01*
X96797517Y-50655091D01*
X96797516Y-50655091D01*
X96804444Y-50655835D01*
X96857127Y-50661500D01*
X98002872Y-50661499D01*
X98062483Y-50655091D01*
X98197331Y-50604796D01*
X98198430Y-50603972D01*
X98199717Y-50603492D01*
X98205112Y-50600547D01*
X98205535Y-50601322D01*
X98263887Y-50579552D01*
X98320198Y-50588673D01*
X98400873Y-50622091D01*
X98559889Y-50653721D01*
X98598992Y-50661499D01*
X98598996Y-50661500D01*
X98598997Y-50661500D01*
X98801004Y-50661500D01*
X98801005Y-50661499D01*
X98999127Y-50622091D01*
X99185756Y-50544786D01*
X99266110Y-50491094D01*
X99332786Y-50470217D01*
X99400166Y-50488701D01*
X99403865Y-50491078D01*
X99484244Y-50544786D01*
X99670873Y-50622091D01*
X99829889Y-50653721D01*
X99868992Y-50661499D01*
X99868996Y-50661500D01*
X99868997Y-50661500D01*
X100071004Y-50661500D01*
X100071005Y-50661499D01*
X100269127Y-50622091D01*
X100455756Y-50544786D01*
X100623718Y-50432558D01*
X100656280Y-50399996D01*
X108922435Y-50399996D01*
X108922435Y-50400003D01*
X108942631Y-50579253D01*
X108942631Y-50579254D01*
X108970551Y-50659047D01*
X108974112Y-50728826D01*
X108970551Y-50740953D01*
X108942631Y-50820745D01*
X108942631Y-50820746D01*
X108922435Y-50999996D01*
X108922435Y-51000003D01*
X108942630Y-51179249D01*
X108942631Y-51179254D01*
X109002211Y-51349523D01*
X109034404Y-51400757D01*
X109098184Y-51502262D01*
X109225738Y-51629816D01*
X109378478Y-51725789D01*
X109548745Y-51785368D01*
X109548750Y-51785369D01*
X109727996Y-51805565D01*
X109728000Y-51805565D01*
X109728004Y-51805565D01*
X109907249Y-51785369D01*
X109907252Y-51785368D01*
X109907255Y-51785368D01*
X110077522Y-51725789D01*
X110230262Y-51629816D01*
X110357816Y-51502262D01*
X110421598Y-51400753D01*
X125118792Y-51400753D01*
X125118792Y-51400760D01*
X125138987Y-51580006D01*
X125138988Y-51580011D01*
X125198568Y-51750280D01*
X125294541Y-51903019D01*
X125422095Y-52030573D01*
X125512437Y-52087339D01*
X125532582Y-52099997D01*
X125574835Y-52126546D01*
X125668581Y-52159349D01*
X125745102Y-52186125D01*
X125745107Y-52186126D01*
X125924353Y-52206322D01*
X125924357Y-52206322D01*
X125924361Y-52206322D01*
X126103606Y-52186126D01*
X126103609Y-52186125D01*
X126103612Y-52186125D01*
X126273879Y-52126546D01*
X126426619Y-52030573D01*
X126554173Y-51903019D01*
X126650146Y-51750279D01*
X126709725Y-51580012D01*
X126715980Y-51524499D01*
X126729922Y-51400760D01*
X126729922Y-51400753D01*
X126709726Y-51221507D01*
X126709725Y-51221502D01*
X126650145Y-51051233D01*
X126610939Y-50988837D01*
X126554173Y-50898495D01*
X126426619Y-50770941D01*
X126382347Y-50743123D01*
X126273880Y-50674968D01*
X126103611Y-50615388D01*
X126103606Y-50615387D01*
X125924361Y-50595192D01*
X125924353Y-50595192D01*
X125745107Y-50615387D01*
X125745102Y-50615388D01*
X125574833Y-50674968D01*
X125422094Y-50770941D01*
X125294541Y-50898494D01*
X125198568Y-51051233D01*
X125138988Y-51221502D01*
X125138987Y-51221507D01*
X125118792Y-51400753D01*
X110421598Y-51400753D01*
X110453789Y-51349522D01*
X110513368Y-51179255D01*
X110513369Y-51179249D01*
X110533565Y-51000003D01*
X110533565Y-50999996D01*
X110513369Y-50820750D01*
X110513368Y-50820746D01*
X110513368Y-50820745D01*
X110485446Y-50740951D01*
X110481884Y-50671177D01*
X110485440Y-50659066D01*
X110513368Y-50579255D01*
X110514089Y-50572855D01*
X110533565Y-50400003D01*
X110533565Y-50399996D01*
X110513369Y-50220750D01*
X110513368Y-50220745D01*
X110478729Y-50121752D01*
X110453789Y-50050478D01*
X110451945Y-50047544D01*
X110381304Y-49935119D01*
X110357816Y-49897738D01*
X110230262Y-49770184D01*
X110077523Y-49674211D01*
X109907254Y-49614631D01*
X109907249Y-49614630D01*
X109728004Y-49594435D01*
X109727996Y-49594435D01*
X109548750Y-49614630D01*
X109548745Y-49614631D01*
X109378476Y-49674211D01*
X109225737Y-49770184D01*
X109098184Y-49897737D01*
X109002211Y-50050476D01*
X108942631Y-50220745D01*
X108942630Y-50220750D01*
X108922435Y-50399996D01*
X100656280Y-50399996D01*
X100766558Y-50289718D01*
X100878786Y-50121756D01*
X100956091Y-49935127D01*
X100995500Y-49737003D01*
X100995500Y-49084997D01*
X100956091Y-48886873D01*
X100878786Y-48700244D01*
X100878784Y-48700241D01*
X100878782Y-48700237D01*
X100766558Y-48532281D01*
X100623718Y-48389441D01*
X100455762Y-48277217D01*
X100455752Y-48277212D01*
X100269127Y-48199909D01*
X100269119Y-48199907D01*
X100071007Y-48160500D01*
X100071003Y-48160500D01*
X99868997Y-48160500D01*
X99868992Y-48160500D01*
X99670880Y-48199907D01*
X99670872Y-48199909D01*
X99484244Y-48277213D01*
X99403891Y-48330904D01*
X99337213Y-48351782D01*
X99269833Y-48333297D01*
X99266109Y-48330904D01*
X99185755Y-48277213D01*
X98999127Y-48199909D01*
X98999119Y-48199907D01*
X98801007Y-48160500D01*
X98801003Y-48160500D01*
X98598997Y-48160500D01*
X98598992Y-48160500D01*
X98400880Y-48199907D01*
X98400868Y-48199910D01*
X98320198Y-48233325D01*
X98250729Y-48240794D01*
X98205342Y-48221036D01*
X98205114Y-48221454D01*
X98200447Y-48218905D01*
X98198432Y-48218028D01*
X98197331Y-48217204D01*
X98197330Y-48217203D01*
X98197328Y-48217202D01*
X98062482Y-48166908D01*
X98062483Y-48166908D01*
X98002883Y-48160501D01*
X98002881Y-48160500D01*
X98002873Y-48160500D01*
X98002864Y-48160500D01*
X96857129Y-48160500D01*
X96857123Y-48160501D01*
X96797516Y-48166908D01*
X96662671Y-48217202D01*
X96662664Y-48217206D01*
X96547455Y-48303452D01*
X96547452Y-48303455D01*
X96461206Y-48418664D01*
X96461202Y-48418671D01*
X96410908Y-48553517D01*
X96404501Y-48613116D01*
X96404500Y-48613135D01*
X93560583Y-48613135D01*
X93506558Y-48532281D01*
X93363718Y-48389441D01*
X93195762Y-48277217D01*
X93195752Y-48277212D01*
X93009127Y-48199909D01*
X93009119Y-48199907D01*
X92811007Y-48160500D01*
X92811003Y-48160500D01*
X92608997Y-48160500D01*
X92608992Y-48160500D01*
X92410880Y-48199907D01*
X92410872Y-48199909D01*
X92224244Y-48277213D01*
X92143891Y-48330904D01*
X92077213Y-48351782D01*
X92009833Y-48333297D01*
X92006109Y-48330904D01*
X91925755Y-48277213D01*
X91739127Y-48199909D01*
X91739119Y-48199907D01*
X91541007Y-48160500D01*
X91541003Y-48160500D01*
X91338997Y-48160500D01*
X91338992Y-48160500D01*
X91140880Y-48199907D01*
X91140868Y-48199910D01*
X91059661Y-48233547D01*
X90990191Y-48241016D01*
X90945140Y-48221405D01*
X90944872Y-48221897D01*
X90939374Y-48218894D01*
X90937895Y-48218251D01*
X90937086Y-48217645D01*
X90802379Y-48167403D01*
X90802372Y-48167401D01*
X90742844Y-48161000D01*
X90420000Y-48161000D01*
X90420000Y-49045134D01*
X90417617Y-49069326D01*
X90414500Y-49084995D01*
X90414500Y-49125170D01*
X90400255Y-49110925D01*
X90314745Y-49061556D01*
X90219370Y-49036000D01*
X90120630Y-49036000D01*
X90025255Y-49061556D01*
X89939745Y-49110925D01*
X89920000Y-49130670D01*
X89920000Y-48161000D01*
X89597155Y-48161000D01*
X89537627Y-48167401D01*
X89537620Y-48167403D01*
X89402913Y-48217645D01*
X89402906Y-48217649D01*
X89287812Y-48303809D01*
X89287809Y-48303812D01*
X89201649Y-48418906D01*
X89201645Y-48418913D01*
X89151403Y-48553620D01*
X89151401Y-48553627D01*
X89145000Y-48613155D01*
X85000500Y-48613155D01*
X85000499Y-46299996D01*
X117394435Y-46299996D01*
X117394435Y-46300003D01*
X117414630Y-46479249D01*
X117414631Y-46479254D01*
X117474211Y-46649523D01*
X117570184Y-46802262D01*
X117697738Y-46929816D01*
X117850478Y-47025789D01*
X118020745Y-47085368D01*
X118020750Y-47085369D01*
X118199996Y-47105565D01*
X118200000Y-47105565D01*
X118200004Y-47105565D01*
X118379249Y-47085369D01*
X118379252Y-47085368D01*
X118379255Y-47085368D01*
X118549522Y-47025789D01*
X118606486Y-46989996D01*
X133094435Y-46989996D01*
X133094435Y-46990003D01*
X133114630Y-47169249D01*
X133114631Y-47169254D01*
X133174211Y-47339523D01*
X133264622Y-47483410D01*
X133270184Y-47492262D01*
X133397738Y-47619816D01*
X133536390Y-47706937D01*
X133550478Y-47715789D01*
X133722165Y-47775865D01*
X133778942Y-47816587D01*
X133804689Y-47881540D01*
X133798252Y-47933862D01*
X133764633Y-48029937D01*
X133764630Y-48029950D01*
X133744435Y-48209196D01*
X133744435Y-48209203D01*
X133764630Y-48388449D01*
X133764631Y-48388454D01*
X133824211Y-48558723D01*
X133895474Y-48672137D01*
X133920184Y-48711462D01*
X134047738Y-48839016D01*
X134200478Y-48934989D01*
X134370745Y-48994568D01*
X134387552Y-48996461D01*
X134451966Y-49023527D01*
X134478662Y-49053707D01*
X134570184Y-49199364D01*
X134697738Y-49326918D01*
X134850478Y-49422891D01*
X135020745Y-49482470D01*
X135087772Y-49490021D01*
X135152182Y-49517086D01*
X135178880Y-49547268D01*
X135260184Y-49676662D01*
X135387738Y-49804216D01*
X135475897Y-49859610D01*
X135536575Y-49897737D01*
X135540478Y-49900189D01*
X135640325Y-49935127D01*
X135710745Y-49959768D01*
X135710750Y-49959769D01*
X135889996Y-49979965D01*
X135890000Y-49979965D01*
X135890004Y-49979965D01*
X136069249Y-49959769D01*
X136069252Y-49959768D01*
X136069255Y-49959768D01*
X136239522Y-49900189D01*
X136243425Y-49897737D01*
X136304103Y-49859610D01*
X136360563Y-49824133D01*
X136427799Y-49805133D01*
X136494634Y-49825500D01*
X136531528Y-49863154D01*
X136609473Y-49987202D01*
X136609475Y-49987204D01*
X136737029Y-50114758D01*
X136748176Y-50121762D01*
X136886816Y-50208876D01*
X136889769Y-50210731D01*
X136918402Y-50220750D01*
X137060036Y-50270310D01*
X137060041Y-50270311D01*
X137239287Y-50290507D01*
X137239291Y-50290507D01*
X137239295Y-50290507D01*
X137418540Y-50270311D01*
X137418543Y-50270310D01*
X137418546Y-50270310D01*
X137588813Y-50210731D01*
X137741553Y-50114758D01*
X137869107Y-49987204D01*
X137883307Y-49964603D01*
X137935637Y-49918315D01*
X138004690Y-49907664D01*
X138054272Y-49925582D01*
X138100478Y-49954615D01*
X138277318Y-50016494D01*
X138276594Y-50018561D01*
X138328414Y-50047544D01*
X138356889Y-50093375D01*
X138374210Y-50142873D01*
X138374210Y-50142875D01*
X138423140Y-50220745D01*
X138470184Y-50295615D01*
X138597738Y-50423169D01*
X138750478Y-50519142D01*
X138917643Y-50577635D01*
X138974417Y-50618356D01*
X138993727Y-50653719D01*
X138996450Y-50661500D01*
X139025010Y-50743121D01*
X139025012Y-50743124D01*
X139120984Y-50895862D01*
X139248538Y-51023416D01*
X139401278Y-51119389D01*
X139466854Y-51142335D01*
X139571545Y-51178968D01*
X139571550Y-51178969D01*
X139750796Y-51199165D01*
X139750800Y-51199165D01*
X139750804Y-51199165D01*
X139930049Y-51178969D01*
X139930052Y-51178968D01*
X139930055Y-51178968D01*
X140100322Y-51119389D01*
X140253062Y-51023416D01*
X140380616Y-50895862D01*
X140476589Y-50743122D01*
X140536168Y-50572855D01*
X140536169Y-50572849D01*
X140556365Y-50393603D01*
X140556365Y-50393596D01*
X140536169Y-50214350D01*
X140536168Y-50214345D01*
X140534243Y-50208844D01*
X140476589Y-50044078D01*
X140380616Y-49891338D01*
X140253062Y-49763784D01*
X140186950Y-49722243D01*
X140100321Y-49667810D01*
X139933159Y-49609318D01*
X139876382Y-49568596D01*
X139857071Y-49533230D01*
X139825789Y-49443831D01*
X139729816Y-49291091D01*
X139602262Y-49163537D01*
X139518531Y-49110925D01*
X139449521Y-49067563D01*
X139323671Y-49023527D01*
X139279255Y-49007985D01*
X139279252Y-49007984D01*
X139272683Y-49005686D01*
X139273405Y-49003620D01*
X139221576Y-48974628D01*
X139193108Y-48928801D01*
X139175789Y-48879303D01*
X139079815Y-48726563D01*
X138952262Y-48599010D01*
X138799523Y-48503037D01*
X138629254Y-48443457D01*
X138629249Y-48443456D01*
X138450004Y-48423261D01*
X138449996Y-48423261D01*
X138270750Y-48443456D01*
X138270745Y-48443457D01*
X138100476Y-48503037D01*
X137947737Y-48599010D01*
X137820183Y-48726564D01*
X137805982Y-48749165D01*
X137753646Y-48795455D01*
X137684592Y-48806102D01*
X137635016Y-48788184D01*
X137588815Y-48759153D01*
X137418545Y-48699573D01*
X137418540Y-48699572D01*
X137239295Y-48679377D01*
X137239287Y-48679377D01*
X137060041Y-48699572D01*
X137060036Y-48699573D01*
X136889767Y-48759153D01*
X136768727Y-48835208D01*
X136701490Y-48854208D01*
X136634655Y-48833840D01*
X136597761Y-48796186D01*
X136554014Y-48726564D01*
X136519816Y-48672138D01*
X136392262Y-48544584D01*
X136239521Y-48448610D01*
X136091849Y-48396938D01*
X136069255Y-48389032D01*
X136069254Y-48389031D01*
X136069249Y-48389030D01*
X136002227Y-48381479D01*
X135937813Y-48354412D01*
X135911119Y-48324234D01*
X135829816Y-48194840D01*
X135702262Y-48067286D01*
X135642834Y-48029945D01*
X135549521Y-47971312D01*
X135379249Y-47911732D01*
X135362444Y-47909839D01*
X135298031Y-47882771D01*
X135271336Y-47852591D01*
X135235504Y-47795565D01*
X135179816Y-47706938D01*
X135052262Y-47579384D01*
X134899521Y-47483410D01*
X134772616Y-47439004D01*
X134729255Y-47423832D01*
X134729254Y-47423831D01*
X134727834Y-47423335D01*
X134671058Y-47382613D01*
X134645310Y-47317661D01*
X134651747Y-47265337D01*
X134685367Y-47169259D01*
X134685369Y-47169249D01*
X134705565Y-46990003D01*
X134705565Y-46989996D01*
X139910435Y-46989996D01*
X139910435Y-46990003D01*
X139930630Y-47169249D01*
X139930631Y-47169254D01*
X139990211Y-47339523D01*
X140080622Y-47483410D01*
X140086184Y-47492262D01*
X140213738Y-47619816D01*
X140304080Y-47676582D01*
X140352391Y-47706938D01*
X140366478Y-47715789D01*
X140536745Y-47775368D01*
X140536750Y-47775369D01*
X140715996Y-47795565D01*
X140716000Y-47795565D01*
X140716004Y-47795565D01*
X140895249Y-47775369D01*
X140895252Y-47775368D01*
X140895255Y-47775368D01*
X141065522Y-47715789D01*
X141218262Y-47619816D01*
X141345816Y-47492262D01*
X141441789Y-47339522D01*
X141501368Y-47169255D01*
X141521565Y-46990000D01*
X141501368Y-46810745D01*
X141441789Y-46640478D01*
X141345816Y-46487738D01*
X141218262Y-46360184D01*
X141122480Y-46300000D01*
X141065523Y-46264211D01*
X140895254Y-46204631D01*
X140895249Y-46204630D01*
X140716004Y-46184435D01*
X140715996Y-46184435D01*
X140536750Y-46204630D01*
X140536745Y-46204631D01*
X140366476Y-46264211D01*
X140213737Y-46360184D01*
X140086184Y-46487737D01*
X139990211Y-46640476D01*
X139930631Y-46810745D01*
X139930630Y-46810750D01*
X139910435Y-46989996D01*
X134705565Y-46989996D01*
X134685369Y-46810750D01*
X134685368Y-46810745D01*
X134628954Y-46649523D01*
X134625789Y-46640478D01*
X134529816Y-46487738D01*
X134402262Y-46360184D01*
X134306480Y-46300000D01*
X134249523Y-46264211D01*
X134079254Y-46204631D01*
X134079249Y-46204630D01*
X133900004Y-46184435D01*
X133899996Y-46184435D01*
X133720750Y-46204630D01*
X133720745Y-46204631D01*
X133550476Y-46264211D01*
X133397737Y-46360184D01*
X133270184Y-46487737D01*
X133174211Y-46640476D01*
X133114631Y-46810745D01*
X133114630Y-46810750D01*
X133094435Y-46989996D01*
X118606486Y-46989996D01*
X118702262Y-46929816D01*
X118829816Y-46802262D01*
X118925789Y-46649522D01*
X118985368Y-46479255D01*
X119005565Y-46300000D01*
X118994819Y-46204630D01*
X118985369Y-46120750D01*
X118985368Y-46120745D01*
X118925788Y-45950476D01*
X118863992Y-45852129D01*
X118829816Y-45797738D01*
X118702262Y-45670184D01*
X118682337Y-45657664D01*
X118549523Y-45574211D01*
X118379254Y-45514631D01*
X118379249Y-45514630D01*
X118200004Y-45494435D01*
X118199996Y-45494435D01*
X118020750Y-45514630D01*
X118020745Y-45514631D01*
X117850476Y-45574211D01*
X117697737Y-45670184D01*
X117570184Y-45797737D01*
X117474211Y-45950476D01*
X117414631Y-46120745D01*
X117414630Y-46120750D01*
X117394435Y-46299996D01*
X85000499Y-46299996D01*
X85000499Y-45852128D01*
X84994091Y-45792517D01*
X84943796Y-45657669D01*
X84943795Y-45657668D01*
X84943793Y-45657664D01*
X84857547Y-45542455D01*
X84857544Y-45542452D01*
X84742335Y-45456206D01*
X84742328Y-45456202D01*
X84607482Y-45405908D01*
X84607483Y-45405908D01*
X84547883Y-45399501D01*
X84547881Y-45399500D01*
X84547873Y-45399500D01*
X84547865Y-45399500D01*
X79124500Y-45399500D01*
X79057461Y-45379815D01*
X79011706Y-45327011D01*
X79000500Y-45275500D01*
X79000500Y-44624500D01*
X79020185Y-44557461D01*
X79072989Y-44511706D01*
X79124500Y-44500500D01*
X152875500Y-44500500D01*
X152942539Y-44520185D01*
G37*
%TD.AperFunction*%
%TA.AperFunction,Conductor*%
G36*
X142955677Y-63020185D02*
G01*
X142976319Y-63036819D01*
X143463181Y-63523681D01*
X143496666Y-63585004D01*
X143499500Y-63611362D01*
X143499500Y-75018695D01*
X143534103Y-75192658D01*
X143534106Y-75192667D01*
X143601983Y-75356540D01*
X143601990Y-75356553D01*
X143700535Y-75504034D01*
X143700538Y-75504038D01*
X143825961Y-75629461D01*
X143825965Y-75629464D01*
X143973446Y-75728009D01*
X143973459Y-75728016D01*
X144096363Y-75778923D01*
X144137334Y-75795894D01*
X144137336Y-75795894D01*
X144137341Y-75795896D01*
X144311304Y-75830499D01*
X144311307Y-75830500D01*
X144311309Y-75830500D01*
X144488692Y-75830500D01*
X144514245Y-75825417D01*
X144567623Y-75814799D01*
X144637214Y-75821026D01*
X144692392Y-75863888D01*
X144707997Y-75893083D01*
X144756202Y-76022328D01*
X144756206Y-76022335D01*
X144842452Y-76137544D01*
X144842455Y-76137547D01*
X144957664Y-76223793D01*
X144957671Y-76223797D01*
X145052908Y-76259318D01*
X145108842Y-76301189D01*
X145133259Y-76366653D01*
X145118408Y-76434926D01*
X145069003Y-76484332D01*
X145009575Y-76499500D01*
X138715420Y-76499500D01*
X138648381Y-76479815D01*
X138602626Y-76427011D01*
X138592682Y-76357853D01*
X138621707Y-76294297D01*
X138680485Y-76256523D01*
X138683327Y-76255725D01*
X138878483Y-76203433D01*
X138878492Y-76203429D01*
X139092578Y-76103600D01*
X139286082Y-75968105D01*
X139453108Y-75801079D01*
X139510736Y-75718779D01*
X139565312Y-75675154D01*
X139634811Y-75667960D01*
X139653266Y-75672861D01*
X139774737Y-75715366D01*
X139774743Y-75715367D01*
X139774745Y-75715368D01*
X139774746Y-75715368D01*
X139774750Y-75715369D01*
X139953996Y-75735565D01*
X139954000Y-75735565D01*
X139954004Y-75735565D01*
X140133249Y-75715369D01*
X140133252Y-75715368D01*
X140133255Y-75715368D01*
X140303522Y-75655789D01*
X140456262Y-75559816D01*
X140583816Y-75432262D01*
X140679789Y-75279522D01*
X140739368Y-75109255D01*
X140739565Y-75107511D01*
X140759565Y-74930000D01*
X140759565Y-74929996D01*
X140739369Y-74750750D01*
X140739368Y-74750745D01*
X140713622Y-74677167D01*
X140679789Y-74580478D01*
X140583816Y-74427738D01*
X140456262Y-74300184D01*
X140432633Y-74285337D01*
X140303523Y-74204211D01*
X140133254Y-74144631D01*
X140133249Y-74144630D01*
X139954004Y-74124435D01*
X139953996Y-74124435D01*
X139774750Y-74144630D01*
X139774742Y-74144632D01*
X139653265Y-74187139D01*
X139583486Y-74190700D01*
X139522859Y-74155971D01*
X139510737Y-74141221D01*
X139453109Y-74058921D01*
X139286082Y-73891894D01*
X139107468Y-73766826D01*
X139063843Y-73712248D01*
X139056651Y-73642750D01*
X139088173Y-73580395D01*
X139107468Y-73563676D01*
X139301082Y-73428105D01*
X139468107Y-73261081D01*
X139522783Y-73182995D01*
X139577360Y-73139369D01*
X139646858Y-73132175D01*
X139665305Y-73137073D01*
X139721358Y-73156687D01*
X139774740Y-73175367D01*
X139774750Y-73175369D01*
X139953996Y-73195565D01*
X139954000Y-73195565D01*
X139954004Y-73195565D01*
X140133249Y-73175369D01*
X140133252Y-73175368D01*
X140133255Y-73175368D01*
X140303522Y-73115789D01*
X140456262Y-73019816D01*
X140583816Y-72892262D01*
X140679789Y-72739522D01*
X140739368Y-72569255D01*
X140749247Y-72481580D01*
X140759565Y-72390003D01*
X140759565Y-72389996D01*
X140739369Y-72210750D01*
X140739368Y-72210745D01*
X140709827Y-72126322D01*
X140679789Y-72040478D01*
X140583816Y-71887738D01*
X140456262Y-71760184D01*
X140432633Y-71745337D01*
X140303523Y-71664211D01*
X140133254Y-71604631D01*
X140133249Y-71604630D01*
X139954004Y-71584435D01*
X139953996Y-71584435D01*
X139774750Y-71604630D01*
X139774742Y-71604632D01*
X139665313Y-71642923D01*
X139595534Y-71646484D01*
X139534907Y-71611755D01*
X139522784Y-71597004D01*
X139468109Y-71518920D01*
X139301082Y-71351894D01*
X139114968Y-71221575D01*
X139071344Y-71166998D01*
X139064151Y-71097499D01*
X139095673Y-71035145D01*
X139114968Y-71018425D01*
X139301082Y-70888105D01*
X139468108Y-70721079D01*
X139468111Y-70721075D01*
X139516879Y-70651427D01*
X139571456Y-70607801D01*
X139640954Y-70600607D01*
X139659406Y-70605506D01*
X139686146Y-70614863D01*
X139744740Y-70635367D01*
X139744750Y-70635369D01*
X139923996Y-70655565D01*
X139924000Y-70655565D01*
X139924004Y-70655565D01*
X140103249Y-70635369D01*
X140103252Y-70635368D01*
X140103255Y-70635368D01*
X140273522Y-70575789D01*
X140426262Y-70479816D01*
X140553816Y-70352262D01*
X140649789Y-70199522D01*
X140709368Y-70029255D01*
X140713496Y-69992620D01*
X140729565Y-69850003D01*
X140729565Y-69849996D01*
X140709369Y-69670750D01*
X140709368Y-69670745D01*
X140677725Y-69580315D01*
X140649789Y-69500478D01*
X140634408Y-69476000D01*
X140553815Y-69347737D01*
X140426262Y-69220184D01*
X140273523Y-69124211D01*
X140103254Y-69064631D01*
X140103249Y-69064630D01*
X139924004Y-69044435D01*
X139923996Y-69044435D01*
X139744750Y-69064630D01*
X139744745Y-69064631D01*
X139659410Y-69094492D01*
X139589631Y-69098053D01*
X139529003Y-69063324D01*
X139516880Y-69048573D01*
X139468109Y-68978920D01*
X139301082Y-68811894D01*
X139107468Y-68676323D01*
X139063843Y-68621746D01*
X139056651Y-68552247D01*
X139088173Y-68489893D01*
X139107468Y-68473173D01*
X139286082Y-68348105D01*
X139453108Y-68181079D01*
X139510736Y-68098779D01*
X139565312Y-68055154D01*
X139634811Y-68047960D01*
X139653266Y-68052861D01*
X139774737Y-68095366D01*
X139774743Y-68095367D01*
X139774745Y-68095368D01*
X139774746Y-68095368D01*
X139774750Y-68095369D01*
X139953996Y-68115565D01*
X139954000Y-68115565D01*
X139954004Y-68115565D01*
X140133249Y-68095369D01*
X140133252Y-68095368D01*
X140133255Y-68095368D01*
X140303522Y-68035789D01*
X140456262Y-67939816D01*
X140583816Y-67812262D01*
X140679789Y-67659522D01*
X140739368Y-67489255D01*
X140739369Y-67489249D01*
X140759565Y-67310003D01*
X140759565Y-67309996D01*
X140739369Y-67130750D01*
X140739368Y-67130745D01*
X140714613Y-67059999D01*
X140679789Y-66960478D01*
X140583816Y-66807738D01*
X140456262Y-66680184D01*
X140432633Y-66665337D01*
X140303523Y-66584211D01*
X140133254Y-66524631D01*
X140133249Y-66524630D01*
X139954004Y-66504435D01*
X139953996Y-66504435D01*
X139774750Y-66524630D01*
X139774742Y-66524632D01*
X139653265Y-66567139D01*
X139583486Y-66570700D01*
X139522859Y-66535971D01*
X139510737Y-66521221D01*
X139453109Y-66438921D01*
X139286082Y-66271894D01*
X139092578Y-66136399D01*
X138878492Y-66036570D01*
X138878486Y-66036567D01*
X138665000Y-65979364D01*
X138665000Y-66876988D01*
X138607993Y-66844075D01*
X138480826Y-66810000D01*
X138349174Y-66810000D01*
X138222007Y-66844075D01*
X138165000Y-66876988D01*
X138165000Y-65979364D01*
X138164999Y-65979364D01*
X137951513Y-66036567D01*
X137951507Y-66036570D01*
X137737422Y-66136399D01*
X137737420Y-66136400D01*
X137543926Y-66271886D01*
X137543920Y-66271891D01*
X137376891Y-66438920D01*
X137376890Y-66438922D01*
X137246880Y-66624595D01*
X137192303Y-66668219D01*
X137122804Y-66675412D01*
X137060450Y-66643890D01*
X137043730Y-66624594D01*
X136913494Y-66438597D01*
X136746402Y-66271506D01*
X136746395Y-66271501D01*
X136552834Y-66135967D01*
X136552830Y-66135965D01*
X136552828Y-66135964D01*
X136338663Y-66036097D01*
X136338659Y-66036096D01*
X136338655Y-66036094D01*
X136110413Y-65974938D01*
X136110403Y-65974936D01*
X135875001Y-65954341D01*
X135874999Y-65954341D01*
X135639596Y-65974936D01*
X135639586Y-65974938D01*
X135411344Y-66036094D01*
X135411335Y-66036098D01*
X135197171Y-66135964D01*
X135197169Y-66135965D01*
X135003600Y-66271503D01*
X134881673Y-66393430D01*
X134820350Y-66426914D01*
X134750658Y-66421930D01*
X134694725Y-66380058D01*
X134677810Y-66349081D01*
X134628797Y-66217671D01*
X134628793Y-66217664D01*
X134542547Y-66102455D01*
X134542544Y-66102452D01*
X134427335Y-66016206D01*
X134427328Y-66016202D01*
X134292482Y-65965908D01*
X134292483Y-65965908D01*
X134232883Y-65959501D01*
X134232881Y-65959500D01*
X134232873Y-65959500D01*
X134232865Y-65959500D01*
X132716000Y-65959500D01*
X132648961Y-65939815D01*
X132603206Y-65887011D01*
X132592000Y-65835500D01*
X132592000Y-64632861D01*
X132611685Y-64565822D01*
X132628319Y-64545180D01*
X134136680Y-63036819D01*
X134198003Y-63003334D01*
X134224361Y-63000500D01*
X142888638Y-63000500D01*
X142955677Y-63020185D01*
G37*
%TD.AperFunction*%
%TA.AperFunction,Conductor*%
G36*
X138680000Y-73803638D02*
G01*
X138665000Y-73854721D01*
X138665000Y-74496988D01*
X138607993Y-74464075D01*
X138480826Y-74430000D01*
X138349174Y-74430000D01*
X138222007Y-74464075D01*
X138165000Y-74496988D01*
X138165000Y-73516362D01*
X138180000Y-73465278D01*
X138180000Y-72823012D01*
X138237007Y-72855925D01*
X138364174Y-72890000D01*
X138495826Y-72890000D01*
X138622993Y-72855925D01*
X138680000Y-72823012D01*
X138680000Y-73803638D01*
G37*
%TD.AperFunction*%
%TA.AperFunction,Conductor*%
G36*
X151380000Y-74496988D02*
G01*
X151322993Y-74464075D01*
X151195826Y-74430000D01*
X151064174Y-74430000D01*
X150937007Y-74464075D01*
X150880000Y-74496988D01*
X150880000Y-72823012D01*
X150937007Y-72855925D01*
X151064174Y-72890000D01*
X151195826Y-72890000D01*
X151322993Y-72855925D01*
X151380000Y-72823012D01*
X151380000Y-74496988D01*
G37*
%TD.AperFunction*%
%TA.AperFunction,Conductor*%
G36*
X138680000Y-71956988D02*
G01*
X138622993Y-71924075D01*
X138495826Y-71890000D01*
X138364174Y-71890000D01*
X138237007Y-71924075D01*
X138180000Y-71956988D01*
X138180000Y-70283012D01*
X138237007Y-70315925D01*
X138364174Y-70350000D01*
X138495826Y-70350000D01*
X138622993Y-70315925D01*
X138680000Y-70283012D01*
X138680000Y-71956988D01*
G37*
%TD.AperFunction*%
%TA.AperFunction,Conductor*%
G36*
X151380000Y-71956988D02*
G01*
X151322993Y-71924075D01*
X151195826Y-71890000D01*
X151064174Y-71890000D01*
X150937007Y-71924075D01*
X150880000Y-71956988D01*
X150880000Y-70283012D01*
X150937007Y-70315925D01*
X151064174Y-70350000D01*
X151195826Y-70350000D01*
X151322993Y-70315925D01*
X151380000Y-70283012D01*
X151380000Y-71956988D01*
G37*
%TD.AperFunction*%
%TA.AperFunction,Conductor*%
G36*
X138665000Y-68387723D02*
G01*
X138677166Y-68410004D01*
X138680000Y-68436362D01*
X138680000Y-69416988D01*
X138622993Y-69384075D01*
X138495826Y-69350000D01*
X138364174Y-69350000D01*
X138237007Y-69384075D01*
X138180000Y-69416988D01*
X138180000Y-68772276D01*
X138167834Y-68749996D01*
X138165000Y-68723638D01*
X138165000Y-67743012D01*
X138222007Y-67775925D01*
X138349174Y-67810000D01*
X138480826Y-67810000D01*
X138607993Y-67775925D01*
X138665000Y-67743012D01*
X138665000Y-68387723D01*
G37*
%TD.AperFunction*%
%TA.AperFunction,Conductor*%
G36*
X151380000Y-69416988D02*
G01*
X151322993Y-69384075D01*
X151195826Y-69350000D01*
X151064174Y-69350000D01*
X150937007Y-69384075D01*
X150880000Y-69416988D01*
X150880000Y-67743012D01*
X150937007Y-67775925D01*
X151064174Y-67810000D01*
X151195826Y-67810000D01*
X151322993Y-67775925D01*
X151380000Y-67743012D01*
X151380000Y-69416988D01*
G37*
%TD.AperFunction*%
%TD*%
%TA.AperFunction,Conductor*%
%TO.N,GND*%
G36*
X152999500Y-59000000D02*
G01*
X146500000Y-59000000D01*
X146500000Y-52000000D01*
X152999500Y-52000000D01*
X152999500Y-59000000D01*
G37*
%TD.AperFunction*%
%TD*%
%TA.AperFunction,Conductor*%
%TO.N,GND*%
G36*
X103500000Y-76499500D02*
G01*
X97124500Y-76499500D01*
X97057461Y-76479815D01*
X97011706Y-76427011D01*
X97000500Y-76375500D01*
X97000500Y-69000000D01*
X103500000Y-69000000D01*
X103500000Y-76499500D01*
G37*
%TD.AperFunction*%
%TD*%
M02*
