M48
; DRILL file {KiCad 8.0.8} date 2025-01-18T23:44:31+0100
; FORMAT={-:-/ absolute / inch / decimal}
; #@! TF.CreationDate,2025-01-18T23:44:31+01:00
; #@! TF.GenerationSoftware,Kicad,Pcbnew,8.0.8
; #@! TF.FileFunction,Plated,1,4,PTH
FMAT,2
INCH
; #@! TA.AperFunction,Plated,PTH,ViaDrill
T1C0.0118
; #@! TA.AperFunction,Plated,PTH,ComponentDrill
T2C0.0276
; #@! TA.AperFunction,Plated,PTH,ComponentDrill
T3C0.0295
; #@! TA.AperFunction,Plated,PTH,ComponentDrill
T4C0.0354
; #@! TA.AperFunction,Plated,PTH,ComponentDrill
T5C0.0394
; #@! TA.AperFunction,Plated,PTH,ComponentDrill
T6C0.0787
%
G90
G05
T1
X3.13Y-1.775
X3.13Y-2.05
X3.13Y-2.335
X3.4Y-1.8
X3.4Y-2.0
X3.4Y-2.2
X3.5Y-1.9
X3.5Y-2.1
X3.5Y-2.3
X3.555Y-1.8
X3.6Y-2.2
X3.7Y-2.1
X3.7Y-2.3
X3.8Y-2.2
X3.83Y-2.445
X3.85Y-2.72
X3.85Y-3.0
X3.9Y-2.1
X3.9Y-2.3
X3.95Y-3.0
X3.995Y-2.445
X4.05Y-1.85
X4.05Y-1.95
X4.05Y-2.05
X4.05Y-2.15
X4.05Y-2.72
X4.05Y-3.0
X4.15Y-3.0
X4.25Y-3.0
X4.2559Y-2.0512
X4.2559Y-2.0748
X4.2582Y-2.3746
X4.265Y-1.925
X4.32Y-1.9843
X4.32Y-2.0079
X4.3287Y-2.7148
X4.3403Y-1.8238
X4.35Y-3.0
X4.4057Y-2.6386
X4.45Y-2.05
X4.45Y-2.15
X4.45Y-3.0
X4.477Y-2.4492
X4.55Y-1.85
X4.55Y-3.0
X4.5861Y-2.4484
X4.6427Y-2.4133
X4.6459Y-2.46
X4.65Y-2.05
X4.65Y-2.15
X4.65Y-3.0
X4.6535Y-1.8228
X4.6615Y-2.3295
X4.6854Y-2.3836
X4.6944Y-2.7216
X4.6966Y-2.8112
X4.7244Y-2.1226
X4.7244Y-2.2226
X4.7244Y-2.3226
X4.725Y-3.0
X4.7283Y-1.861
X4.7603Y-1.7627
X4.925Y-3.0
X4.95Y-1.775
X4.95Y-1.875
X4.95Y-1.975
X4.9577Y-2.0237
X4.995Y-2.65
X4.995Y-2.75
X4.995Y-2.85
X4.995Y-2.95
X5.025Y-1.825
X5.025Y-1.9
X5.05Y-3.0
X5.0551Y-2.1614
X5.0709Y-2.1457
X5.1Y-1.775
X5.1Y-1.875
X5.1142Y-2.1024
X5.15Y-3.0
X5.1693Y-2.1063
X5.1847Y-2.9297
X5.185Y-2.635
X5.185Y-2.73
X5.185Y-2.83
X5.1929Y-2.1063
X5.2165Y-2.1063
X5.2326Y-1.775
X5.2443Y-2.2997
X5.2717Y-1.85
X5.285Y-2.1459
X5.2972Y-1.898
X5.3228Y-1.9172
X5.3236Y-2.495
X5.336Y-2.148
X5.35Y-1.936
X5.374Y-2.31
X5.386Y-2.166
X5.3996Y-2.3284
X5.4031Y-1.9482
X5.4252Y-1.898
X5.4252Y-2.31
X5.44Y-2.165
X5.4488Y-2.5984
X5.4508Y-1.9381
X5.4764Y-1.9604
X5.49Y-2.15
X5.5Y-3.0
X5.502Y-1.984
X5.5088Y-2.75
X5.51Y-2.65
X5.51Y-2.85
X5.51Y-2.95
X5.54Y-1.85
X5.5413Y-2.1654
X5.5856Y-2.4041
X5.6Y-3.0
X5.6422Y-2.2244
X5.6422Y-2.4449
X5.6661Y-2.1417
X5.6661Y-2.1646
X5.685Y-2.65
X5.685Y-2.95
X5.6856Y-2.7494
X5.6856Y-2.8494
X5.7Y-3.0
X5.75Y-2.45
X5.8695Y-2.4504
X6.0Y-2.45
X6.0Y-3.0
T2
X4.775Y-2.76
X4.775Y-2.86
X4.775Y-2.96
X4.875Y-2.76
X4.875Y-2.86
X4.875Y-2.96
T3
X3.55Y-1.9453
X3.6Y-1.9453
X3.65Y-1.9453
X3.8358Y-1.9453
X3.8858Y-1.9453
X3.9358Y-1.9453
T4
X4.5069Y-2.8606
X4.6069Y-2.8606
T5
X4.1535Y-2.8134
X4.1535Y-2.9134
X4.3012Y-2.8134
X4.3012Y-2.9134
X5.2494Y-2.65
X5.2494Y-2.95
X5.25Y-2.75
X5.25Y-2.85
X5.3494Y-2.65
X5.3494Y-2.95
X5.35Y-2.75
X5.35Y-2.85
X5.4494Y-2.65
X5.4494Y-2.95
X5.45Y-2.75
X5.45Y-2.85
X5.75Y-2.65
X5.75Y-2.75
X5.75Y-2.85
X5.75Y-2.95
X5.85Y-2.65
X5.85Y-2.75
X5.85Y-2.85
X5.85Y-2.95
X5.95Y-2.65
X5.95Y-2.75
X5.95Y-2.85
X5.95Y-2.95
T6
X3.2087Y-1.9055
X3.2087Y-2.189
X3.9173Y-2.5748
X3.9173Y-2.8583
X5.9252Y-1.9055
X5.9252Y-2.189
M30
