%TF.GenerationSoftware,KiCad,Pcbnew,8.0.8*%
%TF.CreationDate,2025-01-18T23:44:27+01:00*%
%TF.ProjectId,myAntWeightBot,6d79416e-7457-4656-9967-6874426f742e,rev?*%
%TF.SameCoordinates,Original*%
%TF.FileFunction,Copper,L3,Inr*%
%TF.FilePolarity,Positive*%
%FSLAX46Y46*%
G04 Gerber Fmt 4.6, Leading zero omitted, Abs format (unit mm)*
G04 Created by KiCad (PCBNEW 8.0.8) date 2025-01-18 23:44:27*
%MOMM*%
%LPD*%
G01*
G04 APERTURE LIST*
%TA.AperFunction,ComponentPad*%
%ADD10C,1.500000*%
%TD*%
%TA.AperFunction,ComponentPad*%
%ADD11R,1.700000X1.700000*%
%TD*%
%TA.AperFunction,ComponentPad*%
%ADD12O,1.700000X1.700000*%
%TD*%
%TA.AperFunction,ComponentPad*%
%ADD13R,1.800000X1.800000*%
%TD*%
%TA.AperFunction,ComponentPad*%
%ADD14C,1.800000*%
%TD*%
%TA.AperFunction,ComponentPad*%
%ADD15R,6.000000X5.000000*%
%TD*%
%TA.AperFunction,ComponentPad*%
%ADD16R,1.050000X1.500000*%
%TD*%
%TA.AperFunction,ComponentPad*%
%ADD17O,1.050000X1.500000*%
%TD*%
%TA.AperFunction,ViaPad*%
%ADD18C,0.600000*%
%TD*%
G04 APERTURE END LIST*
D10*
%TO.N,Net-(JP10-B)*%
%TO.C,TP5*%
X123825000Y-72644000D03*
%TD*%
%TO.N,Net-(U3-A7)*%
%TO.C,TP2*%
X121285000Y-72644000D03*
%TD*%
D11*
%TO.N,Net-(J12-Pin_1)*%
%TO.C,J12*%
X133350000Y-72390000D03*
D12*
%TO.N,Net-(J12-Pin_2)*%
X135890000Y-72390000D03*
%TO.N,GND*%
X138430000Y-72390000D03*
%TD*%
D13*
%TO.N,Net-(D1-K)*%
%TO.C,D1*%
X114475000Y-72660000D03*
D14*
%TO.N,+5V*%
X117015000Y-72660000D03*
%TD*%
D11*
%TO.N,Net-(J3-Pin_1)*%
%TO.C,J3*%
X105500000Y-74000000D03*
D12*
%TO.N,Net-(J3-Pin_2)*%
X105500000Y-71460000D03*
%TD*%
D15*
%TO.N,+BATT*%
%TO.C,J1*%
X81500000Y-48400000D03*
%TO.N,Net-(J1-Pin_2)*%
X81500000Y-55600000D03*
%TD*%
D10*
%TO.N,Net-(U3-A8)*%
%TO.C,TP3*%
X121285000Y-70104000D03*
%TD*%
D16*
%TO.N,Net-(Q2-D)*%
%TO.C,Q2*%
X97430000Y-49411000D03*
D17*
%TO.N,Net-(Q1-D)*%
X98700000Y-49411000D03*
%TO.N,+BATT*%
X99970000Y-49411000D03*
%TD*%
D16*
%TO.N,GND*%
%TO.C,Q1*%
X90170000Y-49411000D03*
D17*
%TO.N,Net-(JP14-A)*%
X91440000Y-49411000D03*
%TO.N,Net-(Q1-D)*%
X92710000Y-49411000D03*
%TD*%
D11*
%TO.N,Net-(J11-Pin_1)*%
%TO.C,J11*%
X133335000Y-74930000D03*
D12*
%TO.N,Net-(J11-Pin_2)*%
X135875000Y-74930000D03*
%TO.N,GND*%
X138415000Y-74930000D03*
%TD*%
D11*
%TO.N,Net-(J6-Pin_1)*%
%TO.C,J6*%
X146050000Y-69850000D03*
D12*
%TO.N,Net-(J6-Pin_2)*%
X148590000Y-69850000D03*
%TO.N,GND*%
X151130000Y-69850000D03*
%TD*%
D11*
%TO.N,Net-(J9-Pin_1)*%
%TO.C,J9*%
X133335000Y-67310000D03*
D12*
%TO.N,Net-(J9-Pin_2)*%
X135875000Y-67310000D03*
%TO.N,GND*%
X138415000Y-67310000D03*
%TD*%
D10*
%TO.N,Net-(JP9-B)*%
%TO.C,TP4*%
X123825000Y-75184000D03*
%TD*%
D11*
%TO.N,Net-(J7-Pin_1)*%
%TO.C,J7*%
X146050000Y-72390000D03*
D12*
%TO.N,Net-(J7-Pin_2)*%
X148590000Y-72390000D03*
%TO.N,GND*%
X151130000Y-72390000D03*
%TD*%
D11*
%TO.N,Net-(J5-Pin_1)*%
%TO.C,J5*%
X146050000Y-67310000D03*
D12*
%TO.N,Net-(J5-Pin_2)*%
X148590000Y-67310000D03*
%TO.N,GND*%
X151130000Y-67310000D03*
%TD*%
D10*
%TO.N,Net-(JP11-B)*%
%TO.C,TP6*%
X123825000Y-70104000D03*
%TD*%
D15*
%TO.N,Net-(J1-Pin_2)*%
%TO.C,J2*%
X99500000Y-65400000D03*
%TO.N,GND*%
X99500000Y-72600000D03*
%TD*%
D10*
%TO.N,Net-(U3-A6)*%
%TO.C,TP1*%
X121285000Y-75184000D03*
%TD*%
D11*
%TO.N,Net-(J13-Pin_1)*%
%TO.C,J13*%
X133350000Y-69850000D03*
D12*
%TO.N,Net-(J13-Pin_2)*%
X135890000Y-69850000D03*
%TO.N,GND*%
X138430000Y-69850000D03*
%TD*%
D11*
%TO.N,Net-(J8-Pin_1)*%
%TO.C,J8*%
X146050000Y-74930000D03*
D12*
%TO.N,Net-(J8-Pin_2)*%
X148590000Y-74930000D03*
%TO.N,GND*%
X151130000Y-74930000D03*
%TD*%
D11*
%TO.N,Net-(J4-Pin_1)*%
%TO.C,J4*%
X109250000Y-74000000D03*
D12*
%TO.N,Net-(J4-Pin_2)*%
X109250000Y-71460000D03*
%TD*%
D15*
%TO.N,+BATT*%
%TO.C,J10*%
X150500000Y-48400000D03*
%TO.N,GND*%
X150500000Y-55600000D03*
%TD*%
D18*
%TO.N,GND*%
X138400000Y-66000000D03*
%TO.N,Net-(JP14-B)*%
X118200000Y-46300000D03*
%TO.N,+3.3V*%
X126873000Y-72390000D03*
X133205500Y-58412500D03*
X108100000Y-52700000D03*
X126873000Y-69850000D03*
X126873000Y-74930000D03*
X108100000Y-52100000D03*
X129900000Y-53400000D03*
X143313000Y-56500000D03*
%TO.N,GND*%
X118110000Y-76200000D03*
X113030000Y-52070000D03*
X96520000Y-55880000D03*
X119239025Y-69128163D03*
X118401818Y-59169906D03*
X125730000Y-50165000D03*
X144780000Y-76200000D03*
X97790000Y-76200000D03*
X125730000Y-47625000D03*
X131900000Y-53500000D03*
X130810000Y-76200000D03*
X107950000Y-76200000D03*
X119294181Y-71404723D03*
X118110000Y-54610000D03*
X149085413Y-62239254D03*
X146050000Y-62230000D03*
X93980000Y-58420000D03*
X97790000Y-69088000D03*
X110490000Y-76200000D03*
X102870000Y-54610000D03*
X139700000Y-76200000D03*
X152400000Y-62230000D03*
X142240000Y-76200000D03*
X99060000Y-53340000D03*
X79502000Y-45085000D03*
X97282000Y-62103000D03*
X137800000Y-48209200D03*
X152400000Y-76200000D03*
X111905293Y-67019874D03*
X88900000Y-53340000D03*
X129540000Y-47625000D03*
X102870000Y-49530000D03*
X108157298Y-60315127D03*
X108331000Y-48895000D03*
X113030000Y-76200000D03*
X125095000Y-76200000D03*
X128400000Y-54900000D03*
X120910491Y-44773558D03*
X120098854Y-47269685D03*
X132907621Y-45085000D03*
X79502000Y-59309000D03*
X93980000Y-53340000D03*
X105410000Y-76200000D03*
X91440000Y-55880000D03*
X88900000Y-48260000D03*
X118110000Y-52070000D03*
X90297000Y-45720000D03*
X99060000Y-58420000D03*
X131300000Y-53500000D03*
X116486176Y-62189125D03*
X120015000Y-76200000D03*
X132500000Y-53500000D03*
X135219000Y-63373000D03*
X139446000Y-54610000D03*
X125730000Y-45085000D03*
X102870000Y-52070000D03*
X86360000Y-45720000D03*
X102870000Y-69088000D03*
X86360000Y-50800000D03*
X127635000Y-46355000D03*
X101473000Y-62103000D03*
X79502000Y-52070000D03*
X113030000Y-54610000D03*
X88900000Y-58420000D03*
X109948007Y-68956338D03*
X127635000Y-48260000D03*
X102870000Y-76200000D03*
X128270000Y-76200000D03*
X102870000Y-46990000D03*
X113716824Y-62209947D03*
X110243218Y-46323689D03*
X86360000Y-55880000D03*
X129540000Y-45085000D03*
X100330000Y-76200000D03*
X115570000Y-76200000D03*
X128800000Y-54500000D03*
X115570000Y-46990000D03*
X135534400Y-54559200D03*
%TO.N,+BATT*%
X126873000Y-67310000D03*
X139954000Y-67310000D03*
X141875259Y-61064981D03*
X139954000Y-72390000D03*
X139924000Y-69850000D03*
X139954000Y-74930000D03*
%TO.N,+5V*%
X144414620Y-69835380D03*
X144400000Y-67310000D03*
X131699000Y-66929000D03*
X143920000Y-54980000D03*
X143920000Y-54400000D03*
X109728000Y-51000000D03*
X144414620Y-72375380D03*
X109728000Y-50400000D03*
X131691500Y-74414500D03*
X143313000Y-62100000D03*
X131699000Y-69342000D03*
X131699000Y-71882000D03*
X144400000Y-74930000D03*
%TO.N,Net-(J3-Pin_2)*%
X134239000Y-54505600D03*
%TO.N,Net-(J3-Pin_1)*%
X136804400Y-55016400D03*
%TO.N,Net-(J4-Pin_1)*%
X140750000Y-55000000D03*
%TO.N,Net-(J4-Pin_2)*%
X138176000Y-54991000D03*
%TO.N,Net-(U3-A6)*%
X137800000Y-58674000D03*
%TO.N,Net-(U3-A7)*%
X137149999Y-59140371D03*
%TO.N,Net-(U3-A8)*%
X136500000Y-58674000D03*
%TO.N,Net-(U1-IO13)*%
X125924357Y-51400757D03*
X134550000Y-48209200D03*
%TO.N,Net-(U1-IO10)*%
X120000000Y-58994000D03*
X137239291Y-49484942D03*
%TO.N,Net-(U1-IO8)*%
X139100000Y-49793353D03*
X117924961Y-61297439D03*
%TO.N,Net-(U1-IO11)*%
X120000000Y-56454000D03*
X135890000Y-49174400D03*
%TO.N,Net-(U1-IO7)*%
X139750800Y-50393600D03*
X118004951Y-62484000D03*
%TO.N,Net-(U1-IO12)*%
X135200000Y-48697102D03*
X120000000Y-53914000D03*
%TO.N,Net-(U1-IO9)*%
X138450000Y-49228826D03*
X119009199Y-60543199D03*
%TO.N,Net-(JP12-C)*%
X140716000Y-46990000D03*
X133900000Y-46990000D03*
%TD*%
%TA.AperFunction,Conductor*%
%TO.N,+5V*%
G36*
X144643039Y-52019685D02*
G01*
X144688794Y-52072489D01*
X144700000Y-52124000D01*
X144700000Y-66400826D01*
X144699572Y-66408798D01*
X144699678Y-66408804D01*
X144699500Y-66412128D01*
X144699500Y-68207863D01*
X144699679Y-68211180D01*
X144699572Y-68211185D01*
X144700000Y-68219156D01*
X144700000Y-68940826D01*
X144699572Y-68948798D01*
X144699678Y-68948804D01*
X144699500Y-68952128D01*
X144699500Y-70747863D01*
X144699679Y-70751180D01*
X144699572Y-70751185D01*
X144700000Y-70759156D01*
X144700000Y-71480826D01*
X144699572Y-71488798D01*
X144699678Y-71488804D01*
X144699500Y-71492128D01*
X144699500Y-73287863D01*
X144699679Y-73291180D01*
X144699572Y-73291185D01*
X144700000Y-73299156D01*
X144700000Y-74020826D01*
X144699572Y-74028798D01*
X144699678Y-74028804D01*
X144699500Y-74032128D01*
X144699500Y-75293205D01*
X144679815Y-75360244D01*
X144627011Y-75405999D01*
X144603099Y-75414095D01*
X144600746Y-75414631D01*
X144600745Y-75414632D01*
X144556610Y-75430075D01*
X144430478Y-75474210D01*
X144277737Y-75570184D01*
X144150184Y-75697737D01*
X144054211Y-75850476D01*
X143994631Y-76020745D01*
X143994630Y-76020750D01*
X143974435Y-76199996D01*
X143974435Y-76200003D01*
X143992644Y-76361617D01*
X143980589Y-76430439D01*
X143933240Y-76481818D01*
X143869424Y-76499500D01*
X143150576Y-76499500D01*
X143083537Y-76479815D01*
X143037782Y-76427011D01*
X143027356Y-76361617D01*
X143045565Y-76200003D01*
X143045565Y-76199996D01*
X143025369Y-76020750D01*
X143025368Y-76020745D01*
X142989271Y-75917587D01*
X142965789Y-75850478D01*
X142950863Y-75826724D01*
X142869815Y-75697737D01*
X142792636Y-75620558D01*
X142759151Y-75559235D01*
X142764135Y-75489543D01*
X142764137Y-75489538D01*
X142765332Y-75486331D01*
X142765338Y-75486320D01*
X142785023Y-75419281D01*
X142785024Y-75419277D01*
X142805500Y-75276861D01*
X142805500Y-57345272D01*
X142825185Y-57278233D01*
X142877989Y-57232478D01*
X142947147Y-57222534D01*
X142970455Y-57228231D01*
X143133737Y-57285366D01*
X143133743Y-57285367D01*
X143133745Y-57285368D01*
X143133746Y-57285368D01*
X143133750Y-57285369D01*
X143312996Y-57305565D01*
X143313000Y-57305565D01*
X143313004Y-57305565D01*
X143492249Y-57285369D01*
X143492252Y-57285368D01*
X143492255Y-57285368D01*
X143662522Y-57225789D01*
X143815262Y-57129816D01*
X143942816Y-57002262D01*
X144038789Y-56849522D01*
X144098368Y-56679255D01*
X144118565Y-56500000D01*
X144098368Y-56320745D01*
X144038789Y-56150478D01*
X143942816Y-55997738D01*
X143815262Y-55870184D01*
X143662523Y-55774211D01*
X143492254Y-55714631D01*
X143492249Y-55714630D01*
X143313004Y-55694435D01*
X143312996Y-55694435D01*
X143133750Y-55714630D01*
X143133742Y-55714632D01*
X142970454Y-55771769D01*
X142900675Y-55775330D01*
X142840048Y-55740601D01*
X142807821Y-55678608D01*
X142805500Y-55654727D01*
X142805500Y-52124000D01*
X142825185Y-52056961D01*
X142877989Y-52011206D01*
X142929500Y-52000000D01*
X144576000Y-52000000D01*
X144643039Y-52019685D01*
G37*
%TD.AperFunction*%
%TD*%
%TA.AperFunction,Conductor*%
%TO.N,+5V*%
G36*
X134372703Y-63419685D02*
G01*
X134418458Y-63472489D01*
X134428884Y-63510118D01*
X134433630Y-63552246D01*
X134433631Y-63552252D01*
X134493210Y-63722521D01*
X134493211Y-63722522D01*
X134589184Y-63875262D01*
X134716738Y-64002816D01*
X134869478Y-64098789D01*
X135039745Y-64158368D01*
X135039750Y-64158369D01*
X135218996Y-64178565D01*
X135219000Y-64178565D01*
X135219004Y-64178565D01*
X135398249Y-64158369D01*
X135398252Y-64158368D01*
X135398255Y-64158368D01*
X135568522Y-64098789D01*
X135721262Y-64002816D01*
X135848816Y-63875262D01*
X135944789Y-63722522D01*
X136004368Y-63552255D01*
X136009116Y-63510118D01*
X136036182Y-63445703D01*
X136093776Y-63406148D01*
X136132336Y-63400000D01*
X139170500Y-63400000D01*
X139237539Y-63419685D01*
X139283294Y-63472489D01*
X139294500Y-63524000D01*
X139294500Y-65488566D01*
X139274815Y-65555605D01*
X139222011Y-65601360D01*
X139152853Y-65611304D01*
X139089297Y-65582279D01*
X139065507Y-65554539D01*
X139029817Y-65497739D01*
X138902262Y-65370184D01*
X138749523Y-65274211D01*
X138579254Y-65214631D01*
X138579249Y-65214630D01*
X138400004Y-65194435D01*
X138399996Y-65194435D01*
X138220750Y-65214630D01*
X138220745Y-65214631D01*
X138050476Y-65274211D01*
X137897737Y-65370184D01*
X137770184Y-65497737D01*
X137674210Y-65650478D01*
X137650950Y-65716954D01*
X137610228Y-65773730D01*
X137545276Y-65799478D01*
X137533908Y-65800000D01*
X109124000Y-65800000D01*
X109056961Y-65780315D01*
X109011206Y-65727511D01*
X109000000Y-65676000D01*
X109000000Y-63400000D01*
X111400000Y-63400000D01*
X134305664Y-63400000D01*
X134372703Y-63419685D01*
G37*
%TD.AperFunction*%
%TD*%
%TA.AperFunction,Conductor*%
%TO.N,+BATT*%
G36*
X142300000Y-52000000D02*
G01*
X142300000Y-75276861D01*
X142280315Y-75343900D01*
X142227511Y-75389655D01*
X142189884Y-75400081D01*
X142060749Y-75414630D01*
X142060745Y-75414631D01*
X141890476Y-75474211D01*
X141737737Y-75570184D01*
X141610184Y-75697737D01*
X141514211Y-75850476D01*
X141454631Y-76020745D01*
X141454630Y-76020750D01*
X141434435Y-76199996D01*
X141434435Y-76200003D01*
X141452644Y-76361617D01*
X141440589Y-76430439D01*
X141393240Y-76481818D01*
X141329424Y-76499500D01*
X140610576Y-76499500D01*
X140543537Y-76479815D01*
X140497782Y-76427011D01*
X140487356Y-76361617D01*
X140505565Y-76200003D01*
X140505565Y-76199996D01*
X140485369Y-76020750D01*
X140485368Y-76020745D01*
X140425788Y-75850476D01*
X140329815Y-75697737D01*
X140202262Y-75570184D01*
X140049521Y-75474210D01*
X139953049Y-75440453D01*
X139883044Y-75415958D01*
X139826270Y-75375237D01*
X139800522Y-75310285D01*
X139800000Y-75298917D01*
X139800000Y-55423106D01*
X139819685Y-55356067D01*
X139872489Y-55310312D01*
X139941647Y-55300368D01*
X140005203Y-55329393D01*
X140028993Y-55357133D01*
X140120184Y-55502262D01*
X140247738Y-55629816D01*
X140400478Y-55725789D01*
X140570745Y-55785368D01*
X140570750Y-55785369D01*
X140749996Y-55805565D01*
X140750000Y-55805565D01*
X140750004Y-55805565D01*
X140929249Y-55785369D01*
X140929252Y-55785368D01*
X140929255Y-55785368D01*
X141099522Y-55725789D01*
X141252262Y-55629816D01*
X141379816Y-55502262D01*
X141475789Y-55349522D01*
X141535368Y-55179255D01*
X141535369Y-55179249D01*
X141555565Y-55000003D01*
X141555565Y-54999996D01*
X141535369Y-54820750D01*
X141535368Y-54820745D01*
X141475788Y-54650476D01*
X141379815Y-54497737D01*
X141252262Y-54370184D01*
X141099523Y-54274211D01*
X140929254Y-54214631D01*
X140929249Y-54214630D01*
X140750004Y-54194435D01*
X140749996Y-54194435D01*
X140570750Y-54214630D01*
X140570745Y-54214631D01*
X140400476Y-54274211D01*
X140347479Y-54307512D01*
X140280242Y-54326512D01*
X140213407Y-54306144D01*
X140177491Y-54265119D01*
X140175494Y-54266374D01*
X140075815Y-54107737D01*
X139948260Y-53980182D01*
X139948258Y-53980181D01*
X139858027Y-53923484D01*
X139811737Y-53871150D01*
X139800000Y-53818491D01*
X139800000Y-52000000D01*
X139800000Y-51700000D01*
X142300000Y-51700000D01*
X142300000Y-52000000D01*
G37*
%TD.AperFunction*%
%TD*%
%TA.AperFunction,Conductor*%
%TO.N,+BATT*%
G36*
X88000000Y-52000000D02*
G01*
X80410492Y-52000000D01*
X80343453Y-51980315D01*
X80297698Y-51927511D01*
X80289362Y-51897430D01*
X80288917Y-51897532D01*
X80287368Y-51890745D01*
X80227788Y-51720476D01*
X80142894Y-51585369D01*
X80131816Y-51567738D01*
X80004262Y-51440184D01*
X80003500Y-51439705D01*
X79851523Y-51344211D01*
X79681254Y-51284631D01*
X79681249Y-51284630D01*
X79502004Y-51264435D01*
X79501996Y-51264435D01*
X79322750Y-51284630D01*
X79322745Y-51284631D01*
X79165455Y-51339670D01*
X79095676Y-51343231D01*
X79035048Y-51308502D01*
X79002821Y-51246509D01*
X79000500Y-51222628D01*
X79000500Y-50799996D01*
X85554435Y-50799996D01*
X85554435Y-50800003D01*
X85574630Y-50979249D01*
X85574631Y-50979254D01*
X85634211Y-51149523D01*
X85695152Y-51246509D01*
X85730184Y-51302262D01*
X85857738Y-51429816D01*
X86010478Y-51525789D01*
X86180745Y-51585368D01*
X86180750Y-51585369D01*
X86359996Y-51605565D01*
X86360000Y-51605565D01*
X86360004Y-51605565D01*
X86539249Y-51585369D01*
X86539252Y-51585368D01*
X86539255Y-51585368D01*
X86709522Y-51525789D01*
X86862262Y-51429816D01*
X86989816Y-51302262D01*
X87085789Y-51149522D01*
X87145368Y-50979255D01*
X87165565Y-50800000D01*
X87145368Y-50620745D01*
X87085789Y-50450478D01*
X86989816Y-50297738D01*
X86862262Y-50170184D01*
X86709523Y-50074211D01*
X86539254Y-50014631D01*
X86539249Y-50014630D01*
X86360004Y-49994435D01*
X86359996Y-49994435D01*
X86180750Y-50014630D01*
X86180745Y-50014631D01*
X86010476Y-50074211D01*
X85857737Y-50170184D01*
X85730184Y-50297737D01*
X85634211Y-50450476D01*
X85574631Y-50620745D01*
X85574630Y-50620750D01*
X85554435Y-50799996D01*
X79000500Y-50799996D01*
X79000500Y-45932371D01*
X79020185Y-45865332D01*
X79072989Y-45819577D01*
X79142147Y-45809633D01*
X79165455Y-45815330D01*
X79322737Y-45870366D01*
X79322743Y-45870367D01*
X79322745Y-45870368D01*
X79322746Y-45870368D01*
X79322750Y-45870369D01*
X79501996Y-45890565D01*
X79502000Y-45890565D01*
X79502004Y-45890565D01*
X79681249Y-45870369D01*
X79681252Y-45870368D01*
X79681255Y-45870368D01*
X79851522Y-45810789D01*
X79996018Y-45719996D01*
X85554435Y-45719996D01*
X85554435Y-45720003D01*
X85574630Y-45899249D01*
X85574631Y-45899254D01*
X85634211Y-46069523D01*
X85730184Y-46222262D01*
X85857738Y-46349816D01*
X86010478Y-46445789D01*
X86180745Y-46505368D01*
X86180750Y-46505369D01*
X86359996Y-46525565D01*
X86360000Y-46525565D01*
X86360004Y-46525565D01*
X86539249Y-46505369D01*
X86539252Y-46505368D01*
X86539255Y-46505368D01*
X86709522Y-46445789D01*
X86862262Y-46349816D01*
X86989816Y-46222262D01*
X87085789Y-46069522D01*
X87145368Y-45899255D01*
X87149190Y-45865332D01*
X87165565Y-45720003D01*
X87165565Y-45719996D01*
X87145369Y-45540750D01*
X87145368Y-45540745D01*
X87085788Y-45370476D01*
X87046582Y-45308080D01*
X86989816Y-45217738D01*
X86862262Y-45090184D01*
X86709523Y-44994211D01*
X86539254Y-44934631D01*
X86539249Y-44934630D01*
X86360004Y-44914435D01*
X86359996Y-44914435D01*
X86180750Y-44934630D01*
X86180745Y-44934631D01*
X86010476Y-44994211D01*
X85857737Y-45090184D01*
X85730184Y-45217737D01*
X85634211Y-45370476D01*
X85574631Y-45540745D01*
X85574630Y-45540750D01*
X85554435Y-45719996D01*
X79996018Y-45719996D01*
X80004262Y-45714816D01*
X80131816Y-45587262D01*
X80227789Y-45434522D01*
X80287368Y-45264255D01*
X80292609Y-45217738D01*
X80307565Y-45085003D01*
X80307565Y-45084996D01*
X80287369Y-44905750D01*
X80287368Y-44905745D01*
X80227788Y-44735476D01*
X80199510Y-44690472D01*
X80180510Y-44623235D01*
X80200878Y-44556400D01*
X80254145Y-44511186D01*
X80304504Y-44500500D01*
X88000000Y-44500500D01*
X88000000Y-52000000D01*
G37*
%TD.AperFunction*%
%TD*%
%TA.AperFunction,Conductor*%
%TO.N,+5V*%
G36*
X111343039Y-49819685D02*
G01*
X111388794Y-49872489D01*
X111400000Y-49924000D01*
X111400000Y-63700000D01*
X109000000Y-63700000D01*
X109000000Y-49924000D01*
X109019685Y-49856961D01*
X109072489Y-49811206D01*
X109124000Y-49800000D01*
X111276000Y-49800000D01*
X111343039Y-49819685D01*
G37*
%TD.AperFunction*%
%TD*%
%TA.AperFunction,Conductor*%
%TO.N,+5V*%
G36*
X132000000Y-65800000D02*
G01*
X132000000Y-66305771D01*
X131992182Y-66349103D01*
X131990909Y-66352515D01*
X131990908Y-66352517D01*
X131984501Y-66412116D01*
X131984500Y-66412135D01*
X131984500Y-68207870D01*
X131984501Y-68207876D01*
X131990908Y-68267483D01*
X131992181Y-68270894D01*
X132000000Y-68314229D01*
X132000000Y-68940826D01*
X131999572Y-68948798D01*
X131999678Y-68948804D01*
X131999500Y-68952128D01*
X131999500Y-70747863D01*
X131999679Y-70751180D01*
X131999572Y-70751185D01*
X132000000Y-70759156D01*
X132000000Y-71480826D01*
X131999572Y-71488798D01*
X131999678Y-71488804D01*
X131999500Y-71492128D01*
X131999500Y-73287863D01*
X131999679Y-73291180D01*
X131999572Y-73291185D01*
X132000000Y-73299156D01*
X132000000Y-73925771D01*
X131992182Y-73969103D01*
X131990909Y-73972515D01*
X131990908Y-73972517D01*
X131984501Y-74032116D01*
X131984500Y-74032135D01*
X131984500Y-75827870D01*
X131984501Y-75827876D01*
X131990908Y-75887483D01*
X131992181Y-75890894D01*
X132000000Y-75934229D01*
X132000000Y-76375500D01*
X131980315Y-76442539D01*
X131927511Y-76488294D01*
X131876000Y-76499500D01*
X131720576Y-76499500D01*
X131653537Y-76479815D01*
X131607782Y-76427011D01*
X131597356Y-76361617D01*
X131615565Y-76200003D01*
X131615565Y-76199996D01*
X131595369Y-76020750D01*
X131595368Y-76020745D01*
X131549931Y-75890894D01*
X131535789Y-75850478D01*
X131521583Y-75827870D01*
X131439815Y-75697737D01*
X131312262Y-75570184D01*
X131159523Y-75474211D01*
X130989254Y-75414631D01*
X130989249Y-75414630D01*
X130810004Y-75394435D01*
X130809996Y-75394435D01*
X130630750Y-75414630D01*
X130630745Y-75414631D01*
X130460476Y-75474211D01*
X130307737Y-75570184D01*
X130180184Y-75697737D01*
X130084211Y-75850476D01*
X130024631Y-76020745D01*
X130024630Y-76020750D01*
X130004435Y-76199996D01*
X130004435Y-76200003D01*
X130022644Y-76361617D01*
X130010589Y-76430439D01*
X129963240Y-76481818D01*
X129899424Y-76499500D01*
X129724000Y-76499500D01*
X129656961Y-76479815D01*
X129611206Y-76427011D01*
X129600000Y-76375500D01*
X129600000Y-65800000D01*
X129600000Y-63400000D01*
X132000000Y-63400000D01*
X132000000Y-65800000D01*
G37*
%TD.AperFunction*%
%TD*%
%TA.AperFunction,Conductor*%
%TO.N,+BATT*%
G36*
X152942539Y-44520185D02*
G01*
X152988294Y-44572989D01*
X152999500Y-44624500D01*
X152999500Y-51876000D01*
X152979815Y-51943039D01*
X152927011Y-51988794D01*
X152875500Y-52000000D01*
X145283796Y-52000000D01*
X145216757Y-51980315D01*
X145171002Y-51927511D01*
X145166142Y-51915159D01*
X145148616Y-51862502D01*
X145148613Y-51862496D01*
X145070828Y-51741462D01*
X145070825Y-51741457D01*
X145070820Y-51741451D01*
X145025076Y-51688659D01*
X145025072Y-51688656D01*
X145025070Y-51688653D01*
X144916336Y-51594433D01*
X144916333Y-51594431D01*
X144916331Y-51594430D01*
X144785465Y-51534664D01*
X144785460Y-51534662D01*
X144785459Y-51534662D01*
X144718420Y-51514977D01*
X144718422Y-51514977D01*
X144718417Y-51514976D01*
X144656354Y-51506053D01*
X144576000Y-51494500D01*
X144500000Y-51494500D01*
X144500000Y-44500500D01*
X152875500Y-44500500D01*
X152942539Y-44520185D01*
G37*
%TD.AperFunction*%
%TD*%
%TA.AperFunction,Conductor*%
%TO.N,+BATT*%
G36*
X120063975Y-44520185D02*
G01*
X120109730Y-44572989D01*
X120120156Y-44638383D01*
X120104926Y-44773554D01*
X120104926Y-44773561D01*
X120125121Y-44952807D01*
X120125122Y-44952812D01*
X120184702Y-45123081D01*
X120273404Y-45264249D01*
X120280675Y-45275820D01*
X120408229Y-45403374D01*
X120498571Y-45460140D01*
X120553151Y-45494435D01*
X120560969Y-45499347D01*
X120679278Y-45540745D01*
X120731236Y-45558926D01*
X120731241Y-45558927D01*
X120910487Y-45579123D01*
X120910491Y-45579123D01*
X120910495Y-45579123D01*
X121089740Y-45558927D01*
X121089743Y-45558926D01*
X121089746Y-45558926D01*
X121260013Y-45499347D01*
X121412753Y-45403374D01*
X121540307Y-45275820D01*
X121636280Y-45123080D01*
X121695859Y-44952813D01*
X121695860Y-44952807D01*
X121716056Y-44773561D01*
X121716056Y-44773554D01*
X121700826Y-44638383D01*
X121712880Y-44569562D01*
X121760230Y-44518182D01*
X121824046Y-44500500D01*
X124927496Y-44500500D01*
X124994535Y-44520185D01*
X125040290Y-44572989D01*
X125050234Y-44642147D01*
X125032490Y-44690472D01*
X125004211Y-44735476D01*
X124944631Y-44905745D01*
X124944630Y-44905750D01*
X124924435Y-45084996D01*
X124924435Y-45085003D01*
X124944630Y-45264249D01*
X124944631Y-45264254D01*
X125004211Y-45434523D01*
X125095070Y-45579123D01*
X125100184Y-45587262D01*
X125227738Y-45714816D01*
X125380478Y-45810789D01*
X125550745Y-45870368D01*
X125550750Y-45870369D01*
X125729996Y-45890565D01*
X125730000Y-45890565D01*
X125730004Y-45890565D01*
X125909249Y-45870369D01*
X125909252Y-45870368D01*
X125909255Y-45870368D01*
X126079522Y-45810789D01*
X126232262Y-45714816D01*
X126359816Y-45587262D01*
X126455789Y-45434522D01*
X126515368Y-45264255D01*
X126520609Y-45217738D01*
X126535565Y-45085003D01*
X126535565Y-45084996D01*
X126515369Y-44905750D01*
X126515368Y-44905745D01*
X126455788Y-44735476D01*
X126427510Y-44690472D01*
X126408510Y-44623235D01*
X126428878Y-44556400D01*
X126482145Y-44511186D01*
X126532504Y-44500500D01*
X128737496Y-44500500D01*
X128804535Y-44520185D01*
X128850290Y-44572989D01*
X128860234Y-44642147D01*
X128842490Y-44690472D01*
X128814211Y-44735476D01*
X128754631Y-44905745D01*
X128754630Y-44905750D01*
X128734435Y-45084996D01*
X128734435Y-45085003D01*
X128754630Y-45264249D01*
X128754631Y-45264254D01*
X128814211Y-45434523D01*
X128905070Y-45579123D01*
X128910184Y-45587262D01*
X129037738Y-45714816D01*
X129190478Y-45810789D01*
X129360745Y-45870368D01*
X129360750Y-45870369D01*
X129539996Y-45890565D01*
X129540000Y-45890565D01*
X129540004Y-45890565D01*
X129719249Y-45870369D01*
X129719252Y-45870368D01*
X129719255Y-45870368D01*
X129889522Y-45810789D01*
X130042262Y-45714816D01*
X130169816Y-45587262D01*
X130265789Y-45434522D01*
X130325368Y-45264255D01*
X130330609Y-45217738D01*
X130345565Y-45085003D01*
X130345565Y-45084996D01*
X130325369Y-44905750D01*
X130325368Y-44905745D01*
X130265788Y-44735476D01*
X130237510Y-44690472D01*
X130218510Y-44623235D01*
X130238878Y-44556400D01*
X130292145Y-44511186D01*
X130342504Y-44500500D01*
X132105117Y-44500500D01*
X132172156Y-44520185D01*
X132217911Y-44572989D01*
X132227855Y-44642147D01*
X132210111Y-44690472D01*
X132181832Y-44735476D01*
X132122252Y-44905745D01*
X132122251Y-44905750D01*
X132102056Y-45084996D01*
X132102056Y-45085003D01*
X132122251Y-45264249D01*
X132122252Y-45264254D01*
X132181832Y-45434523D01*
X132272691Y-45579123D01*
X132277805Y-45587262D01*
X132405359Y-45714816D01*
X132558099Y-45810789D01*
X132728366Y-45870368D01*
X132728371Y-45870369D01*
X132907617Y-45890565D01*
X132907621Y-45890565D01*
X132907625Y-45890565D01*
X133086870Y-45870369D01*
X133086873Y-45870368D01*
X133086876Y-45870368D01*
X133257143Y-45810789D01*
X133409883Y-45714816D01*
X133537437Y-45587262D01*
X133633410Y-45434522D01*
X133692989Y-45264255D01*
X133698230Y-45217738D01*
X133713186Y-45085003D01*
X133713186Y-45084996D01*
X133692990Y-44905750D01*
X133692989Y-44905745D01*
X133633409Y-44735476D01*
X133605131Y-44690472D01*
X133586131Y-44623235D01*
X133606499Y-44556400D01*
X133659766Y-44511186D01*
X133710125Y-44500500D01*
X144500000Y-44500500D01*
X144500000Y-51494500D01*
X142929500Y-51494500D01*
X142929491Y-51494500D01*
X142929490Y-51494501D01*
X142822049Y-51506052D01*
X142822037Y-51506054D01*
X142770527Y-51517260D01*
X142668002Y-51551383D01*
X142667996Y-51551386D01*
X142546962Y-51629171D01*
X142546951Y-51629179D01*
X142494159Y-51674923D01*
X142399933Y-51783664D01*
X142399930Y-51783668D01*
X142340162Y-51914539D01*
X142330247Y-51948304D01*
X142300000Y-51999281D01*
X142300000Y-51700000D01*
X139800000Y-51700000D01*
X139800000Y-52000000D01*
X126717597Y-52000000D01*
X126650558Y-51980315D01*
X126604803Y-51927511D01*
X126594859Y-51858353D01*
X126612604Y-51810027D01*
X126650145Y-51750281D01*
X126660574Y-51720478D01*
X126709725Y-51580012D01*
X126711108Y-51567737D01*
X126729922Y-51400760D01*
X126729922Y-51400753D01*
X126709726Y-51221507D01*
X126709725Y-51221502D01*
X126650145Y-51051233D01*
X126554172Y-50898494D01*
X126426617Y-50770939D01*
X126425348Y-50769927D01*
X126424743Y-50769065D01*
X126421695Y-50766017D01*
X126422229Y-50765482D01*
X126385211Y-50712736D01*
X126382366Y-50642924D01*
X126397673Y-50607013D01*
X126419136Y-50572855D01*
X126455789Y-50514522D01*
X126515368Y-50344255D01*
X126518623Y-50315368D01*
X126535565Y-50165003D01*
X126535565Y-50164996D01*
X126515369Y-49985750D01*
X126515368Y-49985745D01*
X126485430Y-49900188D01*
X126455789Y-49815478D01*
X126434489Y-49781580D01*
X126406479Y-49737002D01*
X126359816Y-49662738D01*
X126232262Y-49535184D01*
X126229152Y-49533230D01*
X126079523Y-49439211D01*
X125909254Y-49379631D01*
X125909249Y-49379630D01*
X125730004Y-49359435D01*
X125729996Y-49359435D01*
X125550750Y-49379630D01*
X125550745Y-49379631D01*
X125380476Y-49439211D01*
X125227737Y-49535184D01*
X125100184Y-49662737D01*
X125004211Y-49815476D01*
X124944631Y-49985745D01*
X124944630Y-49985750D01*
X124924435Y-50164996D01*
X124924435Y-50165003D01*
X124944630Y-50344249D01*
X124944631Y-50344254D01*
X125004211Y-50514523D01*
X125071801Y-50622091D01*
X125100184Y-50667262D01*
X125227738Y-50794816D01*
X125227745Y-50794820D01*
X125229001Y-50795822D01*
X125229606Y-50796684D01*
X125232662Y-50799740D01*
X125232126Y-50800275D01*
X125269142Y-50853010D01*
X125271994Y-50922821D01*
X125256684Y-50958743D01*
X125198568Y-51051233D01*
X125138988Y-51221502D01*
X125138987Y-51221507D01*
X125118792Y-51400753D01*
X125118792Y-51400760D01*
X125138987Y-51580006D01*
X125138988Y-51580011D01*
X125198568Y-51750281D01*
X125236110Y-51810027D01*
X125255111Y-51877264D01*
X125234744Y-51944099D01*
X125181476Y-51989314D01*
X125131117Y-52000000D01*
X119018492Y-52000000D01*
X118951453Y-51980315D01*
X118905698Y-51927511D01*
X118897362Y-51897430D01*
X118896917Y-51897532D01*
X118895368Y-51890745D01*
X118890651Y-51877264D01*
X118835789Y-51720478D01*
X118739816Y-51567738D01*
X118612262Y-51440184D01*
X118552244Y-51402472D01*
X118459523Y-51344211D01*
X118289254Y-51284631D01*
X118289249Y-51284630D01*
X118110004Y-51264435D01*
X118109996Y-51264435D01*
X117930750Y-51284630D01*
X117930745Y-51284631D01*
X117760476Y-51344211D01*
X117607737Y-51440184D01*
X117480184Y-51567737D01*
X117384211Y-51720476D01*
X117324631Y-51890745D01*
X117323083Y-51897532D01*
X117321653Y-51897205D01*
X117297656Y-51954304D01*
X117240058Y-51993855D01*
X117201508Y-52000000D01*
X113938492Y-52000000D01*
X113871453Y-51980315D01*
X113825698Y-51927511D01*
X113817362Y-51897430D01*
X113816917Y-51897532D01*
X113815368Y-51890745D01*
X113810651Y-51877264D01*
X113755789Y-51720478D01*
X113659816Y-51567738D01*
X113532262Y-51440184D01*
X113472244Y-51402472D01*
X113379523Y-51344211D01*
X113209254Y-51284631D01*
X113209249Y-51284630D01*
X113030004Y-51264435D01*
X113029996Y-51264435D01*
X112850750Y-51284630D01*
X112850745Y-51284631D01*
X112680476Y-51344211D01*
X112527737Y-51440184D01*
X112400184Y-51567737D01*
X112304211Y-51720476D01*
X112244631Y-51890745D01*
X112243083Y-51897532D01*
X112241653Y-51897205D01*
X112217656Y-51954304D01*
X112160058Y-51993855D01*
X112121508Y-52000000D01*
X112029500Y-52000000D01*
X111962461Y-51980315D01*
X111916706Y-51927511D01*
X111905500Y-51876000D01*
X111905500Y-49924010D01*
X111905500Y-49924000D01*
X111893947Y-49816544D01*
X111882741Y-49765033D01*
X111879578Y-49755529D01*
X111848616Y-49662502D01*
X111848613Y-49662496D01*
X111821809Y-49620789D01*
X111770825Y-49541457D01*
X111770820Y-49541451D01*
X111725076Y-49488659D01*
X111725072Y-49488656D01*
X111725070Y-49488653D01*
X111616336Y-49394433D01*
X111616333Y-49394431D01*
X111616331Y-49394430D01*
X111485465Y-49334664D01*
X111485460Y-49334662D01*
X111485459Y-49334662D01*
X111418420Y-49314977D01*
X111418422Y-49314977D01*
X111418417Y-49314976D01*
X111355081Y-49305870D01*
X111276000Y-49294500D01*
X109214063Y-49294500D01*
X109147024Y-49274815D01*
X109101269Y-49222011D01*
X109091325Y-49152853D01*
X109097022Y-49129545D01*
X109116366Y-49074262D01*
X109116369Y-49074249D01*
X109136565Y-48895003D01*
X109136565Y-48894996D01*
X109116369Y-48715750D01*
X109116368Y-48715745D01*
X109110944Y-48700244D01*
X109056789Y-48545478D01*
X109056227Y-48544584D01*
X108995923Y-48448610D01*
X108960816Y-48392738D01*
X108833262Y-48265184D01*
X108825564Y-48260347D01*
X108680523Y-48169211D01*
X108510254Y-48109631D01*
X108510249Y-48109630D01*
X108331004Y-48089435D01*
X108330996Y-48089435D01*
X108151750Y-48109630D01*
X108151745Y-48109631D01*
X107981476Y-48169211D01*
X107828737Y-48265184D01*
X107701184Y-48392737D01*
X107605211Y-48545476D01*
X107545631Y-48715745D01*
X107545630Y-48715750D01*
X107525435Y-48894996D01*
X107525435Y-48895003D01*
X107545630Y-49074249D01*
X107545631Y-49074254D01*
X107605211Y-49244523D01*
X107677416Y-49359435D01*
X107701184Y-49397262D01*
X107828738Y-49524816D01*
X107919080Y-49581582D01*
X107961493Y-49608232D01*
X107981478Y-49620789D01*
X108104119Y-49663703D01*
X108151745Y-49680368D01*
X108151750Y-49680369D01*
X108330996Y-49700565D01*
X108331000Y-49700565D01*
X108331001Y-49700565D01*
X108341629Y-49699367D01*
X108370387Y-49696127D01*
X108439208Y-49708181D01*
X108490588Y-49755529D01*
X108508213Y-49823140D01*
X108507009Y-49836993D01*
X108494500Y-49923998D01*
X108494500Y-51215187D01*
X108474815Y-51282226D01*
X108422011Y-51327981D01*
X108352853Y-51337925D01*
X108329546Y-51332229D01*
X108279257Y-51314632D01*
X108279249Y-51314630D01*
X108100004Y-51294435D01*
X108099996Y-51294435D01*
X107920750Y-51314630D01*
X107920745Y-51314631D01*
X107750476Y-51374211D01*
X107597737Y-51470184D01*
X107470184Y-51597737D01*
X107374210Y-51750478D01*
X107336464Y-51858353D01*
X107322791Y-51897430D01*
X107315959Y-51916954D01*
X107275237Y-51973730D01*
X107210285Y-51999478D01*
X107198917Y-52000000D01*
X103778492Y-52000000D01*
X103711453Y-51980315D01*
X103665698Y-51927511D01*
X103657362Y-51897430D01*
X103656917Y-51897532D01*
X103655368Y-51890745D01*
X103650651Y-51877264D01*
X103595789Y-51720478D01*
X103499816Y-51567738D01*
X103372262Y-51440184D01*
X103312244Y-51402472D01*
X103219523Y-51344211D01*
X103049254Y-51284631D01*
X103049249Y-51284630D01*
X102870004Y-51264435D01*
X102869996Y-51264435D01*
X102690750Y-51284630D01*
X102690745Y-51284631D01*
X102520476Y-51344211D01*
X102367737Y-51440184D01*
X102240184Y-51567737D01*
X102144211Y-51720476D01*
X102084631Y-51890745D01*
X102083083Y-51897532D01*
X102081653Y-51897205D01*
X102057656Y-51954304D01*
X102000058Y-51993855D01*
X101961508Y-52000000D01*
X88000000Y-52000000D01*
X88000000Y-48259996D01*
X88094435Y-48259996D01*
X88094435Y-48260003D01*
X88114630Y-48439249D01*
X88114631Y-48439254D01*
X88174211Y-48609523D01*
X88244096Y-48720744D01*
X88270184Y-48762262D01*
X88397738Y-48889816D01*
X88550478Y-48985789D01*
X88693973Y-49036000D01*
X88720745Y-49045368D01*
X88720750Y-49045369D01*
X88899996Y-49065565D01*
X88900000Y-49065565D01*
X88900002Y-49065565D01*
X88940116Y-49061045D01*
X89006617Y-49053552D01*
X89075438Y-49065606D01*
X89126817Y-49112955D01*
X89144500Y-49176772D01*
X89144500Y-50208870D01*
X89144501Y-50208876D01*
X89150908Y-50268483D01*
X89201202Y-50403328D01*
X89201206Y-50403335D01*
X89287452Y-50518544D01*
X89287455Y-50518547D01*
X89402664Y-50604793D01*
X89402671Y-50604797D01*
X89537517Y-50655091D01*
X89537516Y-50655091D01*
X89544444Y-50655835D01*
X89597127Y-50661500D01*
X90742872Y-50661499D01*
X90802483Y-50655091D01*
X90937331Y-50604796D01*
X90938430Y-50603972D01*
X90939717Y-50603492D01*
X90945112Y-50600547D01*
X90945535Y-50601322D01*
X91003887Y-50579552D01*
X91060198Y-50588673D01*
X91140873Y-50622091D01*
X91299889Y-50653721D01*
X91338992Y-50661499D01*
X91338996Y-50661500D01*
X91338997Y-50661500D01*
X91541004Y-50661500D01*
X91541005Y-50661499D01*
X91739127Y-50622091D01*
X91925756Y-50544786D01*
X92006110Y-50491094D01*
X92072786Y-50470217D01*
X92140166Y-50488701D01*
X92143865Y-50491078D01*
X92224244Y-50544786D01*
X92224245Y-50544786D01*
X92224246Y-50544787D01*
X92264962Y-50561652D01*
X92410873Y-50622091D01*
X92569889Y-50653721D01*
X92608992Y-50661499D01*
X92608996Y-50661500D01*
X92608997Y-50661500D01*
X92811004Y-50661500D01*
X92811005Y-50661499D01*
X93009127Y-50622091D01*
X93195756Y-50544786D01*
X93196424Y-50544340D01*
X93363718Y-50432558D01*
X93506558Y-50289718D01*
X93618782Y-50121762D01*
X93618782Y-50121761D01*
X93618786Y-50121756D01*
X93696091Y-49935127D01*
X93735500Y-49737003D01*
X93735500Y-49084997D01*
X93696091Y-48886873D01*
X93618786Y-48700244D01*
X93618784Y-48700241D01*
X93618782Y-48700237D01*
X93560583Y-48613135D01*
X96404500Y-48613135D01*
X96404500Y-50208870D01*
X96404501Y-50208876D01*
X96410908Y-50268483D01*
X96461202Y-50403328D01*
X96461206Y-50403335D01*
X96547452Y-50518544D01*
X96547455Y-50518547D01*
X96662664Y-50604793D01*
X96662671Y-50604797D01*
X96797517Y-50655091D01*
X96797516Y-50655091D01*
X96804444Y-50655835D01*
X96857127Y-50661500D01*
X98002872Y-50661499D01*
X98062483Y-50655091D01*
X98197331Y-50604796D01*
X98198430Y-50603972D01*
X98199717Y-50603492D01*
X98205112Y-50600547D01*
X98205535Y-50601322D01*
X98263887Y-50579552D01*
X98320198Y-50588673D01*
X98400873Y-50622091D01*
X98559889Y-50653721D01*
X98598992Y-50661499D01*
X98598996Y-50661500D01*
X98598997Y-50661500D01*
X98801004Y-50661500D01*
X98801005Y-50661499D01*
X98999127Y-50622091D01*
X99185756Y-50544786D01*
X99266562Y-50490792D01*
X99333234Y-50469917D01*
X99400614Y-50488401D01*
X99404340Y-50490795D01*
X99484479Y-50544343D01*
X99484486Y-50544347D01*
X99671016Y-50621609D01*
X99671025Y-50621612D01*
X99720000Y-50631353D01*
X99720000Y-49776865D01*
X99722383Y-49752671D01*
X99725500Y-49737002D01*
X99725500Y-49696830D01*
X99739745Y-49711075D01*
X99825255Y-49760444D01*
X99920630Y-49786000D01*
X100019370Y-49786000D01*
X100114745Y-49760444D01*
X100200255Y-49711075D01*
X100220000Y-49691330D01*
X100220000Y-50631352D01*
X100268974Y-50621612D01*
X100268983Y-50621609D01*
X100455513Y-50544347D01*
X100455526Y-50544340D01*
X100623399Y-50432170D01*
X100623403Y-50432167D01*
X100766167Y-50289403D01*
X100766170Y-50289399D01*
X100878340Y-50121526D01*
X100878347Y-50121513D01*
X100955609Y-49934983D01*
X100955612Y-49934974D01*
X100994999Y-49736958D01*
X100995000Y-49736955D01*
X100995000Y-49661000D01*
X100250330Y-49661000D01*
X100270075Y-49641255D01*
X100319444Y-49555745D01*
X100326344Y-49529996D01*
X102064435Y-49529996D01*
X102064435Y-49530003D01*
X102084630Y-49709249D01*
X102084631Y-49709254D01*
X102144211Y-49879523D01*
X102211871Y-49987202D01*
X102240184Y-50032262D01*
X102367738Y-50159816D01*
X102520478Y-50255789D01*
X102634294Y-50295615D01*
X102690745Y-50315368D01*
X102690750Y-50315369D01*
X102869996Y-50335565D01*
X102870000Y-50335565D01*
X102870004Y-50335565D01*
X103049249Y-50315369D01*
X103049252Y-50315368D01*
X103049255Y-50315368D01*
X103219522Y-50255789D01*
X103372262Y-50159816D01*
X103499816Y-50032262D01*
X103595789Y-49879522D01*
X103655368Y-49709255D01*
X103658623Y-49680368D01*
X103675565Y-49530003D01*
X103675565Y-49529996D01*
X103655369Y-49350750D01*
X103655368Y-49350745D01*
X103642852Y-49314976D01*
X103595789Y-49180478D01*
X103593460Y-49176772D01*
X103535794Y-49084997D01*
X103499816Y-49027738D01*
X103372262Y-48900184D01*
X103219523Y-48804211D01*
X103049254Y-48744631D01*
X103049249Y-48744630D01*
X102870004Y-48724435D01*
X102869996Y-48724435D01*
X102690750Y-48744630D01*
X102690745Y-48744631D01*
X102520476Y-48804211D01*
X102367737Y-48900184D01*
X102240184Y-49027737D01*
X102144211Y-49180476D01*
X102084631Y-49350745D01*
X102084630Y-49350750D01*
X102064435Y-49529996D01*
X100326344Y-49529996D01*
X100345000Y-49460370D01*
X100345000Y-49361630D01*
X100319444Y-49266255D01*
X100270075Y-49180745D01*
X100250330Y-49161000D01*
X100995000Y-49161000D01*
X100995000Y-49085045D01*
X100994999Y-49085041D01*
X100955612Y-48887025D01*
X100955609Y-48887016D01*
X100878347Y-48700486D01*
X100878340Y-48700473D01*
X100766170Y-48532600D01*
X100766167Y-48532596D01*
X100623403Y-48389832D01*
X100623399Y-48389829D01*
X100455526Y-48277659D01*
X100455513Y-48277652D01*
X100268984Y-48200390D01*
X100268977Y-48200388D01*
X100220000Y-48190645D01*
X100220000Y-49130670D01*
X100200255Y-49110925D01*
X100114745Y-49061556D01*
X100019370Y-49036000D01*
X99920630Y-49036000D01*
X99825255Y-49061556D01*
X99739745Y-49110925D01*
X99725500Y-49125170D01*
X99725500Y-49084996D01*
X99725499Y-49084995D01*
X99722383Y-49069326D01*
X99720000Y-49045134D01*
X99720000Y-48190646D01*
X99719999Y-48190645D01*
X99671022Y-48200388D01*
X99671015Y-48200390D01*
X99484481Y-48277654D01*
X99484479Y-48277655D01*
X99404337Y-48331204D01*
X99337660Y-48352081D01*
X99270280Y-48333596D01*
X99266558Y-48331204D01*
X99185754Y-48277212D01*
X98999127Y-48199909D01*
X98999119Y-48199907D01*
X98801007Y-48160500D01*
X98801003Y-48160500D01*
X98598997Y-48160500D01*
X98598992Y-48160500D01*
X98400880Y-48199907D01*
X98400868Y-48199910D01*
X98320198Y-48233325D01*
X98250729Y-48240794D01*
X98205342Y-48221036D01*
X98205114Y-48221454D01*
X98200447Y-48218905D01*
X98198432Y-48218028D01*
X98197331Y-48217204D01*
X98197330Y-48217203D01*
X98197328Y-48217202D01*
X98062482Y-48166908D01*
X98062483Y-48166908D01*
X98002883Y-48160501D01*
X98002881Y-48160500D01*
X98002873Y-48160500D01*
X98002864Y-48160500D01*
X96857129Y-48160500D01*
X96857123Y-48160501D01*
X96797516Y-48166908D01*
X96662671Y-48217202D01*
X96662664Y-48217206D01*
X96547455Y-48303452D01*
X96547452Y-48303455D01*
X96461206Y-48418664D01*
X96461202Y-48418671D01*
X96410908Y-48553517D01*
X96404501Y-48613116D01*
X96404500Y-48613135D01*
X93560583Y-48613135D01*
X93506558Y-48532281D01*
X93363718Y-48389441D01*
X93195762Y-48277217D01*
X93195752Y-48277212D01*
X93009127Y-48199909D01*
X93009119Y-48199907D01*
X92811007Y-48160500D01*
X92811003Y-48160500D01*
X92608997Y-48160500D01*
X92608992Y-48160500D01*
X92410880Y-48199907D01*
X92410872Y-48199909D01*
X92224244Y-48277213D01*
X92143891Y-48330904D01*
X92077213Y-48351782D01*
X92009833Y-48333297D01*
X92006109Y-48330904D01*
X91925755Y-48277213D01*
X91739127Y-48199909D01*
X91739119Y-48199907D01*
X91541007Y-48160500D01*
X91541003Y-48160500D01*
X91338997Y-48160500D01*
X91338992Y-48160500D01*
X91140880Y-48199907D01*
X91140868Y-48199910D01*
X91060198Y-48233325D01*
X90990729Y-48240794D01*
X90945342Y-48221036D01*
X90945114Y-48221454D01*
X90940447Y-48218905D01*
X90938432Y-48218028D01*
X90937331Y-48217204D01*
X90937330Y-48217203D01*
X90937328Y-48217202D01*
X90802482Y-48166908D01*
X90802483Y-48166908D01*
X90742883Y-48160501D01*
X90742881Y-48160500D01*
X90742873Y-48160500D01*
X90742865Y-48160500D01*
X89801259Y-48160500D01*
X89734220Y-48140815D01*
X89688465Y-48088011D01*
X89684218Y-48077455D01*
X89625790Y-47910480D01*
X89625789Y-47910478D01*
X89529816Y-47757738D01*
X89402262Y-47630184D01*
X89249523Y-47534211D01*
X89079254Y-47474631D01*
X89079249Y-47474630D01*
X88900004Y-47454435D01*
X88899996Y-47454435D01*
X88720750Y-47474630D01*
X88720745Y-47474631D01*
X88550476Y-47534211D01*
X88397737Y-47630184D01*
X88270184Y-47757737D01*
X88174211Y-47910476D01*
X88114631Y-48080745D01*
X88114630Y-48080750D01*
X88094435Y-48259996D01*
X88000000Y-48259996D01*
X88000000Y-46989996D01*
X102064435Y-46989996D01*
X102064435Y-46990003D01*
X102084630Y-47169249D01*
X102084631Y-47169254D01*
X102144211Y-47339523D01*
X102212959Y-47448934D01*
X102240184Y-47492262D01*
X102367738Y-47619816D01*
X102384239Y-47630184D01*
X102506391Y-47706938D01*
X102520478Y-47715789D01*
X102680968Y-47771947D01*
X102690745Y-47775368D01*
X102690750Y-47775369D01*
X102869996Y-47795565D01*
X102870000Y-47795565D01*
X102870004Y-47795565D01*
X103049249Y-47775369D01*
X103049252Y-47775368D01*
X103049255Y-47775368D01*
X103219522Y-47715789D01*
X103372262Y-47619816D01*
X103499816Y-47492262D01*
X103595789Y-47339522D01*
X103655368Y-47169255D01*
X103660609Y-47122738D01*
X103675565Y-46990003D01*
X103675565Y-46989996D01*
X103655369Y-46810750D01*
X103655368Y-46810745D01*
X103598954Y-46649523D01*
X103595789Y-46640478D01*
X103595406Y-46639869D01*
X103535102Y-46543896D01*
X103499816Y-46487738D01*
X103372262Y-46360184D01*
X103314175Y-46323685D01*
X109437653Y-46323685D01*
X109437653Y-46323692D01*
X109457848Y-46502938D01*
X109457849Y-46502943D01*
X109517429Y-46673212D01*
X109576626Y-46767422D01*
X109613402Y-46825951D01*
X109740956Y-46953505D01*
X109799042Y-46990003D01*
X109855993Y-47025788D01*
X109893696Y-47049478D01*
X110053983Y-47105565D01*
X110063963Y-47109057D01*
X110063968Y-47109058D01*
X110243214Y-47129254D01*
X110243218Y-47129254D01*
X110243222Y-47129254D01*
X110422467Y-47109058D01*
X110422470Y-47109057D01*
X110422473Y-47109057D01*
X110592740Y-47049478D01*
X110687405Y-46989996D01*
X114764435Y-46989996D01*
X114764435Y-46990003D01*
X114784630Y-47169249D01*
X114784631Y-47169254D01*
X114844211Y-47339523D01*
X114912959Y-47448934D01*
X114940184Y-47492262D01*
X115067738Y-47619816D01*
X115084239Y-47630184D01*
X115206391Y-47706938D01*
X115220478Y-47715789D01*
X115380968Y-47771947D01*
X115390745Y-47775368D01*
X115390750Y-47775369D01*
X115569996Y-47795565D01*
X115570000Y-47795565D01*
X115570004Y-47795565D01*
X115749249Y-47775369D01*
X115749252Y-47775368D01*
X115749255Y-47775368D01*
X115919522Y-47715789D01*
X116072262Y-47619816D01*
X116199816Y-47492262D01*
X116295789Y-47339522D01*
X116320227Y-47269681D01*
X119293289Y-47269681D01*
X119293289Y-47269688D01*
X119313484Y-47448934D01*
X119313485Y-47448939D01*
X119373065Y-47619208D01*
X119460109Y-47757737D01*
X119469038Y-47771947D01*
X119596592Y-47899501D01*
X119749332Y-47995474D01*
X119847859Y-48029950D01*
X119919599Y-48055053D01*
X119919604Y-48055054D01*
X120098850Y-48075250D01*
X120098854Y-48075250D01*
X120098858Y-48075250D01*
X120278103Y-48055054D01*
X120278106Y-48055053D01*
X120278109Y-48055053D01*
X120448376Y-47995474D01*
X120601116Y-47899501D01*
X120728670Y-47771947D01*
X120821006Y-47624996D01*
X124924435Y-47624996D01*
X124924435Y-47625003D01*
X124944630Y-47804249D01*
X124944631Y-47804254D01*
X125004211Y-47974523D01*
X125075521Y-48088011D01*
X125100184Y-48127262D01*
X125227738Y-48254816D01*
X125318080Y-48311582D01*
X125353115Y-48333596D01*
X125380478Y-48350789D01*
X125550745Y-48410368D01*
X125550750Y-48410369D01*
X125729996Y-48430565D01*
X125730000Y-48430565D01*
X125730004Y-48430565D01*
X125909249Y-48410369D01*
X125909252Y-48410368D01*
X125909255Y-48410368D01*
X126079522Y-48350789D01*
X126224018Y-48259996D01*
X126829435Y-48259996D01*
X126829435Y-48260003D01*
X126849630Y-48439249D01*
X126849631Y-48439254D01*
X126909211Y-48609523D01*
X126979096Y-48720744D01*
X127005184Y-48762262D01*
X127132738Y-48889816D01*
X127285478Y-48985789D01*
X127428973Y-49036000D01*
X127455745Y-49045368D01*
X127455750Y-49045369D01*
X127634996Y-49065565D01*
X127635000Y-49065565D01*
X127635004Y-49065565D01*
X127814249Y-49045369D01*
X127814252Y-49045368D01*
X127814255Y-49045368D01*
X127984522Y-48985789D01*
X128137262Y-48889816D01*
X128264816Y-48762262D01*
X128360789Y-48609522D01*
X128420368Y-48439255D01*
X128421347Y-48430565D01*
X128440565Y-48260003D01*
X128440565Y-48259996D01*
X128420369Y-48080750D01*
X128420368Y-48080745D01*
X128402592Y-48029945D01*
X128360789Y-47910478D01*
X128360387Y-47909839D01*
X128301793Y-47816587D01*
X128264816Y-47757738D01*
X128137262Y-47630184D01*
X128129005Y-47624996D01*
X128734435Y-47624996D01*
X128734435Y-47625003D01*
X128754630Y-47804249D01*
X128754631Y-47804254D01*
X128814211Y-47974523D01*
X128885521Y-48088011D01*
X128910184Y-48127262D01*
X129037738Y-48254816D01*
X129128080Y-48311582D01*
X129163115Y-48333596D01*
X129190478Y-48350789D01*
X129360745Y-48410368D01*
X129360750Y-48410369D01*
X129539996Y-48430565D01*
X129540000Y-48430565D01*
X129540004Y-48430565D01*
X129719249Y-48410369D01*
X129719252Y-48410368D01*
X129719255Y-48410368D01*
X129889522Y-48350789D01*
X130042262Y-48254816D01*
X130169816Y-48127262D01*
X130265789Y-47974522D01*
X130325368Y-47804255D01*
X130328623Y-47775368D01*
X130345565Y-47625003D01*
X130345565Y-47624996D01*
X130325369Y-47445750D01*
X130325368Y-47445745D01*
X130265788Y-47275476D01*
X130199047Y-47169259D01*
X130169816Y-47122738D01*
X130042262Y-46995184D01*
X130034005Y-46989996D01*
X133094435Y-46989996D01*
X133094435Y-46990003D01*
X133114630Y-47169249D01*
X133114631Y-47169254D01*
X133174211Y-47339523D01*
X133242959Y-47448934D01*
X133270184Y-47492262D01*
X133397738Y-47619816D01*
X133414239Y-47630184D01*
X133550478Y-47715789D01*
X133722165Y-47775865D01*
X133778942Y-47816587D01*
X133804689Y-47881540D01*
X133798252Y-47933862D01*
X133764633Y-48029937D01*
X133764630Y-48029950D01*
X133744435Y-48209196D01*
X133744435Y-48209203D01*
X133764630Y-48388449D01*
X133764631Y-48388454D01*
X133824211Y-48558723D01*
X133856131Y-48609523D01*
X133920184Y-48711462D01*
X134047738Y-48839016D01*
X134200478Y-48934989D01*
X134370745Y-48994568D01*
X134387552Y-48996461D01*
X134451966Y-49023527D01*
X134478662Y-49053707D01*
X134570184Y-49199364D01*
X134697738Y-49326918D01*
X134850478Y-49422891D01*
X135020745Y-49482470D01*
X135087772Y-49490021D01*
X135152182Y-49517086D01*
X135178880Y-49547268D01*
X135260184Y-49676662D01*
X135387738Y-49804216D01*
X135439902Y-49836993D01*
X135526391Y-49891338D01*
X135540478Y-49900189D01*
X135640325Y-49935127D01*
X135710745Y-49959768D01*
X135710750Y-49959769D01*
X135889996Y-49979965D01*
X135890000Y-49979965D01*
X135890004Y-49979965D01*
X136069249Y-49959769D01*
X136069252Y-49959768D01*
X136069255Y-49959768D01*
X136239522Y-49900189D01*
X136253609Y-49891338D01*
X136304103Y-49859610D01*
X136360563Y-49824133D01*
X136427799Y-49805133D01*
X136494634Y-49825500D01*
X136531528Y-49863154D01*
X136609473Y-49987202D01*
X136609475Y-49987204D01*
X136737029Y-50114758D01*
X136748176Y-50121762D01*
X136886816Y-50208876D01*
X136889769Y-50210731D01*
X137054815Y-50268483D01*
X137060036Y-50270310D01*
X137060041Y-50270311D01*
X137239287Y-50290507D01*
X137239291Y-50290507D01*
X137239295Y-50290507D01*
X137418540Y-50270311D01*
X137418543Y-50270310D01*
X137418546Y-50270310D01*
X137588813Y-50210731D01*
X137741553Y-50114758D01*
X137869107Y-49987204D01*
X137883307Y-49964603D01*
X137935637Y-49918315D01*
X138004690Y-49907664D01*
X138054272Y-49925582D01*
X138100478Y-49954615D01*
X138277318Y-50016494D01*
X138276594Y-50018561D01*
X138328414Y-50047544D01*
X138356889Y-50093375D01*
X138374210Y-50142873D01*
X138374210Y-50142875D01*
X138453136Y-50268483D01*
X138470184Y-50295615D01*
X138597738Y-50423169D01*
X138750478Y-50519142D01*
X138917643Y-50577635D01*
X138974417Y-50618356D01*
X138993727Y-50653719D01*
X138996450Y-50661500D01*
X139025010Y-50743121D01*
X139025012Y-50743124D01*
X139094058Y-50853010D01*
X139120984Y-50895862D01*
X139248538Y-51023416D01*
X139401278Y-51119389D01*
X139571545Y-51178968D01*
X139571550Y-51178969D01*
X139750796Y-51199165D01*
X139750800Y-51199165D01*
X139750804Y-51199165D01*
X139930049Y-51178969D01*
X139930052Y-51178968D01*
X139930055Y-51178968D01*
X140100322Y-51119389D01*
X140253062Y-51023416D01*
X140380616Y-50895862D01*
X140476589Y-50743122D01*
X140536168Y-50572855D01*
X140536169Y-50572849D01*
X140556365Y-50393603D01*
X140556365Y-50393596D01*
X140536169Y-50214350D01*
X140536168Y-50214345D01*
X140517087Y-50159815D01*
X140476589Y-50044078D01*
X140380616Y-49891338D01*
X140253062Y-49763784D01*
X140186950Y-49722243D01*
X140100321Y-49667810D01*
X139933159Y-49609318D01*
X139876382Y-49568596D01*
X139857071Y-49533230D01*
X139855939Y-49529996D01*
X139825789Y-49443831D01*
X139729816Y-49291091D01*
X139602262Y-49163537D01*
X139548164Y-49129545D01*
X139449521Y-49067563D01*
X139359317Y-49036000D01*
X139279255Y-49007985D01*
X139279252Y-49007984D01*
X139272683Y-49005686D01*
X139273405Y-49003620D01*
X139221576Y-48974628D01*
X139193108Y-48928801D01*
X139175789Y-48879303D01*
X139115484Y-48783330D01*
X139079816Y-48726564D01*
X138952262Y-48599010D01*
X138888144Y-48558722D01*
X138799521Y-48503036D01*
X138712259Y-48472502D01*
X138674407Y-48459257D01*
X138617632Y-48418536D01*
X138591884Y-48353584D01*
X138592142Y-48328332D01*
X138605565Y-48209202D01*
X138605565Y-48209196D01*
X138585369Y-48029950D01*
X138585368Y-48029945D01*
X138543565Y-47910480D01*
X138525789Y-47859678D01*
X138429816Y-47706938D01*
X138302262Y-47579384D01*
X138230370Y-47534211D01*
X138149523Y-47483411D01*
X137979254Y-47423831D01*
X137979249Y-47423830D01*
X137800004Y-47403635D01*
X137799996Y-47403635D01*
X137620750Y-47423830D01*
X137620745Y-47423831D01*
X137450476Y-47483411D01*
X137297737Y-47579384D01*
X137170184Y-47706937D01*
X137074211Y-47859676D01*
X137014631Y-48029945D01*
X137014630Y-48029950D01*
X136994435Y-48209196D01*
X136994435Y-48209203D01*
X137014630Y-48388449D01*
X137014632Y-48388457D01*
X137075619Y-48562749D01*
X137079180Y-48632528D01*
X137044451Y-48693155D01*
X136999532Y-48720744D01*
X136889771Y-48759151D01*
X136768727Y-48835208D01*
X136701490Y-48854208D01*
X136634655Y-48833840D01*
X136597761Y-48796186D01*
X136554014Y-48726564D01*
X136519816Y-48672138D01*
X136392262Y-48544584D01*
X136373183Y-48532596D01*
X136239521Y-48448610D01*
X136071541Y-48389832D01*
X136069255Y-48389032D01*
X136069254Y-48389031D01*
X136069249Y-48389030D01*
X136002227Y-48381479D01*
X135937813Y-48354412D01*
X135911119Y-48324234D01*
X135829816Y-48194840D01*
X135702262Y-48067286D01*
X135642834Y-48029945D01*
X135549521Y-47971312D01*
X135379249Y-47911732D01*
X135362444Y-47909839D01*
X135298031Y-47882771D01*
X135271336Y-47852591D01*
X135235504Y-47795565D01*
X135179816Y-47706938D01*
X135052262Y-47579384D01*
X134980370Y-47534211D01*
X134899521Y-47483410D01*
X134772616Y-47439004D01*
X134729255Y-47423832D01*
X134729254Y-47423831D01*
X134727834Y-47423335D01*
X134671058Y-47382613D01*
X134645310Y-47317661D01*
X134651747Y-47265337D01*
X134685367Y-47169259D01*
X134685369Y-47169249D01*
X134705565Y-46990003D01*
X134705565Y-46989996D01*
X139910435Y-46989996D01*
X139910435Y-46990003D01*
X139930630Y-47169249D01*
X139930631Y-47169254D01*
X139990211Y-47339523D01*
X140058959Y-47448934D01*
X140086184Y-47492262D01*
X140213738Y-47619816D01*
X140230239Y-47630184D01*
X140352391Y-47706938D01*
X140366478Y-47715789D01*
X140526968Y-47771947D01*
X140536745Y-47775368D01*
X140536750Y-47775369D01*
X140715996Y-47795565D01*
X140716000Y-47795565D01*
X140716004Y-47795565D01*
X140895249Y-47775369D01*
X140895252Y-47775368D01*
X140895255Y-47775368D01*
X141065522Y-47715789D01*
X141218262Y-47619816D01*
X141345816Y-47492262D01*
X141441789Y-47339522D01*
X141501368Y-47169255D01*
X141506609Y-47122738D01*
X141521565Y-46990003D01*
X141521565Y-46989996D01*
X141501369Y-46810750D01*
X141501368Y-46810745D01*
X141444954Y-46649523D01*
X141441789Y-46640478D01*
X141441406Y-46639869D01*
X141381102Y-46543896D01*
X141345816Y-46487738D01*
X141218262Y-46360184D01*
X141065523Y-46264211D01*
X140895254Y-46204631D01*
X140895249Y-46204630D01*
X140716004Y-46184435D01*
X140715996Y-46184435D01*
X140536750Y-46204630D01*
X140536745Y-46204631D01*
X140366476Y-46264211D01*
X140213737Y-46360184D01*
X140086184Y-46487737D01*
X139990211Y-46640476D01*
X139930631Y-46810745D01*
X139930630Y-46810750D01*
X139910435Y-46989996D01*
X134705565Y-46989996D01*
X134685369Y-46810750D01*
X134685368Y-46810745D01*
X134628954Y-46649523D01*
X134625789Y-46640478D01*
X134625406Y-46639869D01*
X134565102Y-46543896D01*
X134529816Y-46487738D01*
X134402262Y-46360184D01*
X134249523Y-46264211D01*
X134079254Y-46204631D01*
X134079249Y-46204630D01*
X133900004Y-46184435D01*
X133899996Y-46184435D01*
X133720750Y-46204630D01*
X133720745Y-46204631D01*
X133550476Y-46264211D01*
X133397737Y-46360184D01*
X133270184Y-46487737D01*
X133174211Y-46640476D01*
X133114631Y-46810745D01*
X133114630Y-46810750D01*
X133094435Y-46989996D01*
X130034005Y-46989996D01*
X129889523Y-46899211D01*
X129719254Y-46839631D01*
X129719249Y-46839630D01*
X129540004Y-46819435D01*
X129539996Y-46819435D01*
X129360750Y-46839630D01*
X129360745Y-46839631D01*
X129190476Y-46899211D01*
X129037737Y-46995184D01*
X128910184Y-47122737D01*
X128814211Y-47275476D01*
X128754631Y-47445745D01*
X128754630Y-47445750D01*
X128734435Y-47624996D01*
X128129005Y-47624996D01*
X127984523Y-47534211D01*
X127814254Y-47474631D01*
X127814249Y-47474630D01*
X127635004Y-47454435D01*
X127634996Y-47454435D01*
X127455750Y-47474630D01*
X127455745Y-47474631D01*
X127285476Y-47534211D01*
X127132737Y-47630184D01*
X127005184Y-47757737D01*
X126909211Y-47910476D01*
X126849631Y-48080745D01*
X126849630Y-48080750D01*
X126829435Y-48259996D01*
X126224018Y-48259996D01*
X126232262Y-48254816D01*
X126359816Y-48127262D01*
X126455789Y-47974522D01*
X126515368Y-47804255D01*
X126518623Y-47775368D01*
X126535565Y-47625003D01*
X126535565Y-47624996D01*
X126515369Y-47445750D01*
X126515368Y-47445745D01*
X126455788Y-47275476D01*
X126389047Y-47169259D01*
X126359816Y-47122738D01*
X126232262Y-46995184D01*
X126079523Y-46899211D01*
X125909254Y-46839631D01*
X125909249Y-46839630D01*
X125730004Y-46819435D01*
X125729996Y-46819435D01*
X125550750Y-46839630D01*
X125550745Y-46839631D01*
X125380476Y-46899211D01*
X125227737Y-46995184D01*
X125100184Y-47122737D01*
X125004211Y-47275476D01*
X124944631Y-47445745D01*
X124944630Y-47445750D01*
X124924435Y-47624996D01*
X120821006Y-47624996D01*
X120824643Y-47619207D01*
X120884222Y-47448940D01*
X120884223Y-47448934D01*
X120904419Y-47269688D01*
X120904419Y-47269681D01*
X120884223Y-47090435D01*
X120884222Y-47090430D01*
X120849080Y-46990000D01*
X120824643Y-46920163D01*
X120728670Y-46767423D01*
X120601116Y-46639869D01*
X120448377Y-46543896D01*
X120278108Y-46484316D01*
X120278103Y-46484315D01*
X120098858Y-46464120D01*
X120098850Y-46464120D01*
X119919604Y-46484315D01*
X119919599Y-46484316D01*
X119749330Y-46543896D01*
X119596591Y-46639869D01*
X119469038Y-46767422D01*
X119373065Y-46920161D01*
X119313485Y-47090430D01*
X119313484Y-47090435D01*
X119293289Y-47269681D01*
X116320227Y-47269681D01*
X116355368Y-47169255D01*
X116360609Y-47122738D01*
X116375565Y-46990003D01*
X116375565Y-46989996D01*
X116355369Y-46810750D01*
X116355368Y-46810745D01*
X116298954Y-46649523D01*
X116295789Y-46640478D01*
X116295406Y-46639869D01*
X116235102Y-46543896D01*
X116199816Y-46487738D01*
X116072262Y-46360184D01*
X115976474Y-46299996D01*
X117394435Y-46299996D01*
X117394435Y-46300003D01*
X117414630Y-46479249D01*
X117414631Y-46479254D01*
X117474211Y-46649523D01*
X117548293Y-46767423D01*
X117570184Y-46802262D01*
X117697738Y-46929816D01*
X117850478Y-47025789D01*
X118007656Y-47080788D01*
X118020745Y-47085368D01*
X118020750Y-47085369D01*
X118199996Y-47105565D01*
X118200000Y-47105565D01*
X118200004Y-47105565D01*
X118379249Y-47085369D01*
X118379252Y-47085368D01*
X118379255Y-47085368D01*
X118549522Y-47025789D01*
X118702262Y-46929816D01*
X118829816Y-46802262D01*
X118925789Y-46649522D01*
X118985368Y-46479255D01*
X118985369Y-46479249D01*
X118999369Y-46354996D01*
X126829435Y-46354996D01*
X126829435Y-46355003D01*
X126849630Y-46534249D01*
X126849631Y-46534254D01*
X126909211Y-46704523D01*
X126981416Y-46819435D01*
X127005184Y-46857262D01*
X127132738Y-46984816D01*
X127285478Y-47080789D01*
X127423983Y-47129254D01*
X127455745Y-47140368D01*
X127455750Y-47140369D01*
X127634996Y-47160565D01*
X127635000Y-47160565D01*
X127635004Y-47160565D01*
X127814249Y-47140369D01*
X127814252Y-47140368D01*
X127814255Y-47140368D01*
X127984522Y-47080789D01*
X128137262Y-46984816D01*
X128264816Y-46857262D01*
X128360789Y-46704522D01*
X128420368Y-46534255D01*
X128425609Y-46487738D01*
X128440565Y-46355003D01*
X128440565Y-46354996D01*
X128420369Y-46175750D01*
X128420368Y-46175745D01*
X128360788Y-46005476D01*
X128321582Y-45943080D01*
X128264816Y-45852738D01*
X128137262Y-45725184D01*
X127984523Y-45629211D01*
X127814254Y-45569631D01*
X127814249Y-45569630D01*
X127635004Y-45549435D01*
X127634996Y-45549435D01*
X127455750Y-45569630D01*
X127455745Y-45569631D01*
X127285476Y-45629211D01*
X127132737Y-45725184D01*
X127005184Y-45852737D01*
X126909211Y-46005476D01*
X126849631Y-46175745D01*
X126849630Y-46175750D01*
X126829435Y-46354996D01*
X118999369Y-46354996D01*
X119005565Y-46300003D01*
X119005565Y-46299996D01*
X118985369Y-46120750D01*
X118985368Y-46120745D01*
X118945034Y-46005478D01*
X118925789Y-45950478D01*
X118829816Y-45797738D01*
X118702262Y-45670184D01*
X118637054Y-45629211D01*
X118549523Y-45574211D01*
X118379254Y-45514631D01*
X118379249Y-45514630D01*
X118200004Y-45494435D01*
X118199996Y-45494435D01*
X118020750Y-45514630D01*
X118020745Y-45514631D01*
X117850476Y-45574211D01*
X117697737Y-45670184D01*
X117570184Y-45797737D01*
X117474211Y-45950476D01*
X117414631Y-46120745D01*
X117414630Y-46120750D01*
X117394435Y-46299996D01*
X115976474Y-46299996D01*
X115919523Y-46264211D01*
X115749254Y-46204631D01*
X115749249Y-46204630D01*
X115570004Y-46184435D01*
X115569996Y-46184435D01*
X115390750Y-46204630D01*
X115390745Y-46204631D01*
X115220476Y-46264211D01*
X115067737Y-46360184D01*
X114940184Y-46487737D01*
X114844211Y-46640476D01*
X114784631Y-46810745D01*
X114784630Y-46810750D01*
X114764435Y-46989996D01*
X110687405Y-46989996D01*
X110745480Y-46953505D01*
X110873034Y-46825951D01*
X110969007Y-46673211D01*
X111028586Y-46502944D01*
X111028587Y-46502938D01*
X111048783Y-46323692D01*
X111048783Y-46323685D01*
X111028587Y-46144439D01*
X111028586Y-46144434D01*
X111020297Y-46120745D01*
X110969007Y-45974167D01*
X110873034Y-45821427D01*
X110745480Y-45693873D01*
X110707779Y-45670184D01*
X110592741Y-45597900D01*
X110422472Y-45538320D01*
X110422467Y-45538319D01*
X110243222Y-45518124D01*
X110243214Y-45518124D01*
X110063968Y-45538319D01*
X110063963Y-45538320D01*
X109893694Y-45597900D01*
X109740955Y-45693873D01*
X109613402Y-45821426D01*
X109517429Y-45974165D01*
X109457849Y-46144434D01*
X109457848Y-46144439D01*
X109437653Y-46323685D01*
X103314175Y-46323685D01*
X103219523Y-46264211D01*
X103049254Y-46204631D01*
X103049249Y-46204630D01*
X102870004Y-46184435D01*
X102869996Y-46184435D01*
X102690750Y-46204630D01*
X102690745Y-46204631D01*
X102520476Y-46264211D01*
X102367737Y-46360184D01*
X102240184Y-46487737D01*
X102144211Y-46640476D01*
X102084631Y-46810745D01*
X102084630Y-46810750D01*
X102064435Y-46989996D01*
X88000000Y-46989996D01*
X88000000Y-45719996D01*
X89491435Y-45719996D01*
X89491435Y-45720003D01*
X89511630Y-45899249D01*
X89511631Y-45899254D01*
X89571211Y-46069523D01*
X89643416Y-46184435D01*
X89667184Y-46222262D01*
X89794738Y-46349816D01*
X89947478Y-46445789D01*
X90110800Y-46502938D01*
X90117745Y-46505368D01*
X90117750Y-46505369D01*
X90296996Y-46525565D01*
X90297000Y-46525565D01*
X90297004Y-46525565D01*
X90476249Y-46505369D01*
X90476252Y-46505368D01*
X90476255Y-46505368D01*
X90646522Y-46445789D01*
X90799262Y-46349816D01*
X90926816Y-46222262D01*
X91022789Y-46069522D01*
X91082368Y-45899255D01*
X91087609Y-45852738D01*
X91102565Y-45720003D01*
X91102565Y-45719996D01*
X91082369Y-45540750D01*
X91082368Y-45540745D01*
X91022788Y-45370476D01*
X90963311Y-45275820D01*
X90926816Y-45217738D01*
X90799262Y-45090184D01*
X90646523Y-44994211D01*
X90476254Y-44934631D01*
X90476249Y-44934630D01*
X90297004Y-44914435D01*
X90296996Y-44914435D01*
X90117750Y-44934630D01*
X90117745Y-44934631D01*
X89947476Y-44994211D01*
X89794737Y-45090184D01*
X89667184Y-45217737D01*
X89571211Y-45370476D01*
X89511631Y-45540745D01*
X89511630Y-45540750D01*
X89491435Y-45719996D01*
X88000000Y-45719996D01*
X88000000Y-44500500D01*
X119996936Y-44500500D01*
X120063975Y-44520185D01*
G37*
%TD.AperFunction*%
%TD*%
%TA.AperFunction,Conductor*%
%TO.N,+5V*%
G36*
X116595667Y-72833694D02*
G01*
X116654910Y-72936306D01*
X116738694Y-73020090D01*
X116841306Y-73079333D01*
X116926414Y-73102138D01*
X116216201Y-73812351D01*
X116246649Y-73836050D01*
X116450697Y-73946476D01*
X116450706Y-73946479D01*
X116670139Y-74021811D01*
X116898993Y-74060000D01*
X117131007Y-74060000D01*
X117359860Y-74021811D01*
X117579293Y-73946479D01*
X117579301Y-73946476D01*
X117783355Y-73836047D01*
X117813797Y-73812351D01*
X117813798Y-73812350D01*
X117103585Y-73102137D01*
X117188694Y-73079333D01*
X117291306Y-73020090D01*
X117375090Y-72936306D01*
X117434333Y-72833694D01*
X117457137Y-72748585D01*
X118185967Y-73477415D01*
X118200000Y-73503114D01*
X118200000Y-73638745D01*
X118200000Y-75273481D01*
X118180315Y-75340520D01*
X118127511Y-75386275D01*
X118089883Y-75396701D01*
X117930750Y-75414630D01*
X117930745Y-75414631D01*
X117760476Y-75474211D01*
X117607737Y-75570184D01*
X117480184Y-75697737D01*
X117384211Y-75850476D01*
X117324631Y-76020745D01*
X117324630Y-76020750D01*
X117304435Y-76199996D01*
X117304435Y-76200003D01*
X117322644Y-76361617D01*
X117310589Y-76430439D01*
X117263240Y-76481818D01*
X117199424Y-76499500D01*
X116480576Y-76499500D01*
X116413537Y-76479815D01*
X116367782Y-76427011D01*
X116357356Y-76361617D01*
X116375565Y-76200003D01*
X116375565Y-76199996D01*
X116355369Y-76020750D01*
X116355368Y-76020745D01*
X116295788Y-75850476D01*
X116199815Y-75697737D01*
X116072262Y-75570184D01*
X115919524Y-75474212D01*
X115919525Y-75474212D01*
X115883043Y-75461446D01*
X115826268Y-75420723D01*
X115800522Y-75355769D01*
X115800000Y-75344405D01*
X115800000Y-73868402D01*
X115815170Y-73808971D01*
X115818793Y-73802334D01*
X115818796Y-73802331D01*
X115869091Y-73667483D01*
X115875500Y-73607873D01*
X115875499Y-73497304D01*
X115895183Y-73430268D01*
X115911818Y-73409626D01*
X116572861Y-72748584D01*
X116595667Y-72833694D01*
G37*
%TD.AperFunction*%
%TA.AperFunction,Conductor*%
G36*
X118200000Y-65800000D02*
G01*
X118200000Y-71820749D01*
X118185968Y-71842583D01*
X117457137Y-72571414D01*
X117434333Y-72486306D01*
X117375090Y-72383694D01*
X117291306Y-72299910D01*
X117188694Y-72240667D01*
X117103584Y-72217861D01*
X117813797Y-71507647D01*
X117813797Y-71507645D01*
X117783360Y-71483955D01*
X117783354Y-71483951D01*
X117579302Y-71373523D01*
X117579293Y-71373520D01*
X117359860Y-71298188D01*
X117131007Y-71260000D01*
X116898993Y-71260000D01*
X116670139Y-71298188D01*
X116450706Y-71373520D01*
X116450697Y-71373523D01*
X116246650Y-71483949D01*
X116216200Y-71507647D01*
X116926415Y-72217861D01*
X116841306Y-72240667D01*
X116738694Y-72299910D01*
X116654910Y-72383694D01*
X116595667Y-72486306D01*
X116572861Y-72571414D01*
X115911818Y-71910371D01*
X115878333Y-71849048D01*
X115875499Y-71822690D01*
X115875499Y-71712129D01*
X115875498Y-71712123D01*
X115869091Y-71652516D01*
X115818797Y-71517672D01*
X115818796Y-71517669D01*
X115818793Y-71517665D01*
X115815168Y-71511026D01*
X115800000Y-71451598D01*
X115800000Y-65800000D01*
X115800000Y-63400000D01*
X118200000Y-63400000D01*
X118200000Y-65800000D01*
G37*
%TD.AperFunction*%
%TD*%
%TA.AperFunction,Conductor*%
%TO.N,+3.3V*%
G36*
X128043039Y-68219685D02*
G01*
X128088794Y-68272489D01*
X128100000Y-68324000D01*
X128100000Y-75323410D01*
X128080315Y-75390449D01*
X128027511Y-75436204D01*
X128016955Y-75440451D01*
X127920480Y-75474209D01*
X127767737Y-75570184D01*
X127640184Y-75697737D01*
X127544211Y-75850476D01*
X127484631Y-76020745D01*
X127484630Y-76020750D01*
X127464435Y-76199996D01*
X127464435Y-76200003D01*
X127482644Y-76361617D01*
X127470589Y-76430439D01*
X127423240Y-76481818D01*
X127359424Y-76499500D01*
X126005576Y-76499500D01*
X125938537Y-76479815D01*
X125892782Y-76427011D01*
X125882356Y-76361617D01*
X125900565Y-76200003D01*
X125900565Y-76199996D01*
X125880369Y-76020750D01*
X125880368Y-76020745D01*
X125820788Y-75850476D01*
X125724815Y-75697737D01*
X125636319Y-75609241D01*
X125602834Y-75547918D01*
X125600000Y-75521560D01*
X125600000Y-68324000D01*
X125619685Y-68256961D01*
X125672489Y-68211206D01*
X125724000Y-68200000D01*
X127976000Y-68200000D01*
X128043039Y-68219685D01*
G37*
%TD.AperFunction*%
%TD*%
%TA.AperFunction,Conductor*%
%TO.N,Net-(J1-Pin_2)*%
G36*
X80272988Y-52485730D02*
G01*
X80410492Y-52505500D01*
X80410495Y-52505500D01*
X88303060Y-52505500D01*
X88370099Y-52525185D01*
X88415854Y-52577989D01*
X88425798Y-52647147D01*
X88396773Y-52710703D01*
X88390741Y-52717181D01*
X88270184Y-52837737D01*
X88174211Y-52990476D01*
X88114631Y-53160745D01*
X88114630Y-53160750D01*
X88094435Y-53339996D01*
X88094435Y-53340003D01*
X88114630Y-53519249D01*
X88114631Y-53519254D01*
X88174211Y-53689523D01*
X88246416Y-53804435D01*
X88270184Y-53842262D01*
X88397738Y-53969816D01*
X88550478Y-54065789D01*
X88720745Y-54125368D01*
X88720750Y-54125369D01*
X88899996Y-54145565D01*
X88900000Y-54145565D01*
X88900004Y-54145565D01*
X89079249Y-54125369D01*
X89079252Y-54125368D01*
X89079255Y-54125368D01*
X89249522Y-54065789D01*
X89402262Y-53969816D01*
X89529816Y-53842262D01*
X89625789Y-53689522D01*
X89685368Y-53519255D01*
X89705565Y-53340000D01*
X89685368Y-53160745D01*
X89625789Y-52990478D01*
X89529816Y-52837738D01*
X89409259Y-52717181D01*
X89375774Y-52655858D01*
X89380758Y-52586166D01*
X89422630Y-52530233D01*
X89488094Y-52505816D01*
X89496940Y-52505500D01*
X93383060Y-52505500D01*
X93450099Y-52525185D01*
X93495854Y-52577989D01*
X93505798Y-52647147D01*
X93476773Y-52710703D01*
X93470741Y-52717181D01*
X93350184Y-52837737D01*
X93254211Y-52990476D01*
X93194631Y-53160745D01*
X93194630Y-53160750D01*
X93174435Y-53339996D01*
X93174435Y-53340003D01*
X93194630Y-53519249D01*
X93194631Y-53519254D01*
X93254211Y-53689523D01*
X93326416Y-53804435D01*
X93350184Y-53842262D01*
X93477738Y-53969816D01*
X93630478Y-54065789D01*
X93800745Y-54125368D01*
X93800750Y-54125369D01*
X93979996Y-54145565D01*
X93980000Y-54145565D01*
X93980004Y-54145565D01*
X94159249Y-54125369D01*
X94159252Y-54125368D01*
X94159255Y-54125368D01*
X94329522Y-54065789D01*
X94482262Y-53969816D01*
X94609816Y-53842262D01*
X94705789Y-53689522D01*
X94765368Y-53519255D01*
X94785565Y-53340000D01*
X94765368Y-53160745D01*
X94705789Y-52990478D01*
X94609816Y-52837738D01*
X94489259Y-52717181D01*
X94455774Y-52655858D01*
X94460758Y-52586166D01*
X94502630Y-52530233D01*
X94568094Y-52505816D01*
X94576940Y-52505500D01*
X98463060Y-52505500D01*
X98530099Y-52525185D01*
X98575854Y-52577989D01*
X98585798Y-52647147D01*
X98556773Y-52710703D01*
X98550741Y-52717181D01*
X98430184Y-52837737D01*
X98334211Y-52990476D01*
X98274631Y-53160745D01*
X98274630Y-53160750D01*
X98254435Y-53339996D01*
X98254435Y-53340003D01*
X98274630Y-53519249D01*
X98274631Y-53519254D01*
X98334211Y-53689523D01*
X98406416Y-53804435D01*
X98430184Y-53842262D01*
X98557738Y-53969816D01*
X98710478Y-54065789D01*
X98880745Y-54125368D01*
X98880750Y-54125369D01*
X99059996Y-54145565D01*
X99060000Y-54145565D01*
X99060004Y-54145565D01*
X99239249Y-54125369D01*
X99239252Y-54125368D01*
X99239255Y-54125368D01*
X99409522Y-54065789D01*
X99562262Y-53969816D01*
X99689816Y-53842262D01*
X99785789Y-53689522D01*
X99845368Y-53519255D01*
X99865565Y-53340000D01*
X99845368Y-53160745D01*
X99785789Y-52990478D01*
X99689816Y-52837738D01*
X99569259Y-52717181D01*
X99535774Y-52655858D01*
X99540758Y-52586166D01*
X99582630Y-52530233D01*
X99648094Y-52505816D01*
X99656940Y-52505500D01*
X100954138Y-52505500D01*
X101021177Y-52525185D01*
X101041819Y-52541819D01*
X102336280Y-53836280D01*
X102369765Y-53897603D01*
X102364781Y-53967295D01*
X102336280Y-54011642D01*
X102240184Y-54107737D01*
X102144211Y-54260476D01*
X102084631Y-54430745D01*
X102084630Y-54430750D01*
X102064435Y-54609996D01*
X102064435Y-54610003D01*
X102084630Y-54789249D01*
X102084631Y-54789254D01*
X102144211Y-54959523D01*
X102216416Y-55074435D01*
X102240184Y-55112262D01*
X102367738Y-55239816D01*
X102520478Y-55335789D01*
X102690745Y-55395368D01*
X102690750Y-55395369D01*
X102869996Y-55415565D01*
X102870000Y-55415565D01*
X102870004Y-55415565D01*
X103049249Y-55395369D01*
X103049252Y-55395368D01*
X103049255Y-55395368D01*
X103219522Y-55335789D01*
X103372262Y-55239816D01*
X103468358Y-55143720D01*
X103529681Y-55110235D01*
X103599373Y-55115219D01*
X103643720Y-55143720D01*
X105463681Y-56963681D01*
X105497166Y-57025004D01*
X105500000Y-57051362D01*
X105500000Y-68876000D01*
X105480315Y-68943039D01*
X105427511Y-68988794D01*
X105376000Y-69000000D01*
X103775083Y-69000000D01*
X103708044Y-68980315D01*
X103662289Y-68927511D01*
X103658107Y-68915162D01*
X103657667Y-68915317D01*
X103655368Y-68908747D01*
X103655368Y-68908745D01*
X103595789Y-68738478D01*
X103499816Y-68585738D01*
X103372262Y-68458184D01*
X103352967Y-68446060D01*
X103219523Y-68362211D01*
X103049254Y-68302631D01*
X103049249Y-68302630D01*
X102870004Y-68282435D01*
X102869996Y-68282435D01*
X102690750Y-68302630D01*
X102690745Y-68302631D01*
X102520476Y-68362211D01*
X102367737Y-68458184D01*
X102240184Y-68585737D01*
X102144210Y-68738478D01*
X102106531Y-68846158D01*
X102084632Y-68908745D01*
X102084631Y-68908747D01*
X102082333Y-68915317D01*
X102079758Y-68914416D01*
X102051681Y-68964589D01*
X101990012Y-68997434D01*
X101964917Y-69000000D01*
X98695083Y-69000000D01*
X98628044Y-68980315D01*
X98582289Y-68927511D01*
X98578107Y-68915162D01*
X98577667Y-68915317D01*
X98575368Y-68908747D01*
X98575368Y-68908745D01*
X98515789Y-68738478D01*
X98419816Y-68585738D01*
X98292262Y-68458184D01*
X98272967Y-68446060D01*
X98139523Y-68362211D01*
X97969254Y-68302631D01*
X97969249Y-68302630D01*
X97790004Y-68282435D01*
X97789996Y-68282435D01*
X97610750Y-68302630D01*
X97610745Y-68302631D01*
X97440476Y-68362211D01*
X97287737Y-68458184D01*
X97212181Y-68533741D01*
X97150858Y-68567226D01*
X97081166Y-68562242D01*
X97025233Y-68520370D01*
X97000816Y-68454906D01*
X97000500Y-68446060D01*
X97000500Y-63015604D01*
X97020185Y-62948565D01*
X97072989Y-62902810D01*
X97138383Y-62892384D01*
X97281996Y-62908565D01*
X97282000Y-62908565D01*
X97282004Y-62908565D01*
X97461249Y-62888369D01*
X97461252Y-62888368D01*
X97461255Y-62888368D01*
X97631522Y-62828789D01*
X97784262Y-62732816D01*
X97911816Y-62605262D01*
X98007789Y-62452522D01*
X98067368Y-62282255D01*
X98087565Y-62103000D01*
X98087565Y-62102996D01*
X100667435Y-62102996D01*
X100667435Y-62103003D01*
X100687630Y-62282249D01*
X100687631Y-62282254D01*
X100747211Y-62452523D01*
X100843184Y-62605262D01*
X100970738Y-62732816D01*
X101123478Y-62828789D01*
X101293745Y-62888368D01*
X101293750Y-62888369D01*
X101472996Y-62908565D01*
X101473000Y-62908565D01*
X101473004Y-62908565D01*
X101652249Y-62888369D01*
X101652252Y-62888368D01*
X101652255Y-62888368D01*
X101822522Y-62828789D01*
X101975262Y-62732816D01*
X102102816Y-62605262D01*
X102198789Y-62452522D01*
X102258368Y-62282255D01*
X102278565Y-62103000D01*
X102258368Y-61923745D01*
X102198789Y-61753478D01*
X102102816Y-61600738D01*
X101975262Y-61473184D01*
X101822523Y-61377211D01*
X101652254Y-61317631D01*
X101652249Y-61317630D01*
X101473004Y-61297435D01*
X101472996Y-61297435D01*
X101293750Y-61317630D01*
X101293745Y-61317631D01*
X101123476Y-61377211D01*
X100970737Y-61473184D01*
X100843184Y-61600737D01*
X100747211Y-61753476D01*
X100687631Y-61923745D01*
X100687630Y-61923750D01*
X100667435Y-62102996D01*
X98087565Y-62102996D01*
X98067368Y-61923745D01*
X98007789Y-61753478D01*
X97911816Y-61600738D01*
X97784262Y-61473184D01*
X97631523Y-61377211D01*
X97461254Y-61317631D01*
X97461249Y-61317630D01*
X97282004Y-61297435D01*
X97281996Y-61297435D01*
X97138383Y-61313615D01*
X97069561Y-61301560D01*
X97018182Y-61254211D01*
X97000500Y-61190395D01*
X97000500Y-60434110D01*
X97000500Y-60434108D01*
X96966392Y-60306814D01*
X96900500Y-60192686D01*
X96807314Y-60099500D01*
X96750250Y-60066554D01*
X96693187Y-60033608D01*
X96629539Y-60016554D01*
X96565892Y-59999500D01*
X96565891Y-59999500D01*
X80237899Y-59999500D01*
X80170860Y-59979815D01*
X80125105Y-59927011D01*
X80115161Y-59857853D01*
X80132904Y-59809530D01*
X80227789Y-59658522D01*
X80287368Y-59488255D01*
X80307565Y-59309000D01*
X80298164Y-59225565D01*
X80287369Y-59129750D01*
X80287368Y-59129745D01*
X80227789Y-58959478D01*
X80131816Y-58806738D01*
X80004262Y-58679184D01*
X80003500Y-58678705D01*
X79851523Y-58583211D01*
X79681254Y-58523631D01*
X79681249Y-58523630D01*
X79502004Y-58503435D01*
X79501996Y-58503435D01*
X79322750Y-58523630D01*
X79322745Y-58523631D01*
X79165455Y-58578670D01*
X79095676Y-58582231D01*
X79035048Y-58547502D01*
X79002821Y-58485509D01*
X79000500Y-58461628D01*
X79000500Y-58419996D01*
X88094435Y-58419996D01*
X88094435Y-58420003D01*
X88114630Y-58599249D01*
X88114631Y-58599254D01*
X88174211Y-58769523D01*
X88197595Y-58806738D01*
X88270184Y-58922262D01*
X88397738Y-59049816D01*
X88550478Y-59145789D01*
X88720745Y-59205368D01*
X88720750Y-59205369D01*
X88899996Y-59225565D01*
X88900000Y-59225565D01*
X88900004Y-59225565D01*
X89079249Y-59205369D01*
X89079252Y-59205368D01*
X89079255Y-59205368D01*
X89249522Y-59145789D01*
X89402262Y-59049816D01*
X89529816Y-58922262D01*
X89625789Y-58769522D01*
X89685368Y-58599255D01*
X89687286Y-58582231D01*
X89705565Y-58420003D01*
X89705565Y-58419996D01*
X93174435Y-58419996D01*
X93174435Y-58420003D01*
X93194630Y-58599249D01*
X93194631Y-58599254D01*
X93254211Y-58769523D01*
X93277595Y-58806738D01*
X93350184Y-58922262D01*
X93477738Y-59049816D01*
X93630478Y-59145789D01*
X93800745Y-59205368D01*
X93800750Y-59205369D01*
X93979996Y-59225565D01*
X93980000Y-59225565D01*
X93980004Y-59225565D01*
X94159249Y-59205369D01*
X94159252Y-59205368D01*
X94159255Y-59205368D01*
X94329522Y-59145789D01*
X94482262Y-59049816D01*
X94609816Y-58922262D01*
X94705789Y-58769522D01*
X94765368Y-58599255D01*
X94767286Y-58582231D01*
X94785565Y-58420003D01*
X94785565Y-58419996D01*
X98254435Y-58419996D01*
X98254435Y-58420003D01*
X98274630Y-58599249D01*
X98274631Y-58599254D01*
X98334211Y-58769523D01*
X98357595Y-58806738D01*
X98430184Y-58922262D01*
X98557738Y-59049816D01*
X98710478Y-59145789D01*
X98880745Y-59205368D01*
X98880750Y-59205369D01*
X99059996Y-59225565D01*
X99060000Y-59225565D01*
X99060004Y-59225565D01*
X99239249Y-59205369D01*
X99239252Y-59205368D01*
X99239255Y-59205368D01*
X99409522Y-59145789D01*
X99562262Y-59049816D01*
X99689816Y-58922262D01*
X99785789Y-58769522D01*
X99845368Y-58599255D01*
X99847286Y-58582231D01*
X99865565Y-58420003D01*
X99865565Y-58419996D01*
X99845369Y-58240750D01*
X99845368Y-58240745D01*
X99785788Y-58070476D01*
X99689815Y-57917737D01*
X99562262Y-57790184D01*
X99409523Y-57694211D01*
X99239254Y-57634631D01*
X99239249Y-57634630D01*
X99060004Y-57614435D01*
X99059996Y-57614435D01*
X98880750Y-57634630D01*
X98880745Y-57634631D01*
X98710476Y-57694211D01*
X98557737Y-57790184D01*
X98430184Y-57917737D01*
X98334211Y-58070476D01*
X98274631Y-58240745D01*
X98274630Y-58240750D01*
X98254435Y-58419996D01*
X94785565Y-58419996D01*
X94765369Y-58240750D01*
X94765368Y-58240745D01*
X94705788Y-58070476D01*
X94609815Y-57917737D01*
X94482262Y-57790184D01*
X94329523Y-57694211D01*
X94159254Y-57634631D01*
X94159249Y-57634630D01*
X93980004Y-57614435D01*
X93979996Y-57614435D01*
X93800750Y-57634630D01*
X93800745Y-57634631D01*
X93630476Y-57694211D01*
X93477737Y-57790184D01*
X93350184Y-57917737D01*
X93254211Y-58070476D01*
X93194631Y-58240745D01*
X93194630Y-58240750D01*
X93174435Y-58419996D01*
X89705565Y-58419996D01*
X89685369Y-58240750D01*
X89685368Y-58240745D01*
X89625788Y-58070476D01*
X89529815Y-57917737D01*
X89402262Y-57790184D01*
X89249523Y-57694211D01*
X89079254Y-57634631D01*
X89079249Y-57634630D01*
X88900004Y-57614435D01*
X88899996Y-57614435D01*
X88720750Y-57634630D01*
X88720745Y-57634631D01*
X88550476Y-57694211D01*
X88397737Y-57790184D01*
X88270184Y-57917737D01*
X88174211Y-58070476D01*
X88114631Y-58240745D01*
X88114630Y-58240750D01*
X88094435Y-58419996D01*
X79000500Y-58419996D01*
X79000500Y-55879996D01*
X85554435Y-55879996D01*
X85554435Y-55880003D01*
X85574630Y-56059249D01*
X85574631Y-56059254D01*
X85634211Y-56229523D01*
X85730184Y-56382262D01*
X85857738Y-56509816D01*
X86010478Y-56605789D01*
X86180745Y-56665368D01*
X86180750Y-56665369D01*
X86359996Y-56685565D01*
X86360000Y-56685565D01*
X86360004Y-56685565D01*
X86539249Y-56665369D01*
X86539252Y-56665368D01*
X86539255Y-56665368D01*
X86709522Y-56605789D01*
X86862262Y-56509816D01*
X86989816Y-56382262D01*
X87085789Y-56229522D01*
X87145368Y-56059255D01*
X87165565Y-55880000D01*
X87165565Y-55879996D01*
X90634435Y-55879996D01*
X90634435Y-55880003D01*
X90654630Y-56059249D01*
X90654631Y-56059254D01*
X90714211Y-56229523D01*
X90810184Y-56382262D01*
X90937738Y-56509816D01*
X91090478Y-56605789D01*
X91260745Y-56665368D01*
X91260750Y-56665369D01*
X91439996Y-56685565D01*
X91440000Y-56685565D01*
X91440004Y-56685565D01*
X91619249Y-56665369D01*
X91619252Y-56665368D01*
X91619255Y-56665368D01*
X91789522Y-56605789D01*
X91942262Y-56509816D01*
X92069816Y-56382262D01*
X92165789Y-56229522D01*
X92225368Y-56059255D01*
X92245565Y-55880000D01*
X92245565Y-55879996D01*
X95714435Y-55879996D01*
X95714435Y-55880003D01*
X95734630Y-56059249D01*
X95734631Y-56059254D01*
X95794211Y-56229523D01*
X95890184Y-56382262D01*
X96017738Y-56509816D01*
X96170478Y-56605789D01*
X96340745Y-56665368D01*
X96340750Y-56665369D01*
X96519996Y-56685565D01*
X96520000Y-56685565D01*
X96520004Y-56685565D01*
X96699249Y-56665369D01*
X96699252Y-56665368D01*
X96699255Y-56665368D01*
X96869522Y-56605789D01*
X97022262Y-56509816D01*
X97149816Y-56382262D01*
X97245789Y-56229522D01*
X97305368Y-56059255D01*
X97325565Y-55880000D01*
X97305368Y-55700745D01*
X97245789Y-55530478D01*
X97149816Y-55377738D01*
X97022262Y-55250184D01*
X96869523Y-55154211D01*
X96699254Y-55094631D01*
X96699249Y-55094630D01*
X96520004Y-55074435D01*
X96519996Y-55074435D01*
X96340750Y-55094630D01*
X96340745Y-55094631D01*
X96170476Y-55154211D01*
X96017737Y-55250184D01*
X95890184Y-55377737D01*
X95794211Y-55530476D01*
X95734631Y-55700745D01*
X95734630Y-55700750D01*
X95714435Y-55879996D01*
X92245565Y-55879996D01*
X92225368Y-55700745D01*
X92165789Y-55530478D01*
X92069816Y-55377738D01*
X91942262Y-55250184D01*
X91789523Y-55154211D01*
X91619254Y-55094631D01*
X91619249Y-55094630D01*
X91440004Y-55074435D01*
X91439996Y-55074435D01*
X91260750Y-55094630D01*
X91260745Y-55094631D01*
X91090476Y-55154211D01*
X90937737Y-55250184D01*
X90810184Y-55377737D01*
X90714211Y-55530476D01*
X90654631Y-55700745D01*
X90654630Y-55700750D01*
X90634435Y-55879996D01*
X87165565Y-55879996D01*
X87145368Y-55700745D01*
X87085789Y-55530478D01*
X86989816Y-55377738D01*
X86862262Y-55250184D01*
X86709523Y-55154211D01*
X86539254Y-55094631D01*
X86539249Y-55094630D01*
X86360004Y-55074435D01*
X86359996Y-55074435D01*
X86180750Y-55094630D01*
X86180745Y-55094631D01*
X86010476Y-55154211D01*
X85857737Y-55250184D01*
X85730184Y-55377737D01*
X85634211Y-55530476D01*
X85574631Y-55700745D01*
X85574630Y-55700750D01*
X85554435Y-55879996D01*
X79000500Y-55879996D01*
X79000500Y-52917371D01*
X79020185Y-52850332D01*
X79072989Y-52804577D01*
X79142147Y-52794633D01*
X79165455Y-52800330D01*
X79322737Y-52855366D01*
X79322743Y-52855367D01*
X79322745Y-52855368D01*
X79322746Y-52855368D01*
X79322750Y-52855369D01*
X79501996Y-52875565D01*
X79502000Y-52875565D01*
X79502004Y-52875565D01*
X79681249Y-52855369D01*
X79681252Y-52855368D01*
X79681255Y-52855368D01*
X79851522Y-52795789D01*
X80004262Y-52699816D01*
X80131816Y-52572262D01*
X80150504Y-52542518D01*
X80202836Y-52496228D01*
X80271890Y-52485578D01*
X80272988Y-52485730D01*
G37*
%TD.AperFunction*%
%TD*%
M02*
