%TF.GenerationSoftware,KiCad,Pcbnew,8.0.8*%
%TF.CreationDate,2025-01-18T23:44:27+01:00*%
%TF.ProjectId,myAntWeightBot,6d79416e-7457-4656-9967-6874426f742e,rev?*%
%TF.SameCoordinates,Original*%
%TF.FileFunction,Soldermask,Bot*%
%TF.FilePolarity,Negative*%
%FSLAX46Y46*%
G04 Gerber Fmt 4.6, Leading zero omitted, Abs format (unit mm)*
G04 Created by KiCad (PCBNEW 8.0.8) date 2025-01-18 23:44:27*
%MOMM*%
%LPD*%
G01*
G04 APERTURE LIST*
%ADD10R,1.000000X1.500000*%
%ADD11C,1.500000*%
%ADD12R,1.700000X1.700000*%
%ADD13O,1.700000X1.700000*%
%ADD14R,1.800000X1.800000*%
%ADD15C,1.800000*%
%ADD16R,6.000000X5.000000*%
%ADD17R,1.050000X1.500000*%
%ADD18O,1.050000X1.500000*%
%ADD19R,1.500000X1.000000*%
G04 APERTURE END LIST*
D10*
%TO.C,JP14*%
X91450000Y-47500000D03*
X92750000Y-47500000D03*
%TD*%
D11*
%TO.C,TP5*%
X123825000Y-72644000D03*
%TD*%
%TO.C,TP2*%
X121285000Y-72644000D03*
%TD*%
D12*
%TO.C,J12*%
X133350000Y-72390000D03*
D13*
X135890000Y-72390000D03*
X138430000Y-72390000D03*
%TD*%
D14*
%TO.C,D1*%
X114475000Y-72660000D03*
D15*
X117015000Y-72660000D03*
%TD*%
D12*
%TO.C,J3*%
X105500000Y-74000000D03*
D13*
X105500000Y-71460000D03*
%TD*%
D16*
%TO.C,J1*%
X81500000Y-48400000D03*
X81500000Y-55600000D03*
%TD*%
D11*
%TO.C,TP3*%
X121285000Y-70104000D03*
%TD*%
D17*
%TO.C,Q2*%
X97430000Y-49411000D03*
D18*
X98700000Y-49411000D03*
X99970000Y-49411000D03*
%TD*%
D17*
%TO.C,Q1*%
X90170000Y-49411000D03*
D18*
X91440000Y-49411000D03*
X92710000Y-49411000D03*
%TD*%
D12*
%TO.C,J11*%
X133335000Y-74930000D03*
D13*
X135875000Y-74930000D03*
X138415000Y-74930000D03*
%TD*%
D12*
%TO.C,J6*%
X146050000Y-69850000D03*
D13*
X148590000Y-69850000D03*
X151130000Y-69850000D03*
%TD*%
D12*
%TO.C,J9*%
X133335000Y-67310000D03*
D13*
X135875000Y-67310000D03*
X138415000Y-67310000D03*
%TD*%
D11*
%TO.C,TP4*%
X123825000Y-75184000D03*
%TD*%
D12*
%TO.C,J7*%
X146050000Y-72390000D03*
D13*
X148590000Y-72390000D03*
X151130000Y-72390000D03*
%TD*%
D12*
%TO.C,J5*%
X146050000Y-67310000D03*
D13*
X148590000Y-67310000D03*
X151130000Y-67310000D03*
%TD*%
D11*
%TO.C,TP6*%
X123825000Y-70104000D03*
%TD*%
D16*
%TO.C,J2*%
X99500000Y-65400000D03*
X99500000Y-72600000D03*
%TD*%
D11*
%TO.C,TP1*%
X121285000Y-75184000D03*
%TD*%
D12*
%TO.C,J13*%
X133350000Y-69850000D03*
D13*
X135890000Y-69850000D03*
X138430000Y-69850000D03*
%TD*%
D12*
%TO.C,J8*%
X146050000Y-74930000D03*
D13*
X148590000Y-74930000D03*
X151130000Y-74930000D03*
%TD*%
D12*
%TO.C,J4*%
X109250000Y-74000000D03*
D13*
X109250000Y-71460000D03*
%TD*%
D10*
%TO.C,JP6*%
X130519000Y-74930000D03*
X129219000Y-74930000D03*
X127919000Y-74930000D03*
%TD*%
%TO.C,JP1*%
X143540000Y-67310000D03*
X142240000Y-67310000D03*
X140940000Y-67310000D03*
%TD*%
D16*
%TO.C,J10*%
X150500000Y-48400000D03*
X150500000Y-55600000D03*
%TD*%
D10*
%TO.C,JP3*%
X143540000Y-72390000D03*
X142240000Y-72390000D03*
X140940000Y-72390000D03*
%TD*%
D19*
%TO.C,JP12*%
X143920000Y-47912500D03*
X143920000Y-49212500D03*
X143920000Y-50512500D03*
%TD*%
D10*
%TO.C,JP2*%
X143510000Y-69850000D03*
X142210000Y-69850000D03*
X140910000Y-69850000D03*
%TD*%
%TO.C,JP8*%
X130489000Y-69850000D03*
X129189000Y-69850000D03*
X127889000Y-69850000D03*
%TD*%
%TO.C,JP4*%
X143540000Y-74930000D03*
X142240000Y-74930000D03*
X140940000Y-74930000D03*
%TD*%
%TO.C,JP7*%
X130489000Y-72390000D03*
X129189000Y-72390000D03*
X127889000Y-72390000D03*
%TD*%
%TO.C,JP5*%
X130489000Y-67310000D03*
X129189000Y-67310000D03*
X127889000Y-67310000D03*
%TD*%
M02*
