0
SECTION
2
HEADER
9
$INSUNITS
70
4
9
$ACADVER
1
AC1014
9
$HANDSEED
5
FFFF
0
ENDSEC
0
SECTION
2
TABLES
0
TABLE
2
VPORT
5
8
100
AcDbSymbolTable
0
ENDTAB
0
TABLE
2
LTYPE
5
5
100
AcDbSymbolTable
0
LTYPE
5
14
100
AcDbSymbolTableRecord
100
AcDbLinetypeTableRecord
2
BYBLOCK
70
0
0
LTYPE
5
15
100
AcDbSymbolTableRecord
100
AcDbLinetypeTableRecord
2
BYLAYER
70
0
0
ENDTAB
0
TABLE
2
LAYER
5
2
100
AcDbSymbolTable
70
2
0
LAYER
5
50
100
AcDbSymbolTableRecord
100
AcDbLayerTableRecord
2
0
70
0
6
CONTINUOUS
0
ENDTAB
0
TABLE
2
STYLE
5
3
100
AcDbSymbolTable
70
1
0
STYLE
5
11
100
AcDbSymbolTableRecord
100
AcDbTextStyleTableRecord
2
STANDARD
70
0
0
ENDTAB
0
TABLE
2
VIEW
5
6
100
AcDbSymbolTable
70
0
0
ENDTAB
0
TABLE
2
UCS
5
7
100
AcDbSymbolTable
70
0
0
ENDTAB
0
TABLE
2
APPID
5
9
100
AcDbSymbolTable
70
2
0
APPID
5
12
100
AcDbSymbolTableRecord
100
AcDbRegAppTableRecord
2
ACAD
70
0
0
ENDTAB
0
TABLE
2
DIMSTYLE
5
A
100
AcDbSymbolTable
70
1
0
ENDTAB
0
TABLE
2
BLOCK_RECORD
5
1
100
AcDbSymbolTable
70
1
0
BLOCK_RECORD
5
1F
100
AcDbSymbolTableRecord
100
AcDbBlockTableRecord
2
*MODEL_SPACE
0
BLOCK_RECORD
5
1B
100
AcDbSymbolTableRecord
100
AcDbBlockTableRecord
2
*PAPER_SPACE
0
ENDTAB
0
ENDSEC
0
SECTION
2
BLOCKS
0
BLOCK
5
20
100
AcDbEntity
100
AcDbBlockBegin
2
*MODEL_SPACE
0
ENDBLK
5
21
100
AcDbEntity
100
AcDbBlockEnd
0
BLOCK
5
1C
100
AcDbEntity
100
AcDbBlockBegin
2
*PAPER_SPACE
0
ENDBLK
5
1D
100
AcDbEntity
100
AcDbBlockEnd
0
ENDSEC
0
SECTION
2
ENTITIES
0
LWPOLYLINE
5
100
100
AcDbEntity
8
0
100
AcDbPolyline
90
6
70
1
43
0.0
10
26.701722997101093
20
35.400011822787057
10
23.705660570642767
20
39.645434055824033
10
25.884272861014878
20
44.362811344979477
10
31.058947577845327
20
44.834766401097951
10
34.055010004303654
20
40.589344168060968
10
31.876397713931532
20
35.871966878905532
0
LWPOLYLINE
5
101
100
AcDbEntity
8
0
100
AcDbPolyline
90
6
70
1
43
0.0
10
68.091016778732268
20
142.56527500192405
10
70.258832923686484
20
137.84292673420003
10
67.253067430797159
20
133.60436874807365
10
62.079485792953633
20
134.08815902967123
10
59.911669647999418
20
138.81050729739525
10
62.917435140888728
20
143.04906528352166
0
CIRCLE
5
102
100
AcDbEntity
8
0
100
AcDbCircle
10
46.982793125665424
20
89.222053190375533
30
0
40
4.6250000000000036
210
2.1718075211767946e-45
220
1.5777218104420236e-30
230
1
0
CIRCLE
5
103
100
AcDbEntity
8
0
100
AcDbCircle
10
40.737061975116049
20
90.137748698608277
30
0
40
1.25
210
-1.657274609823628e-45
220
-2.6006628510012797e-76
230
1
0
CIRCLE
5
104
100
AcDbEntity
8
0
100
AcDbCircle
10
50.898674318990999
20
94.173167304255983
30
0
40
1.25
210
-1.657274609823628e-45
220
-2.6006628510012797e-76
230
1
0
CIRCLE
5
105
100
AcDbEntity
8
0
100
AcDbCircle
10
49.312643174448809
20
83.355243568226868
30
0
40
1.25
210
-1.657274609823628e-45
220
-2.6006628510012797e-76
230
1
0
LWPOLYLINE
5
106
100
AcDbEntity
8
0
100
AcDbPolyline
90
3
70
1
43
0.0
10
33.195458770874318
20
89.222053217149238
10
33.132793156185286
20
89.222053217312549
42
-0.00016583120127078424
10
33.132796203201579
20
89.231240265084764
0
LWPOLYLINE
5
107
100
AcDbEntity
8
0
100
AcDbPolyline
90
3
70
1
43
0.0
10
60.832790109217825
20
89.212866032452936
42
0.0001658311396358987
10
60.832793156185296
20
89.22205307682998
10
60.770127541496251
20
89.222053080055474
0
SPLINE
5
108
100
AcDbEntity
8
0
100
AcDbSpline
70
4
71
5
72
52
73
46
74
0
42
0.000000001
43
0.0000000001
44
0.0000000001
40
-1
40
-1
40
-1
40
-1
40
-1
40
-1
40
-0.98947368421052739
40
-0.97894736842105368
40
-0.96842105263157996
40
-0.95789473684210624
40
-0.94736842105263253
40
-0.93684210526315881
40
-0.92631578947368509
40
-0.91578947368421137
40
-0.90526315789473766
40
-0.89473684210526394
40
-0.88421052631579022
40
-0.87368421052631651
40
-0.86315789473684279
40
-0.85263157894736907
40
-0.84210526315789536
40
-0.83157894736842164
40
-0.82105263157894792
40
-0.81052631578947421
40
-0.80000000000000049
40
-0.78947368421052677
40
-0.77894736842105305
40
-0.76842105263157934
40
-0.75789473684210562
40
-0.7473684210526319
40
-0.73684210526315819
40
-0.72631578947368447
40
-0.71578947368421075
40
-0.70526315789473704
40
-0.69473684210526332
40
-0.6842105263157896
40
-0.67368421052631589
40
-0.66315789473684217
40
-0.65263157894736845
40
-0.64210526315789473
40
-0.63157894736842102
40
-0.6210526315789473
40
-0.61052631578947358
40
-0.59999999999999987
40
-0.58947368421052615
40
-0.57894736842105243
40
-0.57584290954977857
40
-0.57584290954977857
40
-0.57584290954977857
40
-0.57584290954977857
40
-0.57584290954977857
40
-0.57584290954977857
41
1
41
1
41
1
41
1
41
1
41
1
41
1
41
1
41
1
41
1
41
1
41
1
41
1
41
1
41
1
41
1
41
1
41
1
41
1
41
1
41
1
41
1
41
1
41
1
41
1
41
1
41
1
41
1
41
1
41
1
41
1
41
1
41
1
41
1
41
1
41
1
41
1
41
1
41
1
41
1
41
1
41
1
41
1
41
1
41
1
41
1
10
74.482793156163254
20
89.222053107447351
30
0
10
74.481982674918243
20
89.727169756265795
30
0
10
74.479576000604354
20
90.719795325693639
30
0
10
74.473609616735331
20
92.15591229951697
30
0
10
74.462577931703237
20
93.971751449837257
30
0
10
74.451779540906088
20
96.112732421338166
30
0
10
74.451779949499169
20
98.166312641025954
30
0
10
74.466091014924501
20
100.16580587871582
30
0
10
74.489138758538871
20
102.12107327734347
30
0
10
74.503744162059974
20
104.00876430651351
30
0
10
74.493559219046489
20
105.79921467932746
30
0
10
74.453639994406871
20
107.47886376338977
30
0
10
74.402211182815222
20
109.07536248631315
30
0
10
74.390609295044527
20
110.67883963371919
30
0
10
74.484640691046195
20
112.40455024830109
30
0
10
74.748228213435326
20
114.36022960973959
30
0
10
75.224491100706786
20
116.60811065359019
30
0
10
75.923027624885719
20
119.1398900753878
30
0
10
76.829897062105573
20
121.89913059371722
30
0
10
77.914127786641075
20
124.79640661171736
30
0
10
79.135569530793617
20
127.72725241158952
30
0
10
80.452161592337291
20
130.5889128709648
30
0
10
81.827452973090047
20
133.29757574716015
30
-8.8817841970012523e-15
10
83.238009140312798
20
135.80548972364704
30
-8.8817841970012523e-15
10
84.674979828802094
20
138.09224698852248
30
0
10
86.145486010941624
20
140.15605961927324
30
0
10
87.6743802414871
20
142.00486076681511
30
0
10
89.305196287951873
20
143.64793405000938
30
0
10
91.103051883015681
20
145.08625952767215
30
0
10
93.151878419313618
20
146.30660994897949
30
0
10
95.517975513825377
20
147.296976930271
30
0
10
98.219876823569393
20
148.05855821274943
30
0
10
101.19135531966901
20
148.620707809539
30
0
10
104.25733639566968
20
149.05092650518412
30
-8.8817841970012523e-15
10
107.0795120933103
20
149.47613711366665
30
0
10
109.20742232691127
20
150.06502079390157
30
0
10
110.30253121832135
20
150.94738082801723
30
0
10
110.28535555429718
20
152.16060561574602
30
8.8817841970012523e-15
10
109.59029644887964
20
153.55929443353313
30
8.8817841970012523e-15
10
109.1492297600106
20
154.81689804953507
30
0
10
109.75151147882094
20
155.64215922939749
30
0
10
111.08169465492441
20
155.97232474576697
30
0
10
112.09232746175061
20
156.13667264727118
30
8.8817841970012523e-15
10
112.57936005295292
20
156.27227000975157
30
8.8817841970012523e-15
10
112.76139643710067
20
156.36298719011552
30
8.8817841970012523e-15
10
112.79780245095728
20
156.38446237181887
30
0
0
ARC
5
109
100
AcDbEntity
8
0
100
AcDbCircle
10
46.98279314788509
20
89.222053229532889
30
0
40
94.034061123399852
210
-3.9024559525086395e-33
220
-3.9823491042173003e-33
230
1
100
AcDbArc
50
45.580532267471945
51
46.543157039435549
0
SPLINE
5
110
100
AcDbEntity
8
0
100
AcDbSpline
70
4
71
5
72
13
73
7
74
0
42
0.000000001
43
0.0000000001
44
0.0000000001
40
-0.55637469925064553
40
-0.55637469925064553
40
-0.55637469925064553
40
-0.55637469925064553
40
-0.55637469925064553
40
-0.55637469925064553
40
-0.54736842105263128
40
-0.54285112740181729
40
-0.54285112740181729
40
-0.54285112740181729
40
-0.54285112740181729
40
-0.54285112740181729
40
-0.54285112740181729
41
1
41
1
41
1
41
1
41
1
41
1
41
1
10
111.66017312845327
20
157.48068762994038
30
0
10
111.34338003338112
20
157.62306482052048
30
0
10
110.80187195975637
20
157.84939834208518
30
8.8817841970012523e-15
10
110.17116631148185
20
158.09212254420308
30
0
10
109.47019220969203
20
158.34622954278493
30
0
10
108.720653848024
20
158.60578946592625
30
0
10
108.46567931340957
20
158.69287502202727
30
0
0
SPLINE
5
111
100
AcDbEntity
8
0
100
AcDbSpline
70
0
71
3
72
14
73
10
74
0
42
0.000000001
43
0.0000000001
44
0.0000000001
40
0
40
0
40
0
40
0
40
0.039064447338691993
40
0.039064447338691993
40
0.078128894677383848
40
0.078128894677383848
40
0.10150341272936467
40
0.10150341272936467
40
0.12487793078134637
40
0.12487793078134637
40
0.12487793078134637
40
0.12487793078134637
10
107.3488833547531
20
158.35501236654042
30
-8.8817841970012523e-15
10
107.4281142928355
20
158.45834851200914
30
-8.8817841970012523e-15
10
107.52677158702988
20
158.54522114356303
30
0
10
107.7518326411242
20
158.67625977896861
30
0
10
107.87608469467925
20
158.7191729820442
30
0
10
108.08224057555958
20
158.74777021367382
30
0
10
108.16040407666286
20
158.74941945568335
30
0
10
108.31552199969323
20
158.73453804573788
30
0
10
108.39194627186949
20
158.71805825428712
30
0
10
108.46567931340957
20
158.69287502202727
30
0
0
ARC
5
112
100
AcDbEntity
8
0
100
AcDbCircle
10
105.76171928345148
20
159.57193890942182
30
-2.627434620609032e-45
40
1.9999999999999776
210
-6.2602584301062632e-31
220
4.7999288710246012e-31
230
1
100
AcDbArc
50
182.90145969493787
51
322.52152976149563
0
SPLINE
5
113
100
AcDbEntity
8
0
100
AcDbSpline
70
0
71
3
72
14
73
10
74
0
42
0.000000001
43
0.0000000001
44
0.0000000001
40
0
40
0
40
0
40
0
40
0.03906444733868724
40
0.03906444733868724
40
0.078128894677380281
40
0.078128894677380281
40
0.1014098245591092
40
0.1014098245591092
40
0.12469075444084039
40
0.12469075444084039
40
0.12469075444084039
40
0.12469075444084039
10
103.03829019400881
20
160.38217575535384
30
0
10
103.16356883460359
20
160.34666290246267
30
0
10
103.2807132932541
20
160.28701986751028
30
0
10
103.48554642604387
20
160.12618768866997
30
-8.8817841970012523e-15
10
103.57127678379102
20
160.02653618807213
30
-8.8817841970012523e-15
10
103.67376730594417
20
159.8457490689714
30
0
10
103.70405103198726
20
159.77401363541003
30
0
10
103.74741839708287
20
159.62498935578301
30
0
10
103.76035500410268
20
159.54820575929193
30
0
10
103.76428314759166
20
159.4707021415883
30
0
0
SPLINE
5
114
100
AcDbEntity
8
0
100
AcDbSpline
70
4
71
5
72
12
73
6
74
0
42
0.000000001
43
0.0000000001
44
0.0000000001
40
-0.52447792914692981
40
-0.52447792914692981
40
-0.52447792914692981
40
-0.52447792914692981
40
-0.52447792914692981
40
-0.52447792914692981
40
-0.52111484769391636
40
-0.52111484769391636
40
-0.52111484769391636
40
-0.52111484769391636
40
-0.52111484769391636
40
-0.52111484769391636
41
1
41
1
41
1
41
1
41
1
41
1
10
103.03829019400879
20
160.38217575535387
30
0
10
102.84757270529073
20
160.43623861944997
30
0
10
102.65881950989764
20
160.48922934610391
30
0
10
102.47218360318193
20
160.54110111647105
30
0
10
102.28778834907851
20
160.59181495738153
30
0
10
102.10573027082539
20
160.64133905440261
30
0
0
SPLINE
5
115
100
AcDbEntity
8
0
100
AcDbSpline
70
0
71
3
72
14
73
10
74
0
42
0.000000001
43
0.0000000001
44
0.0000000001
40
0
40
0
40
0
40
0
40
0.039064447338697121
40
0.039064447338697121
40
0.078128894677391203
40
0.078128894677391203
40
0.10185514519050609
40
0.10185514519050609
40
0.12558139570362342
40
0.12558139570362342
40
0.12558139570362342
40
0.12558139570362342
10
101.00875256237796
20
160.2274226316172
30
0
10
101.08050347616376
20
160.33608590453247
30
0
10
101.17279276561872
20
160.42969574836718
30
0
10
101.38805872113238
20
160.57627054304822
30
0
10
101.50897732732736
20
160.62783415896803
30
0
10
101.71375214049702
20
160.67113242258949
30
0
10
101.79279728808119
20
160.67825630171026
30
0
10
101.9509075538015
20
160.67373130657043
30
0
10
102.0294158955444
20
160.66209836682532
30
0
10
102.1057302708254
20
160.64133905440269
30
0
0
ARC
5
116
100
AcDbEntity
8
0
100
AcDbCircle
10
99.339767892407423
20
161.32946172865655
30
6.7875394365733327e-45
40
1.9999999999999998
210
6.5829837877648675e-31
220
-4.3467777983969271e-31
230
1
100
AcDbArc
50
189.90058549304632
51
326.56301359275523
0
SPLINE
5
117
100
AcDbEntity
8
0
100
AcDbSpline
70
0
71
3
72
14
73
10
74
0
42
0.000000001
43
0.0000000001
44
0.0000000001
40
0
40
0
40
0
40
0
40
0.039064447338692514
40
0.039064447338692514
40
0.078128894677383903
40
0.078128894677383903
40
0.10396048660409342
40
0.10396048660409342
40
0.12979207853080382
40
0.12979207853080382
40
0.12979207853080382
40
0.12979207853080382
10
96.487506022684798
20
161.80831928232021
30
-8.8817841970012523e-15
10
96.617027460280838
20
161.79489923340807
30
-8.8817841970012523e-15
10
96.742689368368787
20
161.75630907058704
30
-8.8817841970012523e-15
10
96.972147861528484
20
161.63313276622665
30
-8.8817841970012523e-15
10
97.073750698341115
20
161.54972425729335
30
0
10
97.211232087587746
20
161.38271148342028
30
0
10
97.257141251219764
20
161.30944227102816
30
0
10
97.329049247926548
20
161.15296308651477
30
0
10
97.354747879361625
20
161.07040638398669
30
0
10
97.36955275401246
20
160.98558339488193
30
-8.8817841970012523e-15
0
SPLINE
5
118
100
AcDbEntity
8
0
100
AcDbSpline
70
4
71
5
72
14
73
8
74
0
42
0.000000001
43
0.0000000001
44
0.0000000001
40
-0.49497601168791544
40
-0.49497601168791544
40
-0.49497601168791544
40
-0.49497601168791544
40
-0.49497601168791544
40
-0.49497601168791544
40
-0.4947368421052627
40
-0.48421052631578904
40
-0.47727755979694042
40
-0.47727755979694042
40
-0.47727755979694042
40
-0.47727755979694042
40
-0.47727755979694042
40
-0.47727755979694042
41
1
41
1
41
1
41
1
41
1
41
1
41
1
41
1
10
96.487506022684812
20
161.80831928232021
30
-8.8817841970012523e-15
10
96.479379902762744
20
161.80916125048273
30
-8.8817841970012523e-15
10
96.113855844089215
20
161.84683844976277
30
-8.8817841970012523e-15
10
95.531137027823007
20
161.89243778901351
30
0
10
94.965557224584458
20
161.91434184538298
30
0
10
94.394252148472162
20
161.91845413566739
30
0
10
93.807492662647292
20
161.91015491475315
30
0
10
93.56993147713797
20
161.90518222307634
30
0
0
SPLINE
5
119
100
AcDbEntity
8
0
100
AcDbSpline
70
0
71
3
72
14
73
10
74
0
42
0.000000001
43
0.0000000001
44
0.0000000001
40
0
40
0
40
0
40
0
40
0.03906444733870066
40
0.03906444733870066
40
0.078128894677397698
40
0.078128894677397698
40
0.10164077611051106
40
0.10164077611051106
40
0.12515265754362234
40
0.12515265754362234
40
0.12515265754362234
40
0.12515265754362234
10
92.635917099773906
20
161.20219355206063
30
0
10
92.67456385978987
20
161.32654116341698
30
0
10
92.737128989293552
20
161.44215137222682
30
0
10
92.903052780209038
20
161.64288228077666
30
0
10
93.004825119744226
20
161.72608388362417
30
-8.8817841970012523e-15
10
93.188807293206196
20
161.82436620422808
30
-8.8817841970012523e-15
10
93.262037298772981
20
161.85303961541618
30
-8.8817841970012523e-15
10
93.413683703722455
20
161.89269611019452
30
0
10
93.491575703305628
20
161.90354205991792
30
0
10
93.56993147713797
20
161.90518222307645
30
0
0
ARC
5
120
100
AcDbEntity
8
0
100
AcDbCircle
10
90.72603300063588
20
161.79577819460093
30
-8.8817841970012507e-15
40
1.9999999999999769
210
-6.4189875079227461e-31
220
-2.3413531064279522e-30
230
1
100
AcDbArc
50
202.20417622046304
51
342.73495603119835
0
SPLINE
5
121
100
AcDbEntity
8
0
100
AcDbSpline
70
0
71
3
72
14
73
10
74
0
42
0.000000001
43
0.0000000001
44
0.0000000001
40
0
40
0
40
0
40
0
40
0.039064447338692077
40
0.039064447338692077
40
0.078128894677384875
40
0.078128894677384875
40
0.10078726440636548
40
0.10078726440636548
40
0.12344563413534466
40
0.12344563413534466
40
0.12344563413534466
40
0.12344563413534466
10
87.90026148178535
20
161.66088903829475
30
0
10
88.030324691647891
20
161.66717091301535
30
0
10
88.160371416155257
20
161.64798849252787
30
0
10
88.40579201412362
20
161.5608545029954
30
0
10
88.518819532903478
20
161.49373598238202
30
0
10
88.67205474976268
20
161.35644418870316
30
0
10
88.722416693213944
20
161.2998334465662
30
0
10
88.809431184275951
20
161.17635740632761
30
0
10
88.845804298865204
20
161.10988863163928
30
0
10
88.874346916655895
20
161.03996165178458
30
-8.8817841970012523e-15
0
SPLINE
5
122
100
AcDbEntity
8
0
100
AcDbSpline
70
4
71
5
72
13
73
7
74
0
42
0.000000001
43
0.0000000001
44
0.0000000001
40
-0.45005756126346158
40
-0.45005756126346158
40
-0.45005756126346158
40
-0.45005756126346158
40
-0.45005756126346158
40
-0.45005756126346158
40
-0.44210526315789439
40
-0.43869924125668586
40
-0.43869924125668586
40
-0.43869924125668586
40
-0.43869924125668586
40
-0.43869924125668586
40
-0.43869924125668586
41
1
41
1
41
1
41
1
41
1
41
1
41
1
10
87.90026148178535
20
161.66088903829478
30
0
10
87.505273240308398
20
161.64181164775766
30
0
10
86.928996089951198
20
161.61385468163107
30
0
10
86.336656976089841
20
161.58483438036765
30
0
10
85.730505115612374
20
161.55455851922278
30
0
10
85.113136707316357
20
161.52272762623286
30
0
10
84.927069520364284
20
161.51303389417916
30
0
0
SPLINE
5
123
100
AcDbEntity
8
0
100
AcDbSpline
70
0
71
3
72
14
73
10
74
0
42
0.000000001
43
0.0000000001
44
0.0000000001
40
0
40
0
40
0
40
0
40
0.039064447338695074
40
0.039064447338695074
40
0.078128894677388566
40
0.078128894677388566
40
0.10097759983262175
40
0.10097759983262175
40
0.12382630498785346
40
0.12382630498785346
40
0.12382630498785346
40
0.12382630498785346
10
84.018994931443203
20
160.79403811527681
30
0
10
84.055409490905447
20
160.9190576352284
30
-8.8817841970012523e-15
10
84.11589499959905
20
161.03576932722592
30
-8.8817841970012523e-15
10
84.278198819620584
20
161.23943835296484
30
0
10
84.37846541796668
20
161.32444849981187
30
0
10
84.558727847018758
20
161.42493230460087
30
0
10
84.629271946100801
20
161.45429416477864
30
0
10
84.775652189446276
20
161.49643249535171
30
0
10
84.851010319983317
20
161.50907136042574
30
0
10
84.927069520364284
20
161.51303389417922
30
0
0
ARC
5
124
100
AcDbEntity
8
0
100
AcDbCircle
10
82.098790830753344
20
161.35333786647817
30
-2.4522723125684299e-44
40
2.0000000000000107
210
-6.2516221752732047e-32
220
-1.6250763720849298e-30
230
1
100
AcDbArc
50
203.48083104822433
51
343.76069069165868
0
SPLINE
5
125
100
AcDbEntity
8
0
100
AcDbSpline
70
0
71
3
72
14
73
10
74
0
42
0.000000001
43
0.0000000001
44
0.0000000001
40
0
40
0
40
0
40
0
40
0.039064447338691348
40
0.039064447338691348
40
0.078128894677385333
40
0.078128894677385333
40
0.10123455380228426
40
0.10123455380228426
40
0.12434021292718564
40
0.12434021292718564
40
0.12434021292718564
40
0.12434021292718564
10
79.26783445069276
20
161.15485590523875
30
0
10
79.397638413542424
20
161.16519184923396
30
0
10
79.528220219458106
20
161.15007537561564
30
0
10
79.776239400829468
20
161.07063931509597
30
0
10
79.891305577730321
20
161.00707918022923
30
-8.8817841970012523e-15
10
80.049889786789777
20
160.87367434460876
30
0
10
80.102903223009292
20
160.81745068438204
30
0
10
80.194970260094465
20
160.69395460276195
30
0
10
80.233716404488078
20
160.62709459465754
30
0
10
80.264403972603944
20
160.55645339891154
30
0
0
SPLINE
5
126
100
AcDbEntity
8
0
100
AcDbSpline
70
4
71
5
72
13
73
7
74
0
42
0.000000001
43
0.0000000001
44
0.0000000001
40
-0.41861970464306703
40
-0.41861970464306703
40
-0.41861970464306703
40
-0.41861970464306703
40
-0.41861970464306703
40
-0.41861970464306703
40
-0.41052631578947341
40
-0.4084233586154164
40
-0.4084233586154164
40
-0.4084233586154164
40
-0.4084233586154164
40
-0.4084233586154164
40
-0.4084233586154164
41
1
41
1
41
1
41
1
41
1
41
1
41
1
10
79.26783445069276
20
161.15485590523878
30
0
10
78.80939346311591
20
161.11835146986809
30
0
10
78.234020375169408
20
161.06997202739802
30
0
10
77.662588328635678
20
161.01836870514106
30
-8.8817841970012523e-15
10
77.096308183448926
20
160.9633020059174
30
0
10
76.535949336370507
20
160.90458517314869
30
0
10
76.420635360121338
20
160.89231823238873
30
0
0
SPLINE
5
127
100
AcDbEntity
8
0
100
AcDbSpline
70
0
71
3
72
14
73
10
74
0
42
0.000000001
43
0.0000000001
44
0.0000000001
40
0
40
0
40
0
40
0
40
0.039064447338695428
40
0.039064447338695428
40
0.078128894677387872
40
0.078128894677387872
40
0.10161590497726326
40
0.10161590497726326
40
0.12510291527714229
40
0.12510291527714229
40
0.12510291527714229
40
0.12510291527714229
10
75.549821332196984
20
160.11301178777498
30
0
10
75.577828317560432
20
160.24017903702025
30
0
10
75.630406132435553
20
160.36066011102693
30
0
10
75.778784526127254
20
160.57468687179409
30
0
10
75.873166526627656
20
160.66618634606797
30
0
10
76.048121456728623
20
160.7796105435506
30
0
10
76.118588800383336
20
160.81433782693699
30
0
10
76.266175002801518
20
160.86664108457148
30
0
10
76.342784582210129
20
160.88403657467632
30
0
10
76.420635360121366
20
160.89231823238873
30
0
0
ARC
5
128
100
AcDbEntity
8
0
100
AcDbCircle
10
73.596629754043732
20
160.54317763838515
30
-2.1895288505075267e-45
40
2.0000000000000084
210
3.8519911910301096e-31
220
-8.4835255576870669e-32
230
1
100
AcDbArc
50
208.80117989020707
51
347.57960760594284
0
SPLINE
5
129
100
AcDbEntity
8
0
100
AcDbSpline
70
0
71
3
72
14
73
10
74
0
42
0.000000001
43
0.0000000001
44
0.0000000001
40
0
40
0
40
0
40
0
40
0.039064447338692895
40
0.039064447338692895
40
0.078128894677386096
40
0.078128894677386096
40
0.10189883107802793
40
0.10189883107802793
40
0.12566876747867167
40
0.12566876747867167
40
0.12566876747867167
40
0.12566876747867167
10
70.783244919328965
20
160.08069601451729
30
0
10
70.911224415616687
20
160.10471994091768
30
0
10
71.042672765204372
20
160.10351694402178
30
0
10
71.297709504097782
20
160.05079252981344
30
0
10
71.418859603173942
20
159.99977518663786
30
0
10
71.592515375221382
20
159.88267644696265
30
0
10
71.652711518115211
20
159.83072753489222
30
0
10
71.759574660246486
20
159.71371548884531
30
0
10
71.805863958677065
20
159.64906592631471
30
0
10
71.844036235804481
20
159.57963419887349
30
0
0
SPLINE
5
130
100
AcDbEntity
8
0
100
AcDbSpline
70
4
71
5
72
13
73
7
74
0
42
0.000000001
43
0.0000000001
44
0.0000000001
40
-0.38675488686038612
40
-0.38675488686038612
40
-0.38675488686038612
40
-0.38675488686038612
40
-0.38675488686038612
40
-0.38675488686038612
40
-0.37894736842105242
40
-0.37835967869215947
40
-0.37835967869215947
40
-0.37835967869215947
40
-0.37835967869215947
40
-0.37835967869215947
40
-0.37835967869215947
41
1
41
1
41
1
41
1
41
1
41
1
41
1
10
70.783244919328979
20
160.08069601451726
30
0
10
70.398787999337316
20
160.00852691698296
30
0
10
69.989229810283263
20
159.92816391196001
30
0
10
69.583527195034563
20
159.84479696575787
30
0
10
69.181311230191426
20
159.75839277009229
30
0
10
68.782167656057723
20
159.6689153825497
30
0
10
68.754241322656043
20
159.6626366249624
30
0
0
SPLINE
5
131
100
AcDbEntity
8
0
100
AcDbSpline
70
0
71
3
72
14
73
10
74
0
42
0.000000001
43
0.0000000001
44
0.0000000001
40
0
40
0
40
0
40
0
40
0.039064447338691931
40
0.039064447338691931
40
0.078128894677384958
40
0.078128894677384958
40
0.10202110030162995
40
0.10202110030162995
40
0.12591330592587338
40
0.12591330592587338
40
0.12591330592587338
40
0.12591330592587338
10
67.977968652507954
20
158.78038139461142
30
0
10
67.990129341351832
20
158.91002713560044
30
0
10
68.027496463490024
20
159.0360581396985
30
0
10
68.148437007840784
20
159.26670285949746
30
0
10
68.23085417253165
20
159.36911148596602
30
0
10
68.391572045109527
20
159.5040525859302
30
0
10
68.458464731658893
20
159.54779393248481
30
0
10
68.601203720420713
20
159.61847728399133
30
0
10
68.676540312812079
20
159.64516688419548
30
0
10
68.754241322656043
20
159.6626366249624
30
0
0
ARC
5
132
100
AcDbEntity
8
0
100
AcDbCircle
10
65.986709338918075
20
158.96716026397729
30
1.1166597137588386e-44
40
1.9999999999999947
210
4.9010780116891382e-32
220
-1.5892444431438006e-30
230
1
100
AcDbArc
50
216.34264893626965
51
354.64137091535417
0
SPLINE
5
133
100
AcDbEntity
8
0
100
AcDbSpline
70
0
71
3
72
14
73
10
74
0
42
0.000000001
43
0.0000000001
44
0.0000000001
40
0
40
0
40
0
40
0
40
0.039064447338694491
40
0.039064447338694491
40
0.078128894677386804
40
0.078128894677386804
40
0.10190496194929162
40
0.10190496194929162
40
0.12568102922119206
40
0.12568102922119206
40
0.12568102922119206
40
0.12568102922119206
10
63.258241641967658
20
158.13940178916585
30
0
10
63.381956179147053
20
158.18002953584516
30
0
10
63.51242344027461
20
158.19610465900902
30
0
10
63.772176188599268
20
158.17734001734487
30
0
10
63.898978297946215
20
158.14267965271864
30
0
10
64.086530142546138
20
158.04939884729941
30
0
10
64.153044833142644
20
158.0057944242063
30
0
10
64.274378238001759
20
157.90380074588649
30
0
10
64.328767885813079
20
157.84577216681208
30
0
10
64.37573456790939
20
157.7819344259307
30
0
0
SPLINE
5
134
100
AcDbEntity
8
0
100
AcDbSpline
70
4
71
5
72
13
73
7
74
0
42
0.000000001
43
0.0000000001
44
0.0000000001
40
-0.35463239777174682
40
-0.35463239777174682
40
-0.35463239777174682
40
-0.35463239777174682
40
-0.35463239777174682
40
-0.35463239777174682
40
-0.34736842105263144
40
-0.3471196400986522
40
-0.3471196400986522
40
-0.3471196400986522
40
-0.3471196400986522
40
-0.3471196400986522
40
-0.3471196400986522
41
1
41
1
41
1
41
1
41
1
41
1
41
1
10
63.2582416419677
20
158.13940178916587
30
0
10
62.924117843179332
20
158.02967582351786
30
0
10
62.577996598677437
20
157.91341728781168
30
0
10
62.231047020488155
20
157.79421886398691
30
8.8817841970012523e-15
10
61.883040905907023
20
157.67199697324085
30
0
10
61.533796932565181
20
157.54666043322879
30
0
10
61.52223054117205
20
157.54250656196814
30
0
0
SPLINE
5
135
100
AcDbEntity
8
0
100
AcDbSpline
70
0
71
3
72
14
73
10
74
0
42
0.000000001
43
0.0000000001
44
0.0000000001
40
0
40
0
40
0
40
0
40
0.039064447338690654
40
0.039064447338690654
40
0.078128894677383376
40
0.078128894677383376
40
0.10178901404032695
40
0.10178901404032695
40
0.12544913340327041
40
0.12544913340327041
40
0.12544913340327041
40
0.12544913340327041
10
60.860552066535988
20
156.57588090819308
30
0
10
60.857234397278745
20
156.70605346129261
30
0
10
60.87937404097535
20
156.83562950841494
30
0
10
60.972075605963589
20
157.07900169640635
30
0
10
61.041751249767664
20
157.19047106651016
30
0
10
61.184782099746428
20
157.34297487716563
30
0
10
61.245350640676023
20
157.39391629941426
30
0
10
61.377192946199344
20
157.48050534001931
30
0
10
61.448005022310141
20
157.51584973883908
30
0
10
61.522230541172064
20
157.54250656196808
30
0
0
ARC
5
136
100
AcDbEntity
8
0
100
AcDbCircle
10
58.861201322301682
20
156.52492404869642
30
1.1495026465164515e-45
40
2.0000000000000115
210
9.8575602371936117e-32
220
2.5123671443602122e-33
230
1
100
AcDbArc
50
-137.31064419214536
51
1.459964478345092
0
SPLINE
5
137
100
AcDbEntity
8
0
100
AcDbSpline
70
0
71
3
72
14
73
10
74
0
42
0.000000001
43
0.0000000001
44
0.0000000001
40
0
40
0
40
0
40
0
40
0.039064447338691362
40
0.039064447338691362
40
0.078128894677384431
40
0.078128894677384431
40
0.1017545355973492
40
0.1017545355973492
40
0.12538017651731448
40
0.12538017651731448
40
0.12538017651731448
40
0.12538017651731448
10
56.243689503215805
20
155.40186201432471
30
0
10
56.362316165537017
20
155.45556132061702
30
0
10
56.49029736092384
20
155.48557680725671
30
0
10
56.750561462373696
20
155.49486117775226
30
0
10
56.880356101771987
20
155.47404129796578
30
0
10
57.076383113464324
20
155.40164929965826
30
0
10
57.146777936300239
20
155.36573583135959
30
0
10
57.277677112205993
20
155.27814015967783
30
8.8817841970012523e-15
10
57.337724415615448
20
155.22676380674585
30
8.8817841970012523e-15
10
57.391120185515412
20
155.16887779164429
30
8.8817841970012523e-15
0
SPLINE
5
138
100
AcDbEntity
8
0
100
AcDbSpline
70
4
71
5
72
13
73
7
74
0
42
0.000000001
43
0.0000000001
44
0.0000000001
40
-0.32499563454818597
40
-0.32499563454818597
40
-0.32499563454818597
40
-0.32499563454818597
40
-0.32499563454818597
40
-0.32499563454818597
40
-0.31578947368421045
40
-0.31428928433538328
40
-0.31428928433538328
40
-0.31428928433538328
40
-0.31428928433538328
40
-0.31428928433538328
40
-0.31428928433538328
41
1
41
1
41
1
41
1
41
1
41
1
41
1
10
56.243689503215791
20
155.40186201432471
30
0
10
55.792359493728455
20
155.19755627104462
30
8.8817841970012523e-15
10
55.264773100323097
20
154.95330979155543
30
0
10
54.734320843931485
20
154.70124122453575
30
0
10
54.201523981784128
20
154.44132738905063
30
8.8817841970012523e-15
10
53.667176149346375
20
154.17372319190213
30
0
10
53.592274386697419
20
154.13607560393618
30
0
0
SPLINE
5
139
100
AcDbEntity
8
0
100
AcDbSpline
70
0
71
3
72
14
73
10
74
0
42
0.000000001
43
0.0000000001
44
0.0000000001
40
0
40
0
40
0
40
0
40
0.039064447338692992
40
0.039064447338692992
40
0.078128894677383653
40
0.078128894677383653
40
0.10175780639403134
40
0.10175780639403134
40
0.12538671811068239
40
0.12538671811068239
40
0.12538671811068239
40
0.12538671811068239
10
53.051976769580307
20
153.09728733602424
30
0
10
53.033056342703276
20
153.2261202431425
30
0
10
53.039480736997689
20
153.35741701754617
30
0
10
53.10229594814772
20
153.61015769746763
30
8.8817841970012523e-15
10
53.158086217347822
20
153.72918526433111
30
0
10
53.281713630736547
20
153.89767268255358
30
0
10
53.335648096867814
20
153.95544830875596
30
0
10
53.455951698761311
20
154.05714151726315
30
0
10
53.521900664122583
20
154.10070392752385
30
0
10
53.59227438669744
20
154.13607560393618
30
0
0
ARC
5
140
100
AcDbEntity
8
0
100
AcDbCircle
10
51.073201961869437
20
152.80668406630971
30
8.8817841970012507e-15
40
2.000000000000008
210
-5.2788197986996473e-31
220
2.391193003054429e-30
230
1
100
AcDbArc
50
-130.39236887573799
51
8.3547465809479728
0
SPLINE
5
141
100
AcDbEntity
8
0
100
AcDbSpline
70
0
71
3
72
14
73
10
74
0
42
0.000000001
43
0.0000000001
44
0.0000000001
40
0
40
0
40
0
40
0
40
0.039064447338693208
40
0.039064447338693208
40
0.078128894677386485
40
0.078128894677386485
40
0.10181071748611892
40
0.10181071748611892
40
0.1254925402948503
40
0.1254925402948503
40
0.1254925402948503
40
0.1254925402948503
10
48.609068341620812
20
151.37592883565446
30
0
10
48.720287250078755
20
151.44365072953801
30
0
10
48.843670436939313
20
151.48900163924213
30
0
10
49.100875628235642
20
151.52985615685301
30
0
10
49.232238610854978
20
151.52496917330399
30
0
10
49.435794376270358
20
151.47690105608496
30
0
10
49.510203099681846
20
151.44972578896019
30
0
10
49.651074432566482
20
151.37844473275823
30
0
10
49.717042829265026
20
151.33458901591251
30
0
10
49.777165027139496
20
151.28343482084276
30
0
0
SPLINE
5
142
100
AcDbEntity
8
0
100
AcDbSpline
70
4
71
5
72
12
73
6
74
0
42
0.000000001
43
0.0000000001
44
0.0000000001
40
-0.29425316503432836
40
-0.29425316503432836
40
-0.29425316503432836
40
-0.29425316503432836
40
-0.29425316503432836
40
-0.29425316503432836
40
-0.28859806327631637
40
-0.28859806327631637
40
-0.28859806327631637
40
-0.28859806327631637
40
-0.28859806327631637
40
-0.28859806327631637
41
1
41
1
41
1
41
1
41
1
41
1
10
48.609068341620834
20
151.37592883565446
30
0
10
48.33353918498517
20
151.2081573967308
30
8.8817841970012523e-15
10
48.059630718587307
20
151.03909061249911
30
8.8817841970012523e-15
10
47.787622063111918
20
150.86888489332301
30
0
10
47.517824639940883
20
150.69772615431336
30
0
10
47.250535623028313
20
150.52579528900768
30
0
0
SPLINE
5
143
100
AcDbEntity
8
0
100
AcDbSpline
70
0
71
3
72
14
73
10
74
0
42
0.000000001
43
0.0000000001
44
0.0000000001
40
0
40
0
40
0
40
0
40
0.039064447338692271
40
0.039064447338692271
40
0.078128894677388219
40
0.078128894677388219
40
0.10197048486881419
40
0.10197048486881419
40
0.12581207506023726
40
0.12581207506023726
40
0.12581207506023726
40
0.12581207506023726
10
46.824089485177069
20
149.43162932472831
30
8.8817841970012523e-15
10
46.791127710245433
20
149.55760321846469
30
8.8817841970012523e-15
10
46.783086570537272
20
149.68881090072091
30
0
10
46.817750784852386
20
149.94692326827607
30
0
10
46.860124730093339
20
150.07136025865904
30
0
10
46.964844564592369
20
150.25302562933837
30
8.8817841970012523e-15
10
47.012600268677176
20
150.31690130269527
30
8.8817841970012523e-15
10
47.122221453271926
20
150.43199417926542
30
0
10
47.183697143342457
20
150.48280213582524
30
0
10
47.250535623028327
20
150.52579528900768
30
0
0
ARC
5
144
100
AcDbEntity
8
0
100
AcDbCircle
10
44.889226933903572
20
148.92536170016652
30
0
40
2.000000000000004
210
0
220
0
230
1
100
AcDbArc
50
-123.17111908921389
51
14.663032859265126
0
SPLINE
5
145
100
AcDbEntity
8
0
100
AcDbSpline
70
0
71
3
72
14
73
10
74
0
42
0.000000001
43
0.0000000001
44
0.0000000001
40
0
40
0
40
0
40
0
40
0.039064447338698051
40
0.039064447338698051
40
0.078128894677391286
40
0.078128894677391286
40
0.10246773365393386
40
0.10246773365393386
40
0.12680657263047415
40
0.12680657263047415
40
0.12680657263047415
40
0.12680657263047415
10
42.614301189019642
20
147.18798240110135
30
0
10
42.715053782827766
20
147.27047370579879
30
0
10
42.830955513065938
20
147.33249712668686
30
0
10
43.0800097246916
20
147.40862597608395
30
0
10
43.210781112070919
20
147.42200357129937
30
0
10
43.421216682585815
20
147.40242606857649
30
0
10
43.500783389955195
20
147.38510810116782
30
0
10
43.653976687273108
20
147.3316312567477
30
0
10
43.727035573115884
20
147.29567055436047
30
0
10
43.79494419653745
20
147.25128126879454
30
0
0
SPLINE
5
146
100
AcDbEntity
8
0
100
AcDbSpline
70
4
71
5
72
13
73
7
74
0
42
0.000000001
43
0.0000000001
44
0.0000000001
40
-0.2668750193644675
40
-0.2668750193644675
40
-0.2668750193644675
40
-0.2668750193644675
40
-0.2668750193644675
40
-0.2668750193644675
40
-0.26315789473684215
40
-0.25780282002997079
40
-0.25780282002997079
40
-0.25780282002997079
40
-0.25780282002997079
40
-0.25780282002997079
40
-0.25780282002997079
41
1
41
1
41
1
41
1
41
1
41
1
41
1
10
42.614301189019685
20
147.18798240110135
30
0
10
42.47532238462891
20
147.0741933415232
30
8.8817841970012523e-15
10
42.140444562960646
20
146.79671487664811
30
8.8817841970012523e-15
10
41.816072855680801
20
146.51982395596499
30
0
10
41.502027066940798
20
146.2434938993687
30
8.8817841970012523e-15
10
41.197973781869365
20
145.96769441226081
30
8.8817841970012523e-15
10
41.021896642766336
20
145.80507460843069
30
0
0
SPLINE
5
147
100
AcDbEntity
8
0
100
AcDbSpline
70
0
71
3
72
14
73
10
74
0
42
0.000000001
43
0.0000000001
44
0.0000000001
40
0
40
0
40
0
40
0
40
0.039064447338692181
40
0.039064447338692181
40
0.07812889467738493
40
0.07812889467738493
40
0.10302028114377373
40
0.10302028114377373
40
0.12791166761016337
40
0.12791166761016337
40
0.12791166761016337
40
0.12791166761016337
10
40.800324203896878
20
144.634662768238
30
0
10
40.743577956406057
20
144.75186244360216
30
0
10
40.710265936702214
20
144.87902543017492
30
0
10
40.69426042026975
20
145.13896277932415
30
8.8817841970012523e-15
10
40.711719945001896
20
145.26925199916596
30
8.8817841970012523e-15
10
40.780382064925547
20
145.47107824108889
30
0
10
40.816777639492571
20
145.54599796686119
30
0
10
40.907233956207136
20
145.68511875410323
30
0
10
40.960944077177913
20
145.7487805641872
30
0
10
41.02189664276635
20
145.80507460843069
30
0
0
ARC
5
148
100
AcDbEntity
8
0
100
AcDbCircle
10
39.000226928519972
20
143.76308385661804
30
8.8817841970012523e-15
40
2.0000000000000022
210
8.329517371042897e-31
220
-1.3654378786123272e-30
230
1
100
AcDbArc
50
-110.55396664203919
51
25.83553881963682
0
SPLINE
5
149
100
AcDbEntity
8
0
100
AcDbSpline
70
0
71
3
72
14
73
10
74
0
42
0.000000001
43
0.0000000001
44
0.0000000001
40
0
40
0
40
0
40
0
40
0.039064447338691272
40
0.039064447338691272
40
0.078128894677384042
40
0.078128894677384042
40
0.10226747681006119
40
0.10226747681006119
40
0.12640605894273735
40
0.12640605894273735
40
0.12640605894273735
40
0.12640605894273735
10
37.162209691347805
20
141.57387202981855
30
0
10
37.242918651912142
20
141.6760579593508
30
0
10
37.342815175138561
20
141.76150268100247
30
8.8817841970012523e-15
10
37.569737595424549
20
141.88929085420543
30
8.8817841970012523e-15
10
37.694593990463922
20
141.93041258117094
30
8.8817841970012523e-15
10
37.903667340486471
20
141.95635547193126
30
8.8817841970012523e-15
10
37.984421692224444
20
141.956590222654
30
8.8817841970012523e-15
10
38.14423332735447
20
141.93770274754488
30
8.8817841970012523e-15
10
38.222708094746444
20
141.91864936686591
30
8.8817841970012523e-15
10
38.298047982146109
20
141.89040002658444
30
8.8817841970012523e-15
0
SPLINE
5
150
100
AcDbEntity
8
0
100
AcDbSpline
70
4
71
5
72
13
73
7
74
0
42
0.000000001
43
0.0000000001
44
0.0000000001
40
-0.2295465878487766
40
-0.2295465878487766
40
-0.2295465878487766
40
-0.2295465878487766
40
-0.2295465878487766
40
-0.2295465878487766
40
-0.22105263157894744
40
-0.21980879659118044
40
-0.21980879659118044
40
-0.21980879659118044
40
-0.21980879659118044
40
-0.21980879659118044
40
-0.21980879659118044
41
1
41
1
41
1
41
1
41
1
41
1
41
1
10
37.162209691347798
20
141.57387202981852
30
0
10
36.967412047074234
20
141.32723797318332
30
0
10
36.748847419439791
20
141.04705563625296
30
8.8817841970012523e-15
10
36.535122462256631
20
140.77010099589532
30
0
10
36.325420065733745
20
140.49628700823564
30
0
10
36.11869432958931
20
140.2246020329394
30
0
10
36.092335017886931
20
140.18993136960918
30
0
0
SPLINE
5
151
100
AcDbEntity
8
0
100
AcDbSpline
70
0
71
3
72
14
73
10
74
0
42
0.000000001
43
0.0000000001
44
0.0000000001
40
0
40
0
40
0
40
0
40
0.03906444733869046
40
0.03906444733869046
40
0.078128894677381877
40
0.078128894677381877
40
0.10133056254143835
40
0.10133056254143835
40
0.12453223040549431
40
0.12453223040549431
40
0.12453223040549431
40
0.12453223040549431
10
36.058735375195909
20
139.02643266805686
30
-8.8817841970012523e-15
10
35.986039614109053
20
139.13446612042117
30
-8.8817841970012523e-15
10
35.935140199673953
20
139.25566581275172
30
0
10
35.882664014933226
20
139.51075374283474
30
0
10
35.88158894555545
20
139.64220320094196
30
-8.8817841970012523e-15
10
35.920079984626838
20
139.84615659143572
30
-8.8817841970012523e-15
10
35.943190586285994
20
139.92023416128896
30
-8.8817841970012523e-15
10
36.006020244883018
20
140.06157648123707
30
0
10
36.045527734355019
20
140.1283652867364
30
0
10
36.092335017886946
20
140.18993136960916
30
0
0
ARC
5
152
100
AcDbEntity
8
0
100
AcDbCircle
10
34.399424266642626
20
137.90988143992993
30
0
40
1.9999999999999818
210
0
220
0
230
1
100
AcDbArc
50
-104.95786595799352
51
33.936628656112745
0
SPLINE
5
153
100
AcDbEntity
8
0
100
AcDbSpline
70
0
71
3
72
14
73
10
74
0
42
0.000000001
43
0.0000000001
44
0.0000000001
40
0
40
0
40
0
40
0
40
0.03906444733869293
40
0.03906444733869293
40
0.078128894677385846
40
0.078128894677385846
40
0.10212146064590855
40
0.10212146064590855
40
0.12611402661443077
40
0.12611402661443077
40
0.12611402661443077
40
0.12611402661443077
10
32.78522415590465
20
135.55431494364507
30
-8.8817841970012523e-15
10
32.855902313061783
20
135.66367900817554
30
-8.8817841970012523e-15
10
32.947265982211896
20
135.75819247689975
30
-8.8817841970012523e-15
10
33.161079170546287
20
135.90687846323766
30
0
10
33.281484519112901
20
135.95962946178187
30
0
10
33.486690014781558
20
136.00513286049383
30
0
10
33.566564488653022
20
136.01301756871914
30
0
10
33.726478219830923
20
136.00959094212359
30
0
10
33.805941625879171
20
135.99829194662607
30
0
10
33.883206957015098
20
135.97764965020053
30
0
0
SPLINE
5
154
100
AcDbEntity
8
0
100
AcDbSpline
70
4
71
5
72
12
73
6
74
0
42
0.000000001
43
0.0000000001
44
0.0000000001
40
-0.18896785953325168
40
-0.18896785953325168
40
-0.18896785953325168
40
-0.18896785953325168
40
-0.18896785953325168
40
-0.18896785953325168
40
-0.18674717706396576
40
-0.18674717706396576
40
-0.18674717706396576
40
-0.18674717706396576
40
-0.18674717706396576
40
-0.18674717706396576
41
1
41
1
41
1
41
1
41
1
41
1
10
32.78522415590465
20
135.55431494364507
30
-8.8817841970012523e-15
10
32.733901856841548
20
135.47490122585234
30
-8.8817841970012523e-15
10
32.682429243389286
20
135.39482318915211
30
0
10
32.630814668428826
20
135.31407677636236
30
0
10
32.57906809176275
20
135.23266034275255
30
0
10
32.527200435546455
20
135.15057439969874
30
0
0
SPLINE
5
155
100
AcDbEntity
8
0
100
AcDbSpline
70
0
71
3
72
14
73
10
74
0
42
0.000000001
43
0.0000000001
44
0.0000000001
40
0
40
0
40
0
40
0
40
0.039064447338692791
40
0.039064447338692791
40
0.078128894677383917
40
0.078128894677383917
40
0.10233838218529712
40
0.10233838218529712
40
0.12654786969321061
40
0.12654786969321061
40
0.12654786969321061
40
0.12654786969321061
10
32.607036654882286
20
133.97301895866013
30
-8.8817841970012523e-15
10
32.52325819620085
20
134.07270381393272
30
-8.8817841970012523e-15
10
32.459751374143501
20
134.18779942359282
30
0
10
32.380430220444602
20
134.43585537819757
30
0
10
32.365374242265787
20
134.56644417301527
30
0
10
32.382213099664014
20
134.77668402520288
30
-8.8817841970012523e-15
10
32.398369397953168
20
134.85604990031055
30
-8.8817841970012523e-15
10
32.449403362466334
20
135.00916551543446
30
0
10
32.484093913613535
20
135.08235385991034
30
0
10
32.527200435546476
20
135.15057439969874
30
0
0
ARC
5
156
100
AcDbEntity
8
0
100
AcDbCircle
10
31.075953605249605
20
132.68624598135315
30
0
40
2.0000000000000129
210
0
220
0
230
1
100
AcDbArc
50
-97.992018538436966
51
40.044807456081642
0
SPLINE
5
157
100
AcDbEntity
8
0
100
AcDbSpline
70
0
71
3
72
14
73
10
74
0
42
0.000000001
43
0.0000000001
44
0.0000000001
40
0
40
0
40
0
40
0
40
0.039064447338692208
40
0.039064447338692208
40
0.078128894677385569
40
0.078128894677385569
40
0.1016840378851277
40
0.1016840378851277
40
0.12523918109287008
40
0.12523918109287008
40
0.12523918109287008
40
0.12523918109287008
10
29.763189267141659
20
130.16012533103458
30
0
10
29.821101228064499
20
130.27675339494638
30
0
10
29.901239573380952
20
130.38095493726127
30
0
10
30.09694753848656
20
130.55277459397499
30
-8.8817841970012523e-15
10
30.210646083460233
20
130.61875001880671
30
-8.8817841970012523e-15
10
30.408042620047038
20
130.6866001625977
30
-8.8817841970012523e-15
10
30.48504403417196
20
130.70328903864376
30
-8.8817841970012523e-15
10
30.641358370464637
20
130.71830888861825
30
-8.8817841970012523e-15
10
30.720128758175104
20
130.71658773178029
30
-8.8817841970012523e-15
10
30.797883300225834
20
130.70567108868588
30
-8.8817841970012523e-15
0
SPLINE
5
158
100
AcDbEntity
8
0
100
AcDbSpline
70
4
71
5
72
12
73
6
74
0
42
0.000000001
43
0.0000000001
44
0.0000000001
40
-0.16321835044427865
40
-0.16321835044427865
40
-0.16321835044427865
40
-0.16321835044427865
40
-0.16321835044427865
40
-0.16321835044427865
40
-0.16041101886251852
40
-0.16041101886251852
40
-0.16041101886251852
40
-0.16041101886251852
40
-0.16041101886251852
40
-0.16041101886251852
41
1
41
1
41
1
41
1
41
1
41
1
10
29.763189267141669
20
130.16012533103458
30
0
10
29.698659957984717
20
130.03017068483342
30
0
10
29.634265639770142
20
129.89991025449282
30
-8.8817841970012523e-15
10
29.570007925619205
20
129.76939055782037
30
-8.8817841970012523e-15
10
29.505887828242091
20
129.63865854715391
30
-8.8817841970012523e-15
10
29.441905866289098
20
129.50776103071553
30
0
0
SPLINE
5
159
100
AcDbEntity
8
0
100
AcDbSpline
70
0
71
3
72
14
73
10
74
0
42
0.000000001
43
0.0000000001
44
0.0000000001
40
0
40
0
40
0
40
0
40
0.039064447338693006
40
0.039064447338693006
40
0.078128894677385943
40
0.078128894677385943
40
0.10107661098228785
40
0.10107661098228785
40
0.12402432728718962
40
0.12402432728718962
40
0.12402432728718962
40
0.12402432728718962
10
29.631274132206926
20
128.36346088474272
30
0
10
29.539452030042163
20
128.4557896563353
30
0
10
29.466541659399628
20
128.56517061292109
30
0
10
29.366752193431935
20
128.80572344396012
30
-8.8817841970012523e-15
10
29.340827139790878
20
128.93459550223716
30
-8.8817841970012523e-15
10
29.340039565809825
20
129.14130121401146
30
0
10
29.348525646950101
20
129.21757452613826
30
0
10
29.382719620746734
20
129.36668895753169
30
0
10
29.408314880229923
20
129.43903890160837
30
0
10
29.441905866289101
20
129.50776103071553
30
0
0
ARC
5
160
100
AcDbEntity
8
0
100
AcDbCircle
10
28.213174895444521
20
126.95314370244154
30
1.0728691367486881e-44
40
2.0000000000000147
210
1.1125440890788587e-30
220
-1.1186830476055954e-30
230
1
100
AcDbArc
50
-96.396474468001642
51
44.842357812501618
0
SPLINE
5
161
100
AcDbEntity
8
0
100
AcDbSpline
70
0
71
3
72
14
73
10
74
0
42
0.000000001
43
0.0000000001
44
0.0000000001
40
0
40
0
40
0
40
0
40
0.03906444733869114
40
0.03906444733869114
40
0.078128894677383126
40
0.078128894677383126
40
0.10033688642310282
40
0.10033688642310282
40
0.1225448781688237
40
0.1225448781688237
40
0.1225448781688237
40
0.1225448781688237
10
26.982851916513301
20
124.41567233935332
30
0
10
27.040648152505028
20
124.53235779523767
30
0
10
27.120683089212228
20
124.6366387844789
30
-8.8817841970012523e-15
10
27.316220510864113
20
124.80865250129453
30
-8.8817841970012523e-15
10
27.429853551481695
20
124.87474068398144
30
-8.8817841970012523e-15
10
27.622937490100487
20
124.94132272440476
30
0
10
27.695383900747345
20
124.95760985011415
30
0
10
27.842538892043585
20
124.97389425226476
30
0
10
27.916793522033171
20
124.97384129381395
30
0
10
27.99035932878979
20
124.9655941500388
30
0
0
SPLINE
5
162
100
AcDbEntity
8
0
100
AcDbSpline
70
4
71
5
72
25
73
19
74
0
42
0.000000001
43
0.0000000001
44
0.0000000001
40
-0.13808521793316414
40
-0.13808521793316414
40
-0.13808521793316414
40
-0.13808521793316414
40
-0.13808521793316414
40
-0.13808521793316414
40
-0.13684210526315793
40
-0.12631578947368424
40
-0.11578947368421055
40
-0.10526315789473686
40
-0.094736842105263175
40
-0.084210526315789486
40
-0.073684210526315796
40
-0.063157894736842107
40
-0.052631578947368418
40
-0.042105263157894736
40
-0.031578947368421054
40
-0.021052631578947368
40
-0.010526315789473684
40
-0.0074676005111751686
40
-0.0074676005111751686
40
-0.0074676005111751686
40
-0.0074676005111751686
40
-0.0074676005111751686
40
-0.0074676005111751686
41
1
41
1
41
1
41
1
41
1
41
1
41
1
41
1
41
1
41
1
41
1
41
1
41
1
41
1
41
1
41
1
41
1
41
1
41
1
10
26.982851916513312
20
124.41567233935329
30
0
10
26.956410503056642
20
124.36228947919852
30
0
10
26.706350825593962
20
123.85815331594526
30
-8.8817841970012523e-15
10
26.237764214649268
20
122.92622968798084
30
-8.8817841970012523e-15
10
25.565209884801714
20
121.62303348373663
30
0
10
24.734284498219118
20
120.02027266835212
30
0
10
23.872000152739599
20
118.13197718076923
30
-8.8817841970012523e-15
10
23.145660606251703
20
116.19472675099622
30
0
10
22.525778166699133
20
114.1013313261453
30
0
10
21.969189605244157
20
111.77095093631394
30
0
10
21.443421439324645
20
109.15668720180214
30
0
10
20.940864264249058
20
106.25947701559453
30
-8.8817841970012523e-15
10
20.472234961991337
20
103.1133369580603
30
0
10
20.060413314654483
20
99.774122278511044
30
0
10
19.780501259129547
20
96.798833284810769
30
0
10
19.62765159753064
20
94.481367971856599
30
-8.8817841970012523e-15
10
19.555637417376058
20
92.860347350924314
30
-8.8817841970012523e-15
10
19.526477204480248
20
91.945588162748152
30
-8.8817841970012523e-15
10
19.520495177428451
20
91.739564829905262
30
0
0
LINE
5
163
100
AcDbEntity
8
0
100
AcDbLine
10
19.520495177428451
20
91.739564829905248
30
3.5201485485091514e-30
11
19.482793156185295
21
89.222052970353602
31
0
0
SPLINE
5
164
100
AcDbEntity
8
0
100
AcDbSpline
70
4
71
5
72
52
73
46
74
0
42
0.000000001
43
0.0000000001
44
0.0000000001
40
0.57584290954977857
40
0.57584290954977857
40
0.57584290954977857
40
0.57584290954977857
40
0.57584290954977857
40
0.57584290954977857
40
0.57894736842105243
40
0.58947368421052615
40
0.59999999999999987
40
0.61052631578947358
40
0.6210526315789473
40
0.63157894736842102
40
0.64210526315789473
40
0.65263157894736845
40
0.66315789473684217
40
0.67368421052631589
40
0.6842105263157896
40
0.69473684210526332
40
0.70526315789473704
40
0.71578947368421075
40
0.72631578947368447
40
0.73684210526315819
40
0.7473684210526319
40
0.75789473684210562
40
0.76842105263157934
40
0.77894736842105305
40
0.78947368421052677
40
0.80000000000000049
40
0.81052631578947421
40
0.82105263157894792
40
0.83157894736842164
40
0.84210526315789536
40
0.85263157894736907
40
0.86315789473684279
40
0.87368421052631651
40
0.88421052631579022
40
0.89473684210526394
40
0.90526315789473766
40
0.91578947368421137
40
0.92631578947368509
40
0.93684210526315881
40
0.94736842105263253
40
0.95789473684210624
40
0.96842105263157996
40
0.97894736842105368
40
0.98947368421052739
40
1
40
1
40
1
40
1
40
1
40
1
41
1
41
1
41
1
41
1
41
1
41
1
41
1
41
1
41
1
41
1
41
1
41
1
41
1
41
1
41
1
41
1
41
1
41
1
41
1
41
1
41
1
41
1
41
1
41
1
41
1
41
1
41
1
41
1
41
1
41
1
41
1
41
1
41
1
41
1
41
1
41
1
41
1
41
1
41
1
41
1
41
1
41
1
41
1
41
1
41
1
41
1
10
-18.832215781681025
20
22.059643502373461
30
0
10
-18.795809767938536
20
22.081118684270315
30
0
10
-18.613773384272879
20
22.171835865601622
30
0
10
-18.126740793791136
20
22.307433230670132
30
8.8817841970012523e-15
10
-17.116107987838284
20
22.471781137544895
30
8.8817841970012523e-15
10
-15.785924813489348
20
22.801946660983074
30
0
10
-15.183643099064493
20
23.627207844046051
30
0
10
-15.624709794616546
20
24.884811457704131
30
8.8817841970012523e-15
10
-16.319768907466784
20
26.283500271797656
30
0
10
-16.336944577938123
20
27.496725059435171
30
8.8817841970012523e-15
10
-15.241835691216966
20
28.379085099370322
30
0
10
-13.113925460745367
20
28.967968790913087
30
0
10
-10.291749765364354
20
29.393179414392851
30
0
10
-7.2257686916498933
20
29.823398126330808
30
0
10
-4.2542901985375572
20
30.385547738911022
30
0
10
-1.5523888928406429
20
31.147129035747557
30
0
10
0.8137081964082391
20
32.13749602961267
30
0
10
2.862534726221138
20
33.357846461807597
30
0
10
4.6603903136415745
20
34.796171949024298
30
0
10
6.2912063513749636
20
36.439245240884851
30
0
10
7.8201005720957859
20
38.288046396551366
30
0
10
9.2906067432680537
20
40.351859035116505
30
0
10
10.727577419605364
20
42.638616307628105
30
0
10
12.138133573500905
20
45.146530291610787
30
0
10
13.513424939859636
20
47.855193175114515
30
0
10
14.830016986196263
20
50.716853641486274
30
-8.8817841970012523e-15
10
16.051458714774082
20
53.647699447849256
30
0
10
17.135689423913249
20
56.544975471611075
30
0
10
18.04255884647031
20
59.304215994759673
30
0
10
18.741095357195196
20
61.835995420269356
30
0
10
19.217358232521264
20
64.083876466650821
30
0
10
19.480945744517765
20
66.03955582949007
30
0
10
19.574977131348895
20
67.765266444571651
30
0
10
19.563375235057222
20
69.368743591916029
30
-8.8817841970012523e-15
10
19.511946414981661
20
70.965242314566112
30
-8.8817841970012523e-15
10
19.472027181416266
20
72.644891398416306
30
-8.8817841970012523e-15
10
19.461842228888212
20
74.435341771176113
30
0
10
19.476447622377989
20
76.323032800423761
30
0
10
19.499495355601933
20
78.278300199173898
30
0
10
19.513806410401827
20
80.277793436939817
30
-8.8817841970012523e-15
10
19.513806808082027
20
82.331373656627619
30
0
10
19.503008405907568
20
84.47235462807113
30
-8.8817841970012523e-15
10
19.49197671122597
20
86.288193778332797
30
0
10
19.486010319725334
20
87.72431075212441
30
-8.8817841970012523e-15
10
19.483603640136561
20
88.716936321539478
30
-8.8817841970012523e-15
10
19.482793156207322
20
89.222052970353616
30
0
0
ARC
5
165
100
AcDbEntity
8
0
100
AcDbCircle
10
46.982793164485486
20
89.222052994404976
30
0
40
94.034061123399866
210
-1.1268640004642745e-30
220
1.1042570514160674e-30
230
1
100
AcDbArc
50
225.5805325719457
51
226.54315734390929
0
SPLINE
5
166
100
AcDbEntity
8
0
100
AcDbSpline
70
4
71
5
72
13
73
7
74
0
42
0.000000001
43
0.0000000001
44
0.0000000001
40
0.54285112740181729
40
0.54285112740181729
40
0.54285112740181729
40
0.54285112740181729
40
0.54285112740181729
40
0.54285112740181729
40
0.54736842105263128
40
0.55637469925064553
40
0.55637469925064553
40
0.55637469925064553
40
0.55637469925064553
40
0.55637469925064553
40
0.55637469925064553
41
1
41
1
41
1
41
1
41
1
41
1
41
1
10
-14.500092631866263
20
19.751230875186291
30
0
10
-14.75506716694348
20
19.838316429932345
30
8.8817841970012523e-15
10
-15.504605529990821
20
20.097876349090615
30
0
10
-16.205579633130988
20
20.351983343947417
30
0
10
-16.836285282695343
20
20.594707542713696
30
0
10
-17.377793357522854
20
20.821041061400798
30
0
10
-17.694586453351604
20
20.963418250297408
30
0
0
SPLINE
5
167
100
AcDbEntity
8
0
100
AcDbSpline
70
0
71
3
72
14
73
10
74
0
42
0.000000001
43
0.0000000001
44
0.0000000001
40
0
40
0
40
0
40
0
40
0.039064447338691501
40
0.039064447338691501
40
0.078128894677385319
40
0.078128894677385319
40
0.10150341272936607
40
0.10150341272936607
40
0.1248779307813464
40
0.1248779307813464
40
0.1248779307813464
40
0.1248779307813464
10
-14.500092631866263
20
19.751230875186291
30
0
10
-14.376866967183592
20
19.709143631593168
30
0
10
-14.246598832463601
20
19.691527477431968
30
0
10
-13.986642428318955
20
19.707220468962262
30
0
10
-13.859439483805044
20
19.740379581101383
30
0
10
-13.672003553737721
20
19.830855108169295
30
8.8817841970012523e-15
10
-13.606033754325789
20
19.872810304146448
30
8.8817841970012523e-15
10
-13.48517801541313
20
19.971181625064144
30
0
10
-13.430705127084156
20
20.027261544295779
30
0
10
-13.383296675005209
20
20.089093536607873
30
0
0
ARC
5
168
100
AcDbEntity
8
0
100
AcDbCircle
10
-11.796132597236774
20
18.872167002160761
30
0
40
1.9999999999999938
210
0
220
-0
230
1
100
AcDbArc
50
2.9014599994119918
51
142.52153006596879
0
SPLINE
5
169
100
AcDbEntity
8
0
100
AcDbSpline
70
0
71
3
72
14
73
10
74
0
42
0.000000001
43
0.0000000001
44
0.0000000001
40
0
40
0
40
0
40
0
40
0.039064447338692909
40
0.039064447338692909
40
0.078128894677384486
40
0.078128894677384486
40
0.10140982455911426
40
0.10140982455911426
40
0.12469075444084268
40
0.12469075444084268
40
0.12469075444084268
40
0.12469075444084268
10
-9.7986964619148544
20
18.973403780608805
30
8.8817841970012523e-15
10
-9.7921051972474906
20
18.843355882741001
30
0
10
-9.7601757023739957
20
18.715838734215872
30
0
10
-9.6492346832619837
20
18.480221051693121
30
0
10
-9.5712838156336524
20
18.374373151162015
30
0
10
-9.4180018624077668
20
18.234041642300948
30
0
10
-9.3548576901176652
20
18.188479706465376
30
8.8817841970012523e-15
10
-9.2193093908659343
20
18.112877968101419
30
8.8817841970012523e-15
10
-9.1473648247269104
20
18.08309448451816
30
8.8817841970012523e-15
10
-9.0727035034883876
20
18.061930170701221
30
0
0
SPLINE
5
170
100
AcDbEntity
8
0
100
AcDbSpline
70
4
71
5
72
12
73
6
74
0
42
0.000000001
43
0.0000000001
44
0.0000000001
40
0.52111484769391636
40
0.52111484769391636
40
0.52111484769391636
40
0.52111484769391636
40
0.52111484769391636
40
0.52111484769391636
40
0.52447792914692981
40
0.52447792914692981
40
0.52447792914692981
40
0.52447792914692981
40
0.52447792914692981
40
0.52447792914692981
41
1
41
1
41
1
41
1
41
1
41
1
10
-8.1401435789278089
20
17.802766876608199
30
0
10
-8.3222016574441007
20
17.852290972661823
30
0
10
-8.5065969118170095
20
17.903004812592375
30
0
10
-8.693232818808351
20
17.954876581967735
30
0
10
-8.8819860144830578
20
18.007867307618607
30
0
10
-9.0727035034884231
20
18.061930170701221
30
0
0
SPLINE
5
171
100
AcDbEntity
8
0
100
AcDbSpline
70
0
71
3
72
14
73
10
74
0
42
0.000000001
43
0.0000000001
44
0.0000000001
40
0
40
0
40
0
40
0
40
0.039064447338695338
40
0.039064447338695338
40
0.078128894677391508
40
0.078128894677391508
40
0.10185514519050433
40
0.10185514519050433
40
0.12558139570361959
40
0.12558139570361959
40
0.12558139570361959
40
0.12558139570361959
10
-8.1401435789278089
20
17.802766876608128
30
0
10
-8.0144946106253236
20
17.768587390446523
30
0
10
-7.8833709012576527
20
17.759276716329001
30
0
10
-7.6249351212247909
20
17.791441132036642
30
0
10
-7.5000938374750739
20
17.832608712516741
30
0
10
-7.3177583613758692
20
17.935376596103868
30
0
10
-7.253709944991872
20
17.98224540629818
30
0
10
-7.1379993460338333
20
18.090089687537091
30
8.8817841970012523e-15
10
-7.0867446318152396
20
18.150685391020968
30
8.8817841970012523e-15
10
-7.0431658726799675
20
18.216683305222968
30
0
0
ARC
5
172
100
AcDbEntity
8
0
100
AcDbCircle
10
-5.3741811968530619
20
17.114644217052767
30
0
40
1.9999999999999931
210
-2.7127218192657421e-31
220
1.5542256961127796e-30
230
1
100
AcDbArc
50
9.9005857975196747
51
146.56301389723092
0
SPLINE
5
173
100
AcDbEntity
8
0
100
AcDbSpline
70
0
71
3
72
14
73
10
74
0
42
0.000000001
43
0.0000000001
44
0.0000000001
40
0
40
0
40
0
40
0
40
0.039064447338690987
40
0.039064447338690987
40
0.078128894677385513
40
0.078128894677385513
40
0.10396048660409378
40
0.10396048660409378
40
0.12979207853080324
40
0.12979207853080324
40
0.12979207853080324
40
0.12979207853080324
10
-3.4039660602855943
20
17.458522561297197
30
0
10
-3.3815770311694888
20
17.330246952216658
30
0
10
-3.3343469744959049
20
17.20757080311888
30
0
10
-3.1955216825684869
20
16.987227570047668
30
0
10
-3.1052536927711611
20
16.891667087478734
30
0
10
-2.9290901101159545
20
16.766125097801815
30
0
10
-2.8528074775353969
20
16.725418971032763
30
0
10
-2.6917092082872114
20
16.664559766128452
30
0
10
-2.6075661249763411
20
16.644660763115983
30
0
10
-2.5219193245857991
20
16.635786678546193
30
0
0
SPLINE
5
174
100
AcDbEntity
8
0
100
AcDbSpline
70
4
71
5
72
14
73
8
74
0
42
0.000000001
43
0.0000000001
44
0.0000000001
40
0.47727755979694059
40
0.47727755979694059
40
0.47727755979694059
40
0.47727755979694059
40
0.47727755979694059
40
0.47727755979694059
40
0.48421052631578904
40
0.4947368421052627
40
0.49497601168791527
40
0.49497601168791527
40
0.49497601168791527
40
0.49497601168791527
40
0.49497601168791527
40
0.49497601168791527
41
1
41
1
41
1
41
1
41
1
41
1
41
1
41
1
10
0.39565522147572441
20
16.538923753294238
30
0
10
0.15809403599284255
20
16.533951060354969
30
0
10
-0.42866544978789645
20
16.525651836322734
30
0
10
-0.99997052592204838
20
16.529764123571272
30
0
10
-1.5655503292769914
20
16.551668176935198
30
0
10
-2.1482691457854877
20
16.59726751308931
30
0
10
-2.5137932046592266
20
16.634944710426826
30
0
10
-2.5219193245857991
20
16.635786678546193
30
0
0
SPLINE
5
175
100
AcDbEntity
8
0
100
AcDbSpline
70
0
71
3
72
14
73
10
74
0
42
0.000000001
43
0.0000000001
44
0.0000000001
40
0
40
0
40
0
40
0
40
0.039064447338698904
40
0.039064447338698904
40
0.078128894677394742
40
0.078128894677394742
40
0.10164077611050956
40
0.10164077611050956
40
0.12515265754362198
40
0.12515265754362198
40
0.12515265754362198
40
0.12515265754362198
10
0.39565522147572441
20
16.538923753294167
30
0
10
0.52584152787250449
20
16.541648847148561
30
0
10
0.65425091079628217
20
16.569776168172726
30
0
10
0.89306027145788036
20
16.673668859443222
30
0
10
1.0011771015465918
20
16.748440958935088
30
0
10
1.1465366215071136
20
16.898038634892746
30
0
10
1.1943560286472596
20
16.960473421071892
30
0
10
1.2744307234029471
20
17.095222495176298
30
0
10
1.3064091092752825
20
17.167070814999907
30
0
10
1.329669595104118
20
17.241912429273366
30
0
0
ARC
5
176
100
AcDbEntity
8
0
100
AcDbCircle
10
3.2395536973964982
20
16.648327796882331
30
0
40
1.9999999999999929
210
0
220
-0
230
1
100
AcDbArc
50
22.204176524937655
51
162.73495633567214
0
SPLINE
5
177
100
AcDbEntity
8
0
100
AcDbSpline
70
0
71
3
72
14
73
10
74
0
42
0.000000001
43
0.0000000001
44
0.0000000001
40
0
40
0
40
0
40
0
40
0.039064447338694012
40
0.039064447338694012
40
0.078128894677386734
40
0.078128894677386734
40
0.1007872644063644
40
0.1007872644063644
40
0.12344563413534415
40
0.12344563413534415
40
0.12344563413534415
40
0.12344563413534415
10
5.0912397773599913
20
17.404144349538665
30
0
10
5.1404490372249221
20
17.28358586060779
30
0
10
5.2127355834548048
20
17.173791639243387
30
0
10
5.3953256627826782
20
16.988091706636975
30
0
10
5.5038835352030411
20
16.913961387964921
30
0
10
5.6930288565548857
20
16.83300389474692
30
0
10
5.765607855749689
20
16.811246359285196
30
0
10
5.9142747657712711
20
16.784488107615413
30
0
10
5.98988525676425
20
16.779573321222298
30
0
10
6.0653252155302049
20
16.783216968204865
30
0
0
SPLINE
5
178
100
AcDbEntity
8
0
100
AcDbSpline
70
4
71
5
72
13
73
7
74
0
42
0.000000001
43
0.0000000001
44
0.0000000001
40
0.43869924125668591
40
0.43869924125668591
40
0.43869924125668591
40
0.43869924125668591
40
0.43869924125668591
40
0.43869924125668591
40
0.44210526315789439
40
0.45005756126346153
40
0.45005756126346153
40
0.45005756126346153
40
0.45005756126346153
40
0.45005756126346153
40
0.45005756126346153
41
1
41
1
41
1
41
1
41
1
41
1
41
1
10
9.0385171761655378
20
16.931072128120238
30
0
10
8.8524499892649864
20
16.921378395077763
30
0
10
8.2350815811381359
20
16.889547498807115
30
0
10
7.6289297208215565
20
16.859271634441061
30
0
10
7.0365906071144089
20
16.830251330029927
30
0
10
6.4603134569058049
20
16.802294360840978
30
0
10
6.0653252155302049
20
16.783216968204865
30
0
0
SPLINE
5
179
100
AcDbEntity
8
0
100
AcDbSpline
70
0
71
3
72
14
73
10
74
0
42
0.000000001
43
0.0000000001
44
0.0000000001
40
0
40
0
40
0
40
0
40
0.039064447338694179
40
0.039064447338694179
40
0.078128894677389954
40
0.078128894677389954
40
0.10097759983261924
40
0.10097759983261924
40
0.12382630498785294
40
0.12382630498785294
40
0.12382630498785294
40
0.12382630498785294
10
9.0385171761655378
20
16.931072128120167
30
0
10
9.1685556447307057
20
16.937846875567718
30
0
10
9.2960276158354525
20
16.969956257273505
30
0
10
9.5314885330849783
20
17.081229607573686
30
0
10
9.6372263445246951
20
17.159329742290556
30
-8.8817841970012523e-15
10
9.7763700600585288
20
17.311745505189474
30
0
10
9.8211265967206494
20
17.373676443939065
30
0
10
9.8957098296718335
20
17.506492692598318
30
0
10
9.9252929698067724
20
17.576944282844064
30
0
10
9.9465917612658536
20
17.650067911848137
30
0
0
ARC
5
180
100
AcDbEntity
8
0
100
AcDbCircle
10
11.866795864927862
20
17.090768170850911
30
0
40
2.0000000000000111
210
6.2863101013100603e-31
220
-1.4470760741046501e-30
230
1
100
AcDbArc
50
23.480831352698004
51
163.76069099613352
0
SPLINE
5
181
100
AcDbEntity
8
0
100
AcDbSpline
70
0
71
3
72
14
73
10
74
0
42
0.000000001
43
0.0000000001
44
0.0000000001
40
0
40
0
40
0
40
0
40
0.039064447338695095
40
0.039064447338695095
40
0.07812889467738815
40
0.07812889467738815
40
0.10123455380228619
40
0.10123455380228619
40
0.12434021292718565
40
0.12434021292718565
40
0.12434021292718565
40
0.12434021292718565
10
13.701182718842514
20
17.887652648165545
30
0
10
13.753065805007655
20
17.768220467076329
30
0
10
13.82778062133411
20
17.660064043170184
30
0
10
14.014462768363206
20
17.478478311297824
30
0
10
14.124645315990595
20
17.406785061900191
30
0
10
14.316930836186806
20
17.329505826313824
30
0
10
14.391473617373837
20
17.309136777195246
30
0
10
14.543750660090154
20
17.28591343215783
30
0
10
14.620976394748059
20
17.283136690247044
30
0
10
14.697752243933714
20
17.289250147134187
30
0
0
SPLINE
5
182
100
AcDbEntity
8
0
100
AcDbSpline
70
4
71
5
72
13
73
7
74
0
42
0.000000001
43
0.0000000001
44
0.0000000001
40
0.4084233586154164
40
0.4084233586154164
40
0.4084233586154164
40
0.4084233586154164
40
0.4084233586154164
40
0.4084233586154164
40
0.41052631578947341
40
0.41861970464306703
40
0.41861970464306703
40
0.41861970464306703
40
0.41861970464306703
40
0.41861970464306703
40
0.41861970464306703
41
1
41
1
41
1
41
1
41
1
41
1
41
1
10
17.544951333109996
20
17.551787835114435
30
0
10
17.429637356926001
20
17.539520893741706
30
0
10
16.869278510159621
20
17.480804057995204
30
0
10
16.302998365265488
20
17.425737355762298
30
0
10
15.731566319005982
20
17.374134030468692
30
0
10
15.156193231316578
20
17.325754584941041
30
0
10
14.697752243933714
20
17.289250147134187
30
0
0
SPLINE
5
183
100
AcDbEntity
8
0
100
AcDbSpline
70
0
71
3
72
14
73
10
74
0
42
0.000000001
43
0.0000000001
44
0.0000000001
40
0
40
0
40
0
40
0
40
0.039064447338692014
40
0.039064447338692014
40
0.078128894677384889
40
0.078128894677384889
40
0.10161590497726311
40
0.10161590497726311
40
0.12510291527713635
40
0.12510291527713635
40
0.12510291527713635
40
0.12510291527713635
10
17.544951333109985
20
17.551787835114435
30
0
10
17.674435570287944
20
17.565562189262284
30
0
10
17.799991429922969
20
17.604496003899047
30
0
10
18.029112068406018
20
17.728299618790192
30
0
10
18.130486329069754
20
17.811985789008066
30
0
10
18.262559838265414
20
17.973326621750342
30
-8.8817841970012523e-15
10
18.304865769684429
20
18.03952208156382
30
-8.8817841970012523e-15
10
18.373166948681
20
18.180420154123635
30
0
10
18.398926507692796
20
18.25463656641006
30
0
10
18.415765356893047
20
18.331094284355739
30
0
0
ARC
5
184
100
AcDbEntity
8
0
100
AcDbCircle
10
20.368956937332246
20
17.90092844412499
30
-8.8817841970012523e-15
40
2.0000000000000022
210
0
220
-0
230
1
100
AcDbArc
50
28.801180194681255
51
167.57960791041725
0
SPLINE
5
185
100
AcDbEntity
8
0
100
AcDbSpline
70
0
71
3
72
14
73
10
74
0
42
0.000000001
43
0.0000000001
44
0.0000000001
40
0
40
0
40
0
40
0
40
0.039064447338691896
40
0.039064447338691896
40
0.078128894677385416
40
0.078128894677385416
40
0.10189883107802668
40
0.10189883107802668
40
0.12566876747866865
40
0.12566876747866865
40
0.12566876747866865
40
0.12566876747866865
10
22.121550450451139
20
18.864471892949982
30
-8.8817841970012523e-15
10
22.184284270976423
20
18.750365064617721
30
-8.8817841970012523e-15
10
22.268705922916755
20
18.649602469898653
30
0
10
22.471421206340953
20
18.486108996312542
30
0
10
22.58777676922692
20
18.424941204163833
30
0
10
22.788521798721057
20
18.365192772114906
30
0
10
22.866880546137406
20
18.351695669168823
30
0
10
23.025133714981379
20
18.343480767033821
30
0
10
23.104468800904151
20
18.348792002880753
30
0
10
23.182341769589353
20
18.363410082943336
30
0
0
SPLINE
5
186
100
AcDbEntity
8
0
100
AcDbSpline
70
4
71
5
72
13
73
7
74
0
42
0.000000001
43
0.0000000001
44
0.0000000001
40
0.37835967869215947
40
0.37835967869215947
40
0.37835967869215947
40
0.37835967869215947
40
0.37835967869215947
40
0.37835967869215947
40
0.37894736842105242
40
0.38675488686038606
40
0.38675488686038606
40
0.38675488686038606
40
0.38675488686038606
40
0.38675488686038606
40
0.38675488686038606
41
1
41
1
41
1
41
1
41
1
41
1
41
1
10
25.211345364040675
20
18.781469483280485
30
-8.8817841970012523e-15
10
25.183419030672361
20
18.775190725544778
30
-8.8817841970012523e-15
10
24.784275457014161
20
18.685713335881115
30
-8.8817841970012523e-15
10
24.382059492630152
20
18.599309138078141
30
0
10
23.976356877824486
20
18.515942189720057
30
0
10
23.566798689197487
20
18.435579182520744
30
0
10
23.182341769589346
20
18.363410082943407
30
0
0
SPLINE
5
187
100
AcDbEntity
8
0
100
AcDbSpline
70
0
71
3
72
14
73
10
74
0
42
0.000000001
43
0.0000000001
44
0.0000000001
40
0
40
0
40
0
40
0
40
0.039064447338692736
40
0.039064447338692736
40
0.078128894677385818
40
0.078128894677385818
40
0.1020211003016319
40
0.1020211003016319
40
0.12591330592587616
40
0.12591330592587616
40
0.12591330592587616
40
0.12591330592587616
10
25.211345364040664
20
18.781469483280485
30
-8.8817841970012523e-15
10
25.338388762683856
20
18.810033015466384
30
-8.8817841970012523e-15
10
25.458638464197612
20
18.863137865496412
30
-8.8817841970012523e-15
10
25.672013482724608
20
19.01245197570573
30
0
10
25.763098818262367
20
19.10723371160897
30
0
10
25.876485638642276
20
19.283820132348634
30
0
10
25.911356879915314
20
19.355736288004216
30
0
10
25.963297013348047
20
19.506311112035103
30
-8.8817841970012523e-15
10
25.980180431333167
20
19.584432089431324
30
-8.8817841970012523e-15
10
25.9876180295004
20
19.663724717756658
30
-8.8817841970012523e-15
0
ARC
5
188
100
AcDbEntity
8
0
100
AcDbCircle
10
27.978877344082825
20
19.476945858972442
30
-8.8817841970012523e-15
40
2.0000000000000036
210
1.7292502162321281e-30
220
-6.8647355227378953e-31
230
1
100
AcDbArc
50
36.342649240743398
51
174.64137121982682
0
SPLINE
5
189
100
AcDbEntity
8
0
100
AcDbSpline
70
0
71
3
72
14
73
10
74
0
42
0.000000001
43
0.0000000001
44
0.0000000001
40
0
40
0
40
0
40
0
40
0.039064447338693652
40
0.039064447338693652
40
0.078128894677385624
40
0.078128894677385624
40
0.10190496194928866
40
0.10190496194928866
40
0.12568102922119254
40
0.12568102922119254
40
0.12568102922119254
40
0.12568102922119254
10
29.589852108793139
20
20.662171705579912
30
0
10
29.667019096575235
20
20.557285307479919
30
-8.8817841970012523e-15
10
29.763934971770475
20
20.468474109165772
30
-8.8817841970012523e-15
10
29.986354288976301
20
20.332999944201763
30
-8.8817841970012523e-15
10
30.109731281086493
20
20.287632184408086
30
-8.8817841970012523e-15
10
30.316601682586114
20
20.254743887768164
30
-8.8817841970012523e-15
10
30.396074778685506
20
20.251649251309786
30
0
10
30.554077203418387
20
20.264288053881362
30
-8.8817841970012523e-15
10
30.632047794416884
20
20.279976798820879
30
-8.8817841970012523e-15
10
30.707345036634447
20
20.304704348283153
30
-8.8817841970012523e-15
0
SPLINE
5
190
100
AcDbEntity
8
0
100
AcDbSpline
70
4
71
5
72
13
73
7
74
0
42
0.000000001
43
0.0000000001
44
0.0000000001
40
0.3471196400986522
40
0.3471196400986522
40
0.3471196400986522
40
0.3471196400986522
40
0.3471196400986522
40
0.3471196400986522
40
0.34736842105263144
40
0.35463239777174682
40
0.35463239777174682
40
0.35463239777174682
40
0.35463239777174682
40
0.35463239777174682
40
0.35463239777174682
41
1
41
1
41
1
41
1
41
1
41
1
41
1
10
32.443356134258153
20
20.901599584706169
30
0
10
32.431789742887091
20
20.897445713384059
30
0
10
32.08254577021129
20
20.772109171516075
30
0
10
31.734539656279658
20
20.649887278920684
30
0
10
31.387590078723807
20
20.530688853252212
30
-8.8817841970012523e-15
10
31.041468834839719
20
20.414430315706728
30
-8.8817841970012523e-15
10
30.707345036634447
20
20.304704348283153
30
-8.8817841970012523e-15
0
SPLINE
5
191
100
AcDbEntity
8
0
100
AcDbSpline
70
0
71
3
72
14
73
10
74
0
42
0.000000001
43
0.0000000001
44
0.0000000001
40
0
40
0
40
0
40
0
40
0.039064447338693006
40
0.039064447338693006
40
0.078128894677385208
40
0.078128894677385208
40
0.10178901404033003
40
0.10178901404033003
40
0.12544913340327254
40
0.12544913340327254
40
0.12544913340327254
40
0.12544913340327254
10
32.443356134258153
20
20.901599584706169
30
0
10
32.565907454594097
20
20.945611792031723
30
0
10
32.678690554735347
20
21.013140216664507
30
0
10
32.872023869591132
20
21.187627555477015
30
-8.8817841970012523e-15
10
32.950725712440828
20
21.292918275594776
30
-8.8817841970012523e-15
10
33.041136329880253
20
21.481441898953534
30
0
10
33.066707751805204
20
21.556339689520335
30
0
10
33.099719393906966
20
21.710580692383882
30
0
10
33.10704401313987
20
21.789383779913138
30
0
10
33.105034603757495
20
21.868225241997411
30
0
0
ARC
5
192
100
AcDbEntity
8
0
100
AcDbCircle
10
35.104385347721006
20
21.919182112118779
30
-8.8817841970012523e-15
40
2.0000000000000013
210
0
220
-0
230
1
100
AcDbArc
50
42.689356112327609
51
181.4599647828193
0
SPLINE
5
193
100
AcDbEntity
8
0
100
AcDbSpline
70
0
71
3
72
14
73
10
74
0
42
0.000000001
43
0.0000000001
44
0.0000000001
40
0
40
0
40
0
40
0
40
0.039064447338692791
40
0.039064447338692791
40
0.078128894677384597
40
0.078128894677384597
40
0.10175453559734929
40
0.10175453559734929
40
0.1253801765173139
40
0.1253801765173139
40
0.1253801765173139
40
0.1253801765173139
10
36.574466477301193
20
23.275228376983023
30
8.8817841970012523e-15
10
36.662755140472235
20
23.179515198866202
30
8.8817841970012523e-15
10
36.768894627933136
20
23.101961830065147
30
0
10
37.004926704470137
20
22.991905204255371
30
0
10
37.132562698247128
20
22.960454148574922
30
0
10
37.341299978022683
20
22.950659315044785
30
0
10
37.420126934970092
20
22.956273506504846
30
0
10
37.574823709741715
20
22.985879313797358
30
0
10
37.650153385827934
20
23.009767557518582
30
0
10
37.721897160838857
20
23.042244160400148
30
0
0
SPLINE
5
194
100
AcDbEntity
8
0
100
AcDbSpline
70
4
71
5
72
13
73
7
74
0
42
0.000000001
43
0.0000000001
44
0.0000000001
40
0.31428928433538339
40
0.31428928433538339
40
0.31428928433538339
40
0.31428928433538339
40
0.31428928433538339
40
0.31428928433538339
40
0.31578947368421045
40
0.32499563454818603
40
0.32499563454818603
40
0.32499563454818603
40
0.32499563454818603
40
0.32499563454818603
40
0.32499563454818603
41
1
41
1
41
1
41
1
41
1
41
1
41
1
10
40.373312270630748
20
24.308030584878487
30
8.8817841970012523e-15
10
40.29841050818186
20
24.270382996514485
30
8.8817841970012523e-15
10
39.764062677166173
20
24.002778796526435
30
8.8817841970012523e-15
10
39.231265816400033
20
23.742864958209985
30
0
10
38.700813561347914
20
23.49079638837145
30
8.8817841970012523e-15
10
38.173227169240505
20
23.246549906078652
30
8.8817841970012523e-15
10
37.721897160838857
20
23.042244160400148
30
0
0
SPLINE
5
195
100
AcDbEntity
8
0
100
AcDbSpline
70
0
71
3
72
14
73
10
74
0
42
0.000000001
43
0.0000000001
44
0.0000000001
40
0
40
0
40
0
40
0
40
0.039064447338692965
40
0.039064447338692965
40
0.07812889467738382
40
0.07812889467738382
40
0.10175780639403309
40
0.10175780639403309
40
0.12538671811068211
40
0.12538671811068211
40
0.12538671811068211
40
0.12538671811068211
10
40.373312270630748
20
24.30803058487847
30
8.8817841970012523e-15
10
40.489657475402623
20
24.366508733244675
30
0
10
40.593468273867266
20
24.447152604264048
30
0
10
40.76433466105928
20
24.643693388242717
30
0
10
40.829756673995703
20
24.757711264184156
30
0
10
40.896725368181201
20
24.955668182324334
30
8.8817841970012523e-15
10
40.913062804508336
20
25.032998886408823
30
8.8817841970012523e-15
10
40.927252039454636
20
25.189884612007653
30
0
10
40.925054280982891
20
25.268891696991481
30
0
10
40.913609882227689
20
25.346818855661567
30
0
0
ARC
5
196
100
AcDbEntity
8
0
100
AcDbCircle
10
42.89238468839428
20
25.637422135891462
30
0
40
1.9999999999999918
210
6.008158920446914e-31
220
-5.1119643157269427e-31
230
1
100
AcDbArc
50
49.607631428735452
51
188.35474688542251
0
SPLINE
5
197
100
AcDbEntity
8
0
100
AcDbSpline
70
0
71
3
72
14
73
10
74
0
42
0.000000001
43
0.0000000001
44
0.0000000001
40
0
40
0
40
0
40
0
40
0.039064447338692306
40
0.039064447338692306
40
0.078128894677385485
40
0.078128894677385485
40
0.10181071748611847
40
0.10181071748611847
40
0.12549254029485088
40
0.12549254029485088
40
0.12549254029485088
40
0.12549254029485088
10
44.188421615029576
20
27.160671388245671
30
0
10
44.287596432033389
20
27.076289777796422
30
0
10
44.402304688620958
20
27.012085948615464
30
0
10
44.6498749133589
20
26.931261534839649
30
0
10
44.780369975224588
20
26.915413675693184
30
0
10
44.988954017308245
20
26.930847110659645
30
0
10
45.066712315682992
20
26.945973256794499
30
0
10
45.217046352454901
20
26.994195645680058
30
0
10
45.289094680484645
20
27.02712271191967
30
0
10
45.356518301039742
20
27.068177379641284
30
0
0
SPLINE
5
198
100
AcDbEntity
8
0
100
AcDbSpline
70
4
71
5
72
12
73
6
74
0
42
0.000000001
43
0.0000000001
44
0.0000000001
40
0.28859806327631643
40
0.28859806327631643
40
0.28859806327631643
40
0.28859806327631643
40
0.28859806327631643
40
0.28859806327631643
40
0.2942531650343283
40
0.2942531650343283
40
0.2942531650343283
40
0.2942531650343283
40
0.2942531650343283
40
0.2942531650343283
41
1
41
1
41
1
41
1
41
1
41
1
10
46.715051015114597
20
27.918310933507392
30
0
10
46.447761999115677
20
27.746380066781299
30
0
10
46.177964576854208
20
27.575221326337921
30
8.8817841970012523e-15
10
45.90595592228329
20
27.405015605716322
30
8.8817841970012523e-15
10
45.632047456783894
20
27.235948820029105
30
0
10
45.356518301039763
20
27.068177379641266
30
0
0
SPLINE
5
199
100
AcDbEntity
8
0
100
AcDbSpline
70
0
71
3
72
14
73
10
74
0
42
0.000000001
43
0.0000000001
44
0.0000000001
40
0
40
0
40
0
40
0
40
0.039064447338695192
40
0.039064447338695192
40
0.07812889467738926
40
0.07812889467738926
40
0.10197048486881323
40
0.10197048486881323
40
0.12581207506023925
40
0.12581207506023925
40
0.12581207506023925
40
0.12581207506023925
10
46.715051015114625
20
27.918310933507357
30
0
10
46.824565868779914
20
27.98875521884279
30
0
10
46.919274365379977
20
28.07991670458437
30
0
10
47.068416929882922
20
28.293411663523681
30
8.8817841970012523e-15
10
47.12142511358018
20
28.413704008550184
30
8.8817841970012523e-15
10
47.167256934160278
20
28.618320710859319
30
0
10
47.175320952960419
20
28.697666035360662
30
0
10
47.172494555642437
20
28.856584837984357
30
0
10
47.16161418961326
20
28.935593233452831
30
0
10
47.14149714715137
20
29.012476900052921
30
0
0
ARC
5
200
100
AcDbEntity
8
0
100
AcDbCircle
10
49.076359695734524
20
29.518744534896712
30
0
40
1.9999999999999987
210
0
220
-0
230
1
100
AcDbArc
50
56.828881215259976
51
194.66303316373916
0
SPLINE
5
201
100
AcDbEntity
8
0
100
AcDbSpline
70
0
71
3
72
14
73
10
74
0
42
0.000000001
43
0.0000000001
44
0.0000000001
40
0
40
0
40
0
40
0
40
0.039064447338693728
40
0.039064447338693728
40
0.078128894677386068
40
0.078128894677386068
40
0.10246773365392875
40
0.10246773365392875
40
0.12680657263047243
40
0.12680657263047243
40
0.12680657263047243
40
0.12680657263047243
10
50.170642424204416
20
31.192824972083745
30
0
10
50.279637469336464
20
31.121579055383805
30
0
10
50.401506374235268
20
31.072303444483257
30
0
10
50.657272633118311
20
31.023239987043144
30
0
10
50.788724722264227
20
31.023921213898355
30
0
10
50.995860751809658
20
31.06588635675465
30
0
10
51.073119704303537
20
31.091612358704438
30
0
10
51.219717064530464
20
31.161162148112926
30
0
10
51.288512211398015
20
31.204728197787478
30
0
10
51.351285431385861
20
31.256123846050986
30
0
0
SPLINE
5
202
100
AcDbEntity
8
0
100
AcDbSpline
70
4
71
5
72
13
73
7
74
0
42
0.000000001
43
0.0000000001
44
0.0000000001
40
0.25780282002997085
40
0.25780282002997085
40
0.25780282002997085
40
0.25780282002997085
40
0.25780282002997085
40
0.25780282002997085
40
0.26315789473684215
40
0.26687501936446745
40
0.26687501936446745
40
0.26687501936446745
40
0.26687501936446745
40
0.26687501936446745
40
0.26687501936446745
41
1
41
1
41
1
41
1
41
1
41
1
41
1
10
52.943689970290336
20
32.639031647183792
30
0
10
52.767612832051476
20
32.476411842417953
30
8.8817841970012523e-15
10
52.463559548445666
20
32.200612353694339
30
0
10
52.149513761174106
20
31.924282295429162
30
0
10
51.825142055365667
20
31.647391373022312
30
8.8817841970012523e-15
10
51.490264235171928
20
31.369912906367684
30
0
10
51.351285431385861
20
31.256123846050986
30
0
0
SPLINE
5
203
100
AcDbEntity
8
0
100
AcDbSpline
70
0
71
3
72
14
73
10
74
0
42
0.000000001
43
0.0000000001
44
0.0000000001
40
0
40
0
40
0
40
0
40
0.039064447338693867
40
0.039064447338693867
40
0.0781288946773874
40
0.0781288946773874
40
0.10302028114377565
40
0.10302028114377565
40
0.12791166761016431
40
0.12791166761016431
40
0.12791166761016431
40
0.12791166761016431
10
52.94368997029035
20
32.639031647183771
30
0
10
53.039348694649334
20
32.727379306823188
30
0
10
53.116836606978019
20
32.833566590684299
30
0
10
53.226747683111014
20
33.069666479253293
30
0
10
53.25812003712133
20
33.19732184034207
30
0
10
53.26798133324607
20
33.410279755151294
30
8.8817841970012523e-15
10
53.261489140094795
20
33.493318629095661
30
0
10
53.228144056336149
20
33.655876446703815
30
0
10
53.2014204158788
20
33.734765293815244
30
0
10
53.165262402940144
20
33.809443488553924
30
0
0
ARC
5
204
100
AcDbEntity
8
0
100
AcDbCircle
10
54.965359673685434
20
34.681022409739739
30
0
40
2.0000000000000102
210
1.8472202073512399e-31
220
-1.7542478200032349e-30
230
1
100
AcDbArc
50
69.446033662435255
51
205.83553912411045
0
SPLINE
5
205
100
AcDbEntity
8
0
100
AcDbSpline
70
0
71
3
72
14
73
10
74
0
42
0.000000001
43
0.0000000001
44
0.0000000001
40
0
40
0
40
0
40
0
40
0.039064447338692597
40
0.039064447338692597
40
0.078128894677384625
40
0.078128894677384625
40
0.1022674768100616
40
0.1022674768100616
40
0.1264060589427391
40
0.1264060589427391
40
0.1264060589427391
40
0.1264060589427391
10
55.667538610107712
20
36.553706243504806
30
0
10
55.789464208451271
20
36.507989190031125
30
0
10
55.919153688759586
20
36.486523997085037
30
0
10
56.179460749379196
20
36.494513754940002
30
0
10
56.30758965231265
20
36.523892319301211
30
0
10
56.499947487372005
20
36.609817650618169
30
8.8817841970012523e-15
10
56.569184510903511
20
36.651381517197436
30
8.8817841970012523e-15
10
56.696194979317369
20
36.75019870371996
30
8.8817841970012523e-15
10
56.753505468983903
20
36.80709183341682
30
0
10
56.803376899223949
20
36.870234246306616
30
0
0
SPLINE
5
206
100
AcDbEntity
8
0
100
AcDbSpline
70
4
71
5
72
13
73
7
74
0
42
0.000000001
43
0.0000000001
44
0.0000000001
40
0.21980879659118027
40
0.21980879659118027
40
0.21980879659118027
40
0.21980879659118027
40
0.21980879659118027
40
0.21980879659118027
40
0.22105263157894744
40
0.2295465878487766
40
0.2295465878487766
40
0.2295465878487766
40
0.2295465878487766
40
0.2295465878487766
40
0.2295465878487766
41
1
41
1
41
1
41
1
41
1
41
1
41
1
10
57.873251565330477
20
38.254174912201371
30
0
10
57.846892253812349
20
38.219504248731056
30
0
10
57.640166519111659
20
37.947819272336275
30
0
10
57.430464124043837
20
37.674005283562181
30
0
10
57.216739168332431
20
37.397050642068812
30
0
10
56.998174542186902
20
37.116868303976965
30
0
10
56.803376899223956
20
36.870234246306616
30
0
0
SPLINE
5
207
100
AcDbEntity
8
0
100
AcDbSpline
70
0
71
3
72
14
73
10
74
0
42
0.000000001
43
0.0000000001
44
0.0000000001
40
0
40
0
40
0
40
0
40
0.039064447338691702
40
0.039064447338691702
40
0.078128894677385277
40
0.078128894677385277
40
0.10133056254144129
40
0.10133056254144129
40
0.1245322304054963
40
0.1245322304054963
40
0.1245322304054963
40
0.1245322304054963
10
57.873251565330477
20
38.254174912201371
30
0
10
57.952060582877543
20
38.357833193409462
30
8.8817841970012523e-15
10
58.009869375925248
20
38.475893598529986
30
0
10
58.076978745788324
20
38.727528124212739
30
0
10
58.085637720450379
20
38.858696481558013
30
0
10
58.058980586901541
20
39.064531227929095
30
0
10
58.040183373982657
20
39.139819016121415
30
8.8817841970012523e-15
10
57.985615016060493
20
39.284551568511702
30
0
10
57.950027620093245
20
39.353508972122036
30
0
10
57.906851201838592
20
39.417673613932237
30
0
0
ARC
5
208
100
AcDbEntity
8
0
100
AcDbCircle
10
59.566162304458452
20
40.534224850876825
30
0
40
2.0000000000000036
210
-7.882891762901768e-31
220
-1.4224562093909026e-30
230
1
100
AcDbArc
50
75.042134346480452
51
213.93662896058558
0
SPLINE
5
209
100
AcDbEntity
8
0
100
AcDbSpline
70
0
71
3
72
14
73
10
74
0
42
0.000000001
43
0.0000000001
44
0.0000000001
40
0
40
0
40
0
40
0
40
0.039064447338692909
40
0.039064447338692909
40
0.078128894677386179
40
0.078128894677386179
40
0.10212146064590767
40
0.10212146064590767
40
0.12611402661442939
40
0.12611402661442939
40
0.12611402661442939
40
0.12611402661442939
10
60.082379603817948
20
42.46645664334946
30
0
10
60.208182215656613
20
42.432847070839202
30
0
10
60.339346782835378
20
42.424130871686991
30
0
10
60.597634107513024
20
42.457466437526882
30
0
10
60.722287497410512
20
42.499199496340296
30
8.8817841970012523e-15
10
60.904926616292514
20
42.603232217159103
30
8.8817841970012523e-15
10
60.969420201948495
20
42.651009592654987
30
0
10
61.08564283241617
20
42.760902464836185
30
0
10
61.136953358145767
20
42.822622235974734
30
0
10
61.180362402678774
20
42.889791355739668
30
0
0
SPLINE
5
210
100
AcDbEntity
8
0
100
AcDbSpline
70
4
71
5
72
12
73
6
74
0
42
0.000000001
43
0.0000000001
44
0.0000000001
40
0.18674717706396579
40
0.18674717706396579
40
0.18674717706396579
40
0.18674717706396579
40
0.18674717706396579
40
0.18674717706396579
40
0.18896785953325168
40
0.18896785953325168
40
0.18896785953325168
40
0.18896785953325168
40
0.18896785953325168
40
0.18896785953325168
41
1
41
1
41
1
41
1
41
1
41
1
10
61.438386120891451
20
43.293531901057143
30
0
10
61.386518465111372
20
43.211445957727726
30
0
10
61.334771888877945
20
43.130029523842907
30
0
10
61.283157314346575
20
43.04928311077888
30
0
10
61.231684701319857
20
42.969205073805156
30
0
10
61.180362402678767
20
42.889791355739668
30
0
0
SPLINE
5
211
100
AcDbEntity
8
0
100
AcDbSpline
70
0
71
3
72
14
73
10
74
0
42
0.000000001
43
0.0000000001
44
0.0000000001
40
0
40
0
40
0
40
0
40
0.039064447338692326
40
0.039064447338692326
40
0.078128894677382668
40
0.078128894677382668
40
0.10233838218529701
40
0.10233838218529701
40
0.12654786969321058
40
0.12654786969321058
40
0.12654786969321058
40
0.12654786969321058
10
61.438386120891437
20
43.293531901057165
30
0
10
61.507942836674502
20
43.403612615985921
30
8.8817841970012523e-15
10
61.555333340886648
20
43.526226872585106
30
0
10
61.600446987412589
20
43.782719291451883
30
0
10
61.597738818676746
20
43.914145246395925
30
0
10
61.552676698857248
20
44.120188319377604
30
0
10
61.525955752188707
20
44.196647191427559
30
8.8817841970012523e-15
10
61.454721856967033
20
44.341473257107225
30
0
10
61.41047008615903
20
44.409309448674648
30
0
10
61.358549895298012
20
44.471087341671513
30
0
0
ARC
5
212
100
AcDbEntity
8
0
100
AcDbCircle
10
62.889632938092682
20
45.757860327114777
30
0
40
2.0000000000000018
210
0
220
-0
230
1
100
AcDbArc
50
82.007981766036124
51
220.04480776055587
0
SPLINE
5
213
100
AcDbEntity
8
0
100
AcDbSpline
70
0
71
3
72
14
73
10
74
0
42
0.000000001
43
0.0000000001
44
0.0000000001
40
0
40
0
40
0
40
0
40
0.039064447338692868
40
0.039064447338692868
40
0.078128894677385916
40
0.078128894677385916
40
0.10168403788512692
40
0.10168403788512692
40
0.12523918109286983
40
0.12523918109286983
40
0.12523918109286983
40
0.12523918109286983
10
63.167703232591556
20
47.738435221259728
30
0
10
63.296653338679334
20
47.72033078396656
30
0
10
63.427906810655841
20
47.727586258104509
30
0
10
63.680244757657263
20
47.792000251476338
30
0
10
63.798916744374033
20
47.848542937825236
30
0
10
63.966420803688877
20
47.973087808381891
30
0
10
64.023693175321696
20
48.027195218303909
30
0
10
64.124396241108542
20
48.147688621297647
30
0
10
64.167477415925831
20
48.213656406900014
30
0
10
64.202397262776671
20
48.283980984409489
30
0
0
SPLINE
5
214
100
AcDbEntity
8
0
100
AcDbSpline
70
4
71
5
72
12
73
6
74
0
42
0.000000001
43
0.0000000001
44
0.0000000001
40
0.16041101886251855
40
0.16041101886251855
40
0.16041101886251855
40
0.16041101886251855
40
0.16041101886251855
40
0.16041101886251855
40
0.16321835044427849
40
0.16321835044427849
40
0.16321835044427849
40
0.16321835044427849
40
0.16321835044427849
40
0.16321835044427849
41
1
41
1
41
1
41
1
41
1
41
1
10
64.523680660162512
20
48.936345286435838
30
0
10
64.4596986989051
20
48.805447769657462
30
0
10
64.395578602222727
20
48.674715758650258
30
0
10
64.331320888765376
20
48.544196061636342
30
0
10
64.266926571243033
20
48.41393563095356
30
8.8817841970012523e-15
10
64.202397262776671
20
48.283980984409489
30
0
0
SPLINE
5
215
100
AcDbEntity
8
0
100
AcDbSpline
70
0
71
3
72
14
73
10
74
0
42
0.000000001
43
0.0000000001
44
0.0000000001
40
0
40
0
40
0
40
0
40
0.039064447338692625
40
0.039064447338692625
40
0.078128894677385374
40
0.078128894677385374
40
0.10107661098228771
40
0.10107661098228771
40
0.12402432728718962
40
0.12402432728718962
40
0.12402432728718962
40
0.12402432728718962
10
64.523680660162512
20
48.936345286435838
30
0
10
64.580863400016113
20
49.053332613837519
30
0
10
64.614649215256833
20
49.180370539274662
30
0
10
64.631623592051113
20
49.440246418439024
30
0
10
64.614649869310753
20
49.570599817118108
30
0
10
64.548804395561646
20
49.766539208613636
30
0
10
64.516198982123441
20
49.836012359761675
30
0
10
64.435790179525682
20
49.966161374197384
30
0
10
64.388251652784319
20
50.026408533393266
30
0
10
64.334312388163795
20
50.080645431402331
30
8.8817841970012523e-15
0
ARC
5
216
100
AcDbEntity
8
0
100
AcDbCircle
10
65.752411617431676
20
51.490962621239397
30
0
40
2.0000000000000075
210
-3.7175799877842802e-31
220
-1.5459288298545134e-30
230
1
100
AcDbArc
50
83.60352583647169
51
224.84235811697542
0
SPLINE
5
217
100
AcDbEntity
8
0
100
AcDbSpline
70
0
71
3
72
14
73
10
74
0
42
0.000000001
43
0.0000000001
44
0.0000000001
40
0
40
0
40
0
40
0
40
0.039064447338692236
40
0.039064447338692236
40
0.078128894677384902
40
0.078128894677384902
40
0.10033688642310624
40
0.10033688642310624
40
0.12254487816882516
40
0.12254487816882516
40
0.12254487816882516
40
0.12254487816882516
10
65.975227173524445
20
53.4785121748262
30
8.8817841970012523e-15
10
66.104631381639663
20
53.464005230564162
30
8.8817841970012523e-15
10
66.235631943795411
20
53.47491249996277
30
8.8817841970012523e-15
10
66.486078518529752
20
53.546327591104863
30
0
10
66.603130125349963
20
53.606152645652799
30
0
10
66.763573868829582
20
53.732534529788659
30
0
10
66.816460405673553
20
53.784657145802612
30
0
10
66.909756192839779
20
53.899616570443804
30
0
10
66.949877639916153
20
53.96209874681422
30
0
10
66.982734582878606
20
54.028433990865643
30
0
0
SPLINE
5
218
100
AcDbEntity
8
0
100
AcDbSpline
70
4
71
5
72
25
73
19
74
0
42
0.000000001
43
0.0000000001
44
0.0000000001
40
0.0074676005111751686
40
0.0074676005111751686
40
0.0074676005111751686
40
0.0074676005111751686
40
0.0074676005111751686
40
0.0074676005111751686
40
0.010526315789473684
40
0.021052631578947368
40
0.031578947368421054
40
0.042105263157894736
40
0.052631578947368418
40
0.063157894736842107
40
0.073684210526315796
40
0.084210526315789486
40
0.094736842105263175
40
0.10526315789473686
40
0.11578947368421055
40
0.12631578947368424
40
0.13684210526315793
40
0.13808521793316417
40
0.13808521793316417
40
0.13808521793316417
40
0.13808521793316417
40
0.13808521793316417
40
0.13808521793316417
41
1
41
1
41
1
41
1
41
1
41
1
41
1
41
1
41
1
41
1
41
1
41
1
41
1
41
1
41
1
41
1
41
1
41
1
41
1
10
74.445091148320344
20
86.704541539969156
30
0
10
74.439109122363391
20
86.498518207094506
30
0
10
74.409948914328666
20
85.583759018763374
30
0
10
74.337934742788306
20
83.962738397448391
30
0
10
74.185085093504554
20
81.645273083681957
30
0
10
73.90517305379052
20
78.669984088494218
30
0
10
73.49335142419848
20
75.330769406756517
30
0
10
73.024722138659556
20
72.184629346731967
30
0
10
72.522164978979944
20
69.287419157853719
30
0
10
71.996396826952818
20
66.673155420547957
30
0
10
71.439808277881639
20
64.342775027758861
30
8.8817841970012523e-15
10
70.819925849453526
20
62.249379599613832
30
0
10
70.093586313260317
20
60.312129165980998
30
0
10
69.231301977815335
20
58.423833673815871
30
0
10
68.400376599749919
20
56.821072854015739
30
0
10
67.727822276827638
20
55.517876646197564
30
0
10
67.259235670835238
20
54.58595301574303
30
0
10
67.009175996051582
20
54.081816851160916
30
0
10
66.982734582878592
20
54.028433990865643
30
0
0
LINE
5
219
100
AcDbEntity
8
0
100
AcDbLine
10
74.445091148320344
20
86.704541539969156
30
0
11
74.482793156163254
21
89.222053107447351
31
0
0
ENDSEC
0
SECTION
2
OBJECTS
0
DICTIONARY
5
C
100
AcDbDictionary
3
ACAD_GROUP
350
D
3
ACAD_MLINESTYLE
350
17
0
DICTIONARY
5
D
100
AcDbDictionary
0
DICTIONARY
5
1A
330
C
100
AcDbDictionary
0
DICTIONARY
5
17
100
AcDbDictionary
0
ENDSEC
0
EOF
